<?xml version="1.0" encoding="UTF-8" standalone="no"?>
<!-- Created with Inkscape (http://www.inkscape.org/) -->

<svg
   width="64"
   height="64"
   viewBox="0 0 16.933333 16.933333"
   version="1.1"
   id="svg1"
   inkscape:version="1.4 (86a8ad7, 2024-10-11)"
   sodipodi:docname="character_2.svg"
   xmlns:inkscape="http://www.inkscape.org/namespaces/inkscape"
   xmlns:sodipodi="http://sodipodi.sourceforge.net/DTD/sodipodi-0.dtd"
   xmlns="http://www.w3.org/2000/svg"
   xmlns:svg="http://www.w3.org/2000/svg">
  <sodipodi:namedview
     id="namedview1"
     pagecolor="#ffffff"
     bordercolor="#000000"
     borderopacity="0.25"
     inkscape:showpageshadow="2"
     inkscape:pageopacity="0.0"
     inkscape:pagecheckerboard="true"
     inkscape:deskcolor="#d1d1d1"
     inkscape:document-units="px"
     inkscape:zoom="5.751347"
     inkscape:cx="50.42297"
     inkscape:cy="36.947866"
     inkscape:window-width="1920"
     inkscape:window-height="1009"
     inkscape:window-x="1912"
     inkscape:window-y="-8"
     inkscape:window-maximized="1"
     inkscape:current-layer="layer1" />
  <defs
     id="defs1" />
  <g
     inkscape:label="Layer 1"
     inkscape:groupmode="layer"
     id="layer1">
    <g
       id="g63"
       transform="matrix(0.26458333,0,0,0.26458333,-33.833325,-25.558003)">
      <g
         id="use60" />
      <g
         id="use61">
        <g
           id="g1"
           transform="translate(-26.187318,38.876295)">
          <path
             fill="#ffffff"
             stroke="none"
             d="M 200.1,75.85 C 196.23333,71.95 191.51667,70 185.95,70 c -5.5,0 -10.2,1.95 -14.1,5.85 -3.9,3.866667 -5.85,8.566667 -5.85,14.1 0,5.566667 1.95,10.28333 5.85,14.15 3.9,3.93333 8.6,5.9 14.1,5.9 5.56667,0 10.28333,-1.96667 14.15,-5.9 1.06667,-1 1.96667,-2.08333 2.7,-3.25 2.13333,-3.166667 3.2,-6.8 3.2,-10.9 0,-4.066667 -1.06667,-7.683333 -3.2,-10.85 -0.73333,-1.166667 -1.63333,-2.25 -2.7,-3.25"
             id="path13"
             sodipodi:nodetypes="cscscsccscc"
             transform="translate(-3.230827e-6)" />
          <path
             fill="#2a2a2a"
             stroke="none"
             d="m 168.62654,78.543384 c -0.25177,0.903015 -0.66984,2.187079 -1.2542,3.852203 -0.59515,1.680787 -0.99928,3.097461 -1.2124,4.250012 -0.17048,1.097271 -0.31548,2.268845 -0.43499,3.514723 -0.10038,1.221092 -0.12503,2.581118 -0.0739,4.080078 0.0505,1.530715 0.33991,3.008561 0.86819,4.433537 l 0.055,0.0445 c 0.58006,1.397023 1.45224,2.679553 2.61651,3.847573 l 0.0497,-0.005 c 1.12409,1.03975 2.142,1.95504 3.05375,2.74584 l 0.0549,0.0445 c 0.97319,0.73641 1.9702,1.45279 2.99103,2.14912 l 0.0497,-0.005 c 1.08577,0.65782 2.45879,1.2844 4.11905,1.87974 1.71411,0.56586 3.15696,0.9002 4.32855,1.00304 1.11439,0.068 2.3008,0.19468 3.55923,0.38004 1.43171,0.16479 2.92523,0.0246 4.48057,-0.42065 1.52492,-0.45315 2.92168,-1.03568 4.19029,-1.74758 l -0.005,-0.0497 c 1.26736,-0.76728 2.35621,-1.56882 3.26654,-2.40462 l 0.005,0.0497 c 0.92852,-0.81847 1.9441,-1.67934 3.04673,-2.58261 1.19613,-1.024 2.8217,-2.81035 2.8217,-2.81035 v 0 l 1.49238,-3.977784 v 0 c 0,0 0.25817,-3.067098 0.0582,-4.229257 -0.17241,-1.026269 -0.22197,-2.294707 -0.14857,-3.805315 0.16545,-1.816566 0.0287,-3.276943 -0.4102,-4.381123 -0.3444,-1.065668 -0.87461,-2.283588 -1.59064,-3.653749 -0.67449,-1.397301 -2.0643,-3.855341 -2.0643,-3.855341 v 0 l -2.70297,-3.235185 v 0 l -3.54325,-2.141361 v 0 c 0,0 -2.71539,-1.059991 -4.10083,-1.228074 -1.21915,-0.208999 -2.4195,-0.468279 -3.60104,-0.77785 -1.21386,-0.385379 -2.64451,-0.6037 -4.29197,-0.654955 -2.04242,-0.425822 -3.21668,-0.118062 -3.52279,0.92329 -0.23312,0.237257 -0.92843,0.477916 -2.08596,0.721997 -1.79825,0.378714 -3.27008,1.203751 -4.41547,2.475101 l 0.0497,-0.0052 c -0.92375,0.995893 -1.94281,1.823618 -3.05719,2.483166 l -0.0497,0.0052 c -1.41184,0.841377 -2.27566,1.870648 -2.59144,3.087794 m -0.46979,8.445371 c 0.19029,-1.068322 0.55514,-2.380318 1.09458,-3.935976 0.60235,-1.710614 1.03351,-3.029578 1.29348,-3.956881 0.24771,-0.752405 0.81659,-1.398751 1.70666,-1.939018 l 0.005,0.04973 c 1.28301,-0.765384 3.51786,-2.883513 3.51786,-2.883513 v 0 c 0,0 1.97467,-1.570351 3.32404,-1.857632 2.06447,-0.430655 3.22395,-1.038514 3.47843,-1.823586 0.12935,-0.03873 0.58908,0.03029 1.37919,0.20697 0.0846,0.01403 0.15266,0.02367 0.20413,0.02882 1.49713,0.02855 2.78996,0.211087 3.87849,0.547588 1.26625,0.338243 3.86012,0.85117 3.86012,0.85117 v 0 c 0,0 2.37702,0.480205 3.52771,1.036934 l 0.0549,0.0445 c 1.20265,0.509108 2.22236,1.12255 3.05913,1.840316 l 0.0497,-0.0052 c 0.85425,0.700877 1.58515,1.596041 2.19273,2.68551 l 0.055,0.0445 c 0.6795,1.128516 1.3458,2.365645 1.9989,3.71139 0.6654,1.289721 1.47027,3.465298 1.47027,3.465298 v 0 c 0,0 0.44781,2.070655 0.32135,3.535779 -0.093,1.690997 -0.0444,3.110349 0.14589,4.258077 0.16169,1.003566 0.13795,2.212672 -0.0712,3.627316 -0.16505,1.289688 -0.52812,2.299833 -1.0892,3.030453 l 0.0497,-0.0052 c -0.62046,0.762388 -1.47028,1.605838 -2.54947,2.530358 -1.12032,0.90565 -3.09646,2.58784 -3.09646,2.58784 v 0 c 0,0 -1.82942,1.47993 -2.9891,2.17436 l 0.0497,-0.005 c -1.13599,0.64703 -2.38705,1.18072 -3.7532,1.60109 -1.27651,0.35517 -2.50483,0.46751 -3.68496,0.33703 -1.29406,-0.18306 -2.51362,-0.30626 -3.65867,-0.36959 -1.02849,-0.10152 -2.30036,-0.40356 -3.81562,-0.90612 -1.49466,-0.54074 -2.74294,-1.09665 -3.74484,-1.6677 l -0.005,-0.0497 c -0.96214,-0.63744 -2.82618,-2.01563 -2.82618,-2.01563 v 0 l -2.99356,-2.65161 v 0 l -2.19004,-3.138275 v 0 c 0,0 -0.7039,-2.484301 -0.75052,-3.792324 -0.0533,-1.406046 -0.0365,-2.681446 0.0503,-3.826221 0.12675,-1.193225 0.27697,-2.315074 0.45067,-3.365545"
             id="path9"
             sodipodi:nodetypes="ccccccccccccccccccccccssssccccsssssscccccccccccccccsscccccsscccccccssccccccssccccccccssssssccc" />
        </g>
      </g>
      <g
         id="use62" />
      <g
         id="use63" />
    </g>
  </g>
</svg>
