<?xml version="1.0" encoding="UTF-8" standalone="no"?>
<!-- Created with Inkscape (http://www.inkscape.org/) -->

<svg
   width="64"
   height="64"
   viewBox="0 0 16.933333 16.933333"
   version="1.1"
   id="svg1"
   inkscape:version="1.4 (86a8ad7, 2024-10-11)"
   sodipodi:docname="character_4.svg"
   xmlns:inkscape="http://www.inkscape.org/namespaces/inkscape"
   xmlns:sodipodi="http://sodipodi.sourceforge.net/DTD/sodipodi-0.dtd"
   xmlns="http://www.w3.org/2000/svg"
   xmlns:svg="http://www.w3.org/2000/svg">
  <sodipodi:namedview
     id="namedview1"
     pagecolor="#ffffff"
     bordercolor="#000000"
     borderopacity="0.25"
     inkscape:showpageshadow="2"
     inkscape:pageopacity="0.0"
     inkscape:pagecheckerboard="true"
     inkscape:deskcolor="#d1d1d1"
     inkscape:document-units="px"
     inkscape:zoom="5.751347"
     inkscape:cx="50.42297"
     inkscape:cy="36.947866"
     inkscape:window-width="1920"
     inkscape:window-height="1009"
     inkscape:window-x="1912"
     inkscape:window-y="-8"
     inkscape:window-maximized="1"
     inkscape:current-layer="layer1" />
  <defs
     id="defs1" />
  <g
     inkscape:label="Layer 1"
     inkscape:groupmode="layer"
     id="layer1">
    <g
       id="g63"
       transform="matrix(0.26458333,0,0,0.26458333,-33.833325,-25.558003)">
      <g
         id="use60" />
      <g
         id="use61">
        <g
           id="g1"
           transform="translate(-26.187318,38.876295)" />
      </g>
      <g
         id="use62" />
      <g
         id="use63" />
    </g>
    <g
       id="use599"
       transform="matrix(0.26458333,0,0,0.26458333,8.4306186,8.4764077)">
      <g
         id="g3">
        <path
           fill="#ffffff"
           stroke="none"
           d="M 200.1,75.85 C 196.23333,71.95 191.51667,70 185.95,70 c -5.5,0 -10.2,1.95 -14.1,5.85 -3.9,3.866667 -5.85,8.566667 -5.85,14.1 0,5.566667 1.95,10.28333 5.85,14.15 3.9,3.93333 8.6,5.9 14.1,5.9 5.56667,0 10.28333,-1.96667 14.15,-5.9 1.06667,-1 1.96667,-2.08333 2.7,-3.25 2.13333,-3.166667 3.2,-6.8 3.2,-10.9 0,-4.066667 -1.06667,-7.683333 -3.2,-10.85 -0.73333,-1.166667 -1.63333,-2.25 -2.7,-3.25"
           id="path13"
           sodipodi:nodetypes="cscscsccscc"
           transform="translate(-185.92506,-89.757699)" />
        <path
           fill="#2a2a2a"
           stroke="none"
           d="m 19.527057,7.0787918 0.0121,-0.048515 q 1.361421,-1.5714219 1.586023,-4.0877294 v 0 q 0.138832,-2.33780946 -0.0878,-4.6081222 l 0.0121,-0.048515 q -0.29083,-2.4350731 -1.154867,-4.4619259 -0.754593,-1.7731125 -0.947799,-3.0189696 l -0.04851,-0.012096 q -0.273072,-1.543955 -1.55469,-3.891714 -1.362384,-2.496119 -3.409957,-3.684385 v 0 q -2.0172,-1.249536 -4.0634071,-1.476898 v 0 q -1.7292235,-0.25622 -3.5054215,-1.234714 v 0 q -2.2653799,-1.335971 -4.2694316,-1.270612 -1.76383256,-0.002 -4.0381713,0.07532 v 0 q -2.502539,-0.02551 -4.8378177,1.215738 -2.1379771,1.099016 -3.1883149,1.627006 l 0.060611,-0.03642 q -1.1226178,0.465081 -3.0791888,1.602684 l 0.0121,-0.04852 q -2.340265,1.222496 -3.247361,4.137287 -0.647801,2.075843 -2.023178,3.1542437 l -0.0121,0.048515 q -2.163988,1.4665306 -1.876981,4.221308 0.03454,0.3079322 0.218642,0.5698205 -0.06349,0.054421 -0.193928,0.1577709 -1.57848,1.1841653 -0.810047,3.8689564 0.509513,1.8696183 0.827098,3.9164279 l 0.0121,-0.048515 q 0.237794,2.1641965 0.900067,4.243805 0.6732,2.0567697 2.270185,3.9155146 l -0.0121,0.04852 q 1.438665,1.621805 2.742585,3.054215 l 0.04852,0.0121 q 1.36446,1.435024 3.36079,2.641513 1.9601305,1.193438 3.893931,1.949949 v 0 q 1.8882346,0.688184 3.9296977,0.979784 1.96334094,0.277958 4.1596539,0.264158 l 0.060611,-0.03642 q 2.1581291,-0.09397 3.5651196,-0.244791 l 0.048515,0.0121 q 1.4599699,-0.269655 3.9887437,-1.530498 l 0.048515,0.0121 q 2.3483807,-1.272003 4.0730247,-2.488567 l 0.04852,0.0121 q 1.700694,-1.262592 3.296528,-3.094415 1.677865,-2.004207 1.949949,-3.8939309 0.217496,-1.3922544 1.235367,-2.4746453 M 1.1987695,18.792732 v 0 q -2.03577544,0.01337 -3.8564691,-0.240096 -1.8395062,-0.263589 -3.5415794,-0.883015 -1.7411442,-0.679088 -3.530005,-1.756151 -1.764461,-1.070777 -2.972541,-2.338589 l -0.0121,0.04852 q -1.280706,-1.427829 -2.694071,-3.042119 v 0 Q -16.723589,9.03424 -17.277571,7.3324821 -17.891174,5.4355023 -18.116766,3.4645689 v 0 q -0.327858,-2.1848401 -0.863648,-4.18319401 -0.375371,-1.21196719 0.132275,-1.77059409 0.84643,-0.7185262 0.969252,-1.40732 0.172529,-0.7122303 -0.23126,-1.3459267 -0.08131,-1.3886549 1.005149,-2.1713301 l 0.04851,0.012096 q 1.879646,-1.430539 2.750117,-4.2097341 0.641986,-2.058169 2.277978,-2.936122 v 0 q 1.837864,-1.059509 2.8973566,-1.493427 0.026997,-0.0066 0.048515,0.0121 1.0711734,-0.540509 3.2489258,-1.663425 1.8834684,-1.005061 3.9042015,-0.984739 l 0.048515,0.0121 q 2.24903956,-0.08318 3.9896566,-0.08741 1.5251586,-0.03379 3.2627172,0.968079 l -0.012096,0.04851 q 2.1536785,1.182514 4.2210472,1.46467 l 0.048515,0.0121 q 1.6287019,0.178219 3.2628479,1.174234 l 0.04851,0.0121 q 1.591819,0.955872 2.669748,2.932992 1.086047,2.004306 1.336048,3.321894 l 0.0121,-0.048515 q 0.220989,1.4339475 1.093604,3.4675684 0.76336,1.7799278 1.033254,3.9162975 l -0.04851,-0.012096 q 0.225023,2.11934473 0.111864,4.3049374 -0.179502,1.7727082 -1.138076,2.911148 l 0.04852,0.012096 q -1.442202,1.5506773 -1.756151,3.5300049 -0.234981,1.3848756 -1.489776,2.8749906 -1.433666,1.638353 -2.957185,2.766777 v 0 q -1.644685,1.138068 -3.8790961,2.330796 v 0 Q 5.801666,18.306881 4.5577338,18.548071 l 0.048515,0.0121 q -1.3456517,0.142157 -3.4074791,0.232564 z"
           id="path3" />
      </g>
    </g>
  </g>
</svg>
