<?xml version="1.0" encoding="UTF-8" standalone="no"?>
<!-- Created with Inkscape (http://www.inkscape.org/) -->

<svg
   width="64"
   height="64"
   viewBox="0 0 16.933333 16.933333"
   version="1.1"
   id="svg1"
   inkscape:version="1.4 (86a8ad7, 2024-10-11)"
   sodipodi:docname="character_1.svg"
   xmlns:inkscape="http://www.inkscape.org/namespaces/inkscape"
   xmlns:sodipodi="http://sodipodi.sourceforge.net/DTD/sodipodi-0.dtd"
   xmlns="http://www.w3.org/2000/svg"
   xmlns:svg="http://www.w3.org/2000/svg">
  <sodipodi:namedview
     id="namedview1"
     pagecolor="#ffffff"
     bordercolor="#000000"
     borderopacity="0.25"
     inkscape:showpageshadow="2"
     inkscape:pageopacity="0.0"
     inkscape:pagecheckerboard="true"
     inkscape:deskcolor="#d1d1d1"
     inkscape:document-units="px"
     inkscape:zoom="5.751347"
     inkscape:cx="72.070073"
     inkscape:cy="40.773057"
     inkscape:window-width="1920"
     inkscape:window-height="1009"
     inkscape:window-x="1912"
     inkscape:window-y="-8"
     inkscape:window-maximized="1"
     inkscape:current-layer="layer1" />
  <defs
     id="defs1" />
  <g
     inkscape:label="Layer 1"
     inkscape:groupmode="layer"
     id="layer1">
    <g
       id="g63"
       transform="matrix(0.26458333,0,0,0.26458333,-17.549745,-15.884049)">
      <g
         id="use60" />
      <g
         id="use61">
        <g
           id="g1"
           transform="translate(8.2412138,2.4979076)">
          <path
             fill="#ffffff"
             stroke="none"
             d="M 104.1,75.85 C 100.23333,71.95 95.516667,70 89.95,70 c -5.5,0 -10.2,1.95 -14.1,5.85 -3.9,3.866667 -5.85,8.566667 -5.85,14.1 0,5.566667 1.95,10.28333 5.85,14.15 3.9,3.93333 8.6,5.9 14.1,5.9 5.566667,0 10.28333,-1.96667 14.15,-5.9 1.06667,-1 1.96667,-2.08333 2.7,-3.25 2.13333,-3.166667 3.2,-6.8 3.2,-10.9 0,-4.066667 -1.06667,-7.683333 -3.2,-10.85 -0.73333,-1.166667 -1.63333,-2.25 -2.7,-3.25"
             id="path13"
             sodipodi:nodetypes="cscscsccscc" />
          <path
             fill="#2a2a2a"
             stroke="none"
             d="m 103.5,74 -0.05,-0.05 c -0.68021,-0.88737 -1.84687,-1.720703 -3.5,-2.5 -1.441537,-0.7 -2.77487,-1.35 -4,-1.95 H 95.9 c -1.316276,-0.635547 -2.816276,-0.935547 -4.5,-0.9 -1.546875,0.03268 -3.163541,0.33268 -4.85,0.9 v 0 c -1.473177,0.550261 -2.689844,0.916927 -3.65,1.1 h -0.05 c -0.988542,0.2625 -2.071875,0.6125 -3.25,1.05 -1.313802,0.514844 -2.413802,1.381511 -3.3,2.6 h -0.05 c -0.676302,1.007031 -1.526302,1.840365 -2.55,2.5 v 0 c -1.327995,0.875261 -2.177995,2.275261 -2.55,4.2 V 81 c -0.245443,1.600651 -0.578776,3.000651 -1,4.2 v 0.05 c -0.399479,1.280078 -0.749479,2.330078 -1.05,3.15 v 0.05 c -0.331641,0.939974 -0.298307,2.406641 0.1,4.4 v 0 c 0.424479,1.868489 0.841146,3.368489 1.25,4.5 0.399739,1.091537 0.783073,2.17487 1.15,3.25 0.450391,1.32735 1.383724,2.52735 2.8,3.6 1.214583,0.91589 2.297917,1.78255 3.25,2.6 v 0 c 1.090755,0.92656 2.290755,1.62656 3.6,2.1 v -0.05 c 1.230859,0.49987 2.580859,0.91653 4.05,1.25 1.592709,0.42135 2.992709,0.48802 4.2,0.2 1.071224,-0.16393 2.187891,-0.19727 3.35,-0.1 1.392578,0.11537 2.975911,-0.11797 4.75,-0.7 1.702213,-0.52513 2.98555,-1.02513 3.85,-1.5 l -0.05,0.05 c 0.92604,-0.42787 1.97604,-1.24453 3.15,-2.45 h 0.05 c 1.21445,-1.14505 2.19779,-2.51172 2.95,-4.1 0.69831,-1.44492 1.26497,-2.694922 1.7,-3.75 0.008,-2.61e-4 0.008,-0.01693 0,-0.05 0.50547,-1.048828 0.85547,-2.148828 1.05,-3.3 v 0.05 c 0.25911,-1.082813 0.49245,-2.549479 0.7,-4.4 0.46237,-1.660156 0.3957,-2.743489 -0.2,-3.25 v 0.05 c -0.22149,-0.317448 -0.52149,-1.100781 -0.9,-2.35 -0.4388,-1.431901 -1.00547,-2.931901 -1.7,-4.5 v 0 c -0.68802,-1.688542 -1.53802,-2.955209 -2.55,-3.8 L 105.6,76.15 C 104.78503,75.48763 104.08503,74.770963 103.5,74 M 83.3,72.55 c 1.051953,-0.188021 2.36862,-0.571354 3.95,-1.15 H 87.2 c 1.480208,-0.499349 2.896875,-0.766015 4.25,-0.8 1.349609,-0.03125 2.549609,0.202087 3.6,0.7 1.249739,0.59987 2.599739,1.24987 4.05,1.95 1.29661,0.6125 2.22995,1.2625 2.8,1.95 v 0 c 0.68541,0.895313 1.50208,1.728646 2.45,2.5 v 0 c 0.79427,0.703646 1.46094,1.720313 2,3.05 v 0.05 c 0.67213,1.498437 1.22213,2.931771 1.65,4.3 0.48828,1.617708 0.90495,2.617708 1.25,3 0.0258,0.03347 0.0425,0.05013 0.05,0.05 0.0544,0.229037 -0.0289,0.729037 -0.25,1.5 -0.0215,0.07604 -0.0381,0.142708 -0.05,0.2 -0.19258,1.749349 -0.40925,3.132682 -0.65,4.15 v 0.05 c -0.16875,0.997396 -0.46875,1.947396 -0.9,2.85 -0.008,0.03425 -0.0247,0.05091 -0.05,0.05 -0.41003,1.035807 -0.96003,2.269141 -1.65,3.7 -0.64245,1.36732 -1.49245,2.53399 -2.55,3.5 v 0.05 c -0.99909,0.99753 -1.88242,1.68086 -2.65,2.05 v 0 c -0.802344,0.425 -1.985677,0.875 -3.55,1.35 -1.492578,0.48451 -2.825911,0.68451 -4,0.6 -1.338151,-0.10273 -2.621485,-0.0527 -3.85,0.15 v 0 c -0.969792,0.20925 -2.086459,0.14258 -3.35,-0.2 h -0.05 c -1.36263,-0.30261 -2.629297,-0.68594 -3.8,-1.15 v 0 c -1.090885,-0.39349 -2.090885,-0.97682 -3,-1.75 v 0.05 c -0.98125,-0.84935 -2.097917,-1.74935 -3.35,-2.7 -1.050391,-0.79414 -1.750391,-1.67747 -2.1,-2.65 -0.366537,-1.091797 -0.74987,-2.191797 -1.15,-3.3 C 71.958985,95.58138 71.558985,94.164713 71.15,92.4 70.849089,90.889323 70.799089,89.772656 71,89.05 v 0.05 c 0.299349,-0.846615 0.649349,-1.929948 1.05,-3.25 v 0 c 0.453776,-1.300651 0.820443,-2.817318 1.1,-4.55 H 73.1 c 0.261328,-1.308854 0.827995,-2.275521 1.7,-2.9 v 0.05 c 1.242839,-0.807161 2.276172,-1.823828 3.1,-3.05 v 0 c 0.647005,-0.881511 1.447005,-1.514844 2.4,-1.9 1.088541,-0.395963 2.088541,-0.71263 3,-0.95"
             id="path9"
             sodipodi:nodetypes="cccccssscccccssccccccsscccsscccccccccccccccccccsscccccccccssssccccccccccccccssccssccssccccccccssccccsscc" />
        </g>
      </g>
      <g
         id="use62" />
      <g
         id="use63" />
    </g>
  </g>
</svg>
