<?xml version="1.0" encoding="UTF-8" standalone="no"?>
<!-- Created with Inkscape (http://www.inkscape.org/) -->

<svg
   width="32"
   height="32"
   viewBox="0 0 8.4666665 8.4666666"
   version="1.1"
   id="svg1"
   inkscape:version="1.4 (86a8ad7, 2024-10-11)"
   sodipodi:docname="hand_1.svg"
   xmlns:inkscape="http://www.inkscape.org/namespaces/inkscape"
   xmlns:sodipodi="http://sodipodi.sourceforge.net/DTD/sodipodi-0.dtd"
   xmlns="http://www.w3.org/2000/svg"
   xmlns:svg="http://www.w3.org/2000/svg">
  <sodipodi:namedview
     id="namedview1"
     pagecolor="#ffffff"
     bordercolor="#000000"
     borderopacity="0.25"
     inkscape:showpageshadow="2"
     inkscape:pageopacity="0.0"
     inkscape:pagecheckerboard="true"
     inkscape:deskcolor="#d1d1d1"
     inkscape:document-units="px"
     inkscape:zoom="22.627417"
     inkscape:cx="12.838407"
     inkscape:cy="13.589708"
     inkscape:window-width="1920"
     inkscape:window-height="1009"
     inkscape:window-x="1912"
     inkscape:window-y="-8"
     inkscape:window-maximized="1"
     inkscape:current-layer="layer1" />
  <defs
     id="defs1" />
  <g
     inkscape:label="Layer 1"
     inkscape:groupmode="layer"
     id="layer1">
    <g
       id="use60"
       transform="matrix(0.26458333,0,0,0.26458333,-35.454166,-19.579166)">
      <path
         fill="#ffb600"
         stroke="none"
         d="m 158,90.1 c 0,-2.266667 -0.75,-4.166667 -2.25,-5.7 -1.6,-1.6 -3.46667,-2.4 -5.6,-2.4 -2.26667,0 -4.18333,0.8 -5.75,2.4 -1.6,1.533333 -2.4,3.433333 -2.4,5.7 0,2.133333 0.8,4 2.4,5.6 1.56667,1.533333 3.48333,2.3 5.75,2.3 2.13333,0 4,-0.766667 5.6,-2.3 1.5,-1.6 2.25,-3.466667 2.25,-5.6"
         id="path117"
         sodipodi:nodetypes="ccscscscc"
         style="fill:#ffffff;fill-opacity:1" />
    </g>
    <g
       id="use61"
       transform="matrix(0.26458333,0,0,0.26458333,-35.535433,-19.668229)">
      <g
         id="g1">
        <path
           fill="#2a2a2a"
           stroke="none"
           d="m 152.65,82 v 0 c 0,0 -2.8543,-0.170703 -4.1,-0.1 h -0.05 c -1.37604,0.111979 -2.70937,0.661979 -4,1.65 -1.24063,1.003776 -2.10729,2.220443 -2.6,3.65 v 0.05 c -0.4362,1.376302 -0.6362,2.726302 -0.6,4.05 v 0.05 c 0.0741,1.433985 0.50742,2.783985 1.3,4.05 0.89323,1.445443 2.20989,2.278776 3.95,2.5 1.40925,0.193489 2.85925,0.460156 4.35,0.8 2.02383,0.486589 4.55,-1.15 4.55,-1.15 v 0 c 0,0 1.64284,-2.084505 2.25,-3.3 0.60456,-1.217578 1.02123,-2.550911 1.25,-4 v 0.1 c 0.50742,-1.971875 0.49075,-3.171875 -0.05,-3.6 -0.26511,-0.276302 -0.89844,-1.042969 -1.9,-2.3 -1.15664,-1.439844 -2.60664,-2.256511 -4.35,-2.45 m -0.2,2 c 1.19544,0.146745 2.19544,0.713411 3,1.7 1.03177,1.309505 1.68177,2.109505 1.95,2.4 -0.003,0.187761 -0.136,0.771094 -0.4,1.75 0.0157,0.02669 0.0157,0.04336 0,0.05 -0.20456,1.250651 -0.57123,2.400651 -1.1,3.45 -0.52617,1.051302 -1.17617,2.001302 -1.95,2.85 v 0.05 c -0.58959,0.613541 -1.45625,0.780208 -2.6,0.5 -1.54284,-0.360287 -3.04284,-0.64362 -4.5,-0.85 h -0.05 c -1.09739,-0.119011 -1.93073,-0.635677 -2.5,-1.55 -0.60755,-0.967448 -0.94089,-2.000781 -1,-3.1 -0.0276,-1.118359 0.5,-3.4 0.5,-3.4 v 0 c 0,0 1.02383,-1.987239 1.95,-2.75 0.94271,-0.711979 1.90937,-1.111979 2.9,-1.2 1.16419,-0.06172 2.43086,-0.02839 3.8,0.1"
           id="path120"
           sodipodi:nodetypes="csccccccccccsscccccccccccccccccccssccc" />
      </g>
    </g>
    <g
       id="use62"
       transform="matrix(0.26458333,0,0,0.26458333,-45.586607,-20.9717)" />
    <g
       id="use63"
       transform="matrix(0.26458333,0,0,0.26458333,-45.586607,-20.9717)" />
  </g>
</svg>
