<?xml version="1.0" encoding="UTF-8" standalone="no"?>
<!-- Created with Inkscape (http://www.inkscape.org/) -->

<svg
   width="64"
   height="128"
   viewBox="0 0 16.933333 33.866666"
   version="1.1"
   id="svg1"
   inkscape:version="1.4 (86a8ad7, 2024-10-11)"
   sodipodi:docname="stone.svg"
   xmlns:inkscape="http://www.inkscape.org/namespaces/inkscape"
   xmlns:sodipodi="http://sodipodi.sourceforge.net/DTD/sodipodi-0.dtd"
   xmlns="http://www.w3.org/2000/svg"
   xmlns:svg="http://www.w3.org/2000/svg">
  <sodipodi:namedview
     id="namedview1"
     pagecolor="#ffffff"
     bordercolor="#000000"
     borderopacity="0.25"
     inkscape:showpageshadow="2"
     inkscape:pageopacity="0.0"
     inkscape:pagecheckerboard="true"
     inkscape:deskcolor="#d1d1d1"
     inkscape:document-units="px"
     inkscape:zoom="4.2179991"
     inkscape:cx="19.914656"
     inkscape:cy="80.72548"
     inkscape:window-width="2560"
     inkscape:window-height="1494"
     inkscape:window-x="-11"
     inkscape:window-y="-11"
     inkscape:window-maximized="1"
     inkscape:current-layer="svg1" />
  <defs
     id="defs1" />
  <g
     id="g2"
     inkscape:label="Broken Concrete (1, 2)"
     transform="translate(0.07390638,0.07461216)">
    <path
       d="m 0.529166,17.4625 v 15.875 h 15.875001 c -0.213494,-5.290867 -0.07153,-10.582868 0,-15.875 z"
       id="path1308-1"
       style="fill:#ffffff;fill-opacity:1;stroke-width:0.264583"
       sodipodi:nodetypes="ccccc"
       inkscape:label="Background"
       transform="translate(-0.07390638,-0.07461216)" />
    <path
       fill="#d1d7db"
       stroke="none"
       d="m 16.366491,17.151064 h -0.02646 q -0.420024,0.01262 -0.820204,-0.06615 v 0 q -0.43444,-0.06604 -0.939266,-0.03969 h -0.01323 q -0.418885,0.03721 -0.820203,-0.05292 -0.503895,-0.10733 -1.150932,0.145521 v 0 q -0.453769,0.203296 -0.793746,0.119063 v -0.01323 Q 11.382167,17.140822 10.730894,17.04522 h -0.01323 q -0.675511,-0.08315 -1.1509317,0 h -0.013226 q -0.388243,0.09137 -1.098015,0.105844 H 8.4422622 Q 7.938213,17.042699 7.5294546,17.111377 h -0.013229 q -0.3207021,0.07752 -0.7937458,0.05292 H 6.709251 q -0.4960396,-0.01328 -0.9128077,-0.02646 -0.411549,-0.0137 -1.0186404,0.01323 h -0.013229 q -0.560738,0.03716 -1.0715567,-0.02646 -0.5840956,-0.07168 -1.0715568,0.07938 H 2.6082315 Q 2.230272,17.32677 1.6821948,17.243677 1.0414104,17.149727 0.49157618,17.151067 v 0 q -0.039119,0.0011 -0.0793746,0.01323 l -0.0529164,0.01323 q -0.0607195,0.03865 -0.10583277,0.105833 -0.0255798,0.06801 -0.0264582,0.132292 0.001138,0.03917 0.0132291,0.07938 0.13776859,0.448447 0.0793746,0.661458 v 0.01323 q -0.0824753,0.293108 -0.19843644,0.886354 v 0.01323 q -0.10216381,0.654843 0.10583277,1.084791 0.0587557,0.734685 -0.0529164,1.124479 v 0 q -0.15528683,0.515369 -0.0132291,1.137709 v 0.01323 q 0.12366109,0.438835 0,0.701146 v 0 q -0.22122568,0.412017 0.0793746,1.164166 0.20737639,0.513303 0.0132291,0.926042 0.002791,0.0064 0,0.01323 -0.0197405,0.03664 -0.0264581,0.07937 -0.00372,0.03431 0,0.06615 v 0.01323 q 0.0489373,0.381683 -0.0264582,0.515938 -0.006771,0.0069 -0.0132291,0.01323 -0.2100119,0.245255 -0.14552006,0.939271 v 0 q 0.06903944,0.586991 0.15874916,1.031875 0.0916734,0.415427 0.0661454,1.124479 -0.0268718,0.826357 0.10583277,1.256771 h -0.0132296 q 0.10795154,0.364836 0.0132291,0.727604 -0.11332573,0.498469 -0.0132291,1.164166 v 0 q 0.096066,0.547048 -0.11906185,1.018646 -0.0178275,0.05943 -0.0132291,0.119063 0.002222,0.04294 0.0132291,0.07937 l 0.0132291,0.01323 q 0.003567,0.0093 0,0.01323 0.0459918,0.08759 0.13229097,0.119063 0.0593243,0.03116 0.11906186,0.02646 0.53309121,-0.02103 0.68791291,0.01323 0.1865509,0.10413 0.7276003,0.119063 0.4848257,0.01442 1.0450985,-0.03969 0.5208958,-0.05131 1.1112441,-0.02646 h 0.013229 q 0.6391307,0.04114 1.1641604,-0.01323 0.5065813,-0.03865 1.0450987,-0.01323 0.5692127,0.02734 1.0980149,-0.01323 0.5189835,-0.02614 1.0186404,-0.02646 h 0.013229 q 0.3775976,-0.0011 0.4365602,0 0.094412,0.170635 1.0450985,0.105833 0.7752453,-0.0525 1.2699923,-0.05292 0.540534,-5.3e-4 1.005412,-0.105834 0.452478,-0.06806 1.03187,-0.07937 0.582182,-0.01138 0.912807,0.06615 h -0.01323 q 0.307989,0.09477 0.780517,0.07937 0.14583,0.04713 0.330727,-0.02646 0.02604,0.0016 0.03969,-0.01323 0.05312,-0.01143 0.07938,-0.03969 0.113636,-0.06857 0.158749,-0.07937 v 0 q 0.176886,0.06005 0.820204,0.145521 0.113275,0.01405 0.198437,-0.05292 0.0893,-0.06868 0.105832,-0.185208 0.0043,-0.02614 0,-0.06615 0.01225,-0.486534 -0.07937,-0.806979 -0.05927,-0.264067 0,-0.687917 0.09017,-0.500332 0.119061,-1.177396 0.0307,-0.716391 -0.119061,-1.11125 h -0.01323 q -0.08925,-0.279775 0.01323,-0.687916 v 0 q 0.16924,-0.550045 -0.02646,-1.362604 -0.124954,-0.600893 0.06615,-0.965729 v 0 q 0.306542,-0.495269 0.05292,-1.12448 0.133429,-0.621305 -0.02646,-0.859895 v 0 q -0.07576,-0.160095 -0.132291,-0.608542 -0.06465,-0.49072 -0.05292,-1.058333 0.01159,-0.554075 0.0926,-1.045105 0.105469,-0.506894 0.0926,-1.124479 -0.01281,-0.551698 0.01323,-1.045104 0.02672,-0.509064 0.01323,-1.084792 v -0.01323 q -5.3e-5,-0.545444 -0.01323,-1.071562 v -0.01323 q -0.0013,-0.102579 -0.07937,-0.185209 -0.05772,-0.04718 -0.132292,-0.06615 -0.02315,0.0033 -0.05292,0 m -1.759471,0.423334 v 0 q 0.450512,-0.02614 0.833434,0.02646 0.322615,0.06863 0.661454,0.07937 0.01318,0.402352 0.01323,0.820208 v 0 q 0.01281,0.564928 -0.01323,1.058334 -0.02687,0.512011 -0.01323,1.084791 0.0136,0.559811 -0.07938,1.018646 -0.09095,0.527616 -0.105833,1.124479 -0.01479,0.60973 0.05292,1.137709 0.07571,0.596707 0.198437,0.806979 v -0.01323 q 0.0385,0.104386 0,0.3175 -0.227583,-0.04449 -0.370415,-0.06615 -0.139939,-0.0097 -0.211665,0 -0.316567,0.03297 -0.29104,0.238125 -0.0244,-0.107797 -0.502706,-0.119063 -0.0077,2.07e-4 -0.02646,0 -0.0034,-2.59e-4 -0.01323,0 h -0.01323 q -0.891569,0.04656 -1.111244,-0.05292 v 0 q -0.288198,-0.173789 -1.084786,0.02646 h -0.01323 q -0.62187,0.183761 -1.005411,0.211667 -0.343388,0.0214 -0.992182,-0.15875 -0.7925571,-0.231873 -1.124473,-0.105834 v 0 q -0.1989017,0.07447 -0.6879131,0.07938 0.011988,-0.409225 -0.132291,-0.714375 v 0.01323 Q 8.465566,24.110781 8.5084049,23.68626 8.5746019,23.206496 8.667154,22.588239 8.764926,21.926212 8.7333,21.596051 v 0 Q 8.710924,21.328005 8.812675,20.722926 8.9467747,20.047723 8.825904,19.373551 8.738002,18.832912 8.812675,18.421051 v 0 q 0.0956,-0.354292 -0.013229,-0.754062 0.5443566,-0.02466 0.8731204,-0.105833 h -0.013229 q 0.4108766,-0.06243 0.9921816,0.01323 0.620889,0.09012 1.01864,0.185208 h -0.01323 q 0.4933,0.153892 1.150932,-0.132292 h -0.01323 q 0.477435,-0.183761 0.846661,-0.119062 0.468652,0.107643 0.965724,0.06615 m 1.561034,8.003646 q 0.122628,0.338275 -0.02646,0.608541 h -0.01323 q -0.29843,0.508185 -0.119062,1.349375 0.161437,0.655878 0.03969,1.098021 l -0.01323,0.01323 q -0.148881,0.597329 0.01323,1.005417 v 0 q 0.114773,0.319463 0.0926,0.899583 -0.02402,0.6458 -0.105833,1.124479 -0.08625,0.55516 0,0.899584 0.05095,0.17358 0.06615,0.410104 -0.313415,-0.04723 -0.423331,-0.07938 h 0.01323 q -0.216007,-0.111001 -0.595308,0.119062 h -0.01323 q -0.100816,-0.249275 -0.38364,-0.820196 -0.316362,-0.633759 -0.621767,-0.926042 v 0.01323 q -0.239571,-0.247737 -0.568852,-0.886354 -0.312381,-0.613502 -0.582081,-0.859896 0.04527,-0.594174 0.132291,-0.846666 0.004,1.56e-4 0,-0.01323 0.157304,-0.309335 0.15875,-0.806979 v 0 q 0.01209,-0.378013 0.07938,-0.740834 0.438421,-0.570145 0.754059,-0.926041 0.321218,-0.327938 0.489477,-0.436563 h -0.01323 q 0.161022,-0.09173 0.29104,-0.15875 0.633706,0.0047 0.859891,-0.132292 0.02511,0.0099 0.05292,0.01323 0.158336,0.01924 0.436559,0.07937 m -3.320503,1.296458 q -0.0084,0.0108 -0.01323,0.01323 -0.02299,0.04356 -0.03969,0.07938 0.0038,0.01918 0,0.02646 -0.09199,0.429276 -0.105834,0.873125 v 0.01323 q 2.65e-4,0.367212 -0.105832,0.595312 -0.0033,0.01349 -0.01323,0.01323 -0.115186,0.288097 -0.171978,1.005417 -0.699436,0.299413 -0.754058,0.436562 -0.003,0.01323 -0.01323,0.01323 -0.05902,0.06868 -0.463019,0.251355 h -0.01323 q -0.51547,0.247478 -0.978953,0.423333 v 0 q -0.4993992,0.219056 -1.0186411,0.674687 -0.2735735,0.258641 -0.555622,0.410105 -0.00434,-0.09276 0.013229,-0.17198 0.091105,-0.235077 0.1190619,-0.9525 0.030696,-0.716391 -0.1190619,-1.11125 h -0.013229 q -0.089244,-0.279775 0.013229,-0.687916 v 0 q 0.1692384,-0.55005 -0.026459,-1.362609 -0.124953,-0.600893 0.066146,-0.965729 v 0 q 0.234713,-0.379254 0.132291,-0.833438 0.5618233,-0.01643 0.7937458,-0.119062 l -0.013229,0.01323 q 0.2366252,-0.05927 0.8069753,0.105833 0.766822,0.216731 1.177389,0.185208 0.423435,-0.02506 1.111245,-0.224895 v 0 q 0.527148,-0.130691 0.714371,-0.06615 l -0.01323,-0.01323 q 0.147433,0.0987 0.542393,0.119062 -0.107384,0.109606 -0.238124,0.238125 -0.341837,0.379513 -0.806976,1.005417 l -0.01323,0.01323 m -2.460612,4.233333 h -0.01323 q 0.47573,-0.181385 1.005411,-0.436562 v 0 q 0.629933,-0.282721 0.714372,-0.463021 0.06093,-0.0386 0.515934,-0.224896 0.18557,0.195905 0.423332,0.661458 v 0 q 0.388447,0.737217 0.674683,1.018646 v 0 q 0.250269,0.250113 0.515935,0.780521 0.180865,0.360442 0.277811,0.582083 -0.125418,-0.01058 -0.238124,-0.03969 v -0.01323 q -0.383694,-0.09452 -1.058327,-0.07937 -0.624403,0.01508 -1.111244,0.0926 v 0 q -0.425141,0.09317 -0.912809,0.0926 -0.510715,-5.29e-4 -1.3096801,0.05292 -0.5762408,0.04144 -0.6349965,0.05292 -0.075706,-0.125833 -0.542393,-0.15875 -0.00434,-0.174098 -0.013229,-0.251354 0.0014,-0.115702 0,-0.515937 0.4203338,-0.188206 0.833433,-0.568855 0.4464303,-0.391088 0.8731206,-0.582083 M 3.6268713,17.653773 q 0.5577923,0.06827 1.1773895,0.02646 v 0 q 0.5858008,-0.02595 0.9789531,-0.01323 0.416665,0.01323 0.9128076,0.02646 0.5610997,0.02775 0.9392658,-0.06615 h -0.013229 q 0.2789995,-0.03902 0.6085385,0.01323 0.1422643,0.362095 0.066146,0.661458 v 0.01323 q -0.096635,0.491958 0.013229,1.150938 0.1039725,0.582549 -0.013229,1.164166 -0.1218524,0.697373 -0.092604,1.005417 v 0.01323 q 0.020256,0.285046 -0.066146,0.859896 -0.092655,0.625284 -0.1587491,1.11125 v 0.01323 q -0.062063,0.583168 0.1058328,0.965729 h 0.013229 q 0.078032,0.187688 0.079375,0.423334 -0.1841738,-0.03307 -0.3042691,-0.05292 -0.1394223,-0.01 -0.2116656,0 -0.3145526,0.03374 -0.2910401,0.238125 -0.020257,-0.09684 -0.410102,-0.119063 -0.6233695,-0.62942 -0.9128076,-0.912812 h -0.013229 q -0.3392023,-0.31409 -0.6482258,-0.436563 -0.00315,0.0034 -0.013229,0 Q 4.74535,23.538892 4.4735334,23.527523 H 4.4603043 Q 4.2697744,23.508975 3.8782241,23.223252 3.4193398,22.889887 2.9521874,22.694085 2.8562248,22.396945 2.6876054,22.191377 l -0.013229,-0.01323 q -0.1615913,-0.2173 -0.6085385,-0.635 H 2.079067 Q 1.6592499,21.14586 1.2059467,20.775856 0.86979332,20.502282 0.7561575,20.048252 0.7511965,20.011462 0.7296993,19.968872 0.57312052,19.646514 0.6503247,19.148664 H 0.6370956 q 0.10893341,-0.557745 0.18520734,-0.833438 v 0.01323 q 0.0902267,-0.231769 0.0132291,-0.635 0.36240496,0.0181 0.76728746,0.07938 0.6954059,0.102061 1.1773895,-0.06615 v 0 q 0.3856592,-0.113532 0.8466622,-0.05292 m -1.9182189,4.273021 v 0 q 0.4056578,0.382405 0.555622,0.582083 v 0 q 0.143918,0.183142 0.2116656,0.449792 0.082009,0.495887 0.1587491,1.137708 0.082837,0.708276 0.1190619,0.873125 0.00987,0.0064 0.013229,0.01323 0.024805,0.08594 0.039687,0.198438 -0.2177111,0.04863 -0.4497886,-0.05292 Q 1.8221331,24.87415 1.4572996,25.00918 v 0 Q 1.2757612,25.07776 0.8619903,25.08856 0.94472376,24.629932 0.72969934,24.096373 0.54056454,23.617591 0.63709564,23.35554 l -0.0132291,0.01323 q 0.23254263,-0.397135 0.0529164,-1.071563 v 0 q -0.10862331,-0.478316 0,-0.873125 v 0.01323 q 0.0496091,-0.156424 0.0661454,-0.357187 0.0705896,0.05715 0.13229097,0.105833 0.43299439,0.3576 0.83343309,0.740834 m 1.3625969,1.402291 q 0.2473222,0.139888 0.4894765,0.3175 0.5754657,0.419923 0.8863494,0.410104 h 0.013229 q 0.2281504,0.01947 0.7276003,0.17198 0.2303723,0.101131 0.4894766,0.330729 v 0.01323 q 0.226135,0.210066 0.6349966,0.621771 -0.3266968,0.0693 -0.410102,0.07937 h -0.013229 q -0.087902,0.0082 -0.6879129,-0.15875 -0.7925573,-0.231869 -1.1244732,-0.10583 v 0 q -0.2113555,0.0787 -0.7408293,0.07938 -0.029869,-0.152394 -0.066146,-0.264583 v 0.01323 q -0.02992,-0.152651 -0.1058325,-0.806979 -0.04408,-0.370417 -0.092604,-0.701146 m 5.1196601,2.8575 q -0.2984299,0.508185 -0.1190619,1.349375 0.1614362,0.655878 0.039688,1.098021 l -0.013229,0.01323 q -0.1488789,0.597329 0.013229,1.005417 v 0 q 0.1147727,0.319463 0.092604,0.899583 -0.024961,0.605494 -0.092604,0.806979 -0.1146177,0.28143 0.052917,0.767292 -0.013332,0.585234 -0.013229,0.687917 -0.00103,0.01638 0,0.02646 0.00666,0.06036 0.013229,0.185208 -0.3947541,0.0067 -0.7937458,0.02646 h -0.013229 q -0.493404,0.0386 -1.0318695,0.01323 -0.5727785,-0.02754 -1.1112441,0.01323 v 0 q -0.494799,0.0509 -1.0980149,0.01323 v 0 q -0.6429031,-0.0278 -1.2038477,0.02646 -0.5245646,0.05173 -0.9789531,0.03969 -0.3719133,-0.01159 -0.5027057,-0.06615 -0.010128,-0.0034 -0.026458,-0.01323 -0.1218009,-0.05751 -0.54239296,-0.06615 0.105161,-0.441523 0.0132291,-0.939271 l 0.0132291,0.01323 q -0.0851107,-0.551386 0,-0.965729 0.13012046,-0.497128 -0.0132291,-0.992187 v 0 q -0.10541923,-0.376566 -0.0793746,-1.098021 0.0273885,-0.785844 -0.0793746,-1.243542 -0.0823202,-0.428294 -0.14552005,-0.992187 -0.0408242,-0.406022 0.0396873,-0.555625 0.17249497,-0.182936 0.15874915,-0.621771 0.62481616,-0.0097 0.87312026,-0.119062 l -0.013229,0.01323 q 0.203759,-0.05033 0.5027056,0.0926 0.5307141,0.239469 1.0318695,0.01323 0.8067164,0.0082 1.098015,-0.119062 l -0.013229,0.01323 q 0.2366251,-0.05927 0.8069748,0.105833 0.8160183,0.230116 0.9524949,0.171979 0.1458302,-0.02273 0.8598913,-0.171979 0.6647621,0.0086 0.8995785,-0.132292 0.018809,0.01053 0.039688,0.01323 0.1543566,0.01913 0.4233311,0.07937 0.1231959,0.33724 -0.026458,0.608541 z"
       id="path1255"
       style="stroke-width:0.264582;fill:#e5e9ec;fill-opacity:1"
       inkscape:label="Foreground" />
  </g>
  <g
     id="g1"
     transform="translate(-2.0332499,1.1764525)"
     inkscape:label="Concrete (1, 1)">
    <path
       d="m 2.5624163,-0.6472859 0,15.8749999 H 18.437417 c -0.213494,-5.2908666 -0.07153,-10.5828684 0,-15.8749999 z"
       id="path1308"
       style="fill:#ffffff;fill-opacity:1;stroke-width:0.264583"
       sodipodi:nodetypes="ccccc"
       inkscape:label="Background" />
    <path
       d="M 2.3018945,-0.67847313 C 2.1885509,-0.28497422 2.1665022,0.014886 2.2357486,0.22111019 2.277951,0.38895392 2.2867706,0.61826035 2.262207,0.90902685 v 0.0132292 C 2.2443264,1.2597717 2.2134588,1.6037301 2.1696028,1.954131 V 1.96736 c -0.038172,0.4088976 -0.00289,0.7837249 0.1058333,1.1244791 0.084922,0.2861839 0.1069703,0.6080945 0.066146,0.9657292 -0.035622,0.4056591 -0.053261,0.8113527 -0.052917,1.2170833 v 0 c 0.00878,0.4075562 0.013195,0.7515145 0.013229,1.031875 v 0 c 0.00858,0.2889409 0.00858,0.6108515 0,0.9657291 v 0.013229 c 0.00124,0.4428331 0.027693,0.7426933 0.079375,0.8995833 0.030386,0.1332204 0.025977,0.344887 -0.013229,0.635 -0.044579,0.3656965 -0.071038,0.7405238 -0.079375,1.1244792 v 0.013229 c -6.91e-5,0.3852658 -0.00448,0.7071758 -0.013229,0.9657298 v 0.01323 c -0.00101,0.25604 -0.027464,0.586769 -0.079375,0.992188 -0.053743,0.439904 -0.080202,0.836779 -0.079375,1.190625 -2.91e-4,0.350469 0.012946,0.703246 0.039687,1.058333 v 0.01323 c 0.035795,0.345371 0.084302,0.68933 0.1455209,1.031875 -3.44e-4,0.04985 0.012877,0.09395 0.039687,0.132292 0.020153,0.03662 0.042202,0.06308 0.066146,0.07938 0.031695,0.02262 0.062563,0.03586 0.092604,0.03969 0.6150872,0.146762 0.9678651,0.195268 1.0583333,0.145521 h -0.013229 c 0.084611,-0.01929 0.2830489,-0.03252 0.5953125,-0.03969 0.37021,-0.0088 0.7582654,-0.02638 1.1641667,-0.05292 0.4291898,-0.0277 0.7907872,-0.0762 1.0847916,-0.145521 0.2701645,-0.04217 0.530338,-0.04217 0.7805208,0 0.3040642,0.07024 0.7097586,0.105524 1.2170834,0.105833 0.4695663,-7.93e-4 0.8267538,0.01675 1.0715624,0.05292 v 0 c 0.2880098,0.06718 0.6540163,0.04513 1.0980203,-0.06615 0.02959,-0.0016 0.05605,-0.0104 0.07938,-0.02646 0.162196,-0.05354 0.316536,-0.07118 0.463021,-0.05292 0.213458,0.05181 0.482451,0.08268 0.806979,0.0926 0.312367,0.01781 0.722471,0.02223 1.230313,0.01323 v 0 c 0.533059,5.3e-4 0.938755,-0.03916 1.217083,-0.119062 0.237159,-0.05519 0.510564,-0.05078 0.820208,0.01323 0.390536,0.09863 0.774182,0.138322 1.150938,0.119063 0.36635,-0.01749 0.710308,-0.04396 1.031875,-0.07938 0.295246,-0.03256 0.625975,-0.01934 0.992187,0.03969 0.0263,0.007 0.04833,0.01143 0.06615,0.01323 0.03094,0.0016 0.0574,-0.0028 0.07937,-0.01323 0.03573,-0.0016 0.06659,-0.01482 0.0926,-0.03969 0.03793,-0.01984 0.06439,-0.0463 0.07937,-0.07938 0.02307,-0.0338 0.03631,-0.07348 0.03969,-0.119063 0.03642,-0.542636 0.04083,-0.873367 0.01323,-0.992187 -0.01008,-0.08637 -0.01892,-0.289216 -0.02646,-0.608542 v -0.01323 c 6.9e-5,-0.333108 -0.0088,-0.641788 -0.02646,-0.926042 v -0.01323 c -0.01648,-0.258727 -0.0077,-0.602686 0.02646,-1.031874 0.03621,-0.441248 0.04062,-0.877811 0.01323,-1.309687 -0.02808,-0.4202333 -0.07658,-0.7994686 -0.145521,-1.1377093 v 0 c -0.05384,-0.3016541 -0.08471,-0.5971037 -0.0926,-0.8863541 -0.0047,-0.2627577 0.06581,-0.5714392 0.211667,-0.9260417 0.01884,-0.035346 0.02766,-0.070625 0.02646,-0.1058333 v -0.026458 c -0.02392,-0.3829235 -0.0063,-0.6739652 0.05292,-0.873125 v 0 c 0.08933,-0.2505631 0.08051,-0.5636525 -0.02646,-0.9392708 v 0.013229 C 18.671033,5.209249 18.684253,4.9490736 18.772213,4.679323 V 4.692552 C 18.905464,4.3378601 18.918693,3.9453957 18.811894,3.5151726 18.73276,3.177313 18.693073,2.828944 18.692832,2.4700685 v -0.9525 c 0.0011,-0.2376091 0.02752,-0.56833822 0.07938,-0.99218748 v -0.0132292 c 0.067,-0.48221105 0.04055,-0.90113378 -0.07938,-1.25677082 -0.02302,-0.064389 -0.06711,-0.11289506 -0.132292,-0.14552083 -0.03903,-0.0190235 -0.07872,-0.0278368 -0.119062,-0.0264583 h -0.01323 -0.754062 -0.727604 -0.01323 c -0.366006,0.008811 -0.749652,0.0176477 -1.150938,0.0264583 -0.368797,0.007911 -0.708345,-0.005318 -1.018646,-0.0396875 -0.317431,-0.036449 -0.701077,-0.0452676 -1.150937,-0.0264583 -0.423334,0.0264583 -0.780521,0.0485061 -1.071563,0.0661458 -0.249631,0.0151077 -0.505395,-0.0201877 -0.767291,-0.10583333 v 0 c -0.318947,-0.10424844 -0.7511,-0.0777902 -1.296459,0.079375 v 0 c -0.389399,0.0369305 -0.6716209,0.076618 -0.8466663,0.1190625 -0.00648,0.006509 -0.015296,0.0109273 -0.026458,0.0132292 -0.1320163,0.0396875 -0.3657314,0.0440981 -0.7011458,0.0132292 -0.3984943,-0.0372771 -0.7645011,-0.0372771 -1.0980209,0 -0.2927643,0.0330729 -0.6058545,0.0154252 -0.9392708,-0.0529167 h -0.013229 c -0.3682462,-0.0601848 -0.7386629,-0.0998723 -1.1112499,-0.1190625 -0.3527777,-0.0176477 -0.7187848,-0.0352769 -1.0980209,-0.0529167 -0.4007334,-0.0174625 -0.77115,1.7727e-4 -1.1112499,0.0529167 -0.2903527,0.0519192 -0.6034429,0.0607378 -0.9392709,0.0264583 -0.055604,-0.005345 -0.1085204,0.003466 -0.15875,0.0264583 -0.00989,0.012409 -0.023117,0.0212196 -0.039687,0.0264583 l -0.026458,0.0396875 c -0.037552,0.0404098 -0.0596,0.0889185 -0.066146,0.14552083 m 0.4630208,0.30427083 c 0.3035819,0.0161131 0.5902137,-0.001588 0.8598958,-0.0529167 0.3037197,-0.0442701 0.6344489,-0.0574993 0.9921875,-0.0396875 0.379236,0.0176477 0.7452431,0.0352769 1.0980208,0.0529167 0.3505729,0.0160602 0.6989411,0.0513292 1.0451042,0.10583333 0.3916383,0.081407 0.7576452,0.10345473 1.0980208,0.0661458 0.3014459,-0.0333137 0.632175,-0.0333137 0.9921875,0 0.4251592,0.0382746 0.72943,0.025056 0.9128125,-0.0396875 0.00682,0.002381 0.011232,0.002381 0.013229,0 0.1352889,-0.0310753 0.3249075,-0.0619416 0.5688545,-0.0926042 0.0566,0.16157574 0.06542,0.37765301 0.02646,0.64822916 v 0 C 10.312051,0.7206832 10.245906,1.1087396 10.173249,1.4381935 v 0 c -0.06436,0.3730704 -0.05995,0.7390765 0.01323,1.0980208 v 0 c 0.07607,0.3109198 0.09371,0.641649 0.05292,0.9921875 v 0.013229 c -0.03703,0.4067281 -0.03703,0.7903739 0,1.1509375 v 0 c 0.04382,0.3417543 0.07469,0.681302 0.0926,1.0186458 0.01495,0.3083004 -0.0027,0.5376069 -0.05292,0.6879166 -0.05698,0.1541331 -0.07903,0.3613918 -0.06615,0.6217709 -0.3033752,0.00185 -0.5062222,0.00622 -0.6085416,0.013229 -0.1133092,0.00796 -0.3514342,0.00355 -0.714375,-0.013229 h -0.013229 c -0.3702788,-0.00892 -0.7583344,-0.00892 -1.1641666,0 v 0 c -0.3642844,0.017595 -0.6685553,0.00437 -0.9128125,-0.039687 -1.379e-4,0.00212 -0.00455,0.00212 -0.013229,0 -0.2665124,-0.038515 -0.6104707,-0.034108 -1.031875,0.013229 h -0.013229 c -0.3837149,0.044061 -0.7541316,0.088159 -1.11125,0.1322917 v 0 C 4.316724,7.1762757 3.999224,7.1674571 3.6777278,7.1002768 H 3.6644986 C 3.3958844,7.0550092 3.1180719,7.0285509 2.8310611,7.0209018 c 0.00668,-0.2601728 0.00668,-0.5027084 0,-0.7276042 C 2.8309921,6.0148633 2.8265817,5.670905 2.817832,5.2614226 2.8183876,4.8799464 2.8360168,4.4963006 2.8707486,4.1104851 2.9181188,3.674301 2.8872507,3.2818366 2.7781445,2.9330893 2.6933606,2.6583089 2.6669023,2.3540381 2.6987695,2.0202768 v 0 c 0.044407,-0.366006 0.075275,-0.7231935 0.092604,-1.07156245 0.02794,-0.37189833 0.0103,-0.66294 -0.052917,-0.87312499 -0.025286,-0.1085559 -0.016468,-0.25848469 0.026458,-0.44979166 M 2.883977,8.0395476 C 2.857243,7.9422236 2.839604,7.7790627 2.83106,7.5500684 c 0.2554195,0.00556 0.5023639,0.027604 0.7408334,0.066146 0.3838868,0.08196 0.7587133,0.095189 1.1244791,0.039687 h 0.013229 C 5.0603823,7.6115285 5.4263894,7.567433 5.8076236,7.5236101 6.1813475,7.4828881 6.4856184,7.4784801 6.7204361,7.5103809 l -0.013229,-0.013229 c 0.2746431,0.052642 0.6141916,0.070281 1.0186458,0.052917 h 0.013229 c 0.3899847,-0.00868 0.7648112,-0.00868 1.1244792,0 0.3962548,0.018389 0.6564283,0.022807 0.7805208,0.013229 0.091881,-0.00624 0.2682695,-0.010663 0.5291671,-0.013229 -0.04617,0.2730924 -0.04617,0.5332651 0,0.7805209 0.06222,0.2932112 0.09309,0.628351 0.0926,1.0054166 -5.82e-4,0.3845745 -0.01822,0.7241256 -0.05292,1.0186466 v 0.01323 c -0.02759,0.324629 -0.02759,0.690639 0,1.098021 0.02639,0.406212 0.05726,0.763398 0.0926,1.071562 0.03256,0.304753 0.02815,0.644299 -0.01323,1.018646 -0.04138,0.374653 -0.08988,0.639236 -0.145521,0.793749 -0.06845,0.158612 -0.06404,0.383509 0.01323,0.674688 -0.2325091,0.03504 -0.4309466,0.03504 -0.5953121,0 h -0.013229 c -0.2619997,-0.04317 -0.650055,-0.06522 -1.1641666,-0.06615 -0.4628142,2.64e-4 -0.8332309,-0.03051 -1.11125,-0.0926 h -0.013229 c -0.307716,-0.05443 -0.6296255,-0.05443 -0.9657291,0 v 0 c -0.2822567,0.06315 -0.6262151,0.107246 -1.031875,0.132291 -0.3966684,0.02635 -0.7759044,0.04399 -1.1377084,0.05292 -0.3845414,0.01048 -0.6270762,0.03253 -0.7276041,0.06615 h -0.013229 c -0.050402,0.0028 -0.2488393,-0.03687 -0.5953125,-0.119063 -0.042788,-0.284633 -0.078066,-0.571264 -0.1058333,-0.859896 -0.026183,-0.34382 -0.039412,-0.683368 -0.039687,-1.018645 8.202e-4,-0.334071 0.027287,-0.708899 0.079375,-1.12448 0.053468,-0.42895 0.079926,-0.781727 0.079375,-1.058333 v 0 c 0.00882,-0.263517 0.013229,-0.589836 0.013229,-0.9789588 v 0 c 0.00955,-0.3677386 0.036011,-0.7249261 0.079385,-1.07157 0.048989,-0.3890195 0.044579,-0.6712426 -0.013229,-0.8466666 m 8.7312501,-8.5328124 h -0.01323 c 0.329006,0.10834952 0.650916,0.15244498 0.965729,0.13229166 0.291007,-0.0176742 0.648194,-0.0397219 1.071562,-0.0661458 0.414446,-0.0164835 0.767223,-0.007673 1.058333,0.0264583 h 0.01323 c 0.327353,0.036105 0.688951,0.0493342 1.084791,0.0396875 0.401286,-0.008811 0.784932,-0.0176477 1.150938,-0.0264583 h 0.727604 0.555625 c 0.0534,0.24277637 0.05781,0.52058887 0.01323,0.83343749 v 0 C 18.18913,0.90534123 18.16267,1.2625287 18.16367,1.5175685 v 0.9525 c -1.77e-4,0.3995605 0.04392,0.7876169 0.132292,1.1641666 0.08058,0.3193945 0.07176,0.6104361 -0.02646,0.873125 v 0 c -0.123748,0.3739992 -0.141385,0.7355973 -0.05292,1.0847917 h 0.01323 c 0.06942,0.2505948 0.07824,0.4578535 0.02646,0.6217708 v 0.013229 c -0.06484,0.1912382 -0.0957,0.4558215 -0.0926,0.79375 -0.33414,0.00159 -0.550217,0.00601 -0.648229,0.013229 -0.09794,0.00664 -0.287562,-0.015399 -0.568854,-0.066146 v 0 c -0.328388,-0.04668 -0.698804,-0.051091 -1.11125,-0.013229 h -0.01323 c -0.361392,0.041754 -0.722988,0.041754 -1.084792,0 -0.398529,-0.047061 -0.773356,-0.047061 -1.124479,0 -0.292283,0.040894 -0.605372,0.040894 -0.939271,0 -0.366593,-0.046646 -0.767877,-0.046646 -1.203854,0 -0.280396,0.03011 -0.522931,0.047749 -0.727604,0.052917 -0.0067,-0.1793161 0.0065,-0.3248369 0.03969,-0.4365625 0.07321,-0.1936485 0.09967,-0.4891008 0.07937,-0.8863541 -0.0173,-0.3484034 -0.04816,-0.6967723 -0.0926,-1.0451042 -0.03331,-0.3253899 -0.03331,-0.6737588 0,-1.0451042 v 0 c 0.04665,-0.4162028 0.0246,-0.8042565 -0.06615,-1.1641666 -0.0587,-0.2916264 -0.06311,-0.5870787 -0.01323,-0.8863542 0.07693,-0.3392381 0.147485,-0.73611309 0.211667,-1.19062492 v -0.0132292 c 0.04527,-0.32663077 0.03645,-0.60003266 -0.02646,-0.82020833 0.301825,-0.0611505 0.54877,-0.0655611 0.740834,-0.0132292 m 2.076979,7.97718745 c 0.303995,-0.04086 0.630314,-0.04086 0.978958,0 0.405453,0.046405 0.811146,0.046405 1.217083,0 0.365422,-0.032451 0.69174,-0.028043 0.978959,0.013229 l -0.01323,-0.013229 c 0.344887,0.063873 0.578604,0.090331 0.701145,0.079375 0.08261,-0.00601 0.250183,-0.010398 0.502709,-0.013229 -0.08851,0.2894912 -0.128193,0.549664 -0.119063,0.7805209 0.0098,0.3192912 0.04503,0.6456124 0.105834,0.9789583 0.06349,0.3170872 0.10759,0.6742747 0.132291,1.0715622 0.02551,0.405937 0.02109,0.816041 -0.01323,1.230313 -0.03617,0.458094 -0.04499,0.82851 -0.02646,1.11125 v 0 c 0.01746,0.280844 0.02627,0.585115 0.02646,0.912812 v 0 c 0.01016,0.369176 0.02339,0.602893 0.03969,0.701146 0.01389,0.08065 0.0095,0.274677 -0.01323,0.582083 -0.321736,-0.03745 -0.617188,-0.04186 -0.886354,-0.01323 -0.313433,0.0351 -0.648573,0.06156 -1.005416,0.07937 -0.328835,0.01601 -0.663975,-0.01926 -1.005417,-0.105833 -0.404765,-0.08596 -0.761952,-0.09036 -1.071563,-0.01323 -0.2497,0.06976 -0.611295,0.105042 -1.084791,0.105833 h -0.01323 c -0.4901,0.0085 -0.886975,0.0041 -1.190625,-0.01323 h -0.01323 c -0.283222,-0.0081 -0.521347,-0.03452 -0.714375,-0.07937 h -0.01323 c -0.162712,-0.02633 -0.334691,-0.02191 -0.515937,0.01323 -0.04069,-0.151376 -0.04951,-0.270439 -0.02646,-0.357188 0.06783,-0.18066 0.12516,-0.489341 0.171979,-0.926041 0.04651,-0.416685 0.05092,-0.791509 0.01323,-1.124479 v -0.01323 c -0.03521,-0.300378 -0.06608,-0.648745 -0.0926,-1.045104 -0.02494,-0.371933 -0.02494,-0.70707 0,-1.005416 0.03583,-0.314056 0.05347,-0.6756535 0.05292,-1.0847919 -5.02e-4,-0.4166843 -0.03579,-0.787101 -0.105833,-1.11125 -0.03714,-0.2139765 -0.03273,-0.4432802 0.01323,-0.6879166 0.226377,-0.00159 0.49978,-0.019235 0.820209,-0.052917 0.393016,-0.041582 0.754613,-0.041582 1.084791,0 0.382648,0.047268 0.744244,0.047268 1.084792,0"
       id="path1273"
       style="fill:#e5e9ec;fill-opacity:1;stroke-width:0.264583"
       sodipodi:nodetypes="ccccccccsssscccccscccccccccccccccccssccccssccccccccccccsccccssccccssccccccccccccccccccccssssccccccccccccccccccccccccssssssccssccccccssccccsscccccccssccccccccccccccccccccccccccccccssccccccccssssccccccccccccsscccssccccccssccccccccccsscccccccccccccccccssssccccccccccccccccccccccccc"
       inkscape:label="Foreground" />
  </g>
</svg>
