<?xml version="1.0" encoding="UTF-8" standalone="no"?>
<!-- Created with Inkscape (http://www.inkscape.org/) -->

<svg
   width="64"
   height="256"
   viewBox="0 0 16.933333 67.733332"
   version="1.1"
   id="svg1"
   inkscape:version="1.4 (86a8ad7, 2024-10-11)"
   sodipodi:docname="wood.svg"
   inkscape:export-filename="wood.png"
   inkscape:export-xdpi="192"
   inkscape:export-ydpi="192"
   xmlns:inkscape="http://www.inkscape.org/namespaces/inkscape"
   xmlns:sodipodi="http://sodipodi.sourceforge.net/DTD/sodipodi-0.dtd"
   xmlns="http://www.w3.org/2000/svg"
   xmlns:svg="http://www.w3.org/2000/svg">
  <sodipodi:namedview
     id="namedview1"
     pagecolor="#ffffff"
     bordercolor="#000000"
     borderopacity="0.25"
     inkscape:showpageshadow="2"
     inkscape:pageopacity="0.0"
     inkscape:pagecheckerboard="true"
     inkscape:deskcolor="#d1d1d1"
     inkscape:document-units="px"
     inkscape:zoom="8"
     inkscape:cx="13.4375"
     inkscape:cy="225.3125"
     inkscape:window-width="1920"
     inkscape:window-height="1009"
     inkscape:window-x="1912"
     inkscape:window-y="-8"
     inkscape:window-maximized="1"
     inkscape:current-layer="svg1"
     showgrid="true">
    <inkscape:grid
       id="grid1"
       units="px"
       originx="0"
       originy="0"
       spacingx="8.4666662"
       spacingy="8.4666662"
       empcolor="#0099e5"
       empopacity="0.30196078"
       color="#0099e5"
       opacity="0.14901961"
       empspacing="5"
       enabled="true"
       visible="true" />
  </sodipodi:namedview>
  <defs
     id="defs1">
    <inkscape:path-effect
       effect="fillet_chamfer"
       id="path-effect1"
       is_visible="true"
       lpeversion="1"
       nodesatellites_param="F,0,0,1,0,0,0,1 @ F,0,0,1,0,0,0,1 @ F,0,0,1,0,0,0,1 @ F,0,0,1,0,0,0,1 @ F,0,0,1,0,0,0,1 @ F,0,0,1,0,0,0,1 @ F,0,0,1,0,0,0,1 @ F,0,0,1,0,0,0,1 @ F,0,0,1,0,0,0,1 @ F,0,0,1,0,0,0,1 @ F,0,0,1,0,0,0,1 @ F,0,0,1,0,0,0,1 @ F,0,0,1,0,0,0,1 @ F,0,0,1,0,0,0,1"
       radius="0"
       unit="px"
       method="auto"
       mode="F"
       chamfer_steps="1"
       flexible="false"
       use_knot_distance="true"
       apply_no_radius="true"
       apply_with_radius="true"
       only_selected="false"
       hide_knots="false" />
  </defs>
  <path
     fill="#ffffff"
     stroke="none"
     d="M 16.536458,0.39687499 H 0.396875 V 16.536459 h 16.139583 z"
     id="path1-1"
     inkscape:label="Background"
     style="display:inline;fill:#ffffff;fill-opacity:1;stroke-width:0.268993"
     sodipodi:nodetypes="ccccc" />
  <path
     fill="#ffffff"
     stroke="none"
     d="M 16.536458,17.330208 H 0.396875 v 16.139583 h 16.139583 z"
     id="path1-1-6"
     inkscape:label="Background"
     style="display:inline;fill:#ffffff;fill-opacity:1;stroke-width:0.268993"
     sodipodi:nodetypes="ccccc" />
  <path
     fill="#ffffff"
     stroke="none"
     d="M 16.536458,34.263541 H 0.396875 v 16.139583 h 16.139583 z"
     id="path1-1-0"
     inkscape:label="Background"
     style="display:inline;fill:#ffffff;fill-opacity:1;stroke-width:0.268993"
     sodipodi:nodetypes="ccccc" />
  <path
     fill="#ffffff"
     stroke="none"
     d="M 16.536458,51.196874 H 0.39687484 V 67.336457 H 16.536458 Z"
     id="path1-1-3"
     inkscape:label="Background"
     style="display:inline;fill:#ffffff;fill-opacity:1;stroke-width:0.268993"
     sodipodi:nodetypes="ccccc" />
  <path
     d="m 0.51825927,0.25049346 v 0 c -0.006683,6.88e-5 -0.0155019,6.88e-5 -0.0264583,0 -0.0594969,0.00545 -0.11241352,0.031909 -0.15875,0.079375 -0.004514,0.004419 -0.008924,0.008811 -0.0132292,0.0132292 -0.0204285,0.0227277 -0.0380682,0.044786 -0.0529167,0.0661458 -0.008543,0.0354515 -0.012954,0.0707284 -0.0132292,0.10583333 -3.9687e-4,0.006588 -3.9687e-4,0.0109802 0,0.0132292 0.0486794,0.68292131 0.0398597,1.12830241 -0.0264583,1.33614581 -0.0953259,0.2665809 -0.11296465,0.6017208 -0.0529167,1.0054167 0.0521242,0.3490569 0.0829924,0.6489198 0.0926042,0.8995834 v 0.013229 c 0.0169148,0.2585905 -0.005133,0.5540402 -0.0661458,0.8863542 v 0.013229 c -0.0545359,0.3880565 -0.0721749,0.7761103 -0.0529167,1.1641667 v 0 c 0.0245295,0.3631803 0.0201189,0.6718617 -0.0132292,0.9260417 -0.0363112,0.2977938 -0.0495403,0.6461627 -0.0396875,1.0451041 v 0.013229 c 0.0175339,0.3990446 0.0439931,0.8003302 0.079375,1.2038541 0.035071,0.4154779 0.0571196,0.7329779 0.0661458,0.9525 v 0 c 0.0171212,0.2271683 0.0215318,0.5931773 0.0132292,1.0980203 v 0.01323 c -5.8208e-4,0.78607 -0.004993,1.218221 -0.0132292,1.296459 -5.5562e-4,0.0092 -5.5562e-4,0.01799 0,0.02646 -4.7625e-4,0.08206 0.0127529,0.324596 0.0396875,0.727604 0.031247,0.369142 3.7042e-4,0.686642 -0.0926042,0.9525 v 0.01323 c -0.11589306,0.361561 -0.10707344,0.736389 0.0264583,1.12448 0.0979096,0.302066 0.11554857,0.654843 0.0529167,1.058333 -0.0126762,0.04031 -0.0170868,0.08 -0.0132292,0.119062 0.008578,0.07286 0.0394459,0.130191 0.0926042,0.171979 0.0139197,0.01204 0.0227383,0.02085 0.0264583,0.02646 0.0572574,0.03235 0.11458389,0.04558 0.17197916,0.03969 0.3524332,-0.03996 0.59496797,-0.0576 0.72760417,-0.05292 0.1481391,0.01757 0.434771,0.04403 0.8598958,0.07937 0.4343233,0.03473 0.7782817,0.0259 1.031875,-0.02646 0.020809,5.29e-4 0.038447,-0.0039 0.052917,-0.01323 0.020532,0.0021 0.038172,-0.0024 0.052917,-0.01323 0.00844,7.94e-4 0.017259,-0.0037 0.026458,-0.01323 0.2933499,-0.112482 0.5138359,-0.15217 0.6614583,-0.119063 0.2042596,0.06711 0.4997111,0.124437 0.8863541,0.171979 0.3938778,0.04558 0.7201972,0.04117 0.9789584,-0.01323 0.2449118,0 0.4477591,-0.0088 0.6085416,-0.02646 0.154237,-0.01648 0.4585079,-0.01648 0.9128125,0 0.4673963,0.01677 0.8245838,0.02558 1.0715625,0.02646 0.2776403,0.03965 0.5157653,0.04406 0.714375,0.01323 0.163022,-0.02146 0.4540636,-0.0038 0.8731252,0.05292 0.468602,0.06163 0.834608,0.04399 1.09802,-0.05292 0.358463,0.153652 0.649504,0.184518 0.873125,0.09261 h -0.01323 c 0.190444,-0.05616 0.455028,-0.104662 0.79375,-0.145521 v 0 c 0.326699,-0.03238 0.63097,-0.02357 0.912812,0.02646 0.01045,0.0024 0.01926,0.0024 0.02646,0 0.02048,0.01019 0.04251,0.0146 0.06615,0.01323 0.0065,7.94e-4 0.01093,7.94e-4 0.01323,0 0.352433,-0.03996 0.594968,-0.0576 0.727604,-0.05292 0.148137,0.01757 0.434771,0.04403 0.859896,0.07937 0.451789,0.03614 0.804568,0.02732 1.058333,-0.02646 0.0064,-0.0024 0.01082,-0.0067 0.01323,-0.01323 h 0.02646 c 0.06732,-0.01344 0.120235,-0.05313 0.15875,-0.119062 v -0.01323 h 0.01323 c 0.01902,-0.03803 0.02784,-0.07772 0.02646,-0.119062 v -0.01323 c 7.94e-4,-0.780727 0.0097,-1.230519 0.02646,-1.349375 l -0.01323,0.01323 c 0.03738,-0.135049 0.04179,-0.417272 0.01323,-0.846667 -0.02619,-0.368038 -0.04382,-0.729636 -0.05292,-1.084791 v -0.01323 c 6.8e-5,-0.351402 0.0045,-0.686539 0.01323,-1.005417 0.0089,-0.307922 0.0089,-0.687157 0,-1.137708 -0.0087,-0.431155 -0.0087,-0.788342 0,-1.0715628 0.0086,-0.260104 0.04829,-0.5511456 0.119062,-0.873125 0.103836,-0.3880564 0.103836,-0.7761102 0,-1.1641667 -0.07975,-0.3270779 -0.13267,-0.6666256 -0.15875,-1.0186458 v -0.013229 c -0.01654,-0.316156 -0.0033,-0.6204268 0.03969,-0.9128125 0.0085,-0.026114 0.01289,-0.056983 0.01323,-0.092604 1.77e-4,-0.00455 1.77e-4,-0.013362 0,-0.026458 v -0.013229 c -0.05602,-0.6263534 -0.0472,-1.032047 0.02646,-1.2170833 0.141801,-0.2303383 0.17267,-0.5566595 0.0926,-0.9789583 l 0.01323,0.013229 c -0.05271,-0.3301074 -0.0924,-0.621149 -0.119063,-0.873125 -0.02569,-0.2395034 -0.03452,-0.596691 -0.02646,-1.0715625 0.0088,-0.4792477 0.01315,-0.85407237 0.01323,-1.12447918 v 0 c -7.94e-4,-0.0724508 -0.02717,-0.13418608 -0.07938,-0.18520833 -0.05102,-0.0522949 -0.112758,-0.0787533 -0.185208,-0.079375 h -0.01323 c -0.400319,3.44e-5 -0.691361,0.048543 -0.873125,0.14552086 -0.124436,0.0480589 -0.331694,0.0392404 -0.62177,-0.0264583 h -0.01323 C 14.494602,0.30036806 14.124185,0.26068066 13.760658,0.25048366 h -0.02646 c -0.369072,7.937e-4 -0.646885,0.018521 -0.833437,0.052917 -0.158854,0.0327978 -0.401389,0.0327978 -0.727605,0 h -0.01323 c -0.341511,-0.02577 -0.681061,-0.043408 -1.018646,-0.052917 -0.418096,-0.061841 -0.717957,-0.05302 -0.899582,0.026458 -0.0018,0.00638 -0.0063,0.010768 -0.01323,0.013229 -0.112724,0.0430635 -0.3199807,0.038653 -0.621771,-0.013229 -0.3898125,-0.060806 -0.7734583,-0.074036 -1.1509375,-0.039687 -0.396186,-0.050885 -0.6828179,-0.037656 -0.8598958,0.039687 -0.00185,0.00638 -0.00627,0.010768 -0.013229,0.013229 -0.1127236,0.0430635 -0.3199805,0.038653 -0.6217708,-0.013229 -0.4040751,-0.063182 -0.8009501,-0.072001 -1.190625,-0.026458 -0.021704,0.0032 -0.043753,0.00762 -0.066146,0.013229 -0.2257571,0.0686938 -0.3933267,0.0731044 -0.5027084,0.013229 v 0 c -0.1886878,-0.1698784 -0.537056,-0.2007473 -1.0451041,-0.092604 -0.3461975,0.083542 -0.6636975,0.1055926 -0.9525,0.066146 h -0.013229 c -0.057292,-0.00595 -0.1102087,0.00286 -0.15875,0.026458 -0.2166966,0.0979091 -0.4151341,0.10231963 -0.5953125,0.013229 -0.3067857,-0.1595094 -0.650744,-0.2036048 -1.0318749,-0.1322917 -0.289319,0.061841 -0.58477048,0.092707 -0.8863542,0.092604 m 0.2778125,0.51593742 c 0.2419834,-0.01016 0.4801084,-0.0410289 0.714375,-0.0926042 0.2538346,-0.0433388 0.4831403,-0.0124619 0.6879166,0.0926042 0.2111156,0.11196638 0.4360114,0.14724327 0.6746875,0.10583334 -0.00782,0.25645268 0.00101,0.47694058 0.026458,0.66145828 0.0022,0.00876 0.0022,0.01315 0,0.013229 0.043822,0.2545583 0.052641,0.6029246 0.026458,1.0451042 v 0 c -0.01764,0.4807982 -0.030868,0.8776732 -0.039687,1.190625 -0.0093,0.3320045 -0.00489,0.6186355 0.013229,0.8598958 v 0.013229 c 0.024564,0.23368 0.024564,0.5996861 0,1.0980208 -0.097324,0.386125 -0.1546503,0.7433125 -0.1719792,1.0715625 -0.017777,0.3449558 0.00427,0.7109645 0.066146,1.0980208 l 0.044342,0.2152325 C 2.5950699,8.2142626 2.3189426,8.2495396 2.0856407,8.2444756 1.8070014,8.2353476 1.5644666,8.2000596 1.3580365,8.1386416 H 1.3448075 C 1.1720014,8.0995716 0.89453647,8.0658286 0.63518977,8.0607986 L 0.6240926,7.8043475 C 0.6164806,7.4343436 0.6297096,7.112433 0.6637801,6.8386184 0.70078049,6.5563609 0.7051903,6.2168132 0.6770093,5.8199726 V 5.8067436 C 0.6612639,5.4605813 0.6789143,5.1122124 0.72992596,4.7616394 h -0.0132292 c 0.0702799,-0.376272 0.0967383,-0.7114118 0.079375,-1.0054168 V 3.7429934 C 0.78714737,3.4761691 0.75628029,3.1586691 0.7034676,2.7904934 0.65764785,2.4885642 0.66646721,2.23721 0.72992593,2.0364309 0.81092018,1.8249362 0.83296871,1.4016029 0.79607177,0.76643092 M 3.4286759,1.4675768 C 3.4038369,1.2835749 3.3950179,1.0586791 3.4022179,0.79288926 c 0.2749875,0.0142346 0.5660292,-0.0166423 0.873125,-0.0926042 0.295348,-0.0596688 0.4981953,-0.0596688 0.6085416,0 h -0.013229 c 0.1592667,0.13811515 0.3885723,0.1822106 0.6879166,0.13229167 0.00847,0.24101957 0.021704,0.50119227 0.039688,0.78052087 0.024701,0.3981158 0.020291,0.7288451 -0.013229,0.9921875 v 0.013229 c -0.025458,0.2783972 -0.078376,0.5694389 -0.15875,0.873125 v 0.013229 c -0.076516,0.3750337 -0.072106,0.6969416 0.013229,0.9657292 v 0.013229 c 0.060151,0.1951651 0.095428,0.543534 0.1058325,1.0451046 l -0.066146,0.5291668 c -0.057878,0.2713011 -0.093155,0.5270658 -0.1058333,0.7672916 -0.017777,0.3449558 0.00427,0.7109645 0.066146,1.0980208 0.075,0.3795475 0.1411455,0.7102766 0.1984375,0.9921875 0.056086,0.2581408 0.047267,0.5271347 -0.026458,0.8069792 -0.080168,0.3447492 -0.1022164,0.7989512 -0.066146,1.3626042 v 0.02646 c -0.00886,0.359736 -0.013264,0.725745 -0.013229,1.098021 v 0 c 0.00878,0.390054 0.013195,0.742831 0.013229,1.058334 v 0.912812 c -1.379e-4,0.305787 0.00427,0.539501 0.013229,0.701146 v 0.01323 c 0.014952,0.141767 0.010544,0.560689 -0.013229,1.256771 -0.1782493,0.02043 -0.389916,0.01601 -0.635,-0.01323 -0.345371,-0.04068 -0.6099543,-0.08919 -0.79375,-0.145521 -0.1687753,-0.06411 -0.3980807,-0.0597 -0.6879167,0.01323 0.00338,-0.511148 -0.00985,-0.859517 -0.039687,-1.045104 -0.031902,-0.201401 -0.036311,-0.448344 -0.013229,-0.740833 0.035312,-0.30203 0.075,-0.601893 0.1190625,-0.899584 0.047473,-0.311401 0.047473,-0.650951 0,-1.018645 -0.034796,-0.336622 -0.056844,-0.737905 -0.066146,-1.203855 v -0.02646 c -0.03266,-0.510839 -0.015021,-0.920944 0.052916,-1.2303128 0.093259,-0.3616325 0.1020781,-0.7055908 0.026458,-1.031875 V 8.796535 C 3.4506901,8.5228209 3.3845442,8.200913 3.3096134,7.8308059 3.2568002,7.4858501 3.2391612,7.1595289 3.2566968,6.8518476 M 5.9422176,4.3118474 v 0.013229 c -0.05581,-0.1986439 -0.05581,-0.4367689 0,-0.714375 v 0.013229 c 0.08661,-0.3289379 0.1439362,-0.6464379 0.1719791,-0.9525 0.037035,-0.2923169 0.041445,-0.658323 0.013229,-1.0980208 -0.019465,-0.2979314 -0.037104,-0.5713333 -0.052917,-0.82020834 0.2670638,-0.0118798 0.5360567,0.001323 0.8069792,0.0396875 0.4569918,0.0804783 0.7700822,0.0716571 0.9392708,-0.0264583 0.087333,-0.0236802 0.2108055,-0.0280776 0.3704167,-0.0132292 0.01502,0.25765914 0.03266,0.54429024 0.052917,0.85989584 0.024701,0.3981159 0.020291,0.7288451 -0.013229,0.9921875 v 0.013229 c -0.025458,0.2783972 -0.078376,0.5694389 -0.15875,0.873125 v 0.013229 c -0.076516,0.3750345 -0.072106,0.6969424 0.013229,0.96573 v 0.013229 c 0.069212,0.2239988 0.1044898,0.6517428 0.1058334,1.2832291 -0.087471,0.2887689 -0.1536168,0.6062689 -0.1984375,0.9525 v 0.013229 c -0.037448,0.3759649 -0.010991,0.8081168 0.079375,1.2964583 l 0.012438,0.071373 C 7.7922351,8.0244763 7.6079174,8.0435026 7.3269698,8.1284626 h -0.013229 c -0.2934189,0.09874 -0.5183147,0.160473 -0.6746874,0.185209 -0.00403,0.0021 -0.00844,0.0021 -0.013229,0 -0.1187871,0.02336 -0.3128148,0.0057 -0.5820833,-0.05292 L 5.9554467,7.8308059 C 5.9026335,7.4858501 5.8849945,7.1595289 5.9025301,6.8518476 5.9199635,6.5538473 5.9728793,6.2319367 6.0612801,5.8861184 v -0.013229 c 0.00923,-0.020108 0.013642,-0.042167 0.013229,-0.066146 V 5.7802851 C 6.0738213,5.0562634 6.029724,4.5667842 5.9422176,4.3118476 m -2.6855208,2.54 C 3.2707858,6.6108624 3.3060648,6.3506897 3.3625301,6.0713267 L 3.4419051,5.5421599 C 3.4558936,5.1320559 3.451483,4.8189665 3.4286759,4.6028892 3.4115177,4.3767181 3.4071097,4.1077242 3.4154468,3.7959101 3.4242309,3.4841277 3.4374601,3.0916634 3.4551343,2.6185143 V 2.6052851 C 3.4816617,2.1201477 3.4684322,1.7365019 3.4154468,1.4543476 l 0.013229,0.013229 M 0.69023843,14.27341 v 0 c 0.11864896,-0.32508 0.15833646,-0.713134 0.1190625,-1.164166 -0.023495,-0.344681 -0.0367247,-0.565169 -0.0396875,-0.661459 v -0.01323 c 0.008199,-0.09453 0.0126074,-0.45172 0.0132292,-1.071562 l 7e-8,-0.529171 C 0.7888727,10.440116 0.7844567,10.144664 0.7696135,9.9474675 0.76065733,9.7306729 0.73860771,9.4131729 0.7034676,8.9949725 L 0.67319207,8.6016626 c 0.21021966,0.0053 0.40999463,0.02294 0.55255283,0.05292 h -0.013229 c 0.2433269,0.07087 0.5299591,0.110554 0.8598958,0.119063 0.2452564,0.0078 0.6237476,-0.03625 0.87238,-0.09691 l 0.047322,0.238851 c 0.056086,0.2581408 0.047267,0.5271347 -0.026458,0.8069792 -0.0709,0.3072682 -0.097358,0.6997332 -0.079375,1.1773962 l 0.013229,0.555644 c 0.017396,0.337344 0.039446,0.637204 0.066146,0.899583 v 0 c 0.040445,0.322083 0.040445,0.617535 0,0.886354 -0.044166,0.30203 -0.083854,0.606301 -0.1190625,0.912813 v 0.01323 c -0.027147,0.345612 -0.022738,0.636654 0.013229,0.873125 0.032384,0.189997 0.045613,0.560414 0.039687,1.11125 -0.1929255,0.02376 -0.43546,0.02376 -0.7276042,0 -0.4126879,-0.03521 -0.6905004,-0.06167 -0.8334375,-0.07938 -0.00241,-1.72e-4 -0.00682,-1.72e-4 -0.013229,0 -0.1045586,-0.0077 -0.272128,-0.0033 -0.50270834,0.01323 0.0289388,-0.379304 -0.006339,-0.718854 -0.10583333,-1.018646 -0.0957736,-0.273367 -0.10459323,-0.53795 -0.0264583,-0.79375 M 6.06128,12.209665 v -0.01323 c 3.44e-5,-0.261138 3.44e-5,-0.521311 0,-0.780521 l 8e-7,-0.542402 c -0.014711,-0.417029 0.00734,-0.760987 0.066146,-1.0318752 0.129566,-0.3478288 0.1072609,-0.6193266 0.043998,-0.9720203 l -0.010754,-0.046 c 0.3143305,0.05805 0.4267055,0.046407 0.5709862,0.006 l -0.013229,0.01323 c 0.1788003,-0.02822 0.4345643,-0.09877 0.7672916,-0.211667 h -0.013229 c 0.2246548,-0.06236 0.4831928,-0.05354 0.7171493,0.02646 l 0.041223,0.3505648 c 0.017259,0.2258245 0.02608,0.4154434 0.026458,0.5688542 v 0.013229 c 0.00662,0.1404228 -0.011025,0.5196585 -0.052916,1.1377085 L 8.1779469,11.2704 c 0.00682,0.195268 0.02005,0.459852 0.039688,0.793751 v 0 c 0.035105,0.458163 0.057154,0.872677 0.066146,1.243541 0.00699,0.358773 -0.019465,0.636585 -0.079375,0.833438 v 0.01323 c -0.067283,0.266065 -0.071692,0.552696 -0.013229,0.859896 0.044855,0.218006 0.049265,0.588422 0.013229,1.11125 -0.2194869,-0.0052 -0.5017092,-0.01405 -0.8466666,-0.02646 -0.4893757,-0.01884 -0.8156953,-0.01884 -0.9789583,0 -0.086334,0.0097 -0.1877576,0.01413 -0.3042709,0.01323 0.024839,-0.682784 0.029249,-1.101707 0.013229,-1.256771 -0.00868,-0.155856 -0.013092,-0.380752 -0.013229,-0.674688 V 13.268 c 0,-0.317672 -0.00441,-0.670452 -0.013229,-1.058334 M 10.82378,1.6263268 v 0 c 0.0088,0.390054 0.01319,0.7428309 0.01323,1.0583333 v 0.9128125 c -1.38e-4,0.3057869 0.0043,0.5395013 0.01323,0.7011458 v 0.013229 c 0.01523,0.1445551 0.01082,0.5767096 -0.01323,1.2964583 l -0.0926,0.5688542 c -0.0421,0.2275496 -0.06856,0.4436242 -0.07938,0.6482291 -0.01778,0.3449558 0.0043,0.7109645 0.06615,1.0980208 0.075,0.3795475 0.141145,0.7102766 0.198437,0.9921875 0.05609,0.2581408 0.04727,0.5271347 -0.02646,0.8069792 -0.08093,0.3475405 -0.102974,0.8061505 -0.06615,1.3758335 v 0.02646 c 0.0076,0.393121 -0.03204,0.73708 -0.119062,1.031876 l -0.01323,0.01323 c -0.09178,0.370863 -0.109416,0.736872 -0.05292,1.09802 0.05722,0.333383 0.114549,0.637653 0.171979,0.912813 v 0.01323 c 0.0618,0.229032 0.05739,0.445105 -0.01323,0.64823 v 0.01323 c -0.08496,0.259313 -0.08937,0.704694 -0.01323,1.336145 -0.185208,0.03872 -0.427742,0.03872 -0.727603,0 -0.4893761,-0.06677 -0.8289249,-0.08441 -1.0186462,-0.05292 -0.092983,0.01333 -0.1988164,0.01775 -0.3175,0.01323 0.038619,-0.585597 0.0298,-1.000112 -0.026458,-1.243542 -0.038585,-0.222035 -0.034175,-0.429294 0.013229,-0.621769 v 0 c 0.072354,-0.235335 0.1032217,-0.566064 0.092611,-0.992189 -0.00861,-0.376962 -0.030662,-0.795885 -0.066146,-1.256771 -0.025733,-0.437078 -0.034554,-0.74576 -0.026458,-0.926042 6.615e-4,-0.01029 6.615e-4,-0.02352 0,-0.03969 0.052469,-0.81666 0.074518,-1.3149578 0.066146,-1.4948956 V 9.5638267 C 8.7863505,9.4021821 8.7775322,9.2037446 8.76003,8.9685142 8.7413584,8.7447217 8.6840314,8.3963527 8.5880509,7.92341 8.511363,7.4973912 8.4893145,7.1181533 8.521905,6.7857017 m 2.831041,-5.1593752 v -0.013229 c 6.9e-5,-0.2772278 6.9e-5,-0.5550403 0,-0.83343754 0.258141,0.0158221 0.513906,0.0334619 0.767292,0.0529167 0.398013,0.0374835 0.693464,0.0330729 0.886354,-0.0132292 0.11765,-0.0180446 0.2764,-0.0312817 0.47625,-0.0396875 0.0041,0.29176394 0.01294,0.60044544 0.02646,0.92604164 0.01707,0.4190286 0.01707,0.7585764 0,1.0186459 -0.01783,0.2840143 -0.02666,0.5882852 -0.02646,0.9128125 -7.94e-4,0.3138143 -0.01852,0.5916268 -0.05292,0.8334375 -0.03821,0.2765716 -0.02498,0.7175447 0.03969,1.3229166 -0.04534,0.2445676 -0.08943,0.5620676 -0.132292,0.9525 v 0 c -0.03655,0.4334616 -0.04096,0.825926 -0.01323,1.1773958 v 0.013229 l 0.01825,0.192591 C 12.526932,7.9589929 11.922,8.4767551 11.345681,8.3173611 l -0.09857,-0.4865553 c -0.05281,-0.3449558 -0.07045,-0.671277 -0.05292,-0.9789583 0.0176,-0.3012044 0.07052,-0.6275256 0.15875,-0.9789584 0.0096,-0.019844 0.01402,-0.041891 0.01323,-0.066146 v -0.013229 c 0.02684,-0.8403272 0.03125,-1.3474461 0.01323,-1.5213541 -0.0087,-0.1558555 -0.0131,-0.3807513 -0.01323,-0.6746875 V 2.6846601 c 0,-0.317672 -0.0044,-0.6704515 -0.01323,-1.0583333 m 2.685524,0.052917 c -0.0131,-0.3127799 -0.02191,-0.6082321 -0.02646,-0.8863542 0.253971,0.0169069 0.509735,0.0477838 0.767291,0.0926042 0.451927,0.10138833 0.773838,0.0969777 0.965729,-0.0132292 0.09061,-0.0412036 0.218488,-0.0676619 0.383646,-0.079375 -0.0028,0.2265495 -0.0072,0.504362 -0.01323,0.8334375 -0.0096,0.5040868 -7.94e-4,0.883322 0.02646,1.1377083 0.02625,0.2595192 0.06594,0.5593794 0.119063,0.8995833 v 0 c 0.05226,0.2744708 0.03903,0.4861375 -0.03969,0.635 v 0.013229 C 16.10969,4.5049115 16.070003,4.9106051 16.102216,5.528931 l -0.01323,0.5291662 c -0.02125,0.2576935 -0.02567,0.5222769 -0.01323,0.79375 v 0 c 0.02732,0.3908451 0.08465,0.7656724 0.171979,1.1244791 0.08137,0.2998602 0.08137,0.5997231 0,0.8995833 v 0 c -0.07927,0.3676253 -0.123368,0.6983545 -0.132292,0.9921875 -0.009,0.2900439 -0.009,0.6560499 0,1.0980209 0.0087,0.440213 0.0087,0.81063 0,1.11125 -0.0089,0.323942 -0.01326,0.667901 -0.01323,1.031875 v 0 c 0.0087,0.370279 0.02635,0.745106 0.05292,1.124479 0.02439,0.355568 0.02439,0.589282 0,0.701146 0.0021,0.0046 0.0021,0.009 0,0.01323 -0.01677,0.115377 -0.02559,0.51666 -0.02646,1.203854 -0.193958,0.02371 -0.436493,0.02371 -0.727604,0 -0.412689,-0.03521 -0.690502,-0.06167 -0.833437,-0.07938 -0.0024,-1.72e-4 -0.0068,-1.72e-4 -0.01323,0 -0.111619,-0.0082 -0.296828,-0.0038 -0.555625,0.01323 -0.01209,-0.434253 -0.0077,-0.747345 0.01323,-0.939271 0.03152,-0.267993 5.29e-4,-0.567856 -0.09261,-0.899583 -0.05206,-0.238747 -0.02561,-0.538607 0.07938,-0.899583 v 0.01323 c 0.136428,-0.444556 0.171704,-0.898755 0.105834,-1.362604 -0.05853,-0.394809 -0.0894,-0.690259 -0.0926,-0.886355 v -0.01323 c 7.93e-4,-0.0088 7.93e-4,-0.01765 0,-0.02646 -0.06808,-0.650951 -0.09013,-1.0742843 -0.06615,-1.2699992 0.04582,-0.21649 0.05023,-0.5119397 0.01323,-0.8863542 -0.03507,-0.3330707 -0.07035,-0.677029 -0.105833,-1.031875 v 0 c -0.02487,-0.3284564 -0.02048,-0.6900518 0.01323,-1.0847916 m -3e-6,5.2e-6 c 0.03414,-0.3176032 0.06942,-0.5821865 0.105833,-0.79375 l -2e-6,-0.5423962 c -0.03438,-0.4093131 -0.03879,-0.7179919 -0.01323,-0.9260417 0.03611,-0.2608977 0.05375,-0.5607579 0.05292,-0.8995833 1.72e-4,-0.3104383 0.009,-0.6014799 0.02646,-0.873125 0.0182,-0.2779501 0.0182,-0.6395482 0,-1.0847916 M 8.521905,6.7857017 C 8.555598,6.5133661 8.604105,6.2620119 8.6674259,6.0316392 l 0.052917,-0.555625 C 8.706735,4.9179101 8.6626369,4.5298537 8.5880509,4.3118476 v 0.013229 c -0.05581,-0.1986439 -0.05581,-0.4367689 0,-0.714375 v 0.013229 C 8.6746609,3.2949927 8.7319871,2.9774927 8.76003,2.6714306 8.797065,2.3791137 8.801475,2.0131076 8.773259,1.5734098 8.753794,1.275063 8.736155,1.0016611 8.720342,0.75320146 c 0.2670982,-0.0118798 0.5360914,0.001323 0.8069792,0.0396875 0.4569918,0.0804783 0.7700818,0.0716571 0.9392708,-0.0264583 0.08513,-0.0230452 0.204191,-0.0274558 0.357188,-0.0132292 -3.5e-5,0.28514944 -3.5e-5,0.57619104 0,0.87312504 m 0.515937,12.4354175 c -0.05722,-0.262861 -0.114549,-0.553903 -0.171979,-0.873125 -0.04055,-0.291558 -0.02291,-0.58701 0.05292,-0.886354 v 0 c 0.07765,-0.252045 0.121749,-0.538676 0.132292,-0.859896 l -5e-6,-0.542397 c -0.01601,-0.429157 0.006,-0.781934 0.06615,-1.0583331 0.100103,-0.3058534 0.09911,-0.6072435 0.04692,-0.9194038 l -0.0092,-0.053707 c 0.741534,0.116593 1.205218,-0.412926 1.945731,-0.170441 l 0.02742,0.270427 c 0.03352,0.3134704 0.03352,0.5604139 0,0.7408333 -0.02932,0.1756992 -0.0249,0.5108386 0.01323,1.0054166 l 0.03969,0.568857 c 0.01474,0.201985 0.04561,0.466569 0.0926,0.79375 0.0576,0.382817 0.03114,0.757645 -0.07938,1.124479 v 0 c -0.141076,0.473871 -0.171945,0.870746 -0.0926,1.190625 v 0 c 0.07428,0.259175 0.100735,0.492889 0.07937,0.701146 -0.02278,0.201091 -0.02718,0.52741 -0.01323,0.978958 -0.244533,-0.01648 -0.500298,-0.01209 -0.767292,0.01323 h -0.01323 c -0.376928,0.04768 -0.672378,0.105005 -0.886354,0.171979 H 11.7895 c -0.114308,0.03228 -0.26424,0.01463 -0.449792,-0.05292 -0.07669,-0.572265 -0.08551,-0.973551 -0.02646,-1.203854 v 0.01323 c 0.105074,-0.297691 0.113895,-0.615191 0.02646,-0.9525"
     style="display:inline;fill:#d1d7db;fill-opacity:1;stroke:none;stroke-width:0.264583"
     id="path1"
     inkscape:label="Planks"
     sodipodi:nodetypes="csccccccccccccssccccssccccccccccccccccccccccccccccccssccccccccccccccccccsccccccccccccccccssccsccccccccccccccccccsscccccccccccccsscccccccccccccccccccccccccccccccccccccccccccsscccccccccccccccccccccccccccccccccccccccccccccccccccccccccccccccsccccccccccccccccssccccccccccccscccccccccccccccssccccccccccsccsccccccccccccccccccccccccccccssccccccccccccccccccsccccccccccccsccccccccssccccsscsscccssccccccccccccccccccscccccccscccccccccccccccccccsccccccccccccsssscccccc" />
  <path
     d="m 3.4286763,52.267514 c -0.024839,-0.184002 -0.033658,-0.408898 -0.026458,-0.674687 0.2749875,0.01423 0.5660292,-0.01664 0.873125,-0.0926 0.295348,-0.05967 0.4981953,-0.05967 0.6085416,0 h -0.013229 c 0.1592667,0.138115 0.3885723,0.182211 0.6879166,0.132292 0.00847,0.24102 0.021704,0.501192 0.039688,0.780521 0.024701,0.398116 0.020291,0.728845 -0.013229,0.992187 v 0.01323 c -0.025458,0.278398 -0.078376,0.569439 -0.15875,0.873125 v 0.01323 c -0.076516,0.375034 -0.072106,0.696942 0.013229,0.96573 v 0.01323 c 0.060151,0.195165 0.095428,0.543534 0.1058325,1.045104 l -0.066146,0.529167 c -0.057878,0.271301 -0.093155,0.527066 -0.1058333,0.767292 -0.017777,0.344955 0.00427,0.710964 0.066146,1.09802 0.075,0.379548 0.1411455,0.710277 0.1984375,0.992188 0.056086,0.258141 0.047267,0.527135 -0.026458,0.806979 -0.080168,0.344749 -0.1022164,0.798951 -0.066146,1.362604 v 0.02646 c -0.00886,0.359736 -0.013264,0.725745 -0.013229,1.098021 v 0 c 0.00878,0.390054 0.013195,0.742831 0.013229,1.058334 v 0.912812 c -1.379e-4,0.305787 0.00427,0.539501 0.013229,0.701146 v 0.01323 c 0.014952,0.141767 0.010544,0.560689 -0.013229,1.256771 -0.1782493,0.02043 -0.389916,0.01601 -0.635,-0.01323 -0.345371,-0.04068 -0.6099543,-0.08919 -0.79375,-0.145521 -0.1687753,-0.06411 -0.3980807,-0.0597 -0.6879167,0.01323 0.00338,-0.511148 -0.00985,-0.859517 -0.039687,-1.045104 -0.031902,-0.201401 -0.036311,-0.448344 -0.013229,-0.740833 0.035312,-0.30203 0.075,-0.601893 0.1190625,-0.899584 0.047473,-0.311401 0.047473,-0.650951 0,-1.018645 C 3.460027,62.765583 3.437979,62.3643 3.428677,61.89835 v -0.02646 c -0.03266,-0.510839 -0.015021,-0.920944 0.052916,-1.230313 0.093259,-0.361632 0.1020781,-0.70559 0.026458,-1.031875 v -0.01323 C 3.4506905,59.322758 3.3845446,59.00085 3.3096138,58.630743 3.2568006,58.285787 3.2391616,57.959466 3.2566972,57.651785 m 2.6855208,-2.54 v 0.01323 c -0.05581,-0.198644 -0.05581,-0.436769 0,-0.714375 v 0.01323 c 0.08661,-0.328938 0.1439362,-0.646438 0.1719791,-0.9525 0.037035,-0.292317 0.041445,-0.658323 0.013229,-1.098021 -0.019465,-0.297932 -0.037104,-0.571333 -0.052917,-0.820208 -0.037162,-0.279303 -0.00517,-0.56935 -0.3042698,-0.502718 -0.021704,0.0032 -0.043753,0.0076 -0.066146,0.01323 -0.2257571,0.06869 -0.3933267,0.0731 -0.5027084,0.01323 v 0 c -0.1886878,-0.169878 -0.537056,-0.200747 -1.0451041,-0.0926 -0.3461975,0.08354 -0.6636975,0.105593 -0.9525,0.06615 h -0.013229 c -0.057292,-0.0059 -0.1102087,0.0029 -0.15875,0.02646 -0.1910338,0.07567 -0.153014,0.354936 -0.15875,0.595312 -0.00782,0.256453 0.00101,0.476941 0.026458,0.661458 0.0022,0.0088 0.0022,0.01315 0,0.01323 0.043822,0.254559 0.052641,0.602925 0.026458,1.045104 v 0 c -0.01764,0.480799 -0.030868,0.877674 -0.039687,1.190625 -0.0093,0.332005 -0.00489,0.618636 0.013229,0.859896 v 0.01323 c 0.024564,0.23368 0.024564,0.599686 0,1.098021 -0.097324,0.386125 -0.1546503,0.743313 -0.1719792,1.071563 -0.017777,0.344955 0.00427,0.710964 0.066146,1.09802 l 0.044342,0.215233 C 2.5950703,59.0142 2.318943,59.049477 2.0856411,59.044413 1.8070018,59.035285 1.564467,58.999997 1.3580369,58.938579 h -0.013229 c -0.1728061,-0.03907 -0.45027102,-0.07281 -0.70961772,-0.07784 l -0.0110972,-0.256451 c -0.007612,-0.370004 0.005617,-0.691915 0.0396875,-0.965729 0.0370004,-0.282258 0.0414102,-0.621806 0.0132292,-1.018646 v -0.01323 c -0.0157454,-0.346162 0.001905,-0.694531 0.0529167,-1.045104 h -0.0132292 c 0.0702799,-0.376272 0.0967383,-0.711412 0.079375,-1.005417 v -0.01323 c -0.008924,-0.266824 -0.0397915,-0.584324 -0.0926042,-0.9525 -0.0458198,-0.301929 -0.0370004,-0.553284 0.0264583,-0.754063 0.0809943,-0.211494 0.10304278,-0.634828 0.0661458,-1.27 0.001029,-0.308582 -0.047416,-0.551199 -0.3042708,-0.515937 -0.0594969,0.0054 -0.11241352,0.03191 -0.15875,0.07937 -0.004514,0.0044 -0.008924,0.0088 -0.0132292,0.01323 -0.0204285,0.02273 -0.0380682,0.04479 -0.0529167,0.06615 -0.008543,0.03545 -0.012954,0.07073 -0.0132292,0.105833 -3.9687e-4,0.0066 -3.9687e-4,0.01098 0,0.01323 0.0486794,0.682922 0.0398597,1.128303 -0.0264583,1.336146 -0.0953259,0.266581 -0.11296465,0.601721 -0.0529167,1.005417 0.0521242,0.349057 0.0829924,0.64892 0.0926042,0.899583 v 0.01323 c 0.0169148,0.258591 -0.005133,0.554041 -0.0661458,0.886355 v 0.01323 c -0.0545359,0.388056 -0.0721749,0.77611 -0.0529167,1.164166 v 0 c 0.0245295,0.363181 0.0201189,0.671862 -0.0132292,0.926042 -0.0363112,0.297794 -0.0495403,0.646163 -0.0396875,1.045104 v 0.01323 c 0.0175339,0.399045 0.0439931,0.80033 0.079375,1.203854 0.035071,0.415478 0.0571196,0.732978 0.0661458,0.9525 v 0 c 0.0171212,0.227168 0.0215318,0.593177 0.0132292,1.09802 v 0.01323 c -5.8208e-4,0.78607 -0.004993,1.218221 -0.0132292,1.296459 -5.5562e-4,0.0092 -5.5562e-4,0.01799 0,0.02646 -4.7625e-4,0.08206 0.0127529,0.324596 0.0396875,0.727604 0.031247,0.369142 3.7042e-4,0.686642 -0.0926042,0.9525 v 0.01323 c -0.11589306,0.361561 -0.10707344,0.736389 0.0264583,1.12448 0.0979096,0.302066 0.11554857,0.654843 0.0529167,1.058333 -0.0126762,0.04031 -0.0170868,0.08 -0.0132292,0.119062 0.008578,0.07286 0.0394459,0.130191 0.0926042,0.171979 0.0139197,0.01204 0.0227383,0.02085 0.0264583,0.02646 0.0572574,0.03235 0.11458389,0.04558 0.17197916,0.03969 0.3524332,-0.03996 0.59496793,-0.0576 0.72760413,-0.05292 0.1481391,0.01757 0.434771,0.04403 0.8598958,0.07937 0.4343233,0.03473 0.7782817,0.0259 1.031875,-0.02646 0.020809,5.29e-4 0.038447,-0.0039 0.052917,-0.01323 0.020532,0.0021 0.038172,-0.0024 0.052917,-0.01323 0.00844,7.94e-4 0.017259,-0.0037 0.026458,-0.01323 0.2933499,-0.112482 0.5138359,-0.15217 0.6614583,-0.119063 0.2042596,0.06711 0.4997111,0.124437 0.8863541,0.171979 0.3938778,0.04558 0.7201972,0.04117 0.9789584,-0.01323 0.2449118,0 0.4477591,-0.0088 0.6085416,-0.02646 0.154237,-0.01648 0.4585079,-0.01648 0.9128125,0 0.4673963,0.01677 0.8245838,0.02558 1.0715625,0.02646 0.2776403,0.03965 0.5157653,0.04406 0.714375,0.01323 0.163022,-0.02146 0.4540636,-0.0038 0.8731249,0.05292 0.468602,0.06163 0.834608,0.04399 1.09802,-0.05292 0.358463,0.153652 0.649504,0.184518 0.873125,0.09261 h -0.01323 c 0.190444,-0.05616 0.455028,-0.104662 0.79375,-0.145521 v 0 c 0.326699,-0.03238 0.63097,-0.02357 0.912812,0.02646 0.01045,0.0024 0.01926,0.0024 0.02646,0 0.02048,0.01019 0.04251,0.0146 0.06615,0.01323 0.0065,7.94e-4 0.01093,7.94e-4 0.01323,0 0.352433,-0.03996 0.594968,-0.0576 0.727604,-0.05292 0.148137,0.01757 0.434771,0.04403 0.859896,0.07937 0.451789,0.03614 0.804568,0.02732 1.058333,-0.02646 0.0064,-0.0024 0.01082,-0.0067 0.01323,-0.01323 h 0.02646 c 0.06732,-0.01344 0.120235,-0.05313 0.15875,-0.119062 v -0.01323 h 0.01323 c 0.01902,-0.03803 0.02784,-0.07772 0.02646,-0.119062 v -0.01323 c 7.94e-4,-0.780727 0.0097,-1.230519 0.02646,-1.349375 l -0.01323,0.01323 c 0.03738,-0.135049 0.04179,-0.417272 0.01323,-0.846667 -0.02619,-0.368038 -0.04382,-0.729636 -0.05292,-1.084791 v -0.01323 c 6.8e-5,-0.351402 0.0045,-0.686539 0.01323,-1.005417 0.0089,-0.307922 0.0089,-0.687157 0,-1.137708 -0.0087,-0.431155 -0.0087,-0.788342 0,-1.071562 0.0086,-0.260104 0.04829,-0.551146 0.119062,-0.873125 0.103836,-0.388057 0.103836,-0.77611 0,-1.164167 -0.07975,-0.327078 -0.13267,-0.666626 -0.15875,-1.018646 v -0.01323 c -0.01654,-0.316156 -0.0033,-0.620427 0.03969,-0.912813 0.0085,-0.02611 0.01289,-0.05698 0.01323,-0.0926 1.77e-4,-0.0046 1.77e-4,-0.01336 0,-0.02646 v -0.01323 c -0.05602,-0.626353 -0.0472,-1.032047 0.02646,-1.217083 0.141801,-0.230338 0.17267,-0.556659 0.0926,-0.978958 l 0.01323,0.01323 c -0.05271,-0.330108 -0.0924,-0.621149 -0.119063,-0.873125 -0.02569,-0.239504 -0.03452,-0.596691 -0.02646,-1.071563 0.0088,-0.479247 0.01315,-0.854072 0.01323,-1.124479 v 0 c -7.94e-4,-0.07245 -0.02717,-0.134186 -0.07938,-0.185208 -0.05102,-0.0523 -0.112758,-0.07875 -0.185208,-0.07938 h -0.01323 c -0.400319,3.4e-5 -0.691361,0.04854 -0.873125,0.145521 -0.124436,0.04806 -0.331694,0.03924 -0.62177,-0.02646 h -0.01323 c -0.377306,-0.06918 -0.747723,-0.108866 -1.11125,-0.119063 h -0.02646 c -0.178268,-0.03357 -0.268225,0.129108 -0.251356,0.529176 0.0041,0.291764 0.01294,0.600446 0.02646,0.926042 0.01707,0.419028 0.01707,0.758576 0,1.018646 -0.01783,0.284014 -0.02666,0.588285 -0.02646,0.912812 -7.94e-4,0.313815 -0.01852,0.591627 -0.05292,0.833438 -0.03821,0.276571 -0.02498,0.717544 0.03969,1.322916 -0.04534,0.244568 -0.08943,0.562068 -0.132292,0.9525 v 0 c -0.03655,0.433462 -0.04096,0.825926 -0.01323,1.177396 v 0.01323 l 0.01825,0.192591 C 12.526932,58.75893 11.922,59.276692 11.345681,59.117298 l -0.09857,-0.486555 c -0.05281,-0.344956 -0.07045,-0.671277 -0.05292,-0.978958 0.0176,-0.301205 0.07052,-0.627526 0.15875,-0.978959 0.0096,-0.01984 0.01402,-0.04189 0.01323,-0.06615 v -0.01323 c 0.02684,-0.840327 0.03125,-1.347446 0.01323,-1.521354 -0.0087,-0.155855 -0.0131,-0.380751 -0.01323,-0.674687 v -0.912813 c 0,-0.317672 -0.0044,-0.670451 -0.01323,-1.058333 m -8.0962438,5.225521 c 0.014089,-0.240985 0.049368,-0.501158 0.1058333,-0.780521 l 0.079375,-0.529167 c 0.013988,-0.410104 0.00958,-0.723193 -0.013229,-0.939271 -0.017158,-0.226171 -0.021566,-0.495165 -0.013229,-0.806979 0.00878,-0.311782 0.022013,-0.704246 0.039687,-1.177395 v -0.01323 c 0.026527,-0.485137 0.013298,-0.868783 -0.039687,-1.150937 l 0.013229,0.01323 M 0.69023884,65.073347 v 0 C 0.8088878,64.748267 0.8485753,64.360213 0.80930134,63.909181 0.78580634,63.5645 0.77257664,63.344012 0.76961384,63.247722 v -0.01323 c 0.008199,-0.09453 0.0126074,-0.45172 0.0132292,-1.071562 l 7e-8,-0.529171 c 0.00603,-0.393706 0.001614,-0.689158 -0.0132292,-0.886354 C 0.76065791,60.53061 0.73860811,60.21311 0.70346801,59.79491 L 0.67319248,59.4016 c 0.21021966,0.0053 0.40999462,0.02294 0.55255282,0.05292 h -0.013229 c 0.2433269,0.07087 0.5299591,0.110554 0.8598958,0.119063 0.2452564,0.0078 0.6237476,-0.03625 0.87238,-0.09691 l 0.047322,0.238851 c 0.056086,0.258141 0.047267,0.527135 -0.026458,0.806979 -0.0709,0.307268 -0.097358,0.699733 -0.079375,1.177396 l 0.013229,0.555644 c 0.017396,0.337344 0.039446,0.637204 0.066146,0.899583 v 0 c 0.040445,0.322083 0.040445,0.617535 0,0.886354 -0.044166,0.30203 -0.083854,0.606301 -0.1190625,0.912813 v 0.01323 c -0.027147,0.345612 -0.022738,0.636654 0.013229,0.873125 0.032384,0.189997 0.045613,0.560414 0.039687,1.11125 -0.1929255,0.02376 -0.43546,0.02376 -0.7276042,0 -0.4126879,-0.03521 -0.6905004,-0.06167 -0.8334375,-0.07938 -0.00241,-1.72e-4 -0.00682,-1.72e-4 -0.013229,0 -0.1045586,-0.0077 -0.272128,-0.0033 -0.50270833,0.01323 0.0289388,-0.379304 -0.006339,-0.718854 -0.10583333,-1.018646 -0.0957736,-0.273367 -0.10459323,-0.53795 -0.0264583,-0.79375 m 5.37104146,-2.06375 v -0.01323 c 3.44e-5,-0.261138 3.44e-5,-0.521311 0,-0.780521 l 8e-7,-0.542402 c -0.014711,-0.417029 0.00734,-0.760987 0.066146,-1.031875 0.129566,-0.347829 0.1072609,-0.619327 0.043998,-0.97202 l -0.010754,-0.046 c 0.3143305,0.05805 0.4267055,0.04641 0.5709862,0.006 l -0.013229,0.01323 C 6.8972287,59.614564 7.1529927,59.544014 7.48572,59.431117 H 7.472491 c 0.2246548,-0.06236 0.4831928,-0.05354 0.7171493,0.02646 l 0.041223,0.350565 c 0.017259,0.225824 0.02608,0.415443 0.026458,0.568854 v 0.01323 c 0.00662,0.140423 -0.011025,0.519658 -0.052916,1.137708 l -0.026458,0.542404 c 0.00682,0.195268 0.02005,0.459852 0.039688,0.793751 v 0 c 0.035105,0.458163 0.057154,0.872677 0.066146,1.243541 0.00699,0.358773 -0.019465,0.636585 -0.079375,0.833438 v 0.01323 c -0.067283,0.266065 -0.071692,0.552696 -0.013229,0.859896 0.044855,0.218006 0.049265,0.588422 0.013229,1.11125 -0.2194869,-0.0052 -0.5017092,-0.01405 -0.8466666,-0.02646 -0.4893757,-0.01884 -0.8156953,-0.01884 -0.9789583,0 -0.086334,0.0097 -0.1877576,0.01413 -0.3042709,0.01323 0.024839,-0.682784 0.029249,-1.101707 0.013229,-1.256771 -0.00868,-0.155856 -0.013092,-0.380752 -0.013229,-0.674688 v -0.912817 c 0,-0.317672 -0.00441,-0.670452 -0.013229,-1.058334 M 10.82378,52.426264 v 0 c 0.0088,0.390054 0.01319,0.742831 0.01323,1.058333 v 0.912813 c -1.38e-4,0.305787 0.0043,0.539501 0.01323,0.701146 v 0.01323 c 0.01523,0.144555 0.01082,0.576709 -0.01323,1.296458 l -0.0926,0.568854 c -0.0421,0.22755 -0.06856,0.443624 -0.07938,0.648229 -0.01778,0.344956 0.0043,0.710965 0.06615,1.098021 0.075,0.379548 0.141145,0.710277 0.198437,0.992188 0.05609,0.25814 0.04727,0.527134 -0.02646,0.806979 -0.08093,0.34754 -0.102974,0.80615 -0.06615,1.375833 v 0.02646 c 0.0076,0.393121 -0.03204,0.73708 -0.119062,1.031876 l -0.01323,0.01323 c -0.09178,0.370863 -0.109416,0.736872 -0.05292,1.09802 0.05722,0.333383 0.114549,0.637653 0.171979,0.912813 v 0.01323 c 0.0618,0.229032 0.05739,0.445105 -0.01323,0.64823 v 0.01323 c -0.08496,0.259313 -0.08937,0.704694 -0.01323,1.336145 -0.185208,0.03872 -0.427742,0.03872 -0.727603,0 -0.4893757,-0.06677 -0.8289245,-0.08441 -1.0186458,-0.05292 -0.092983,0.01333 -0.1988164,0.01775 -0.3175,0.01323 0.038619,-0.585597 0.0298,-1.000112 -0.026458,-1.243542 -0.038585,-0.222035 -0.034175,-0.429294 0.013229,-0.621769 v 0 c 0.072354,-0.235335 0.1032217,-0.566064 0.092611,-0.992189 -0.00861,-0.376962 -0.030662,-0.795885 -0.066146,-1.256771 -0.025733,-0.437078 -0.034554,-0.74576 -0.026458,-0.926042 6.615e-4,-0.01029 6.615e-4,-0.02352 0,-0.03969 0.052469,-0.81666 0.074518,-1.314958 0.066146,-1.494895 v -0.01323 C 8.7863509,60.202119 8.7775326,60.003682 8.7600304,59.768451 8.7413588,59.544659 8.6840318,59.19629 8.5880513,58.723347 8.5113634,58.297328 8.4893149,57.918091 8.5219054,57.585639 m 2.8310406,-5.159375 v -0.01323 c 6.9e-5,-0.277228 6.9e-5,-0.555041 0,-0.833438 0.02135,-0.305057 -0.01716,-0.526307 -0.211666,-0.529176 -0.418096,-0.06184 -0.717957,-0.05302 -0.899582,0.02646 -0.0018,0.0064 -0.0063,0.01077 -0.01323,0.01323 -0.112724,0.04306 -0.3199803,0.03865 -0.6217706,-0.01323 -0.3898125,-0.06081 -0.7734583,-0.07404 -1.1509375,-0.03969 -0.2742721,-0.01409 -0.2901189,0.230235 -0.2645841,0.515947 0.01502,0.257659 0.03266,0.54429 0.052917,0.859895 0.024701,0.398116 0.020291,0.728845 -0.013229,0.992188 v 0.01323 c -0.025458,0.278397 -0.078376,0.569439 -0.15875,0.873125 v 0.01323 c -0.076516,0.375034 -0.072106,0.696942 0.013229,0.96573 v 0.01323 c 0.069212,0.223999 0.1044898,0.651743 0.1058334,1.283229 -0.087471,0.288769 -0.1536168,0.606269 -0.1984375,0.9525 v 0.01323 c -0.037448,0.375965 -0.010991,0.808117 0.079375,1.296458 l 0.012438,0.07137 C 7.7922355,58.824414 7.6079178,58.84344 7.3269702,58.9284 h -0.013229 c -0.2934189,0.09874 -0.5183147,0.160473 -0.6746874,0.185209 -0.00403,0.0021 -0.00844,0.0021 -0.013229,0 -0.1187871,0.02336 -0.3128148,0.0057 -0.5820833,-0.05292 l -0.088294,-0.429946 c -0.052813,-0.344956 -0.070452,-0.671277 -0.052917,-0.978958 0.017433,-0.298 0.070349,-0.619911 0.15875,-0.965729 v -0.01323 c 0.00923,-0.02011 0.013642,-0.04217 0.013229,-0.06615 v -0.02646 C 6.0738217,55.856201 6.0297244,55.366721 5.942218,55.111785 m 8.096247,-2.632604 c -0.0131,-0.31278 -0.02191,-0.608232 -0.02646,-0.886354 0.253971,0.01691 0.509735,0.04778 0.767291,0.0926 0.451927,0.101388 0.773838,0.09698 0.965729,-0.01323 0.09061,-0.0412 0.218488,-0.06766 0.383646,-0.07937 -0.0028,0.226549 -0.0072,0.504362 -0.01323,0.833437 -0.0096,0.504087 -7.94e-4,0.883322 0.02646,1.137709 0.02625,0.259519 0.06594,0.559379 0.119063,0.899583 v 0 c 0.05226,0.274471 0.03903,0.486137 -0.03969,0.635 v 0.01323 c -0.111584,0.193064 -0.151271,0.598757 -0.119058,1.217083 l -0.01323,0.529166 c -0.02125,0.257694 -0.02567,0.522277 -0.01323,0.79375 v 0 c 0.02732,0.390846 0.08465,0.765673 0.171979,1.12448 0.08137,0.29986 0.08137,0.599723 0,0.899583 v 0 c -0.07927,0.367625 -0.123368,0.698354 -0.132292,0.992187 -0.009,0.290044 -0.009,0.65605 0,1.098021 0.0087,0.440213 0.0087,0.81063 0,1.11125 -0.0089,0.323942 -0.01326,0.667901 -0.01323,1.031875 v 0 c 0.0087,0.370279 0.02635,0.745106 0.05292,1.124479 0.02439,0.355568 0.02439,0.589282 0,0.701146 0.0021,0.0046 0.0021,0.009 0,0.01323 -0.01677,0.115377 -0.02559,0.51666 -0.02646,1.203854 -0.193958,0.02371 -0.436493,0.02371 -0.727604,0 -0.412689,-0.03521 -0.690502,-0.06167 -0.833437,-0.07938 -0.0024,-1.72e-4 -0.0068,-1.72e-4 -0.01323,0 -0.111619,-0.0082 -0.296828,-0.0038 -0.555625,0.01323 -0.01209,-0.434253 -0.0077,-0.747345 0.01323,-0.939271 0.03152,-0.267993 5.29e-4,-0.567856 -0.09261,-0.899583 -0.05206,-0.238747 -0.02561,-0.538607 0.07938,-0.899583 v 0.01323 c 0.136428,-0.444556 0.171704,-0.898755 0.105834,-1.362604 -0.05853,-0.394809 -0.0894,-0.690259 -0.0926,-0.886355 v -0.01323 c 7.93e-4,-0.0088 7.93e-4,-0.01765 0,-0.02646 -0.06808,-0.650951 -0.09013,-1.074284 -0.06615,-1.269999 0.04582,-0.21649 0.05023,-0.51194 0.01323,-0.886354 -0.03507,-0.333071 -0.07035,-0.677029 -0.105833,-1.031875 v 0 c -0.02487,-0.328457 -0.02048,-0.690052 0.01323,-1.084792 m -3e-6,6e-6 c 0.03414,-0.317604 0.06942,-0.582187 0.105833,-0.793751 l -2e-6,-0.542396 c -0.03438,-0.409313 -0.03879,-0.717992 -0.01323,-0.926041 0.03611,-0.260898 0.05375,-0.560758 0.05292,-0.899584 1.72e-4,-0.310438 0.009,-0.60148 0.02646,-0.873125 0.0182,-0.27795 0.0182,-0.639548 0,-1.084791 m -5.5165606,5.106458 c 0.033693,-0.272336 0.0822,-0.52369 0.1455209,-0.754063 l 0.052917,-0.555625 c -0.013608,-0.558104 -0.057706,-0.94616 -0.132292,-1.164166 v 0.01323 c -0.05581,-0.198644 -0.05581,-0.436769 0,-0.714375 v 0.01323 c 0.08661,-0.328938 0.1439362,-0.646438 0.1719791,-0.9525 0.037035,-0.292317 0.041445,-0.658323 0.013229,-1.098021 -0.019465,-0.298347 -0.037104,-0.571749 -0.052917,-0.820208 0.2670982,-0.01188 0.5360914,0.0013 0.8069792,0.03969 0.4569918,0.08048 0.7700814,0.07166 0.9392704,-0.02646 0.08513,-0.02304 0.204191,-0.02746 0.357188,-0.01323 -3.5e-5,0.285149 -3.5e-5,0.576191 0,0.873125 m 0.515937,12.435417 c -0.05722,-0.262861 -0.114549,-0.553903 -0.171979,-0.873125 -0.04055,-0.291558 -0.02291,-0.58701 0.05292,-0.886354 v 0 c 0.07765,-0.252045 0.121749,-0.538676 0.132292,-0.859896 l -5e-6,-0.542397 c -0.01601,-0.429157 0.006,-0.781934 0.06615,-1.058333 0.100103,-0.305853 0.09911,-0.607243 0.04692,-0.919404 l -0.0092,-0.05371 c 0.741534,0.116593 1.205218,-0.412926 1.945731,-0.170441 l 0.02742,0.270427 c 0.03352,0.313471 0.03352,0.560414 0,0.740834 -0.02932,0.175699 -0.0249,0.510838 0.01323,1.005416 l 0.03969,0.568857 c 0.01474,0.201985 0.04561,0.466569 0.0926,0.79375 0.0576,0.382817 0.03114,0.757645 -0.07938,1.124479 v 0 c -0.141076,0.473871 -0.171945,0.870746 -0.0926,1.190625 v 0 c 0.07428,0.259175 0.100735,0.492889 0.07937,0.701146 -0.02278,0.201091 -0.02718,0.52741 -0.01323,0.978958 -0.244533,-0.01648 -0.500298,-0.01209 -0.767292,0.01323 h -0.01323 c -0.376928,0.04768 -0.672378,0.105005 -0.886354,0.171979 H 11.7895 c -0.114308,0.03228 -0.26424,0.01463 -0.449792,-0.05292 -0.07669,-0.572265 -0.08551,-0.973551 -0.02646,-1.203854 v 0.01323 c 0.105074,-0.297691 0.113895,-0.615191 0.02646,-0.9525"
     style="display:inline;fill:#d1d7db;fill-opacity:1;stroke:none;stroke-width:0.264583"
     id="path1-2"
     inkscape:label="Planks"
     sodipodi:nodetypes="cccccccccccccccccccccssccccccccccccccccccccccccccccsscccccccssccccccccccccccccccccccccccccccccccssccccssccccccccccccccccccccccccccccccssccccccccccccccccccsccccccccccccccccssccscccccccccccccsccccccccccccccccccccccsccccccccccccccccssccccccccccccscccccccccccccccssccccccccccsccsccccccccccccccccccccccccccccssccccccccccccccccccccccccccccccccccccccsccccccccssccccsscsscccssccccccccccccccccccscccccccscccccccccccccccccccsccccccccccccsssscccccc" />
  <path
     d="m 3.4287002,18.42863 c -0.024839,-0.184002 -0.033658,-0.408898 -0.026458,-0.674688 0.2749863,0.01424 0.5660267,-0.01664 0.8731212,-0.0926 0.2953467,-0.05967 0.4981931,-0.05967 0.6085389,0 h -0.013229 c 0.159266,0.138115 0.3885706,0.182211 0.6879136,0.132292 0.00847,0.241019 0.021704,0.501192 0.039688,0.780521 0.024701,0.398115 0.020291,0.728845 -0.013229,0.992187 v 0.01323 c -0.025458,0.278397 -0.078376,0.569439 -0.1587493,0.873125 v 0.01323 c -0.076516,0.375034 -0.072106,0.696942 0.013229,0.965729 v 0.01323 c 0.060151,0.195165 0.095428,0.543534 0.105832,1.045105 l -0.066146,0.529167 c -0.057878,0.271301 -0.093155,0.527065 -0.1058328,0.767291 -0.017777,0.344956 0.00427,0.710965 0.066146,1.098021 0.075,0.379548 0.1411449,0.710277 0.1984366,0.992188 0.056086,0.25814 0.047267,0.527134 -0.026458,0.806979 -0.080168,0.344749 -0.1022159,0.798951 -0.066146,1.362604 v 0.02646 c -0.00886,0.359736 -0.013264,0.725745 -0.013229,1.098021 v 0 c 0.00878,0.390054 0.013195,0.742831 0.013229,1.058334 v 0.912812 c -1.379e-4,0.305787 0.00427,0.539501 0.013229,0.701146 v 0.01323 c 0.014952,0.141767 0.010544,0.560689 -0.013229,1.256771 -0.1782485,0.02043 -0.3899143,0.01601 -0.6349972,-0.01323 C 4.5649907,33.059105 4.3004086,33.010595 4.1166137,32.954264 3.9478391,32.890154 3.7185347,32.894564 3.4287,32.967494 3.43208,32.456346 3.41885,32.107977 3.389013,31.92239 3.357111,31.720989 3.352702,31.474046 3.375784,31.181557 c 0.035312,-0.30203 0.075,-0.601893 0.119062,-0.899584 0.047473,-0.311401 0.047473,-0.650951 0,-1.018645 C 3.46005,28.926706 3.438002,28.525423 3.4287,28.059473 v -0.02646 C 3.39604,27.522174 3.413679,27.112069 3.481616,26.8027 3.574875,26.441068 3.5836936,26.097109 3.508074,25.770825 v -0.01323 C 3.4507143,25.483874 3.3845687,25.161966 3.3096382,24.791859 3.2568253,24.446903 3.2391863,24.120582 3.2567219,23.812901 m 0,0 c 0.014089,-0.240986 0.049368,-0.501158 0.1058328,-0.780521 l 0.079375,-0.529167 c 0.013988,-0.410104 0.00958,-0.723193 -0.013229,-0.939271 -0.017158,-0.226171 -0.021566,-0.495165 -0.013229,-0.806979 0.00878,-0.311782 0.022013,-0.704247 0.039687,-1.177396 v -0.01323 C 3.4816857,19.0812 3.4684567,18.697554 3.4154717,18.4154 l 0.013229,0.01323 m 7.3950723,0.15875 v 0 c 0.0088,0.390054 0.01319,0.742831 0.01323,1.058333 v 0.912813 c -1.38e-4,0.305786 0.0043,0.539501 0.01323,0.701145 v 0.01323 c 0.01523,0.144555 0.01082,0.57671 -0.01323,1.296459 l -0.0926,0.568854 c -0.0421,0.227549 -0.06856,0.443624 -0.07938,0.648229 -0.01778,0.344956 0.0043,0.710964 0.06615,1.098021 0.075,0.379547 0.141145,0.710276 0.198436,0.992187 0.05609,0.258141 0.04727,0.527135 -0.02646,0.80698 -0.08093,0.34754 -0.102974,0.80615 -0.06615,1.375833 v 0.02646 c 0.0076,0.393121 -0.03204,0.73708 -0.119062,1.031876 l -0.01323,0.01323 c -0.09178,0.370863 -0.109415,0.736872 -0.05292,1.09802 0.05722,0.333383 0.114548,0.637653 0.171978,0.912813 v 0.01323 c 0.0618,0.229032 0.05739,0.445105 -0.01323,0.64823 v 0.01323 c -0.08496,0.259313 -0.08937,0.704694 -0.01323,1.336145 -0.185207,0.03872 -0.42774,0.03872 -0.7276,0 -0.4893741,-0.06677 -0.8289215,-0.08441 -1.0186419,-0.05292 -0.092983,0.01333 -0.1988156,0.01775 -0.3174986,0.01323 0.038619,-0.585597 0.0298,-1.000112 -0.026458,-1.243542 -0.038585,-0.222035 -0.034175,-0.429294 0.013229,-0.621769 v 0 c 0.072354,-0.235335 0.1032213,-0.566064 0.092611,-0.992189 -0.00861,-0.376962 -0.030662,-0.795885 -0.066146,-1.256771 -0.025733,-0.437078 -0.034554,-0.74576 -0.026458,-0.926042 6.615e-4,-0.01029 6.615e-4,-0.02352 0,-0.03969 0.052469,-0.81666 0.074518,-1.314958 0.066146,-1.494896 V 26.52488 C 8.7863513,26.363235 8.7775331,26.164798 8.760031,25.929567 8.7413594,25.705775 8.6840327,25.357406 8.5880526,24.884463 8.511365,24.458444 8.4893166,24.079206 8.521907,23.746755 m 2.831029,-5.159376 v -0.01323 c 6.9e-5,-0.277227 6.9e-5,-0.55504 0,-0.833437 0.05848,-0.508202 -0.05757,-0.567595 -0.211665,-0.529176 -0.418095,-0.06184 -0.717954,-0.05302 -0.899579,0.02646 -0.0018,0.0064 -0.0063,0.01077 -0.01323,0.01323 -0.112724,0.04306 -0.3199798,0.03865 -0.6217688,-0.01323 -0.3898108,-0.06081 -0.7734549,-0.07404 -1.1509324,-0.03969 -0.1465399,0.01639 -0.2972354,0.02171 -0.264583,0.515946 0.01502,0.257659 0.03266,0.54429 0.052917,0.859896 0.024701,0.398116 0.020291,0.728845 -0.013229,0.992188 v 0.01323 c -0.025458,0.278397 -0.078376,0.569438 -0.1587493,0.873125 v 0.01323 c -0.076516,0.375034 -0.072106,0.696942 0.013229,0.96573 v 0.01323 c 0.069212,0.223998 0.1044893,0.651742 0.1058329,1.283229 -0.087471,0.288769 -0.1536161,0.606269 -0.1984366,0.9525 v 0.01323 c -0.037448,0.375965 -0.010991,0.808116 0.079375,1.296458 l 0.012438,0.07137 c -0.2923149,-0.07614 -0.4766318,-0.05711 -0.7575782,0.02785 h -0.013229 c -0.2934176,0.09874 -0.5183124,0.160473 -0.6746845,0.185209 -0.00403,0.0021 -0.00844,0.0021 -0.013229,0 -0.1187866,0.02336 -0.3128134,0.0057 -0.5820808,-0.05292 L 5.9554599,24.791859 C 5.902647,24.446903 5.885008,24.120582 5.9025436,23.812901 5.9199769,23.5149 5.9728925,23.19299 6.0612929,22.847171 v -0.01323 c 0.00923,-0.02011 0.013642,-0.04217 0.013229,-0.06615 v -0.02646 C 6.073834,22.017316 6.0297369,21.527837 5.9422309,21.2729 v 0.01323 c -0.05581,-0.198643 -0.05581,-0.436768 0,-0.714375 v 0.01323 c 0.08661,-0.328937 0.1439356,-0.646437 0.1719783,-0.9525 0.037035,-0.292316 0.041445,-0.658323 0.013229,-1.09802 -0.019465,-0.297932 -0.037104,-0.571334 -0.052917,-0.820209 -0.00836,-0.271581 -0.039446,-0.517769 -0.3042685,-0.502717 -0.021704,0.0032 -0.043753,0.0076 -0.066146,0.01323 -0.2257561,0.06869 -0.3933249,0.0731 -0.5027062,0.01323 v 0 C 5.0127136,17.06812 4.6643469,17.037251 4.156301,17.145399 c -0.346196,0.08354 -0.6636946,0.105592 -0.9524958,0.06615 h -0.013229 c -0.057292,-0.0059 -0.1102082,0.0029 -0.1587493,0.02646 -0.1773293,0.177701 -0.1591158,0.387994 -0.1587493,0.595312 -0.00782,0.256452 0.00101,0.47694 0.026458,0.661458 0.0022,0.0088 0.0022,0.01315 0,0.01323 0.043822,0.254558 0.052641,0.602925 0.026458,1.045104 v 0 c -0.01764,0.480798 -0.030868,0.877673 -0.039687,1.190625 -0.0093,0.332005 -0.00489,0.618636 0.013229,0.859896 v 0.01323 c 0.024564,0.23368 0.024564,0.599686 0,1.098021 -0.097324,0.386125 -0.1546496,0.743312 -0.1719784,1.071562 -0.017777,0.344956 0.00427,0.710965 0.066146,1.098021 l 0.044342,0.215233 C 2.595098,25.175331 2.3189719,25.210609 2.085671,25.205545 1.8070329,25.196445 1.5644992,25.161125 1.35807,25.099711 H 1.3448409 C 1.1720356,25.060625 0.89457187,25.026882 0.63522631,25.021852 L 0.62412919,24.7654 c -0.007612,-0.370003 0.005617,-0.691914 0.0396873,-0.965729 0.0370002,-0.282257 0.04141,-0.621805 0.0132291,-1.018645 v -0.01323 c -0.0157453,-0.346163 0.001905,-0.694532 0.0529164,-1.045105 h -0.0132291 c 0.0702796,-0.376272 0.0967379,-0.711411 0.0793746,-1.005416 v -0.01323 c -0.008924,-0.266824 -0.0397913,-0.584324 -0.0926037,-0.9525 -0.0458196,-0.301929 -0.0370002,-0.553283 0.0264582,-0.754062 0.0809939,-0.211495 0.10304233,-0.634828 0.0661456,-1.27 -0.0346487,-0.238754 0.005629,-0.552435 -0.30426946,-0.515938 -0.0594966,0.0055 -0.11241303,0.03191 -0.15874931,0.07938 -0.004514,0.0044 -0.008924,0.0088 -0.0132291,0.01323 -0.0204284,0.02273 -0.038068,0.04479 -0.0529165,0.06614 -0.008543,0.03545 -0.0129539,0.07073 -0.0132291,0.105834 -3.9687e-4,0.0066 -3.9687e-4,0.01098 0,0.01323 0.0486792,0.682921 0.0398595,1.128302 -0.0264582,1.336146 -0.0953255,0.266581 -0.11296415,0.601721 -0.0529165,1.005416 0.052124,0.349057 0.082992,0.64892 0.0926038,0.899584 v 0.01323 c 0.0169147,0.25859 -0.005133,0.55404 -0.0661455,0.886354 v 0.01323 c -0.0545357,0.388057 -0.0721746,0.77611 -0.0529165,1.164167 v 0 c 0.0245294,0.36318 0.0201188,0.671861 -0.0132291,0.926041 -0.03631104,0.297794 -0.04954008,0.646163 -0.03968733,1.045105 v 0.01323 c 0.01753383,0.399044 0.04399291,0.80033 0.07937466,1.203854 0.0350708,0.415478 0.0571194,0.732978 0.0661455,0.9525 v 0 c 0.0171211,0.227168 0.0215317,0.593177 0.0132291,1.09802 v 0.01323 c -5.8208e-4,0.78607 -0.004993,1.218221 -0.0132291,1.296459 -5.5562e-4,0.0092 -5.5562e-4,0.01799 0,0.02646 -4.7625e-4,0.08206 0.0127528,0.324596 0.0396873,0.727604 0.0312469,0.369142 3.7042e-4,0.686642 -0.0926038,0.9525 v 0.01323 c -0.11589255,0.361561 -0.10707297,0.736389 0.0264582,1.12448 0.0979092,0.302066 0.11554807,0.654843 0.0529165,1.058333 -0.0126761,0.04031 -0.0170867,0.08 -0.0132291,0.119062 0.008578,0.07286 0.0394457,0.130191 0.0926038,0.171979 0.0139196,0.01204 0.0227382,0.02085 0.0264582,0.02646 0.0572571,0.03235 0.11887113,0.06501 0.1719784,0.03969 0.19048536,-0.09081 0.24099015,-0.36107 0.27781152,-0.568856 0.0595666,-0.336139 -0.006339,-0.718854 -0.10583287,-1.018646 -0.0957732,-0.273367 -0.10459277,-0.53795 -0.0264582,-0.793753 l -5e-8,-2e-6 C 0.80892329,30.909386 0.84861061,30.521332 0.80933682,30.0703 0.78584192,29.725619 0.77261232,29.505131 0.76964952,29.408841 v -0.01323 c 0.008199,-0.09453 0.0126073,-0.45172 0.0132291,-1.071562 l 7e-8,-0.529171 c 0.00603,-0.393706 0.001614,-0.689158 -0.0132292,-0.886354 -0.008956,-0.216795 -0.0310057,-0.534295 -0.0661456,-0.952496 l -0.0302754,-0.393309 c 0.21021874,0.0053 0.40999291,0.02294 0.55255041,0.05292 H 1.21255 c 0.2433258,0.07087 0.5299567,0.110554 0.859892,0.119063 0.2452554,0.0078 0.6237449,-0.03625 0.8723762,-0.09691 l 0.047322,0.238851 c 0.056086,0.25814 0.047267,0.527134 -0.026458,0.806979 -0.0709,0.307268 -0.097358,0.699733 -0.079375,1.177396 l 0.013229,0.555644 c 0.017396,0.337344 0.039446,0.637204 0.066146,0.899583 v 0 c 0.040445,0.322083 0.040445,0.617535 0,0.886354 -0.044166,0.30203 -0.083854,0.606301 -0.1190619,0.912813 v 0.01323 c -0.027147,0.345612 0.013229,0.873125 0.013229,0.873125 0.065308,0.393091 -0.011881,0.785878 0.039687,1.11125 0.029641,0.187023 -0.076097,0.475719 0.2645821,0.502696 0.018125,0.0014 0.038447,-0.0039 0.052917,-0.01323 0.020532,0.0021 0.038172,-0.0024 0.052917,-0.01323 0.00844,7.94e-4 0.017259,-0.0037 0.026458,-0.01323 0.2933486,-0.112482 0.5138336,-0.15217 0.6614554,-0.119063 0.2042587,0.06711 0.4997089,0.124437 0.8863502,0.171979 0.3938761,0.04558 0.720194,0.04117 0.9789541,-0.01323 0.3030721,-0.05549 0.2653631,-0.305702 0.2513538,-0.542377 0.024839,-0.682784 0.029249,-1.101707 0.013229,-1.256771 -0.00868,-0.155856 -0.013092,-0.380752 -0.013229,-0.674688 v -0.912817 c 0,-0.317672 -0.00441,-0.670452 -0.01323,-1.058335 l -5e-7,-0.01323 c 3.44e-5,-0.261138 3.44e-5,-0.521311 0,-0.780521 l 8e-7,-0.542402 c -0.014711,-0.417029 0.00734,-0.760987 0.066146,-1.031875 0.1295654,-0.347829 0.1072604,-0.619327 0.043998,-0.972021 l -0.010754,-0.046 c 0.3143292,0.05805 0.4267037,0.04641 0.5709837,0.006 l -0.013229,0.01323 C 6.897237,25.77568 7.1529999,25.70513 7.4857257,25.592233 h -0.013229 c 0.2246538,-0.06236 0.4831907,-0.05354 0.7171461,0.02646 l 0.041223,0.350564 c 0.017259,0.225825 0.02608,0.415444 0.026458,0.568855 v 0.01323 c 0.00662,0.140422 -0.011025,0.519658 -0.052916,1.137708 l -0.026457,0.542404 c 0.00682,0.195268 0.02005,0.459852 0.039688,0.793751 v 0 c 0.035105,0.458163 0.057154,0.872677 0.066146,1.243541 0.00699,0.358773 -0.019465,0.636585 -0.079375,0.833438 v 0.01323 c -0.067283,0.266065 -0.071692,0.552696 -0.013229,0.859896 0.044855,0.218006 0.049265,0.588422 0.013229,1.11125 -0.014181,0.228166 -0.046212,0.467239 0.211665,0.529147 0.277639,0.03965 0.515763,0.04406 0.7143718,0.01323 0.1630213,-0.02146 0.4540616,-0.0038 0.8731214,0.05292 0.468599,0.06163 0.834604,0.04399 1.098015,-0.05292 0.231787,-0.03241 0.217621,-0.261574 0.238115,-0.463015 -0.07669,-0.572265 -0.08551,-0.973551 -0.02646,-1.203854 v 0.01323 c 0.105074,-0.297691 0.113894,-0.615191 0.02646,-0.9525 -0.05722,-0.262861 -0.114544,-0.553903 -0.171974,-0.873125 -0.04055,-0.291558 -0.02291,-0.58701 0.05292,-0.886354 v 0 c 0.07765,-0.252045 0.121749,-0.538676 0.132292,-0.859896 l -5e-6,-0.542397 c -0.01601,-0.429157 0.006,-0.781934 0.06615,-1.058333 0.100104,-0.305853 0.09911,-0.607244 0.04692,-0.919404 l -0.0092,-0.05371 c 0.741531,0.116593 1.205214,-0.412926 1.945723,-0.170441 l 0.02742,0.270427 c 0.03352,0.313471 0.03352,0.560414 0,0.740833 -0.02932,0.1757 -0.0249,0.510839 0.01323,1.005417 l 0.03969,0.568857 c 0.01474,0.201985 0.04561,0.466569 0.0926,0.79375 0.0576,0.382817 0.03114,0.757645 -0.07938,1.124479 v 0 c -0.141075,0.473871 -0.171944,0.870746 -0.0926,1.190625 v 0 c 0.07428,0.259175 0.100734,0.492889 0.07937,0.701146 -0.02278,0.201091 -0.02718,0.52741 -0.01323,0.978958 0.02986,0.218641 -0.0341,0.512331 0.198402,0.568854 0.01045,0.0024 0.01926,0.0024 0.02646,0 0.02048,0.01019 0.04251,0.0146 0.06615,0.01323 0.0065,7.94e-4 0.01093,7.94e-4 0.01323,0 0.352431,-0.03996 0.594965,-0.0576 0.727601,-0.05292 0.148136,0.01757 0.434769,0.04403 0.859892,0.07937 0.451787,0.03614 0.804565,0.02732 1.058328,-0.02646 0.0064,-0.0024 0.01082,-0.0067 0.01323,-0.01323 h 0.02646 c 0.06732,-0.01344 0.120235,-0.05313 0.15875,-0.119062 v -0.01323 h 0.01323 c 0.01902,-0.03803 0.02784,-0.07772 0.02646,-0.119062 v -0.01323 c 7.94e-4,-0.780727 0.0097,-1.230519 0.02646,-1.349375 l -0.01323,0.01323 c 0.03738,-0.135049 0.04179,-0.417272 0.01323,-0.846667 -0.02619,-0.368038 -0.04382,-0.729636 -0.05292,-1.084791 v -0.01323 c 6.8e-5,-0.351402 0.0045,-0.686539 0.01323,-1.005417 0.0089,-0.307922 0.0089,-0.687157 0,-1.137708 -0.0087,-0.431155 -0.0087,-0.788342 0,-1.071563 0.0086,-0.260104 0.04829,-0.551145 0.119062,-0.873125 0.103835,-0.388056 0.103835,-0.77611 0,-1.164166 C 16.683899,24.478 16.630979,24.138452 16.6049,23.786432 v -0.01323 c -0.01654,-0.316156 -0.0033,-0.620427 0.03969,-0.912813 0.0085,-0.02611 0.01289,-0.05698 0.01323,-0.0926 1.77e-4,-0.0045 1.77e-4,-0.01336 0,-0.02646 v -0.01323 c -0.05602,-0.626353 -0.0472,-1.032047 0.02646,-1.217083 0.141801,-0.230338 0.172669,-0.55666 0.0926,-0.978958 l 0.01323,0.01323 c -0.05271,-0.330108 -0.0924,-0.621149 -0.119063,-0.873125 -0.02569,-0.239504 -0.03452,-0.596691 -0.02646,-1.071563 0.0088,-0.479248 0.01315,-0.854072 0.01323,-1.124479 v 0 c -7.94e-4,-0.07245 -0.02717,-0.134186 -0.07938,-0.185208 -0.05102,-0.0523 -0.112758,-0.07875 -0.185206,-0.07938 h -0.01323 c -0.400318,3.4e-5 -0.691358,0.04854 -0.873122,0.14552 -0.124435,0.04806 -0.331692,0.03924 -0.621767,-0.02646 h -0.01323 c -0.3773,-0.06918 -0.747716,-0.108867 -1.111241,-0.119064 h -0.02646 c -0.200414,-0.01313 -0.296172,0.143805 -0.251355,0.529176 0.0041,0.291764 0.01294,0.600445 0.02646,0.926042 0.01707,0.419028 0.01707,0.758576 0,1.018645 -0.01783,0.284015 -0.02666,0.588286 -0.02646,0.912813 -7.94e-4,0.313814 -0.01852,0.591627 -0.05292,0.833437 -0.03821,0.276572 -0.02498,0.717545 0.03969,1.322917 -0.04534,0.244568 -0.08943,0.562068 -0.132291,0.9525 v 0 c -0.03655,0.433462 -0.04096,0.825926 -0.01323,1.177396 v 0.01323 l 0.01825,0.192591 c -0.815405,-0.170237 -1.420334,0.347525 -1.996651,0.188131 l -0.09857,-0.486555 c -0.05281,-0.344956 -0.07045,-0.671277 -0.05292,-0.978959 0.0176,-0.301204 0.07052,-0.627525 0.15875,-0.978958 0.0096,-0.01984 0.01402,-0.04189 0.01323,-0.06615 v -0.01323 c 0.02684,-0.840327 0.03125,-1.347446 0.01323,-1.521354 -0.0087,-0.155856 -0.0131,-0.380751 -0.01323,-0.674687 v -0.912813 c 0,-0.317672 -0.0044,-0.670451 -0.01323,-1.058333 m 2.685512,0.05292 c -0.0131,-0.31278 -0.02191,-0.608232 -0.02646,-0.886354 0.253971,0.01691 0.509734,0.04778 0.767289,0.0926 0.451924,0.101388 0.773834,0.09698 0.965723,-0.01323 0.09061,-0.0412 0.218487,-0.06766 0.383645,-0.07937 -0.0028,0.226549 -0.0072,0.504362 -0.01323,0.833437 -0.0096,0.504087 -7.94e-4,0.883322 0.02646,1.137708 0.02625,0.25952 0.06594,0.55938 0.119062,0.899584 v 0 c 0.05226,0.27447 0.03903,0.486137 -0.03969,0.635 v 0.01323 c -0.111583,0.193063 -0.15127,0.598757 -0.119057,1.217083 l -0.01323,0.529166 c -0.02125,0.257694 -0.02567,0.522277 -0.01323,0.79375 v 0 c 0.02732,0.390845 0.08465,0.765673 0.171978,1.124479 0.08137,0.29986 0.08137,0.599723 0,0.899584 v 0 c -0.07927,0.367625 -0.123367,0.698354 -0.132291,0.992187 -0.009,0.290044 -0.009,0.65605 0,1.098021 0.0087,0.440213 0.0087,0.81063 0,1.11125 -0.0089,0.323942 -0.01326,0.667901 -0.01323,1.031875 v 0 c 0.0087,0.370279 0.02635,0.745106 0.05292,1.124479 0.02439,0.355568 0.02439,0.589282 0,0.701146 0.0021,0.0046 0.0021,0.009 0,0.01323 -0.01677,0.115377 -0.02559,0.51666 -0.02646,1.203854 -0.193957,0.02371 -0.436491,0.02371 -0.727601,0 -0.412687,-0.03521 -0.690499,-0.06167 -0.833433,-0.07938 -0.0024,-1.72e-4 -0.0068,-1.72e-4 -0.01323,0 -0.111619,-0.0082 -0.296827,-0.0038 -0.555623,0.01323 -0.01209,-0.434253 -0.0077,-0.747345 0.01323,-0.939271 0.03152,-0.267993 5.29e-4,-0.567856 -0.09261,-0.899583 -0.05206,-0.238747 -0.02561,-0.538607 0.07938,-0.899583 v 0.01323 c 0.136427,-0.444556 0.171703,-0.898755 0.105834,-1.362604 -0.05853,-0.394809 -0.0894,-0.690259 -0.0926,-0.886355 v -0.01323 c 7.93e-4,-0.0088 7.93e-4,-0.01765 0,-0.02646 -0.06808,-0.650951 -0.09013,-1.074284 -0.06615,-1.269999 0.04582,-0.21649 0.05023,-0.51194 0.01323,-0.886354 -0.03507,-0.333071 -0.07035,-0.677029 -0.105832,-1.031875 v 0 c -0.02487,-0.328457 -0.02048,-0.690052 0.01323,-1.084792 m -3e-6,5e-6 c 0.03414,-0.317603 0.06942,-0.582186 0.105832,-0.79375 l -2e-6,-0.542396 c -0.03438,-0.409313 -0.03879,-0.717992 -0.01323,-0.926042 0.03611,-0.260897 0.05375,-0.560758 0.05292,-0.899583 1.72e-4,-0.310438 0.009,-0.60148 0.02646,-0.873125 0.0182,-0.27795 0.0182,-0.639548 0,-1.084792 m -5.5165365,5.106459 c 0.033693,-0.272336 0.0822,-0.52369 0.1455203,-0.754063 l 0.052917,-0.555625 c -0.013608,-0.558104 -0.057706,-0.94616 -0.1322914,-1.164166 v 0.01323 c -0.05581,-0.198644 -0.05581,-0.436769 0,-0.714375 v 0.01323 c 0.08661,-0.328938 0.1439356,-0.646438 0.1719784,-0.9525 0.037035,-0.292317 0.041445,-0.658323 0.013229,-1.098021 -0.019465,-0.298347 -0.037104,-0.571749 -0.052917,-0.820209 0.2670971,-0.01188 0.5360891,0.0013 0.8069757,0.03969 0.4569898,0.08048 0.7700785,0.07166 0.9392665,-0.02646 0.08513,-0.02305 0.204191,-0.02746 0.357187,-0.01323 -3.5e-5,0.28515 -3.5e-5,0.576191 0,0.873125"
     style="display:inline;fill:#d1d7db;fill-opacity:1;stroke:none;stroke-width:0.264582"
     id="path1-3-1"
     inkscape:label="Planks"
     sodipodi:nodetypes="cccccccccccccccccccccsscccccccccccccccccccccccccccccsccccccccccccccccccccccccccccssccccccccccccccccccccccccccccccccccccccccccccccsscccccccssccccccccccccccccccccccccccccccccccssccccssccccccccccccaaccsccccccccccccccccssccccsscccccccccscscccccccccccccccssccccccccccccccccccsccccccccccccscccccccccccccccccccsccccccccccccccccssccscccccccccccccsccccccccccccsccccccccssccccsscsscccssccccccccccccccccccscccccccsccccccccccccc" />
  <path
     d="m 0.51826151,34.144879 v 0 c -0.006683,6.9e-5 -0.0155019,6.9e-5 -0.0264583,0 -0.0594969,0.0054 -0.11241352,0.03191 -0.15875,0.07937 -0.004514,0.0044 -0.008924,0.0088 -0.0132292,0.01323 -0.0204285,0.02273 -0.0380682,0.04479 -0.0529167,0.06614 -0.008543,0.03545 -0.012954,0.07073 -0.0132292,0.105834 -3.9687e-4,0.0066 -3.9687e-4,0.01098 0,0.01323 0.0486794,0.682921 0.0398597,1.128302 -0.0264583,1.336146 -0.0953259,0.266581 -0.11296465,0.601721 -0.0529167,1.005416 0.0521242,0.349057 0.0829924,0.64892 0.0926042,0.899584 v 0.01323 c 0.0169148,0.25859 -0.005133,0.55404 -0.0661458,0.886354 v 0.01323 c -0.0545359,0.388057 -0.0721749,0.77611 -0.0529167,1.164167 v 0 c 0.0245295,0.36318 0.0201189,0.671861 -0.0132292,0.926041 -0.0363112,0.297794 -0.0495403,0.646163 -0.0396875,1.045105 v 0.01323 c 0.0175339,0.399044 0.0439931,0.80033 0.079375,1.203854 0.035071,0.415478 0.0571196,0.732978 0.0661458,0.9525 v 0 c 0.0171212,0.227168 0.0215318,0.593177 0.0132292,1.09802 v 0.01323 c -5.8208e-4,0.78607 -0.004993,1.218221 -0.0132292,1.296459 -5.5562e-4,0.0092 -5.5562e-4,0.01799 0,0.02646 -4.7625e-4,0.08206 0.0127529,0.324596 0.0396875,0.727604 0.031247,0.369142 3.7042e-4,0.686642 -0.0926042,0.9525 v 0.01323 c -0.11589306,0.361561 -0.10707344,0.736389 0.0264583,1.12448 0.0979096,0.302066 0.11554857,0.654843 0.0529167,1.058333 -0.0126762,0.04031 -0.0170868,0.08 -0.0132292,0.119062 0.008578,0.07286 0.0394459,0.130191 0.0926042,0.171979 0.0139197,0.01204 0.0227383,0.02085 0.0264583,0.02646 0.0572574,0.03235 0.11887165,0.06501 0.17197916,0.03969 0.19048619,-0.09081 0.2409912,-0.36107 0.27781273,-0.568856 0.0595669,-0.336139 -0.006339,-0.718854 -0.10583333,-1.018646 -0.0957736,-0.273367 -0.10459323,-0.53795 -0.0264583,-0.793753 l -5e-8,-2e-6 c 0.11864896,-0.32508 0.15833646,-0.713134 0.1190625,-1.164166 -0.023495,-0.344681 -0.0367247,-0.565169 -0.0396875,-0.661459 v -0.01323 c 0.008199,-0.09453 0.0126074,-0.45172 0.0132292,-1.071562 l 7e-8,-0.529171 c 0.00603,-0.393706 0.001614,-0.689158 -0.0132292,-0.886355 -0.008956,-0.216794 -0.0310058,-0.534294 -0.0661459,-0.952495 l -0.0302755,-0.393309 c 0.21021966,0.0053 0.40999459,0.02294 0.55255279,0.05292 h -0.013229 c 0.2433269,0.07087 0.5299591,0.110554 0.8598958,0.119063 0.2452564,0.0078 0.6237476,-0.03625 0.87238,-0.09691 l 0.047322,0.238851 c 0.056086,0.25814 0.047267,0.527134 -0.026458,0.806979 -0.0709,0.307268 -0.097358,0.699733 -0.079375,1.177396 l 0.013229,0.555644 c 0.017396,0.337344 0.039446,0.637204 0.066146,0.899583 v 0 c 0.040445,0.322083 0.040445,0.617535 0,0.886354 -0.044166,0.30203 -0.083854,0.606301 -0.1190625,0.912813 v 0.01323 c -0.027147,0.345612 0.013229,0.873125 0.013229,0.873125 0.065308,0.393091 -0.011881,0.785878 0.039687,1.11125 0.029641,0.187023 -0.076097,0.475719 0.2645832,0.502696 0.018125,0.0014 0.038447,-0.0039 0.052917,-0.01323 0.020532,0.0021 0.038172,-0.0024 0.052917,-0.01323 0.00844,7.94e-4 0.017259,-0.0037 0.026458,-0.01323 0.2933499,-0.112482 0.5138359,-0.15217 0.6614583,-0.119063 0.2042596,0.06711 0.4997111,0.124437 0.8863541,0.171979 0.3938778,0.04558 0.7201972,0.04117 0.9789584,-0.01323 0.3030734,-0.05549 0.2653642,-0.305702 0.2513549,-0.542377 0.024839,-0.682784 0.029249,-1.101707 0.013229,-1.256771 -0.00868,-0.155856 -0.013092,-0.380752 -0.013229,-0.674688 v -0.912817 c 0,-0.317672 -0.00441,-0.670452 -0.013229,-1.058334 M 0.79607454,34.660806 c 0.24198336,-0.01016 0.48010836,-0.04103 0.71437496,-0.0926 0.2538346,-0.04334 0.4831403,-0.01246 0.6879166,0.0926 0.2111156,0.111967 0.4360114,0.147244 0.6746875,0.105834 -0.00782,0.256452 0.00101,0.47694 0.026458,0.661458 0.0022,0.0088 0.0022,0.01315 0,0.01323 0.043822,0.254558 0.052641,0.602925 0.026458,1.045104 v 0 c -0.01764,0.480798 -0.030868,0.877673 -0.039687,1.190625 -0.0093,0.332005 -0.00489,0.618636 0.013229,0.859896 v 0.01323 c 0.024564,0.23368 0.024564,0.599686 0,1.098021 -0.097324,0.386125 -0.1546503,0.743312 -0.1719792,1.071562 -0.017777,0.344956 0.00427,0.710965 0.066146,1.098021 l 0.044342,0.215233 c -0.2429483,0.07563 -0.5190756,0.110908 -0.7523775,0.105844 -0.2786393,-0.0091 -0.5211741,-0.04442 -0.7276042,-0.105834 h -0.013229 c -0.1728061,-0.03907 -0.45027099,-0.07281 -0.70961769,-0.07784 l -0.0110972,-0.256452 c -0.007612,-0.370003 0.005617,-0.691914 0.0396875,-0.965729 0.0370004,-0.282257 0.0414102,-0.621805 0.0132292,-1.018645 v -0.01323 c -0.0157454,-0.346163 0.001905,-0.694532 0.0529167,-1.045105 H 0.716699 c 0.0702799,-0.376272 0.0967383,-0.711411 0.079375,-1.005416 v -0.01323 c -0.008924,-0.266824 -0.0397915,-0.584324 -0.0926042,-0.9525 -0.0458198,-0.301929 -0.0370004,-0.553283 0.0264583,-0.754062 0.0809943,-0.211495 0.10304278,-0.634828 0.0661458,-1.27 m 2.63260409,0.701146 c -0.024839,-0.184002 -0.033658,-0.408898 -0.026458,-0.674688 0.2749875,0.01423 0.5660292,-0.01664 0.873125,-0.0926 0.295348,-0.05967 0.4981953,-0.05967 0.6085416,0 h -0.013229 c 0.1592667,0.138115 0.3885723,0.182211 0.6879166,0.132292 0.00847,0.241019 0.021704,0.501192 0.039688,0.780521 0.024701,0.398115 0.020291,0.728845 -0.013229,0.992187 v 0.01323 c -0.025458,0.278397 -0.078376,0.569439 -0.15875,0.873125 v 0.01323 c -0.076516,0.375034 -0.072106,0.696942 0.013229,0.965729 v 0.01323 c 0.060151,0.195165 0.095428,0.543534 0.1058325,1.045105 l -0.066146,0.529167 c -0.057878,0.271301 -0.093155,0.527065 -0.1058333,0.767291 -0.017777,0.344956 0.00427,0.710965 0.066146,1.098021 0.075,0.379548 0.1411455,0.710277 0.1984375,0.992188 0.056086,0.25814 0.047267,0.527134 -0.026458,0.806979 -0.080168,0.344749 -0.1022164,0.798951 -0.066146,1.362604 v 0.02646 c -0.00886,0.359736 -0.013264,0.725745 -0.013229,1.098021 v 0 c 0.00878,0.390054 0.013195,0.742831 0.013229,1.058334 v 0.912812 c -1.379e-4,0.305787 0.00427,0.539501 0.013229,0.701146 v 0.01323 c 0.014952,0.141767 0.010544,0.560689 -0.013229,1.256771 -0.1782493,0.02043 -0.389916,0.01601 -0.635,-0.01323 -0.345371,-0.04068 -0.6099543,-0.08919 -0.79375,-0.145521 -0.1687753,-0.06411 -0.3980807,-0.0597 -0.6879167,0.01323 0.00338,-0.511148 -0.00985,-0.859517 -0.039687,-1.045104 -0.031902,-0.201401 -0.036311,-0.448344 -0.013229,-0.740833 0.035312,-0.30203 0.075,-0.601893 0.1190625,-0.899584 0.047473,-0.311401 0.047473,-0.650951 0,-1.018645 -0.034796,-0.336622 -0.056844,-0.737905 -0.066146,-1.203855 v -0.02646 c -0.03266,-0.510839 -0.015021,-0.920944 0.052916,-1.230313 0.093259,-0.361632 0.1020781,-0.705591 0.026458,-1.031875 v -0.01323 C 3.4506923,42.417207 3.3845464,42.095299 3.3096156,41.725192 3.2568024,41.380236 3.2391634,41.053915 3.256699,40.746234 m 2.6855208,-2.540001 v 0.01323 c -0.05581,-0.198644 -0.05581,-0.436769 0,-0.714375 v 0.01323 c 0.08661,-0.328938 0.1439362,-0.646438 0.1719791,-0.9525 0.037035,-0.292317 0.041445,-0.658323 0.013229,-1.09802 -0.019465,-0.297932 -0.037104,-0.571334 -0.052917,-0.820209 0.2670638,-0.01188 0.5360567,0.0013 0.8069792,0.03969 0.4569918,0.08048 0.7700822,0.07166 0.9392708,-0.02646 0.087333,-0.02368 0.2108055,-0.02808 0.3704167,-0.01323 0.01502,0.257659 0.03266,0.54429 0.052917,0.859896 0.024701,0.398116 0.020291,0.728845 -0.013229,0.992188 v 0.01323 c -0.025458,0.278397 -0.078376,0.569438 -0.15875,0.873125 v 0.01323 c -0.076516,0.375034 -0.072106,0.696942 0.013229,0.96573 v 0.01323 c 0.069212,0.223998 0.1044898,0.651742 0.1058334,1.283229 -0.087471,0.288769 -0.1536168,0.606269 -0.1984375,0.9525 v 0.01323 c -0.037448,0.375965 -0.010991,0.808116 0.079375,1.296458 l 0.012438,0.07137 C 7.7922373,41.918862 7.6079196,41.937889 7.326972,42.022849 H 7.313743 c -0.2934189,0.09874 -0.5183147,0.160473 -0.6746874,0.185209 -0.00403,0.0021 -0.00844,0.0021 -0.013229,0 -0.1187871,0.02336 -0.3128148,0.0057 -0.5820833,-0.05292 l -0.088294,-0.429946 c -0.052813,-0.344956 -0.070452,-0.671277 -0.052917,-0.978958 0.017433,-0.298001 0.070349,-0.619911 0.15875,-0.96573 v -0.01323 c 0.00923,-0.02011 0.013642,-0.04217 0.013229,-0.06615 v -0.02646 C 6.0738235,38.950649 6.0297262,38.46117 5.9422198,38.206234 m -2.6855208,2.54 c 0.014089,-0.240986 0.049368,-0.501158 0.1058333,-0.780521 l 0.079375,-0.529167 c 0.013988,-0.410104 0.00958,-0.723194 -0.013229,-0.939271 -0.017158,-0.226171 -0.021566,-0.495165 -0.013229,-0.806979 0.00878,-0.311782 0.022013,-0.704247 0.039687,-1.177396 v -0.01323 c 0.026527,-0.485137 0.013298,-0.868783 -0.039687,-1.150937 l 0.013229,0.01323 m 2.6326042,10.742088 v -0.01323 c 3.44e-5,-0.261138 3.44e-5,-0.521311 0,-0.780521 l 8e-7,-0.542402 c -0.014711,-0.417029 0.00734,-0.760987 0.066146,-1.031875 0.129566,-0.347829 0.1072609,-0.619327 0.043998,-0.972021 l -0.010754,-0.046 c 0.3143305,0.05805 0.4267055,0.04641 0.5709862,0.006 l -0.013229,0.01323 c 0.1788003,-0.02822 0.4345643,-0.09877 0.7672916,-0.211667 h -0.013229 c 0.2246548,-0.06236 0.4831928,-0.05354 0.7171493,0.02646 l 0.041223,0.350565 c 0.017259,0.225825 0.02608,0.415444 0.026458,0.568854 v 0.01323 c 0.00662,0.140423 -0.011025,0.519659 -0.052916,1.137709 l -0.026458,0.542404 c 0.00682,0.195268 0.02005,0.459852 0.039688,0.793751 v 0 c 0.035105,0.458163 0.057154,0.872677 0.066146,1.243541 0.00699,0.358773 -0.019465,0.636585 -0.079375,0.833438 v 0.01323 c -0.067283,0.266065 -0.071692,0.552696 -0.013229,0.859896 0.044855,0.218006 0.049265,0.588422 0.013229,1.11125 -0.014181,0.228166 -0.046212,0.467239 0.2116659,0.529147 0.2776403,0.03965 0.5157653,0.04406 0.714375,0.01323 0.163022,-0.02146 0.4540636,-0.0038 0.873125,0.05292 0.468602,0.06163 0.834608,0.04399 1.09802,-0.05292 0.231788,-0.03241 0.217622,-0.261574 0.238116,-0.463015 C 11.26302,49.526989 11.2542,49.125703 11.31325,48.8954 v 0.01323 c 0.105074,-0.297691 0.113895,-0.615191 0.02646,-0.9525 -0.05722,-0.262861 -0.114544,-0.553903 -0.171974,-0.873125 -0.04055,-0.291558 -0.02291,-0.58701 0.05292,-0.886354 v 0 c 0.07765,-0.252045 0.121749,-0.538676 0.132292,-0.859896 l -5e-6,-0.542397 c -0.01601,-0.429157 0.006,-0.781934 0.06615,-1.058333 0.100103,-0.305854 0.09911,-0.607244 0.04692,-0.919404 l -0.0092,-0.05371 c 0.741534,0.116593 1.205218,-0.412926 1.945731,-0.170441 l 0.02742,0.270427 c 0.03352,0.313471 0.03352,0.560414 0,0.740833 -0.02932,0.1757 -0.0249,0.510839 0.01323,1.005417 l 0.03969,0.568857 c 0.01474,0.201985 0.04561,0.466569 0.0926,0.79375 0.0576,0.382817 0.03114,0.757645 -0.07938,1.124479 v 0 c -0.141076,0.473871 -0.171945,0.870746 -0.0926,1.190625 v 0 c 0.07428,0.259175 0.100735,0.492889 0.07937,0.701146 -0.02278,0.201091 -0.02718,0.52741 -0.01323,0.978958 0.02986,0.218641 -0.0341,0.512331 0.198403,0.568854 0.01045,0.0024 0.01926,0.0024 0.02646,0 0.02048,0.01019 0.04251,0.0146 0.06615,0.01323 0.0065,7.94e-4 0.01093,7.94e-4 0.01323,0 0.352433,-0.03996 0.594968,-0.0576 0.727604,-0.05292 0.148137,0.01757 0.434771,0.04403 0.859896,0.07937 0.451789,0.03614 0.804568,0.02732 1.058333,-0.02646 0.0064,-0.0024 0.01082,-0.0067 0.01323,-0.01323 h 0.02646 c 0.06732,-0.01344 0.120235,-0.05313 0.15875,-0.119062 v -0.01323 h 0.01323 c 0.01902,-0.03803 0.02784,-0.07772 0.02646,-0.119062 v -0.01323 c 7.94e-4,-0.780727 0.0097,-1.230519 0.02646,-1.349375 l -0.01323,0.01323 c 0.03738,-0.135049 0.04179,-0.417272 0.01323,-0.846667 -0.02619,-0.368038 -0.04382,-0.729636 -0.05292,-1.084791 v -0.01323 c 6.8e-5,-0.351402 0.0045,-0.686539 0.01323,-1.005417 0.0089,-0.307922 0.0089,-0.687157 0,-1.137708 -0.0087,-0.431155 -0.0087,-0.788342 0,-1.071563 0.0086,-0.260104 0.04829,-0.551145 0.119062,-0.873125 0.103836,-0.388056 0.103836,-0.77611 0,-1.164166 -0.07975,-0.327078 -0.13267,-0.666626 -0.15875,-1.018646 v -0.01323 c -0.01654,-0.316156 -0.0033,-0.620427 0.03969,-0.912813 0.0085,-0.02611 0.01289,-0.05698 0.01323,-0.0926 1.77e-4,-0.0046 1.77e-4,-0.01336 0,-0.02646 v -0.01323 c -0.05602,-0.626353 -0.0472,-1.032047 0.02646,-1.217083 0.141801,-0.230338 0.17267,-0.55666 0.0926,-0.978958 l 0.01323,0.01323 c -0.05271,-0.330108 -0.0924,-0.621149 -0.119063,-0.873125 -0.02569,-0.239504 -0.03452,-0.596691 -0.02646,-1.071563 0.0088,-0.479248 0.01315,-0.854072 0.01323,-1.124479 v 0 c -7.94e-4,-0.07245 -0.02717,-0.134186 -0.07938,-0.185208 -0.05102,-0.0523 -0.112758,-0.07875 -0.185208,-0.07937 h -0.01323 c -0.400319,3.4e-5 -0.691361,0.04854 -0.873125,0.14552 -0.124436,0.04806 -0.331694,0.03924 -0.62177,-0.02646 h -0.01323 C 14.494604,34.194754 14.124187,34.155067 13.76066,34.14487 H 13.7342 c -0.369072,7.93e-4 -0.646885,0.01852 -0.833437,0.05292 -0.158854,0.0328 -0.401389,0.0328 -0.727605,0 h -0.01323 c -0.341511,-0.02577 -0.681061,-0.04341 -1.018646,-0.05292 -0.418096,-0.06184 -0.717957,-0.05302 -0.899582,0.02646 -0.0018,0.0064 -0.0063,0.01077 -0.01323,0.01323 -0.112724,0.04306 -0.3199805,0.03865 -0.6217708,-0.01323 -0.3898125,-0.06081 -0.7734583,-0.07404 -1.1509375,-0.03969 -0.396186,-0.05089 -0.6828179,-0.03766 -0.8598958,0.03969 -0.00185,0.0064 -0.00627,0.01077 -0.013229,0.01323 -0.1127236,0.04306 -0.3199805,0.03865 -0.6217708,-0.01323 -0.4040751,-0.06318 -0.8009501,-0.072 -1.190625,-0.02646 -0.021704,0.0032 -0.043753,0.0076 -0.066146,0.01323 -0.2257571,0.06869 -0.3933267,0.0731 -0.5027084,0.01323 v 0 c -0.1886878,-0.169879 -0.537056,-0.200748 -1.0451041,-0.0926 -0.3461975,0.08354 -0.6636975,0.105592 -0.9525,0.06615 h -0.013229 c -0.057292,-0.0059 -0.1102087,0.0029 -0.15875,0.02646 -0.2166966,0.09791 -0.4151341,0.102319 -0.5953125,0.01323 -0.3067857,-0.15951 -0.650744,-0.203605 -1.0318749,-0.132292 -0.289319,0.06184 -0.58477044,0.09271 -0.88635416,0.0926 M 10.823782,35.520713 v 0 c 0.0088,0.390054 0.01319,0.742831 0.01323,1.058333 v 0.912813 c -1.38e-4,0.305786 0.0043,0.539501 0.01323,0.701145 v 0.01323 c 0.01523,0.144555 0.01082,0.57671 -0.01323,1.296459 l -0.0926,0.568854 c -0.0421,0.227549 -0.06856,0.443624 -0.07938,0.648229 -0.01778,0.344956 0.0043,0.710964 0.06615,1.098021 0.075,0.379547 0.141145,0.710276 0.198437,0.992187 0.05609,0.258141 0.04727,0.527135 -0.02646,0.806979 -0.08093,0.347541 -0.102974,0.806151 -0.06615,1.375834 v 0.02646 c 0.0076,0.393121 -0.03204,0.73708 -0.119062,1.031876 l -0.01323,0.01323 c -0.09178,0.370863 -0.109416,0.736872 -0.05292,1.09802 0.05722,0.333383 0.114549,0.637653 0.171979,0.912813 v 0.01323 c 0.0618,0.229032 0.05739,0.445105 -0.01323,0.64823 v 0.01323 c -0.08496,0.259313 -0.08937,0.704694 -0.01323,1.336145 -0.185208,0.03872 -0.427742,0.03872 -0.727603,0 -0.4893759,-0.06677 -0.8289247,-0.08441 -1.018646,-0.05292 -0.092983,0.01333 -0.1988164,0.01775 -0.3175,0.01323 0.038619,-0.585597 0.0298,-1.000112 -0.026458,-1.243542 -0.038585,-0.222035 -0.034175,-0.429294 0.013229,-0.621769 v 0 C 8.792692,47.945694 8.8235597,47.614965 8.812949,47.18884 8.804339,46.811878 8.782287,46.392955 8.746803,45.932069 8.72107,45.494991 8.712249,45.186309 8.720345,45.006027 c 6.615e-4,-0.01029 6.615e-4,-0.02352 0,-0.03969 0.052469,-0.81666 0.074518,-1.314958 0.066146,-1.494896 v -0.01323 C 8.7863527,43.296568 8.7775344,43.098131 8.7600322,42.8629 8.7413606,42.639108 8.6840336,42.290739 8.5880531,41.817796 8.5113652,41.391777 8.4893167,41.012539 8.5219072,40.680088 m 2.8310408,-5.159376 v -0.01323 c 6.9e-5,-0.277227 6.9e-5,-0.55504 0,-0.833437 0.258141,0.01582 0.513906,0.03346 0.767292,0.05292 0.398013,0.03748 0.693464,0.03307 0.886354,-0.01323 0.11765,-0.01804 0.2764,-0.03128 0.47625,-0.03969 0.0041,0.291764 0.01294,0.600445 0.02646,0.926042 0.01707,0.419028 0.01707,0.758576 0,1.018645 -0.01783,0.284015 -0.02666,0.588286 -0.02646,0.912813 -7.94e-4,0.313814 -0.01852,0.591627 -0.05292,0.833437 -0.03821,0.276572 -0.02498,0.717545 0.03969,1.322917 -0.04534,0.244568 -0.08943,0.562068 -0.132292,0.9525 v 0 c -0.03655,0.433462 -0.04096,0.825926 -0.01323,1.177396 v 0.01323 l 0.01825,0.192591 c -0.815408,-0.170237 -1.42034,0.347525 -1.996659,0.188131 l -0.09857,-0.486555 c -0.05281,-0.344956 -0.07045,-0.671277 -0.05292,-0.978959 0.0176,-0.301204 0.07052,-0.627525 0.15875,-0.978958 0.0096,-0.01984 0.01402,-0.04189 0.01323,-0.06615 V 39.6879 c 0.02684,-0.840327 0.03125,-1.347446 0.01323,-1.521354 -0.0087,-0.155856 -0.0131,-0.380751 -0.01323,-0.674688 v -0.912812 c 0,-0.317672 -0.0044,-0.670451 -0.01323,-1.058333 m 2.685524,0.05292 c -0.0131,-0.31278 -0.02191,-0.608232 -0.02646,-0.886354 0.253971,0.01691 0.509735,0.04778 0.767291,0.0926 0.451927,0.101388 0.773838,0.09698 0.965729,-0.01323 0.09061,-0.0412 0.218488,-0.06766 0.383646,-0.07938 -0.0028,0.226549 -0.0072,0.504362 -0.01323,0.833437 -0.0096,0.504087 -7.94e-4,0.883322 0.02646,1.137708 0.02625,0.25952 0.06594,0.55938 0.119063,0.899584 v 0 c 0.05226,0.27447 0.03903,0.486137 -0.03969,0.635 v 0.01323 c -0.111584,0.193063 -0.151271,0.598757 -0.119058,1.217083 l -0.01323,0.529166 c -0.02125,0.257694 -0.02567,0.522277 -0.01323,0.79375 v 0 c 0.02732,0.390845 0.08465,0.765673 0.171979,1.124479 0.08137,0.29986 0.08137,0.599723 0,0.899584 v 0 c -0.07927,0.367625 -0.123368,0.698354 -0.132292,0.992187 -0.009,0.290044 -0.009,0.65605 0,1.098021 0.0087,0.440213 0.0087,0.81063 0,1.11125 -0.0089,0.323942 -0.01326,0.667901 -0.01323,1.031875 v 0 c 0.0087,0.370279 0.02635,0.745106 0.05292,1.124479 0.02439,0.355568 0.02439,0.589282 0,0.701146 0.0021,0.0046 0.0021,0.009 0,0.01323 -0.01677,0.115377 -0.02559,0.51666 -0.02646,1.203854 -0.193958,0.02371 -0.436493,0.02371 -0.727604,0 -0.412689,-0.03521 -0.690502,-0.06167 -0.833437,-0.07938 -0.0024,-1.72e-4 -0.0068,-1.72e-4 -0.01323,0 -0.111619,-0.0082 -0.296828,-0.0038 -0.555625,0.01323 -0.01209,-0.434253 -0.0077,-0.747345 0.01323,-0.939271 0.03152,-0.267993 5.29e-4,-0.567856 -0.09261,-0.899583 -0.05206,-0.238747 -0.02561,-0.538607 0.07938,-0.899583 v 0.01323 c 0.136428,-0.444556 0.171704,-0.898755 0.105834,-1.362604 -0.05853,-0.394809 -0.0894,-0.690259 -0.0926,-0.886355 v -0.01323 c 7.93e-4,-0.0088 7.93e-4,-0.01765 0,-0.02646 -0.06808,-0.650951 -0.09013,-1.074284 -0.06615,-1.269999 0.04582,-0.21649 0.05023,-0.51194 0.01323,-0.886354 -0.03507,-0.333071 -0.07035,-0.677029 -0.105833,-1.031875 v 0 c -0.02487,-0.328457 -0.02048,-0.690052 0.01323,-1.084792 m -3e-6,5e-6 c 0.03414,-0.317603 0.06942,-0.582186 0.105833,-0.79375 l -2e-6,-0.542396 c -0.03438,-0.409313 -0.03879,-0.717992 -0.01323,-0.926042 0.03611,-0.260897 0.05375,-0.560758 0.05292,-0.899583 1.72e-4,-0.310438 0.009,-0.60148 0.02646,-0.873125 0.0182,-0.27795 0.0182,-0.639548 0,-1.084792 m -5.5165608,5.106459 c 0.033693,-0.272336 0.0822,-0.52369 0.1455209,-0.754063 L 8.7203451,39.3704 c -0.013608,-0.558104 -0.057706,-0.94616 -0.132292,-1.164166 v 0.01323 c -0.05581,-0.198644 -0.05581,-0.436769 0,-0.714375 v 0.01323 c 0.08661,-0.328938 0.1439362,-0.646438 0.1719791,-0.9525 0.037035,-0.292317 0.041445,-0.658323 0.013229,-1.098021 -0.019465,-0.298347 -0.037104,-0.571749 -0.052917,-0.820209 0.2670982,-0.01188 0.5360914,0.0013 0.8069792,0.03969 0.4569918,0.08048 0.7700816,0.07166 0.9392706,-0.02646 0.08513,-0.02305 0.204191,-0.02746 0.357188,-0.01323 -3.5e-5,0.28515 -3.5e-5,0.576191 0,0.873125"
     style="display:inline;fill:#d1d7db;fill-opacity:1;stroke:none;stroke-width:0.264583"
     id="path1-3"
     inkscape:label="Planks"
     sodipodi:nodetypes="csccccccccccccssccccssccccccccccccaaccsccccccccccccccccssccccsscccccccccscccccccsscccccccccccccccccccccccccccccccccccccccccccsscccccccccccccccccccccccccccccccccccccccccccccccccccccccccccccccscccccccccccccccssccccccccccccccccccsccccccccccccscccccccccccccccccccsccccccccccccccccssccsccccccccccccccccccssccccccccsccccccccccccccccccccccccccccssccccccccccccccccccsccccccccccccsccccccccssccccsscsscccssccccccccccccccccccscccccccsccccccccccccc" />
</svg>
