<?xml version="1.0" encoding="UTF-8" standalone="no"?>
<!-- Created with Inkscape (http://www.inkscape.org/) -->

<svg
   width="64"
   height="64"
   viewBox="0 0 16.933331 16.933331"
   version="1.1"
   id="svg1"
   inkscape:version="1.4 (86a8ad7, 2024-10-11)"
   sodipodi:docname="barrel_top.svg"
   xmlns:inkscape="http://www.inkscape.org/namespaces/inkscape"
   xmlns:sodipodi="http://sodipodi.sourceforge.net/DTD/sodipodi-0.dtd"
   xmlns="http://www.w3.org/2000/svg"
   xmlns:svg="http://www.w3.org/2000/svg">
  <sodipodi:namedview
     id="namedview1"
     pagecolor="#ffffff"
     bordercolor="#000000"
     borderopacity="0.25"
     inkscape:showpageshadow="2"
     inkscape:pageopacity="0.0"
     inkscape:pagecheckerboard="true"
     inkscape:deskcolor="#d1d1d1"
     inkscape:document-units="px"
     showgrid="true"
     inkscape:zoom="35.244855"
     inkscape:cx="32.401892"
     inkscape:cy="30.486719"
     inkscape:window-width="2560"
     inkscape:window-height="1494"
     inkscape:window-x="-11"
     inkscape:window-y="-11"
     inkscape:window-maximized="1"
     inkscape:current-layer="g1492">
    <inkscape:grid
       id="grid1"
       units="px"
       originx="0"
       originy="0"
       spacingx="4.2333327"
       spacingy="4.2333327"
       empcolor="#0099e5"
       empopacity="0.30196078"
       color="#0099e5"
       opacity="0.14901961"
       empspacing="5"
       enabled="true"
       visible="true" />
  </sodipodi:namedview>
  <defs
     id="defs1" />
  <g
     id="g1492"
     style="display:inline"
     transform="matrix(0.2645833,0,0,0.2645833,-269.33877,-36.555181)"
     inkscape:label="Barrel (Top)">
    <path
       fill="#ffffff"
       stroke="none"
       d="m 1060.6,159.4 c -2.9,-2.93333 -6.4167,-4.4 -10.55,-4.4 -4.1333,0 -7.6833,1.46667 -10.65,4.4 -2.9,2.93333 -4.35,6.46667 -4.35,10.6 0,4.13333 1.45,7.66667 4.35,10.6 2.9667,2.93333 6.5167,4.4 10.65,4.4 4.1333,0 7.65,-1.46667 10.55,-4.4 2.9667,-2.93333 4.45,-6.46667 4.45,-10.6 0,-4.13333 -1.4833,-7.66667 -4.45,-10.6"
       id="path1015"
       sodipodi:nodetypes="cscscscsc"
       inkscape:label="Background" />
    <path
       fill="#2a2a2a"
       stroke="none"
       d="m 1043.3,155.45 v 0 c -1.8417,0.39596 -3.2583,1.14596 -4.25,2.25 -0.9263,1.05716 -1.7097,2.24049 -2.35,3.55 -0.638,1.3332 -1.088,2.64987 -1.35,3.95 -0.203,1.16549 -0.5697,2.29883 -1.1,3.4 l -0.05,0.05 c -0.6041,1.40052 -0.7041,3.06719 -0.3,5 0.4177,1.90729 1.0344,3.39063 1.85,4.45 0.8167,1.11601 1.6833,1.94935 2.6,2.5 0.8079,0.48151 1.7746,1.23151 2.9,2.25 h 0.05 c 1.3653,1.18633 2.6153,1.91966 3.75,2.2 1.1329,0.32839 2.4996,0.56172 4.1,0.7 v 0 c 1.7258,0.17787 4.85,-0.60139 4.85,-0.60139 v 0 c 0,0 2.3853,-0.99583 3.15,-1.2 0.9179,-0.20508 2.0679,-0.97036 3.45,-1.89861 v 0.05 c 1.2755,-1.13886 2.1162,-2.13355 3.0621,-3.71905 h -0.05 c 0.47,-1.26324 1.0408,-2.39934 1.65,-3.45 1.2711,-1.30039 1.3256,-3.46468 0.7879,-5.13095 -0.1418,-1.9543 -0.3085,-3.2543 -0.5,-3.9 v 0.05 c -0.1145,-0.70612 -0.5645,-1.72279 -1.35,-3.05 -0.6321,-1.13463 -1.2321,-2.31797 -1.8,-3.55 -0.6363,-1.54245 -1.7697,-2.57578 -3.4,-3.1 h -0.05 c -1.3167,-0.4 -2.65,-0.8 -4,-1.2 h 0.05 c -1.4206,-0.43893 -2.9039,-0.6056 -4.45,-0.5 -1.4034,0.0999 -2.5534,0.19987 -3.45,0.3 -0.86,0.10638 -2.1267,0.30638 -3.8,0.6 m 0.4,1.95 c 1.5975,-0.27344 2.8142,-0.45677 3.65,-0.55 0.8701,-0.1 1.9867,-0.2 3.35,-0.3 1.2873,-0.0945 2.5206,0.0388 3.7,0.4 v 0 c 1.35,0.4 2.6833,0.8 4,1.2 v 0 c 1.0363,0.34245 1.753,1.00911 2.15,2 0.5987,1.30117 1.232,2.55117 1.9,3.75 0.6477,1.07265 1.031,1.88932 1.15,2.45 v 0.05 c 0.1712,0.60677 0.3212,1.82344 0.45,3.65 0.01,0.10143 0.023,0.18477 0.05,0.25 0.3319,0.96549 0.444,2.49644 -0.2879,3.23095 -1.1201,1.17422 -2.15,4.55 -2.15,4.55 v 0 c 0,0 -1.1177,1.6404 -2.1621,2.31905 v 0 c -1.1396,0.76393 -2.85,1.59861 -2.85,1.59861 v 0 c 0,0 -1.9854,0.67917 -3.45,1.35 h -0.05 c -1.185,0.55195 -2.4517,0.55334 -3.8,0.40139 h -0.05 c -1.4388,-0.12995 -2.6721,-0.34661 -3.7,-0.65 v 0 c -0.9078,-0.22773 -1.9078,-0.81107 -3,-1.75 v 0 c -1.2413,-1.11497 -2.3079,-1.93164 -3.2,-2.45 -0.7168,-0.44935 -1.4001,-1.11601 -2.05,-2 -0.6511,-0.87383 -1.1511,-2.09049 -1.5,-3.65 -0.2959,-1.46732 -0.2293,-2.73399 0.2,-3.8 v 0 c 0.6029,-1.26549 1.0195,-2.56549 1.25,-3.9 0.2379,-1.12487 0.6379,-2.2582 1.2,-3.4 0.5597,-1.14883 1.243,-2.18216 2.05,-3.1 0.7417,-0.79597 1.7917,-1.34597 3.15,-1.65 z"
       id="path1014"
       sodipodi:nodetypes="cscccccccccccssssccccccccccccccccccccssssscccccccssssssccccsssscccsscccc"
       style="display:inline"
       transform="translate(4.4208939e-5)"
       inkscape:label="Foreground (Outter)" />
    <path
       fill="#b2b7bb"
       stroke="none"
       d="m 1044,162.15 v 0 c -1.3279,0.47839 -2.2612,1.66172 -2.8,3.55 h -0.05 c -0.4198,1.62135 -0.7365,3.02135 -0.95,4.2 -0.2383,1.4457 0.095,2.91237 1,4.4 0.9212,1.52083 2.0212,2.5375 3.3,3.05 1.0601,0.48151 2.0268,1.04818 2.9,1.7 1.1581,0.90873 2.6914,1.19206 4.6,0.85 v 0.05 c 2.0279,-0.29023 3.3779,-1.27357 4.05,-2.95 0.5112,-1.14245 1.2779,-2.10911 2.3,-2.9 1.5779,-1.18242 2.1279,-2.63242 1.65,-4.35 v 0.05 c -0.5005,-2.61601 -0.9172,-4.24935 -1.25,-4.9 -0.01,-2.6e-4 -0.023,-0.0169 -0.05,-0.05 -0.2849,-0.67409 -1.3015,-1.55742 -3.05,-2.65 -1.7555,-1.08477 -3.3388,-1.5181 -4.75,-1.3 v 0 c -1.1582,0.16653 -2.3082,0.31653 -3.45,0.45 -1.1511,0.14258 -2.3011,0.40925 -3.45,0.8 m -0.9,4.1 c 0.328,-1.14597 0.8613,-1.89597 1.6,-2.25 l -0.05,0.05 c 1.0177,-0.34271 2.0344,-0.57604 3.05,-0.7 1.1582,-0.1332 2.3249,-0.2832 3.5,-0.45 0.997,-0.11537 2.1303,0.21797 3.4,1 1.3093,0.81393 2.0926,1.4306 2.35,1.85 0.01,0.0331 0.01,0.0497 0,0.05 0.2811,0.55325 0.6478,2.01992 1.1,4.4 v 0.05 c 0.2223,0.88229 -0.078,1.63229 -0.9,2.25 -1.3112,1.00911 -2.2945,2.24245 -2.95,3.7 -0.4279,0.99023 -1.2612,1.57357 -2.5,1.75 h -0.05 c -1.2582,0.22461 -2.2749,0.0579 -3.05,-0.5 -0.9936,-0.74818 -2.0936,-1.39818 -3.3,-1.95 -0.9212,-0.38737 -1.7212,-1.13737 -2.4,-2.25 -0.6284,-1.0125 -0.8784,-2.0125 -0.75,-3 0.2197,-1.12135 0.5363,-2.45469 0.95,-4 z"
       id="path1013"
       sodipodi:nodetypes="cscccccccccccccccssccccccccccccccccccccc"
       inkscape:label="Foreground (Inner)"
       style="display:inline"
       transform="translate(4.4208939e-5)" />
  </g>
</svg>
