<?xml version="1.0" encoding="UTF-8" standalone="no"?>
<!-- Created with Inkscape (http://www.inkscape.org/) -->

<svg
   width="128"
   height="128"
   viewBox="0 0 33.866666 33.866666"
   version="1.1"
   id="svg1"
   inkscape:version="1.4 (86a8ad7, 2024-10-11)"
   sodipodi:docname="bed_double.svg"
   xmlns:inkscape="http://www.inkscape.org/namespaces/inkscape"
   xmlns:sodipodi="http://sodipodi.sourceforge.net/DTD/sodipodi-0.dtd"
   xmlns="http://www.w3.org/2000/svg"
   xmlns:svg="http://www.w3.org/2000/svg">
  <sodipodi:namedview
     id="namedview1"
     pagecolor="#ffffff"
     bordercolor="#000000"
     borderopacity="0.25"
     inkscape:showpageshadow="2"
     inkscape:pageopacity="0.0"
     inkscape:pagecheckerboard="true"
     inkscape:deskcolor="#d1d1d1"
     inkscape:document-units="px"
     showgrid="true"
     inkscape:zoom="4"
     inkscape:cx="43.75"
     inkscape:cy="73.875"
     inkscape:window-width="2560"
     inkscape:window-height="1494"
     inkscape:window-x="-11"
     inkscape:window-y="-11"
     inkscape:window-maximized="1"
     inkscape:current-layer="svg1">
    <inkscape:grid
       id="grid1"
       units="px"
       originx="0"
       originy="0"
       spacingx="8.4666662"
       spacingy="8.4666662"
       empcolor="#0099e5"
       empopacity="0.30196078"
       color="#0099e5"
       opacity="0.14901961"
       empspacing="5"
       enabled="true"
       visible="true" />
  </sodipodi:namedview>
  <defs
     id="defs1" />
  <g
     transform="matrix(0.26458333,0,0,0.26458333,8.4042127,16.929283)"
     id="g9"
     inkscape:label="Bed">
    <path
       id="rect6"
       style="display:none;fill:#ffffff;fill-rule:evenodd;stroke-width:0.529167;stroke-linecap:round;stroke-linejoin:round"
       inkscape:label="Outter"
       d="M -16.933333,0.04549604 V 33.912162 H -9.6713183e-8 16.933333 V 0.04549604 H -9.6713183e-8 Z"
       transform="matrix(3.7795276,0,0,3.7795276,32.236046,-64.156646)" />
    <path
       id="path2"
       style="display:inline;fill:#ffffff;fill-opacity:1"
       inkscape:label="Background"
       d="m -19.263954,-59.506177 v 7.5 h 2.5 V 51.343432 h -2.5 v 7.5 H 83.736045 v -7.5 h -2.5 V -52.006177 h 2.5 v -7.5 z"
       sodipodi:nodetypes="ccccccccccccc" />
    <path
       id="path51"
       style="display:inline;fill:#2a2a2a"
       d="m 1.8649521,-60.806958 c -1.08426112,0.0019 -2.37024722,0.05254 -3.1835937,0.244141 -1.380859,0.385551 -2.630859,0.536721 -3.75,0.451171 -1.241146,-0.10013 -2.3748696,-0.200911 -3.4003906,-0.300781 -1.074219,-0.1 -2.2738288,-0.198828 -3.5996098,-0.298828 h -0.05078 c -1.437239,-0.07174 -2.603906,-0.05625 -3.5,0.04883 -0.870443,0.09935 -1.936328,0.215625 -3.199219,0.34961 h -0.09961 c -0.258333,0.04049 -0.459895,0.158723 -0.601562,0.351562 l -0.04883,0.04883 c -0.158852,0.210937 -0.226692,0.445442 -0.201172,0.701172 v 0.04883 c 0.112109,0.790625 0.02878,1.623958 -0.25,2.5 -0.410417,1.195833 -0.309636,2.895442 0.300781,5.099609 0.01979,0.154818 0.08568,0.288542 0.199219,0.400391 0.07591,0.09883 0.15924,0.166662 0.25,0.201172 0.133854,0.09206 0.285025,0.140537 0.451171,0.148437 0.04219,0.0025 0.09258,0.0025 0.150391,0 0.560026,0.0362 1.025131,0.05368 1.398438,0.05078 -0.02747,0.905078 -0.110807,1.68802 -0.25,2.349609 -0.267057,1.071094 -0.398829,2.520703 -0.398438,4.349609 -1.3e-4,1.777083 0.01537,3.228646 0.04883,4.351563 1.3e-4,1.183203 0.01758,2.332422 0.05078,3.449219 0.0036,0.160693 0.367847,1.887598 0.373047,3.818359 0.0052,1.930761 -0.652593,4.551946 -0.626953,7.712891 0.01282,1.580473 0.17599,3.068321 0.34375,4.703124 0.167761,1.634803 -0.08544,3.719868 -0.06055,5.888672 0.02489,2.168804 0.435088,4.1465679 0.429688,6.386719 -0.0054,2.2401512 0.301691,4.8038549 0.363281,6.80468747 0.03541,2.04008833 -0.457804,3.38345723 -0.335937,5.16601563 0.121866,1.7825584 -0.35656,2.9093223 -0.28711,4.5175781 0.06945,1.6082558 0.428056,3.7591698 0.291016,5.5195308 -0.13704,1.760361 0.325015,3.37348 0.359375,4.882813 0.03436,1.509332 -0.690203,3.203566 -0.632813,4.203125 0.05739,0.999559 0.593297,1.852805 0.591797,2.77539 -0.0029,1.845169 0.09766,3.72461 0.09766,3.72461 0,0 -0.0237,2.760286 -0.15625,4.21875 -0.126041,1.440234 -0.292708,2.80651 -0.5,4.099609 -0.325651,1.551042 -0.176432,3.0181 0.449219,4.400391 v -0.05078 c 0.402083,1.047526 0.502864,2.064975 0.300781,3.050782 v 0.04883 c -0.2992,1.299479 -0.450371,2.417708 -0.451171,3.351562 v 0.04883 c -0.01497,0.401563 -0.01497,0.767839 0,1.09961 -0.330469,-0.01927 -0.595964,-0.03477 -0.798829,-0.04883 -1.12578,0.01797 -1.67617,0.366797 -1.65039,1.048828 -0.03973,0.112891 -0.05718,0.213671 -0.05078,0.300781 v 0.05078 c 0.0582,0.801693 -0.02513,1.534245 -0.25,2.199219 v -0.05078 c -0.454297,0.916667 -0.353516,2.734505 0.300781,5.451172 0.01445,0.146745 0.06484,0.263019 0.150391,0.349609 0.06159,0.123828 0.160417,0.224611 0.298828,0.300781 0.148047,0.103128 0.314713,0.151538 0.5,0.148438 1.652213,0.270833 3.152213,0.222395 4.5,-0.148438 1.101302,-0.279036 2.351302,-0.296484 3.75,-0.05078 1.6714843,0.375389 2.95638,0.524609 3.851562,0.449219 h 0.048828 c 0.764323,-0.03216 1.9154948,-0.03216 3.4511718,0 1.582553,0.06862 3.23177173,0.03568 4.9492187,-0.09961 0.861784,-0.06875 3.7553804,0.389583 6.4433594,0.28125 2.6879791,-0.108333 5.1698571,-0.783724 5.6914061,-0.93164 0.830599,-0.169401 2.701172,0.201172 2.701172,0.201172 0,0 2.701823,0.610677 4.298828,0.5 1.408594,-0.1 2.926042,-0.200782 4.550781,-0.300782 1.461833,-0.09087 2.788211,-0.180614 4.042969,-0.271484 0.126083,-0.0091 0.282257,-0.01824 0.40625,-0.02734 1.145313,-0.06107 1.928256,-0.06107 2.34961,0 0.384582,0.100267 1.156326,0.205605 2.144531,0.316406 0.105651,-0.02477 0.216469,-0.03784 0.320312,-0.06641 0.378719,-0.09595 0.781425,-0.149694 1.195313,-0.183594 0.789684,-0.06468 1.636978,-0.0284 2.554687,0.132813 1.671485,0.375389 2.956381,0.524609 3.851563,0.449219 h 0.04883 c 0.764323,-0.03216 1.915495,-0.03216 3.451172,0 1.582553,0.06862 3.23177,0.03568 4.949218,-0.09961 0.861783,-0.06875 3.755381,0.389583 6.44336,0.28125 2.687979,-0.108333 5.169857,-0.783724 5.691406,-0.93164 0.830599,-0.169401 2.701172,0.201172 2.701172,0.201172 0,0 2.701823,0.610677 4.298828,0.5 1.408594,-0.1 2.926042,-0.200782 4.550781,-0.300782 1.608725,-0.1 3.091276,-0.198828 4.449219,-0.298828 1.145313,-0.06107 1.928255,-0.06107 2.349609,0 0.479948,0.12513 1.431511,0.256901 2.851563,0.398438 h 0.04883 c 0.245443,0.01654 0.701172,-0.25 0.701172,-0.25 0,0 0.320569,-0.387631 0.349609,-0.648438 v -0.101562 c 0.167318,-2.171745 -0.03229,-3.437239 -0.599609,-3.798828 -0.03333,-0.0077 -0.05078,-0.02513 -0.05078,-0.05078 -0.0042,-0.157031 0.195443,-1.290755 0.59961,-3.40039 l 0.05078,-0.04883 c -0.0025,-0.07149 -0.0025,-0.139322 0,-0.201172 -0.0029,-0.10625 -0.02031,-0.205078 -0.05078,-0.298828 -0.02917,-0.08568 -0.06211,-0.16901 -0.09961,-0.25 -0.07083,-0.08268 -0.136718,-0.150522 -0.199218,-0.201172 -0.0444,-0.03021 -0.07929,-0.06315 -0.101563,-0.09961 l -0.04883,-0.04883 c -0.100261,-0.02982 -0.201041,-0.06471 -0.300781,-0.101562 -0.17513,-0.01823 -0.341797,-7.79e-4 -0.5,0.05078 -0.542839,0.16758 -0.975,0.283859 -1.298828,0.349609 -0.168622,-0.681511 -0.101563,-3.15039 -0.101563,-3.15039 l 0.101563,-4.548828 c 0,0 0.07422,-2.236459 0.398437,-3.400391 0.354556,-1.407162 0.372005,-2.907162 0.05078,-4.5 -0.293489,-1.30612 -0.409759,-2.472787 -0.349609,-3.5 v -0.05078 c 0.0046,-0.135612 0.008,-1.182521 0.0098,-2.916016 0.0019,-1.733494 -0.180786,-3.179732 -0.181641,-6.05664 -4e-4,-1.438454 0.180788,-3.964421 0.179688,-5.603516 0.388893,-2.289074 0.04159,-3.436392 -0.0039,-5.146484 -0.07576,-1.486697 0.334502,-3.2123726 0.419922,-5.433594 -0.0025,-1.8699502 -0.369947,-3.3439752 -0.373047,-5.2441405 -0.0031,-1.90016532 0.47841,-4.4096314 0.47461,-6.2832031 -0.0038,-1.8735717 -0.614641,-3.1707678 -0.619141,-4.9609374 -0.0044,-1.790169 0.294163,-4.68012 0.289063,-6.330078 -0.0052,-1.649959 -0.07233,-3.033389 -0.07813,-4.486328 -0.01164,-2.905879 -0.206364,-4.814846 -0.220704,-6.591797 -0.01434,-1.776951 -0.02984,-2.874805 -0.04687,-3.068359 -0.126432,-1.396485 -0.0431,-2.747267 0.25,-4.050782 0.295703,-1.408203 0.495313,-2.807421 0.59961,-4.199218 0.102213,-1.401042 -0.199219,-4.199219 -0.199219,-4.199219 0,0 -0.364841,-2.433725 -0.300781,-3.650391 0.06888,-1.39948 0.01849,-2.566146 -0.150391,-3.5 v -0.05078 c -0.0513,-0.125652 -0.08424,-0.259376 -0.09961,-0.400391 0.355209,0.08737 0.655599,0.122263 0.90039,0.101563 1.169141,0.0194 1.719531,-0.414713 1.650391,-1.300781 0.0012,-0.02409 0.0012,-0.05703 0,-0.09961 -0.03333,-0.829037 -0.06628,-1.71276 -0.09961,-2.65039 v -0.05078 c -0.06237,-0.856771 0.09961,-4.699218 0.09961,-4.699218 0,0 0.0029,-0.0983 0,-0.150391 -0.0055,-0.03959 -0.0055,-0.08998 0,-0.15039 -0.04753,-0.147917 -0.130859,-0.297136 -0.25,-0.449219 -0.06693,-0.05586 -0.134762,-0.106251 -0.201172,-0.150391 -0.04609,-0.01836 -0.07904,-0.03386 -0.09961,-0.04883 -0.05833,-0.01667 -0.108721,-0.03411 -0.150391,-0.05078 -0.04297,-0.01159 -0.07591,-0.02903 -0.09961,-0.05078 -0.05625,0.0021 -0.106641,0.0021 -0.150391,0 -0.09635,-0.0059 -0.17969,-0.0059 -0.25,0 -0.03776,0.02057 -0.0707,0.03802 -0.09961,0.05078 -0.948959,0.200911 -2.014844,0.15052 -3.199219,-0.150391 -1.638021,-0.362763 -3.072135,-0.378256 -4.300781,-0.04883 l -0.04883,0.04883 c -1.019271,0.29753 -2.370053,0.4138 -4.050782,0.34961 -1.904167,-0.03385 -3.404166,-0.03385 -4.499999,0 h -0.05078 c -1.038542,0.06029 -2.021093,0.02734 -2.949218,-0.09961 -0.505208,-0.06276 -3.501084,-0.213347 -6.371094,-0.347656 -2.87001,-0.13431 -5.613281,-0.251953 -5.613281,-0.251953 0,0 -0.882633,-0.04507 -1.966797,-0.04297 -1.084163,0.0021 -2.370248,0.05059 -3.183594,0.242188 -1.38086,0.385551 -2.630859,0.536721 -3.75,0.451171 -1.241146,-0.10013 -2.37487,-0.200911 -3.400391,-0.300781 -1.074219,-0.1 -2.273828,-0.198828 -3.599609,-0.298828 h -0.05078 c -1.437239,-0.07174 -2.603906,-0.05625 -3.5,0.04883 -0.518146,0.05914 -1.247089,0.137575 -1.904297,0.208985 -1.535905,-0.311353 -2.893805,-0.320643 -4.060547,-0.0078 l -0.04883,0.04883 c -1.019271,0.29753 -2.370052,0.4138 -4.050781,0.34961 -1.904167,-0.03385 -3.404167,-0.03385 -4.5,0 h -0.05078 c -1.038542,0.06029 -2.021094,0.02734 -2.949219,-0.09961 -0.505208,-0.06276 -3.501083,-0.213347 -6.371094,-0.347656 -2.87001,-0.13431 -5.6132812,-0.251953 -5.6132812,-0.251953 0,0 -0.8825358,-0.04683 -1.9667969,-0.04492 z m 29.8515619,0.394531 c 0.296094,0.07523 0.583928,0.133834 0.865235,0.177735 0.281307,0.0439 0.555696,0.07339 0.822265,0.08594 0.266569,0.01255 0.525464,0.0091 0.777344,-0.0098 0.25188,-0.01883 0.497135,-0.05329 0.734375,-0.103515 -0.23724,0.05023 -0.482495,0.08469 -0.734375,0.103515 -0.25188,0.01883 -0.510775,0.02231 -0.777344,0.0098 -0.266569,-0.01255 -0.540958,-0.04204 -0.822265,-0.08594 -0.281307,-0.0439 -0.569141,-0.102507 -0.865235,-0.177735 z m 3.699219,0.09961 c 0.0237,0.02175 0.05664,0.03919 0.09961,0.05078 0.04167,0.01667 0.09206,0.03411 0.150391,0.05078 0.02057,0.01497 0.05352,0.03047 0.09961,0.04883 -0.04609,-0.01836 -0.07904,-0.03386 -0.09961,-0.04883 -0.05833,-0.01667 -0.108721,-0.03411 -0.150391,-0.05078 -0.04297,-0.01159 -0.07591,-0.02903 -0.09961,-0.05078 z m 0.800781,0.75 c -0.0055,0.06041 -0.0055,0.1108 0,0.15039 -0.0055,-0.03959 -0.0055,-0.08998 0,-0.15039 z m -6.986328,0.40039 c 0.02644,0.186251 0.0051,0.383228 0.0098,0.574219 0.649966,-0.01726 1.423093,-0.0023 2.025391,0.126953 0.06638,0.01721 0.127499,0.01934 0.193359,0.03516 0.808596,-0.08639 1.542268,-0.166208 2.171875,-0.236328 0.666355,-0.07867 1.549915,-0.08996 2.566406,-0.06055 0.201685,0.0058 0.368515,0.0016 0.583984,0.01172 1.307682,0.1 2.491797,0.198828 3.550782,0.298828 1.041276,0.1 2.190494,0.200781 3.449218,0.300781 1.307943,0.113932 2.775,-0.05273 4.400391,-0.5 1.364973,-0.316928 2.814582,-0.367318 4.349609,-0.15039 0.838606,0.133528 3.59236,0.249609 6.263672,0.349609 2.671312,0.1 5.260092,0.18353 5.771485,0.25 1.03112,0.13867 2.1319,0.171619 3.300781,0.09961 1.070833,-0.03294 2.535937,-0.03294 4.398437,0 1.952735,0.06901 4.701172,-0.449218 4.701172,-0.449218 0,0 2.036979,-0.219923 3.298828,0.05078 1.028646,0.266668 1.995704,0.365498 2.900391,0.298828 -0.08906,1.722396 -0.104558,2.956901 -0.04883,3.701172 0.02409,0.698437 0.05703,1.365104 0.09961,2 -0.327995,-0.05651 -0.729167,-0.157292 -1.201172,-0.300781 -0.235677,-0.08203 -0.46823,-0.08203 -0.699219,0 -0.09805,0.06315 -0.18138,0.129038 -0.25,0.199218 -0.14492,0.114974 -0.245701,0.266146 -0.300781,0.451172 -0.231902,0.559114 -0.214454,1.359505 0.05078,2.400391 0.13125,0.799348 0.1642,1.799348 0.09961,3 -0.06875,1.37513 0.04753,2.741405 0.349609,4.099609 0.19792,1.234374 0.248311,2.466927 0.150391,3.699219 -0.09505,1.300521 -0.277213,2.600912 -0.548828,3.900391 v 0.05078 c -0.340241,1.496484 -0.441017,3.044921 -0.300782,4.648437 0.01616,0.179996 0.03003,1.282019 0.04297,3.072266 0.01295,1.790247 0.329784,3.903893 0.339844,6.83789 0.005,1.466998 -0.05128,3.473205 -0.04687,5.138672 0.0044,1.665467 -0.236222,3.356486 -0.232422,5.16211 0.0037,1.8056231 0.555394,3.5441726 0.558594,5.4316402 0.20938,2.0936473 -0.369294,4.52123541 -0.478516,6.3203125 0.0027,1.910999 0.370847,3.3933133 0.373047,5.2695312 -0.01241,1.6862355 -0.551584,1.9707359 -0.419922,5.4433591 0.295474,1.415899 0.356149,3.063072 0.0039,5.136719 0.0013,1.631719 0.06345,3.536984 0.06445,4.958984 0.0019,2.843999 -0.05747,4.846704 -0.05664,6.501953 8e-4,1.655249 0.002,2.59961 0.002,2.59961 0,0 0.06302,2.516536 0.400391,4 0.245444,1.273828 0.227994,2.473437 -0.05078,3.599609 -0.373309,1.360547 -0.522528,2.676432 -0.449218,3.949219 v 0.05078 c 0.03099,1.170182 -0.0039,2.604296 -0.101563,4.300781 v 0.04883 c -0.129818,1.728515 -0.07943,3.011459 0.150391,3.84961 -0.106901,0.442057 0.0094,0.775391 0.349609,1 0.161328,0.300261 0.545052,0.451433 1.150391,0.451172 0.196354,0.0047 0.463802,-0.02826 0.800781,-0.09961 -0.340625,2.242969 -0.241797,3.525912 0.298828,3.84961 0.03787,0.153776 0.05528,0.552994 0.05078,1.199218 -0.779297,-0.08529 -1.329687,-0.16862 -1.65039,-0.25 -0.508724,-0.10521 -2.900391,-0.04883 -2.900391,-0.04883 0,0 -2.807161,0.198828 -4.398437,0.298828 -1.641797,0.1 -3.176693,0.200782 -4.601563,0.300782 -1.302865,0.08919 -2.469531,-0.04453 -3.5,-0.400391 h -0.04883 c -1.354948,-0.427735 -2.604948,-0.511068 -3.75,-0.25 h -0.05078 c -0.47832,0.135351 -3.637933,0.800391 -6.267578,0.900391 -2.629645,0.1 -4.729232,-0.365432 -5.517578,-0.300782 -1.640365,0.1306 -4.75,0.09961 -4.75,0.09961 h -3.650391 c 0,0 -1.903385,-0.07708 -3.349609,-0.398438 -0.924262,-0.17103 -1.791845,-0.23946 -2.611328,-0.21875 -0.687224,0.01737 -1.339588,0.09974 -1.953125,0.251953 -5.1e-5,0.0083 5.9e-5,0.0072 0,0.01563 -0.02218,-0.0024 -0.02507,-0.0054 -0.04687,-0.0078 -0.74443,-0.08275 -1.291942,-0.163128 -1.603516,-0.242188 -0.259094,-0.05358 -0.992947,-0.06565 -1.664062,-0.06445 -0.646603,0.0011 -1.236328,0.01563 -1.236328,0.01563 0,0 -0.641325,0.04314 -0.804688,0.05469 -0.729585,0.05159 -2.293596,0.16244 -3.59375,0.24414 -1.641797,0.1 -3.176692,0.200782 -4.601562,0.300782 -1.302865,0.08919 -2.469531,-0.04453 -3.5,-0.400391 h -0.04883 c -1.354948,-0.427735 -2.604947,-0.511068 -3.749999,-0.25 h -0.05078 c -0.47832,0.135351 -3.6379328,0.800391 -6.2675778,0.900391 -2.629646,0.1 -4.7292311,-0.365432 -5.5175781,-0.300782 -1.64036399,0.1306 -4.75,0.09961 -4.75,0.09961 h -3.6503906 c 0,0 -1.9033856,-0.07708 -3.3496095,-0.398438 -1.734505,-0.320961 -3.284895,-0.305469 -4.65039,0.04883 -0.961198,0.270052 -2.009636,0.337891 -3.148438,0.201172 -0.387891,-1.759115 -0.25,-3.601562 -0.25,-3.601562 0,0 0.399739,-1.446615 0.449219,-2.25 0.289583,0.03099 0.673307,0.09883 1.15039,0.201172 0.0263,0.0112 0.05924,0.0112 0.09961,0 0.07708,0.03867 0.16042,0.05413 0.25,0.04883 0.04557,-0.0014 0.09596,-0.01693 0.15039,-0.04883 0.107161,0.0021 0.223438,-0.03086 0.34961,-0.09961 0.06576,-0.04362 0.131639,-0.111462 0.199219,-0.201172 0.119013,-0.118099 0.20235,-0.267317 0.25,-0.449218 0.0055,-0.07708 0.0055,-0.16042 0,-0.25 v -0.05078 c -0.03151,-0.626823 0,-2.25 0,-2.25 l 0.40039,-3 -0.40039,-4.25 c 0,0 -0.587371,-2.076431 -0.34961,-3.199218 v -0.05078 c 0.226042,-1.340365 0.410156,-2.757031 0.550781,-4.25 0.11979,-1.484635 -0.0081,-2.78698 0.15625,-4.267578 0.03483,-0.519269 -0.03371,-2.712066 0.002,-4.710937 0.01783,-0.999436 -0.499506,-1.890044 -0.541016,-2.892578 -0.04151,-1.002535 0.696714,-2.665124 0.677734,-4.115235 -0.01898,-1.450112 -0.464437,-2.976333 -0.3125,-4.626953 0.151937,-1.650621 -0.193017,-3.6692322 -0.248047,-5.1289058 -0.05503,-1.4596737 0.438003,-2.4224841 0.330079,-4.0292969 -0.107924,-1.6068128 0.400846,-2.7624708 0.378906,-4.61132809 -0.121649,-1.81146571 -0.453119,-4.15835921 -0.449219,-6.20898431 0.0039,-2.050625 -0.387625,-3.8653839 -0.390625,-5.9511719 -0.003,-2.085788 0.276552,-4.168627 0.119141,-5.933594 -0.15741,-1.764967 -0.32594,-3.516389 -0.375,-5.546875 -0.04859,-2.010771 0.543117,-3.96073 0.466797,-5.970703 -0.07632,-2.009974 -0.516154,-4.567348 -0.564454,-6.578125 -0.02722,-1.133129 -0.05078,-2.240364 -0.05078,-3.398437 v -0.05078 c -0.0332,-1.110547 -0.0487,-2.544662 -0.04883,-4.300782 3.91e-4,-1.637891 0.116666,-2.936328 0.349609,-3.898437 0.206898,-0.928516 0.305729,-2.046745 0.298829,-3.351563 0.166925,-0.23711 0.151432,-0.520052 -0.04883,-0.849609 -0.03633,-0.09219 -0.08672,-0.191016 -0.15039,-0.298828 -0.03073,-0.01601 -0.06367,-0.05091 -0.09961,-0.101563 -0.07109,-0.05221 -0.15443,-0.100647 -0.25,-0.148437 l -0.05078,-0.05078 c -0.0694,-0.01172 -0.135289,-0.02917 -0.199219,-0.05078 -0.07721,-0.0018 -0.145051,-0.0018 -0.201171,0 -0.106253,0.0011 -0.18959,0.0011 -0.25,0 l -0.04883,0.05078 c -0.04063,0.0079 -0.07357,0.0079 -0.09961,0 -0.0526,0.01862 -0.120442,0.01862 -0.201172,0 -0.273047,0.01601 -0.639322,0.01601 -1.099609,0 -0.319922,-1.395182 -0.370313,-2.495964 -0.150391,-3.300782 0.2638,-0.809636 0.414972,-1.592578 0.451172,-2.349609 0.866927,-0.09245 1.632422,-0.17578 2.298828,-0.25 0.798568,-0.09427 1.848959,-0.109768 3.150391,-0.04883 1.307682,0.1 2.491796,0.198828 3.550781,0.298828 1.041276,0.1 2.1904948,0.200781 3.4492188,0.300781 1.307943,0.113932 2.7750006,-0.05273 4.40039057,-0.5 1.364974,-0.316928 2.81458333,-0.367318 4.34960933,-0.15039 0.838607,0.133528 3.5923598,0.249609 6.2636718,0.349609 2.6713125,0.1 5.2600915,0.18353 5.7714845,0.25 1.03112,0.13867 2.131901,0.171619 3.300781,0.09961 1.070833,-0.03294 2.535938,-0.03294 4.398438,0 1.952735,0.06901 4.701171,-0.449218 4.701171,-0.449218 0,0 0.561688,-0.05726 1.273438,-0.07617 -0.0048,-0.190991 0.01664,-0.387968 -0.0098,-0.574219 z"
       inkscape:label="Foreground (Outter)" />
    <path
       id="path6"
       style="display:inline;fill:#b2b7bb;fill-opacity:1"
       inkscape:label="Foreground (Inner)"
       d="m 5.6872177,-53.656568 c -2.7963121,-0.05 -5.24381513,0.474804 -6.15429683,0.458985 -1.76549497,-0.0362 -3.70677137,-0.351044 -4.97460937,-0.214844 -1.267187,0.140494 -2.183854,0.274219 -2.75,0.400391 -0.483854,0.128515 -1.6175777,0.1944 -3.4003905,0.199218 -1.045963,-0.147526 -1.896744,-0.180469 -2.550781,-0.09961 9.33e-4,0.0079 -0.01456,0.0079 -0.04883,0 -0.509115,0.100911 -1.359897,0.133853 -2.550782,0.09961 -0.253255,-0.007 -0.485807,0.0763 -0.699218,0.25 -0.188281,0.207552 -0.289063,0.442057 -0.300782,0.701172 -0.0073,0.286979 0.07604,0.519531 0.25,0.699219 0.207031,0.221354 0.441537,0.337629 0.701172,0.349609 1.375521,0.03242 2.358073,-0.01602 2.949219,-0.148437 l -0.05078,0.04883 c 0.275261,-0.02735 0.575651,-0.02735 0.90039,0 -0.287761,1.596354 -0.338151,2.780468 -0.15039,3.550781 v 0.04883 c 0.216537,0.771484 0.15039,2.800782 0.15039,2.800782 0,0 -0.05234,2.654296 0.150391,3.849609 v 0.05078 c 0.111784,0.537434 0.176692,3.110416 0.193359,5.71875 0.01667,2.608333 -0.0153,5.252409 -0.09375,5.931641 v 0.09961 c -0.0035,0.03424 -0.0035,0.06719 0,0.09961 -0.0023,0.02617 -0.0023,0.04362 0,0.05078 -0.06732,1.699479 -0.10026,2.63164 -0.09961,2.798828 -2.61e-4,0.203385 0.01746,1.220828 0.05078,3.050781 0.0043,0.23281 0.0068,1.243606 0.0098,2.835938 0.003,1.592333 -0.286565,4.403132 0.128906,6.568359 0.06019,0.313661 -0.141166,2.180754 -0.119141,3.861328 -0.527491,1.3488623 -0.428234,2.0240638 -0.427734,3.5917969 5e-4,1.567733 0.376861,4.1284065 0.431641,5.76562494 0.05481,1.63813466 0.25357,7.24855796 0.171875,8.91406246 -0.08131,1.6575467 0.07252,0.1532063 0.07226,1.7851567 -2.5e-4,1.63195 0.186022,1.415339 0.185547,2.970703 -5e-4,1.555363 -0.516778,4.521391 -0.517578,5.951171 -7.87e-4,1.429781 0.08313,2.356126 0.08203,3.611329 -0.0021,2.510404 0.06854,3.833464 0.06445,5.351562 -0.0085,3.142955 -0.251294,1.68904 -0.205078,2.628906 -0.371102,3.560051 0.123047,2.221267 0.123047,4.486328 0,0 0.03281,2.783984 0,4.25 -0.03346,1.526172 -0.05091,2.842058 -0.05078,3.949219 -5.21e-4,1.114974 0.09961,3.699219 0.09961,3.699219 0,0 0.09062,1.975521 0.05078,2.951172 -0.80625,-1.3e-4 -1.490365,-1.3e-4 -2.050782,0 -0.751953,-5.21e-4 -1.357943,0.198571 -1.972656,0.232421 -0.278125,0.01315 -0.512631,0.111982 -0.701172,0.298829 -0.183333,0.223958 -0.266667,0.473958 -0.25,0.75 0.01302,0.278385 0.113801,0.51289 0.300781,0.701171 0.223698,0.183073 0.473698,0.266406 0.75,0.25 0.585156,-0.03281 1.158203,-0.231901 1.873047,-0.232421 0.746485,1.3e-4 1.713542,0.01563 2.900391,0.04883 h 0.150391 c 1.414063,-0.03333 2.7299473,-0.04883 3.9492183,-0.04883 1.209766,-0.0031 2.4442708,0.0957 3.7011718,0.298828 1.448698,0.272917 2.8983072,0.323307 4.34960939,0.15039 0.6745442,-0.08249 3.07829711,0.116404 5.72460931,0.06641 2.6463121,-0.05 5.5347012,-0.347726 6.1601562,-0.365235 1.291667,0.0049 2.574609,0.103761 3.849609,0.298828 l -0.04883,-0.04883 c 1.571224,0.286198 4.548828,-0.5 4.548828,-0.5 0,0 1.561068,-0.372135 2,-0.15039 0.795443,0.677083 7.400084,0.775911 9.704641,0.298828 3.427212,-0.110167 1.390063,-0.08782 4.910594,0 h 0.15039 c 1.414063,-0.03333 2.729948,-0.04883 3.949219,-0.04883 1.209766,-0.0031 2.444271,0.0957 3.701172,0.298828 1.448698,0.272917 2.898307,0.323307 4.349609,0.15039 0.674544,-0.08249 3.078297,0.116404 5.724609,0.06641 2.646312,-0.05 5.534701,-0.347726 6.160157,-0.365235 1.291666,0.0049 2.574609,0.103761 3.849609,0.298828 l -0.04883,-0.04883 c 1.571223,0.286198 4.548828,-0.5 4.548828,-0.5 0,0 1.561068,-0.372135 2,-0.15039 0.795443,0.677083 2.345834,0.775911 4.650391,0.298828 0.857552,0.16888 1.75677,0.102994 2.699218,-0.199219 0.645703,-0.192057 1.296875,-0.159115 1.951172,0.09961 0.266797,0.122656 0.516797,0.122656 0.75,0 0.27513,-0.0931 0.457291,-0.27526 0.548828,-0.548828 0.122787,-0.233333 0.122787,-0.483333 0,-0.75 -0.09323,-0.241537 -0.275391,-0.425651 -0.548828,-0.550781 -1.11237,-0.441276 -2.213151,-0.491667 -3.300781,-0.150391 -0.348177,0.110937 -0.681511,0.178776 -1,0.201172 -0.03099,-0.654297 -0.147262,-1.338411 -0.349609,-2.050781 v 0.05078 c -0.179167,-0.780209 -0.196615,-1.648437 -0.05078,-2.601562 0.173568,-1.120313 0.223959,-2.519532 0.150391,-4.199219 -0.06589,-1.540235 -0.08138,-2.989844 -0.04883,-4.349609 0.03463,-1.276302 0.262367,-2.164454 0.427734,-3.521485 0.214323,-1.496094 -0.04816,-2.927533 -0.257812,-4.298828 -0.02303,-0.150605 0.08603,-1.515468 0.06641,-3.037109 -0.01962,-1.52164 0.133001,-3.802535 0.113281,-6.302734 -0.0099,-1.2501 -0.191436,-2.42639 -0.201172,-3.847657 -0.02454,-1.081306 0.373902,-5.446509 0.703125,-7.0312496 -0.0096,-1.543437 -0.535422,-1.379482 -0.544922,-2.9960937 -0.0095,-1.6166117 0.323824,-0.7654598 0.314454,-2.40625 -0.0094,-1.6407902 -0.357938,-4.72387091 -0.367188,-6.3398437 -0.0093,-1.6159728 -0.236964,-3.4402626 -0.246094,-4.9824219 -0.0091,-1.5421596 0.589088,-2.4888529 0.580078,-3.9082031 -0.009,-1.419349 -0.444225,-2.885268 -0.453125,-4.132812 -0.01778,-2.495088 0.01756,-3.564485 -0.0039,-5.078125 -0.0215,-1.513639 -0.28125,-3.89734 -0.28125,-4.039063 v -0.02539 -0.02539 c -0.08451,-1.007162 0.03177,-2.290104 0.34961,-3.849609 0.03268,-0.08359 0.05013,-0.184376 0.05078,-0.300782 0.193164,-0.997136 0.521094,-3.875912 0.621094,-6.517578 0.1,-2.641667 -0.02833,-5.045833 -0.02148,-5.332031 0.0017,-0.0065 0.0017,-0.02203 0,-0.04883 0.03411,-0.515495 0.05156,-1.633725 0.05078,-3.351563 3.91e-4,-1.828906 -0.133333,-3.278515 -0.40039,-4.349609 -0.163672,-0.768099 -0.247005,-1.684766 -0.25,-2.75 0.326563,-0.147006 0.559115,-0.212891 0.699219,-0.199219 0.531771,0.49414 1.648046,0.676302 3.349609,0.548828 0.288021,-0.02227 0.522526,-0.138543 0.701172,-0.349609 0.183854,-0.209115 0.267187,-0.459115 0.25,-0.75 -0.02201,-0.255078 -0.138283,-0.472136 -0.34961,-0.650391 -0.208854,-0.183724 -0.458854,-0.267058 -0.75,-0.25 -1.001172,0.07266 -1.667839,0.02422 -2,-0.148437 h -0.002 c -0.619271,-0.63112 -1.685155,-0.582683 -3.199218,0.148437 -1.133463,0.07721 -2.166407,-0.02162 -3.09961,-0.298828 -1.273307,-0.396875 -4.25,0.09961 -4.25,0.09961 0,0 -2.384766,0.48164 -3.599609,0.300781 h -0.05078 c -1.308464,-0.166797 -2.641797,-0.350911 -4,-0.550781 h -0.05078 c -0.689519,-0.08418 -3.408766,-0.344532 -6.205078,-0.394532 -2.796312,-0.05 -5.243814,0.474804 -6.154296,0.458985 -1.765495,-0.0362 -3.706772,-0.351044 -4.97461,-0.214844 -1.267187,0.140494 -2.183854,0.274219 -2.75,0.400391 -0.483854,0.128515 -1.617577,0.1944 -3.40039,0.199218 -3.248269,0.644436 -2.558069,-1.190765 -5.410594,0 -1.133463,0.07721 -7.220656,-0.02162 -8.153859,-0.298828 -1.273307,-0.396875 -4.25,0.09961 -4.25,0.09961 0,0 -2.384766,0.48164 -3.59961,0.300781 h -0.05078 c -1.308463,-0.166797 -2.641796,-0.350911 -4,-0.550781 h -0.05078 c -0.689518,-0.08418 -3.408766,-0.344532 -6.2050783,-0.394532 z m 15.6503903,7.392579 c 0.633936,-0.01782 1.460839,0.0663 2.480469,0.251953 -1.31e-4,1.088542 0,3.349609 0,3.349609 0,0 -0.01653,1.552084 0.07813,2.166016 l 0.304687,3.273437 c 0.03939,0.170995 0.06322,0.06833 -0.101562,2.210938 -0.170618,2.218449 -0.04075,4.670182 -0.08008,4.949218 -1.429428,-0.3375 -2.663932,-0.385937 -3.701172,-0.148437 -1.003255,0.249739 -2.11953,0.282682 -3.349609,0.09961 h -0.05078 c -0.698177,-0.08828 -4.433207,0.06395 -6.130859,-0.326172 -2.7379788,0 -5.5195312,0.23789 -6.3046874,0.326172 -1.5626302,0.18125 -2.8496093,0.449219 -2.8496093,0.449219 0,0 -0.98632872,0.01341 -2.40039072,-0.09961 0.20013,-0.685091 -0.1484375,-4.054688 -0.1484375,-4.054688 0,0 -0.22336398,-0.130705 0.03125,-4.445312 l 0.6074219,-3.81836 c 0.0026,-1.292709 -0.037629,-1.607292 -0.2402344,-2.28125 v 0.04883 c -0.06784,-0.342188 -0.1841143,-0.842188 -0.3496093,-1.5 0.98763,0.03346 2.05546872,0.05091 3.20117182,0.05078 1.6319011,0.0012 2.8315105,0.03414 3.5996094,0.09961 0.4440104,0.0358 1.2475679,-0.315889 3.8105468,-0.324219 2.9671097,0.143249 6.8945697,0.331489 7.5742187,0.275391 1.464844,-0.06888 2.631511,-0.235547 3.5,-0.5 h -0.04883 c 0.168457,-0.02855 0.357047,-0.04679 0.568359,-0.05273 z m 41.375,0 c 0.633935,-0.01782 1.460839,0.0663 2.480469,0.251953 -1.31e-4,1.088542 0,3.349609 0,3.349609 0,0 -0.01654,1.552084 0.07813,2.166016 l 0.304687,3.273437 c 0.03939,0.170995 0.06322,0.06833 -0.101562,2.210938 -0.170618,2.218449 -0.04075,4.670182 -0.08008,4.949218 -1.429428,-0.3375 -2.663932,-0.385937 -3.701171,-0.148437 -1.003256,0.249739 -2.119532,0.282682 -3.34961,0.09961 h -0.05078 c -0.698178,-0.08828 -4.433207,0.06395 -6.130859,-0.326172 -2.737979,0 -5.519532,0.23789 -6.304688,0.326172 -1.56263,0.18125 -2.849609,0.449219 -2.849609,0.449219 0,0 -0.986329,0.01341 -2.400391,-0.09961 0.20013,-0.685091 -0.148437,-4.054688 -0.148437,-4.054688 0,0 -0.223364,-0.130705 0.03125,-4.445312 l 0.607422,-3.81836 c 0.0026,-1.292709 -0.03763,-1.607292 -0.240235,-2.28125 v 0.04883 c -0.06784,-0.342188 -0.184114,-0.842188 -0.349609,-1.5 0.98763,0.03346 2.055469,0.05091 3.201172,0.05078 1.631901,0.0012 2.83151,0.03414 3.599609,0.09961 0.44401,0.0358 1.247568,-0.315889 3.810547,-0.324219 2.96711,0.143249 6.89457,0.331489 7.574219,0.275391 1.464843,-0.06888 2.63151,-0.235547 3.5,-0.5 h -0.04883 c 0.168457,-0.02855 0.357047,-0.04679 0.568359,-0.05273 z m -28.503823,18.351567 c 1.521485,-0.196354 2.569922,-0.363021 3.148437,-0.5 l -0.04883,0.05078 c 0.434765,-0.05404 0.866927,0.04479 1.298828,0.298828 0.03906,0.04583 0.07395,0.08073 0.101563,0.101563 l 0.04883,0.04883 h 0.09961 c 0.03462,0 0.04232,0.04153 0.05078,0.05078 0.101042,0.02943 0.184375,0.04492 0.25,0.04883 h 0.09961 c 2.672656,0.177474 4.157162,0.177474 4.451172,0 l -0.05078,0.05078 c 0.295833,-0.08125 1.111718,-0.197527 2.449218,-0.34961 0.519978,-0.05861 2.114141,-0.377777 4.234375,-0.378906 l -8.4e-5,-5e-6 c 0.706745,-3.76e-4 1.471852,0.03557 2.275391,0.126953 2.810423,0.01948 5.425781,0.251953 5.425781,0.251953 0,0 2.878385,0.164844 4.101563,-0.15039 1.005208,-0.198438 2.270703,-0.06472 3.798828,0.40039 0.09297,0.03242 0.193745,0.04883 0.300781,0.04883 h 0.04883 c 1.010287,-0.0016 5.744792,0.06628 6.201172,0.201172 v 0.04883 c 0.495833,0.20625 1.329167,0.20625 2.5,0 -0.180078,1.224739 -0.150391,3.150391 -0.150391,3.150391 0,0 0.187223,1.792408 0.195313,3.230469 0.0081,1.438061 -0.04192,2.46096 -0.02734,4.93164 0.0073,1.235341 0.501136,3.182135 0.509766,4.59961 0.0086,1.417474 -0.589839,2.3670863 -0.580079,3.9160151 0.0098,1.5489289 0.2393,3.3839691 0.25,5.0136719 0.01071,1.6297028 0.361587,4.7308284 0.373047,6.3906249 0.01146,1.6597966 -0.320603,0.8275868 -0.308593,2.4667969 0.01201,1.6392102 0.542317,1.5004163 0.554687,3.0683593 -0.294242,1.6701479 -0.707309,6.4470579 -0.523437,7.8359379 0.01253,1.445996 0.239453,2.002021 0.251953,3.27539 0.02501,2.546738 -0.265248,3.872036 -0.236328,5.423828 0.02892,1.551793 -0.138672,3.846462 -0.138672,4 v 0.02539 0.02344 c 0.184375,1.171614 0.128906,4.13086 0.128906,4.13086 0,0 -0.267057,1.990624 -0.298828,3.339843 -0.03425,1.406771 -0.01875,2.906771 0.04883,4.5 0.05963,1.520052 0.01116,2.787501 -0.148438,3.800782 -0.1875,1.246745 -0.154557,2.380468 0.09961,3.40039 h 0.04883 c 0.148698,0.550391 0.216537,1.065885 0.201172,1.548828 -1.216276,0.215495 -2.049609,0.2 -2.5,-0.04883 l -0.05078,-0.05078 c -0.858203,-0.679557 -2.141147,-0.697005 -3.84961,-0.05078 h -0.05078 c -1.104688,0.480469 -3.449219,0.40039 -3.449219,0.40039 0,0 -2.767057,-0.302604 -4.15039,-0.298828 h -0.04883 c -0.658008,0.01582 -3.128948,0.342578 -5.808594,0.392578 -2.679645,0.05 -5.568685,-0.17793 -6.277344,-0.09375 -1.248828,0.160287 -2.498828,0.127344 -3.75,-0.09961 -1.376563,-0.230339 -2.727344,-0.346614 -4.050781,-0.349609 -0.925,-1.3e-4 -1.907552,-1.3e-4 -2.949219,0 l -1.999976,-4e-6 c -2.783295,0.291828 -0.240722,-0.329318 -2.961375,0.15039 l -2.048851,0.04883 c -1.216276,0.215495 -7.103859,0.2 -7.55425,-0.04883 l -0.05078,-0.05078 C 22.834886,49.730286 21.551943,49.712838 19.84348,50.359063 H 19.7927 c -1.104688,0.480469 -3.449218,0.40039 -3.449218,0.40039 0,0 -2.767057,-0.302604 -4.150391,-0.298828 h -0.04883 c -0.658007,0.01582 -3.1289483,0.342578 -5.8085938,0.392578 -2.6796455,0.05 -5.56868491,-0.17793 -6.27734371,-0.09375 -1.24882819,0.160287 -2.49882819,0.127344 -3.74999999,-0.09961 -1.376563,-0.230339 -2.7273442,-0.346614 -4.0507812,-0.349609 -0.925,-1.3e-4 -1.9075518,-1.3e-4 -2.9492183,0 0.04349,-1.025261 0.02604,-2.058204 -0.05078,-3.09961 -0.06615,-1.288672 -0.09909,-2.472786 -0.09961,-3.550781 0,-1.092839 0.01745,-2.39323 0.05078,-3.900391 0.03373,-1.500781 0.03373,-2.95039 0,-4.349609 v -6.746094 c 0,0 0.08506,-0.222979 0.08594,-1.669921 8.5e-4,-1.446942 -0.08333,-1.020855 -0.08203,-3.509766 6.5e-4,-1.244455 -0.08468,-2.164735 -0.08398,-3.59375 6.88e-4,-1.429015 0.516878,-4.399938 0.517578,-5.962891 7e-4,-1.562952 0.0014,-1.201387 0.002,-2.847656 6.25e-4,-1.6462684 0.0015,-0.914791 0.002,-2.5937498 5e-4,-1.6789636 -0.428084,-6.7159166 -0.427734,-8.37695311 3.75e-4,-1.66103659 -0.429887,-4.24540279 -0.429687,-5.83789059 1.62e-4,-1.5924878 0.429771,-2.1926982 0.429687,-3.6660156 -8.4e-5,-1.4733169 3.75e-4,-2.8742089 0,-4.1777339 -8e-4,-2.60705 -0.0017,-4.823114 -0.0039,-6.447266 -0.0023,-1.624152 -0.0055,-2.656301 -0.0098,-2.892578 -0.03294,-1.803521 -0.05065,-2.803516 -0.05078,-3 5.21e-4,-0.132162 0.01797,-0.798828 0.05078,-2 1.5214851,-0.196354 2.5699227,-0.363021 3.1484377,-0.5 l -0.048828,0.05078 c 0.434765,-0.05404 4.4919272,0.04479 4.9238282,0.298828 0.03906,0.04583 0.073952,0.08073 0.1015625,0.101563 l 0.048828,0.04883 h 0.099609 c 0.02487,0.02409 0.042321,0.04153 0.050781,0.05078 0.101042,0.02943 0.1842586,0.04883 0.25,0.04883 h 0.099609 c 2.67265598,0.177474 4.1571614,0.177474 4.4511718,0 l -0.050781,0.05078 c 0.2958333,-0.08125 1.1117187,-0.197527 2.4492187,-0.34961 0.5199778,-0.05861 2.1141411,-0.377777 4.234375,-0.378906 l -8.53e-5,-5e-6 c 0.7067446,-3.76e-4 1.4718514,0.03557 2.2753904,0.126953 2.810424,0.01948 5.425781,0.251953 5.425781,0.251953 0,0 2.878386,0.164844 4.101563,-0.15039 1.005209,-0.198438 2.270703,-0.06472 3.798828,0.40039 0.09297,0.03242 0.193745,0.04883 0.300781,0.04883 h 0.04883 c 1.010288,0 1.744792,0.06628 2.201172,0.201172 v 0.04883 c 0.495833,0.20625 2.758417,0.20625 3.92925,0 z m -2.760283,-1.750006 c -1.083463,0.23177 -3.262713,0.299609 -3.67925,0.201172 h 0.04883 c -0.417969,-0.153776 -1.016797,-0.254557 -1.798828,-0.300781 0.04229,-0.430726 -0.269184,-2.618133 0.08594,-5.386719 0.338209,-2.26895 -0.06783,-4.458333 -0.136718,-4.712891 l -0.121094,-1.349609 c -0.07161,-0.549349 -0.0293,-0.100223 -0.0293,-1.451172 v -0.04883 c 0,-1.395443 0.01771,-2.763673 0.05078,-4.101563 0.0138,-0.186068 -0.03659,-0.36823 -0.15039,-0.548828 -0.03802,-0.05521 -0.08841,-0.105597 -0.150391,-0.15039 l -0.04883,-0.05078 c -0.147656,-0.147006 -0.331771,-0.230339 -0.550781,-0.25 -2.145443,-0.457813 -3.695833,-0.574089 -4.650391,-0.349609 h -0.04883 c -0.759895,0.234114 -1.777343,0.385286 -3.050781,0.451172 h -0.05078 c -0.627408,0.04753 -4.420615,-0.205606 -6.933593,-0.197266 -2.5129792,0.0083 -3.7444664,0.276986 -4.1503909,0.246094 -0.7985677,-0.06784 -2.0485677,-0.100781 -3.75,-0.09961 -1.63320292,-1.3e-4 -3.10026062,-0.01758 -4.4003906,-0.05078 h -0.050781 c -0.02435,-0.0018 -0.057289,-0.0018 -0.099609,0 -0.04101,0.0067 -0.091411,0.0067 -0.1503906,0 -0.159375,0.05221 -0.3085938,0.135546 -0.4492188,0.25 -0.172917,0.184635 -0.2736982,0.386198 -0.3007812,0.601563 1.3e-4,0.05039 1.3e-4,0.08334 0,0.09961 -0.0014,0.04974 -0.0014,0.08268 0,0.09961 0.0047,0.06615 0.0047,0.116536 0,0.15039 0.02161,0.03724 0.039061,0.05274 0.050781,0.04883 v 0.05078 c 0.286328,1.229296 0.4859374,2.11302 0.5996094,2.65039 v 0.04883 c 0.16276,0.555208 0.25,2.451172 0.25,2.451172 l -0.4257812,2.552735 c -0.860427,2.199563 -0.1810893,1.845358 -0.3007813,4.044921 0,0 0.4006505,3.95254 0.2265625,4.552735 -0.55,-0.183724 -4.7253906,-0.234115 -5.2753906,-0.150391 -0.01485,0.0079 -0.030338,0.0079 -0.048828,0 -0.502474,0.11302 -1.3707036,0.246745 -2.6015617,0.400391 0.02005,-0.55638 0.01037,-3.089322 -0.03125,-5.597656 -0.04167,-2.508333 -0.115365,-4.992839 -0.21875,-5.453125 -0.161849,-1.039714 -0.194792,-2.140496 -0.09961,-3.300782 v -0.04883 c 0.148568,-1.344141 0.08268,-2.495313 -0.199218,-3.451172 -0.107552,-0.656641 -0.02422,-1.656641 0.25,-3 1.673436,-0.01862 2.75677,-0.101954 3.249999,-0.25 0.500521,-0.107162 1.3164058,-0.223437 2.4492188,-0.349609 1.198828,-0.130599 2.9356766,0.18424 4.60351557,0.214844 0.867513,0.01732 2.42647423,-0.628124 5.18945313,-0.578125 l -2.5e-6,-1e-6 c 2.7629788,0.05 6.42793,0.430989 7.09375,0.513672 1.366797,0.198958 4.048828,0.550781 4.048828,0.550781 0,0 3.026562,0.08268 4.5,-0.400391 h -0.04883 c 1.139974,-0.336458 2.172916,-0.369401 3.099609,-0.09961 0.915755,0.282161 6.970005,0.413931 8.05425,0.398437 l 2.000047,-0.349609 c 0.326563,-0.147006 0.559115,-0.212891 0.699219,-0.199219 l -4.5e-5,10e-7 c 1.18861,1.104498 0.463374,0.318943 2.010203,0.449219 l 2.050777,0.09961 c 1.673437,-0.01862 2.756771,-0.101954 3.25,-0.25 0.500521,-0.107162 1.316406,-0.223437 2.449219,-0.349609 1.198828,-0.130599 2.935677,0.18424 4.603516,0.214844 0.867513,0.01732 2.426474,-0.628124 5.189453,-0.578125 l 4e-6,-1e-6 c 2.762979,0.05 6.427929,0.430989 7.09375,0.513672 1.366796,0.198958 4.048828,0.550781 4.048828,0.550781 0,0 3.026562,0.08268 4.5,-0.400391 h -0.04883 c 1.139974,-0.336458 2.172917,-0.369401 3.09961,-0.09961 0.915755,0.282161 1.915755,0.413931 3,0.398437 0.02448,1.104166 0.123308,2.055729 0.298828,2.851563 0.232943,0.962109 0.351171,2.260546 0.351562,3.898437 -9.33e-4,1.727734 -0.01838,2.811068 -0.05078,3.25 -9.33e-4,0.04193 -9.33e-4,0.07682 0,0.101563 -0.0024,0.214862 0.03264,3.680962 0.03516,5.414062 0.0037,2.509452 -0.336509,4.830078 -0.484375,5.634766 -1.083463,0.23177 -1.833463,0.299609 -2.25,0.201172 h 0.04883 c -0.417969,-0.153776 -5.016798,-0.254557 -5.798829,-0.300781 0.04229,-0.430726 -0.269183,-2.618133 0.08594,-5.386719 0.338209,-2.26895 -0.06783,-4.458333 -0.136719,-4.712891 l -0.121094,-1.349609 c -0.04951,-0.55178 -9.11e-4,-0.100521 -0.0293,-1.451172 v -0.04883 c 0,-1.395443 0.01771,-2.763673 0.05078,-4.101563 0.0138,-0.186068 -0.03659,-0.36823 -0.150391,-0.548828 -0.03802,-0.05521 -0.08841,-0.105597 -0.15039,-0.15039 l -0.04883,-0.05078 c -0.147656,-0.147006 -0.331771,-0.230339 -0.550781,-0.25 -2.145443,-0.457813 -3.695833,-0.574089 -4.65039,-0.349609 h -0.04883 c -0.759896,0.234114 -1.777345,0.385286 -3.050782,0.451172 h -0.05078 c -0.627409,0.04753 -4.420615,-0.205606 -6.933594,-0.197266 -2.512978,0.0083 -3.744466,0.276986 -4.15039,0.246094 -0.798568,-0.06784 -2.048568,-0.100781 -3.75,-0.09961 -1.633203,-1.3e-4 -3.100261,-0.01758 -4.400391,-0.05078 h -0.05078 c -0.02435,-0.0018 -0.05729,-0.0018 -0.09961,0 -0.04101,0.0067 -0.09141,0.0067 -0.150391,0 -0.159375,0.05221 -0.308594,0.135546 -0.449219,0.25 -0.172917,0.184635 -0.273698,0.386198 -0.300781,0.601563 1.3e-4,0.05039 1.3e-4,0.08334 0,0.09961 -0.0014,0.04974 -0.0014,0.08268 0,0.09961 0.0047,0.06615 0.0047,0.116536 0,0.15039 0.02161,0.03724 0.03906,0.05274 0.05078,0.04883 v 0.05078 c 0.286328,1.229296 0.485938,2.11302 0.59961,2.65039 v 0.04883 c 0.16276,0.555208 0.25,2.451172 0.25,2.451172 l -0.425782,2.552735 c -0.860427,2.199563 -0.181089,1.845358 -0.300781,4.044921 0,0 0.400651,3.95254 0.226563,4.552735 -0.55,-0.183724 -1.100391,-0.234115 -1.650391,-0.150391 -0.01485,0.0079 -0.03034,0.0079 -0.04883,0 -0.502474,0.11302 -1.370704,0.246745 -2.601563,0.400391 z"
       sodipodi:nodetypes="scccccccccccccccccccscccccccscsssscsccccccccccccccccccccscccccccccccsccccccccccccccccccccsscccscccsscsccccsccccccccccccccccccccscccccccccccsscsccccccccccccccccccccsscccccccccccccccccccccccccsscccccccccccscccccccccccssccsssccsssccccccccccccccccscccccccccccccccsccccccccccssscsccscccccccccccccccccssccccccccccsscccccccccccscccccccccccccccccccccccccccccccccccccccccsscccccccccccccsccccccccccccccccccccsccccccccccccccccccccccccccccccccccc" />
  </g>
</svg>
