<?xml version="1.0" encoding="UTF-8" standalone="no"?>
<!-- Created with Inkscape (http://www.inkscape.org/) -->

<svg
   width="64"
   height="128"
   viewBox="0 0 16.933333 33.866666"
   version="1.1"
   id="svg1"
   inkscape:version="1.4 (86a8ad7, 2024-10-11)"
   sodipodi:docname="bed_single.svg"
   xmlns:inkscape="http://www.inkscape.org/namespaces/inkscape"
   xmlns:sodipodi="http://sodipodi.sourceforge.net/DTD/sodipodi-0.dtd"
   xmlns="http://www.w3.org/2000/svg"
   xmlns:svg="http://www.w3.org/2000/svg">
  <sodipodi:namedview
     id="namedview1"
     pagecolor="#ffffff"
     bordercolor="#000000"
     borderopacity="0.25"
     inkscape:showpageshadow="2"
     inkscape:pageopacity="0.0"
     inkscape:pagecheckerboard="true"
     inkscape:deskcolor="#d1d1d1"
     inkscape:document-units="px"
     showgrid="true"
     inkscape:zoom="5.8154882"
     inkscape:cx="29.232284"
     inkscape:cy="64.053092"
     inkscape:window-width="1920"
     inkscape:window-height="1009"
     inkscape:window-x="1912"
     inkscape:window-y="-8"
     inkscape:window-maximized="1"
     inkscape:current-layer="svg1"
     showguides="true">
    <inkscape:grid
       id="grid1"
       units="px"
       originx="0"
       originy="0"
       spacingx="8.4666662"
       spacingy="8.4666662"
       empcolor="#0099e5"
       empopacity="0.30196078"
       color="#0099e5"
       opacity="0.14901961"
       empspacing="5"
       enabled="true"
       visible="true" />
  </sodipodi:namedview>
  <defs
     id="defs1" />
  <g
     transform="matrix(0.26458333,0,0,0.26458333,8.4042127,16.974779)"
     id="g680"
     inkscape:label="Bed">
    <path
       id="path4"
       style="display:inline;fill:#ffffff;fill-opacity:1"
       inkscape:label="Background"
       d="m -26.763954,-49.506646 v 7.5 h 2.5 v 83.349999 h -2.5 v 7.5 h 54 v -7.5 h -2.5 v -83.349999 h 2.5 v -7.5 z"
       sodipodi:nodetypes="ccccccccccccc" />
    <path
       fill="#2a2a2a"
       stroke="none"
       d="m 27.393181,-50.312521 h -0.1 c -1.262891,-0.133985 -2.329557,-0.250652 -3.2,-0.35 -0.896094,-0.105078 -2.062761,-0.121745 -3.5,-0.05 h -0.05 c -1.325781,0.1 -2.525781,0.2 -3.6,0.3 -1.025521,0.09987 -2.158854,0.19987 -3.4,0.3 -1.119141,0.08555 -2.369141,-0.06445 -3.7500005,-0.45 -1.6266927,-0.383204 -5.15,-0.2 -5.15,-0.2 v 0 c 0,0 -2.743708,0.11862 -5.61371804,0.25293 -2.87001006,0.134309 -5.86632226,0.284309 -6.37153056,0.34707 -0.928125,0.126953 -1.9114583,0.160286 -2.9499999,0.1 h -0.05 c -1.095833,-0.03385 -2.595833,-0.03385 -4.5,0 -1.680729,0.06419 -3.030729,-0.05247 -4.05,-0.35 l -0.05,-0.05 c -1.228646,-0.329428 -2.661979,-0.312761 -4.3,0.05 -1.184375,0.300911 -2.251041,0.350911 -3.2,0.15 -0.02891,-0.01276 -0.06224,-0.02943 -0.1,-0.05 -0.07031,-0.0059 -0.153646,-0.0059 -0.25,0 -0.04375,0.0021 -0.09375,0.0021 -0.15,0 -0.0237,0.02175 -0.05703,0.03841 -0.1,0.05 -0.04167,0.01667 -0.09167,0.03333 -0.15,0.05 -0.02057,0.01497 -0.05391,0.03164 -0.1,0.05 -0.06641,0.04414 -0.133073,0.09414 -0.2,0.15 -0.119141,0.152083 -0.202474,0.302083 -0.25,0.45 0.0055,0.06041 0.0055,0.110413 0,0.15 -0.0029,0.05209 0,0.15 0,0.15 v 0 c 0,0 0.16237,3.843229 0.1,4.7 v 0.05 c -0.03333,0.93763 -0.06667,1.820963 -0.1,2.65 -0.0012,0.04258 -0.0012,0.07591 0,0.1 -0.06914,0.886068 0.480859,1.319401 1.65,1.3 0.244791,0.0207 0.544791,-0.01263 0.9,-0.1 -0.01537,0.141015 -0.0487,0.274348 -0.1,0.4 v 0.05 c -0.16888,0.933854 -0.21888,2.10052 -0.15,3.5 0.06406,1.216666 -0.3,3.65 -0.3,3.65 v 0 c 0,0 -0.302213,2.798958 -0.2,4.2 0.104297,1.391797 0.304297,2.791797 0.6,4.2 0.293099,1.303515 0.376432,2.653515 0.25,4.05 -0.01704,0.193554 -0.03273,1.292425 -0.04708,3.069376 -0.01434,1.776951 -0.209725,3.684828 -0.221365,6.590707 -0.0058,1.4529392 -0.07211,2.8362052 -0.07726,4.4861642 -0.01158,3.7471478 0.07127,-9.2863952 0.191246,8.2516128 -0.0455,1.710092 -0.393187,2.85816 -0.0043,5.147234 -0.0011,1.639095 0.180485,4.164793 0.180085,5.603247 -8.55e-4,2.876908 -0.18274,4.323004 -0.180885,6.056498 0.0018,1.733495 0.005,2.781665 0.0096,2.917277 v 0.05 c 0.06015,1.027213 -0.05651,2.19388 -0.35,3.5 -0.321224,1.592838 -0.304557,3.092838 0.05,4.5 0.324219,1.163932 0.4,3.4 0.4,3.4 v 0 l 0.1,4.55 v 0 c 0,0 0.06862,2.468489 -0.1,3.15 -0.323828,-0.06575 -0.757161,-0.18242 -1.3,-0.35 -0.158203,-0.05156 -0.32487,-0.06823 -0.5,-0.05 -0.09974,0.03685 -0.199739,0.07018 -0.3,0.1 l -0.05,0.05 c -0.02227,0.03646 -0.0556,0.06979 -0.1,0.1 -0.0625,0.05065 -0.129167,0.11732 -0.2,0.2 -0.0375,0.08099 -0.07083,0.164323 -0.1,0.25 -0.03047,0.09375 -0.04713,0.19375 -0.05,0.3 0.0025,0.06185 0.0025,0.128513 0,0.2 l 0.05,0.05 c 0.404167,2.109635 0.604167,3.242969 0.6,3.4 0,0.02565 -0.01667,0.04232 -0.05,0.05 -0.567318,0.361589 -0.767318,1.628255 -0.6,3.8 v 0.1 c 0.02904,0.260807 0.35,0.65 0.35,0.65 v 0 c 0,0 0.454557,0.266537 0.7,0.25 h 0.05 c 1.420052,-0.141537 2.370052,-0.27487 2.85,-0.4 0.421354,-0.06107 1.204687,-0.06107 2.35,0 1.357943,0.1 2.841276,0.2 4.45,0.3 1.624739,0.1 3.141406,0.2 4.55,0.3 1.597005,0.110677 4.2999999,-0.5 4.2999999,-0.5 v 0 c 0,0 1.8694011,-0.369401 2.7,-0.2 0.5215495,0.147916 3.0028795,0.823198 5.69085827,0.931531 2.68797883,0.108333 5.58260643,-0.350281 6.44439033,-0.281531 1.7174479,0.135287 3.3674475,0.16862 4.9500005,0.1 1.535677,-0.03216 2.685677,-0.03216 3.45,0 h 0.05 c 0.895182,0.07539 2.178515,-0.07461 3.85,-0.45 1.398698,-0.245703 2.648698,-0.229037 3.75,0.05 1.347787,0.370833 2.847787,0.420833 4.5,0.15 0.185287,0.0031 0.351953,-0.04687 0.5,-0.15 0.138411,-0.07617 0.238411,-0.176172 0.3,-0.3 0.08555,-0.08659 0.135547,-0.203255 0.15,-0.35 0.654297,-2.716667 0.754297,-4.533333 0.3,-5.45 v 0.05 c -0.22487,-0.664974 -0.308203,-1.398307 -0.25,-2.2 v -0.05 c 0.0064,-0.08711 -0.01027,-0.187109 -0.05,-0.3 0.02578,-0.682031 -0.52422,-1.032031 -1.65,-1.05 -0.202865,0.01406 -0.469531,0.03073 -0.8,0.05 0.01497,-0.331771 0.01497,-0.698437 0,-1.1 v -0.05 c -8e-4,-0.933854 -0.1508,-2.050521 -0.45,-3.35 v -0.05 c -0.202083,-0.985807 -0.102083,-2.002474 0.3,-3.05 v 0.05 c 0.625651,-1.382291 0.775651,-2.848958 0.45,-4.4 -0.207292,-1.293099 -0.373959,-2.659766 -0.5,-4.1 -0.132552,-1.458464 -0.156819,-4.217615 -0.156819,-4.217615 0,0 0.1015,-1.88084 0.09859,-3.726009 -0.0015,-0.922585 0.533342,-1.775457 0.590732,-2.775016 0.05739,-0.999559 -0.666602,-2.692962 -0.632242,-4.202294 0.03436,-1.509333 0.496499,-3.123373 0.359459,-4.883734 -0.13704,-1.760361 0.221053,-3.91022398 0.290501,-5.5184798 -0.423464,-4.5275556 -0.141572,-4.1197785 0.108537,-8.7649312 0.16776,-1.634803 0.332504,-3.122522 0.345323,-4.702995 0.02564,-3.160945 -0.632422,-5.780973 -0.62725,-7.711734 0.0052,-1.930761 0.369599,-3.658615 0.373174,-3.819308 0.0332,-1.116797 0.04987,-2.266797 0.05,-3.45 0.03346,-1.122917 0.05013,-2.572917 0.05,-4.35 3.91e-4,-1.828906 -0.132943,-3.278906 -0.4,-4.35 -0.139193,-0.661589 -0.222526,-1.444922 -0.25,-2.35 0.373307,0.0029 0.839974,-0.0138 1.4,-0.05 0.05781,0.0025 0.107813,0.0025 0.15,0 0.166146,-0.0079 0.316146,-0.05794 0.45,-0.15 0.09076,-0.03451 0.174089,-0.101174 0.25,-0.2 0.113542,-0.111849 0.180209,-0.245182 0.2,-0.4 0.610417,-2.204167 0.710417,-3.904167 0.3,-5.1 -0.278776,-0.876042 -0.362109,-1.709375 -0.25,-2.5 v -0.05 c 0.02552,-0.25573 -0.04115,-0.489063 -0.2,-0.7 l -0.05,-0.05 c -0.141667,-0.192839 -0.341667,-0.309506 -0.6,-0.35 m -1.25,1.9 c 0.0362,0.757031 0.1862,1.540364 0.45,2.35 0.219922,0.804818 0.169922,1.904818 -0.15,3.3 -0.460287,0.01601 -0.826953,0.01601 -1.1,0 -0.08073,0.01862 -0.147396,0.01862 -0.2,0 -0.02604,0.0079 -0.05937,0.0079 -0.1,0 l -0.05,-0.05 c -0.06041,0.0011 -0.143747,0.0011 -0.25,0 -0.05612,-0.0018 -0.122787,-0.0018 -0.2,0 -0.06393,0.02161 -0.1306,0.03828 -0.2,0.05 l -0.05,0.05 c -0.09557,0.04779 -0.178906,0.09779 -0.25,0.15 -0.03594,0.05065 -0.06927,0.08399 -0.1,0.1 -0.06367,0.107812 -0.113673,0.207812 -0.15,0.3 -0.200261,0.329557 -0.216927,0.61289 -0.05,0.85 -0.0069,1.304818 0.0931,2.421484 0.3,3.35 0.232943,0.962109 0.349609,2.262109 0.35,3.9 -1.3e-4,1.75612 -0.0168,3.189453 -0.05,4.3 v 0.05 c 0,1.158073 -0.02278,2.266871 -0.05,3.4 -0.0483,2.010777 -0.489327,4.567909 -0.565649,6.577883 -0.07632,2.009973 0.516033,3.95915 0.467447,5.969921 -0.04906,2.030486 -0.217996,3.7816272 -0.375406,5.5465942 -0.05227,4.4026066 -0.178128,3.0630097 -0.01211,6.7357038 -0.05503,1.45967362 -0.398469,3.477455 -0.246532,5.128076 0.151937,1.65062 -0.295064,3.177259 -0.31404,4.627371 -0.01898,1.450111 0.720645,3.112471 0.679131,4.115006 -0.04151,1.002534 -0.560186,1.8924 -0.542356,2.891836 0.03566,1.998871 -0.03208,4.192841 0.0027,4.71211 0.164375,1.480598 0.03703,2.78298 0.156819,4.267615 0.140625,1.492969 0.323958,2.909635 0.55,4.25 v 0.05 c 0.237761,1.122787 -0.35,3.2 -0.35,3.2 v 0 l -0.4,4.25 v 0 l 0.4,3 v 0 c 0,0 0.03151,1.623177 0,2.25 v 0.05 c -0.0055,0.08958 -0.0055,0.172917 0,0.25 0.04765,0.181901 0.130987,0.331901 0.25,0.45 0.06758,0.08971 0.134245,0.15638 0.2,0.2 0.126172,0.06875 0.242839,0.102083 0.35,0.1 0.05443,0.0319 0.104427,0.04857 0.15,0.05 0.08958,0.0053 0.172917,-0.01133 0.25,-0.05 0.04037,0.0112 0.0737,0.0112 0.1,0 0.477083,-0.102344 0.860417,-0.169011 1.15,-0.2 0.04948,0.803385 0.45,2.25 0.45,2.25 v 0 c 0,0 0.137891,1.840885 -0.25,3.6 -1.138802,0.136719 -2.188802,0.07005 -3.15,-0.2 -1.365495,-0.354297 -2.915495,-0.370963 -4.65,-0.05 -1.446224,0.321354 -3.35,0.4 -3.35,0.4 v 0 h -3.65 v 0 c 0,0 -3.1096359,0.0306 -4.7500005,-0.1 -0.7883464,-0.06465 -2.887547,0.400183 -5.5171925,0.300183 -2.6296454,-0.1 -5.7897358,-0.764832 -6.2680561,-0.900183 h -0.05 c -1.1450521,-0.261068 -2.3950521,-0.177735 -3.75,0.25 h -0.05 c -1.0304687,0.355859 -2.1971349,0.489193 -3.4999999,0.4 -1.42487,-0.1 -2.958203,-0.2 -4.6,-0.3 -1.591276,-0.1 -4.4,-0.3 -4.4,-0.3 v 0 c 0,0 -2.391276,-0.05521 -2.9,0.05 -0.320703,0.08138 -0.870703,0.164713 -1.65,0.25 -0.0045,-0.646224 0.01213,-1.046224 0.05,-1.2 0.540625,-0.323698 0.640625,-1.607031 0.3,-3.85 0.336979,0.07135 0.603646,0.104687 0.8,0.1 0.605339,2.61e-4 0.988672,-0.149739 1.15,-0.45 0.340235,-0.224609 0.456901,-0.557943 0.35,-1 0.229818,-0.838151 0.279818,-2.121485 0.15,-3.85 v -0.05 c -0.09766,-1.696485 -0.130989,-3.129818 -0.1,-4.3 v -0.05 c 0.07331,-1.272787 -0.07669,-2.589453 -0.45,-3.95 -0.278776,-1.126172 -0.295443,-2.326172 -0.05,-3.6 0.33737,-1.483464 0.4,-4 0.4,-4 v 0 c 0,0 3.25e-4,-0.94425 0.0011,-2.599499 8.25e-4,-1.655249 -0.0586,-3.656727 -0.05669,-6.500726 10e-4,-1.422 0.06299,-3.328207 0.06429,-4.959926 -0.352243,-2.073647 -0.29088,-3.720942 0.0046,-5.136841 -0.357379,-4.2115472 -0.102562,-3.3847549 -0.198551,-7.6260698 0.0044,-1.665467 -0.0517,-3.671845 -0.04669,-5.1388432 0.01006,-2.933997 0.325446,-5.047974 0.338396,-6.838221 0.01294,-1.790247 0.02741,-2.891994 0.04357,-3.07199 0.140235,-1.603516 0.04024,-3.153516 -0.3,-4.65 v -0.05 c -0.271615,-1.299479 -0.454948,-2.599479 -0.55,-3.9 -0.09792,-1.232292 -0.04792,-2.465626 0.15,-3.7 0.302083,-1.358204 0.41875,-2.72487 0.35,-4.1 -0.06459,-1.200652 -0.03125,-2.200652 0.1,-3 0.265235,-1.040886 0.281901,-1.840886 0.05,-2.4 -0.05508,-0.185026 -0.15508,-0.335026 -0.3,-0.45 -0.06862,-0.07018 -0.151953,-0.136849 -0.25,-0.2 -0.230989,-0.08203 -0.464323,-0.08203 -0.7,0 -0.472005,0.143489 -0.872005,0.243489 -1.2,0.3 0.04258,-0.634896 0.07591,-1.301563 0.1,-2 0.05573,-0.744271 0.03906,-1.977604 -0.05,-3.7 0.904687,0.06667 1.871354,-0.03333 2.9,-0.3 1.261849,-0.270704 3.3,-0.05 3.3,-0.05 v 0 c 0,0 2.747265,0.51901 4.7,0.45 1.8625,-0.03294 3.329167,-0.03294 4.4,0 1.1688801,0.07201 2.2688801,0.03867 3.2999999,-0.1 0.5113932,-0.06647 3.100902,-0.149707 5.7722142,-0.249707 2.6713121,-0.1 5.4244276,-0.216765 6.2630344,-0.350293 1.5350261,-0.216928 2.9850261,-0.166928 4.35,0.15 1.6253905,0.447265 3.0920575,0.613932 4.4000005,0.5 1.258724,-0.1 2.408724,-0.2 3.45,-0.3 1.058985,-0.1 2.242318,-0.2 3.55,-0.3 1.301432,-0.06094 2.351432,-0.04427 3.15,0.05 0.666406,0.07422 1.433073,0.157552 2.3,0.25 z"
       id="path1"
       inkscape:label="Foreground (Outter)"
       sodipodi:nodetypes="ccccccccscscccccccccccccccccsscccccccccsscccscccccsccccsssscccccccccccccccssccccccsscsccccccccccccccccccccccccccccccccccccccccccccccccccccccccccccccccccccssccccccccccccssssssccccccccccsscccsssscsccccccsscccccccccccccscscccccscccccccccccccccsscccscccccccc" />
    <path
       fill="#b2b7bb"
       stroke="none"
       d="m 22.643181,-42.962021 c -0.619271,-0.63112 -1.685937,-0.58112 -3.2,0.15 -1.133463,0.07721 -2.166797,-0.02279 -3.1,-0.3 -1.273307,-0.396875 -4.25,0.1 -4.25,0.1 v 0 c 0,0 -2.3851568,0.480859 -3.6000005,0.3 h -0.05 c -1.3084635,-0.166797 -2.6417969,-0.35013 -4,-0.55 h -0.05 c -0.6895183,-0.08418 -3.40909519,-0.344719 -6.2054074,-0.394719 -2.7963121,-0.05 -5.2437936,0.47531 -6.1542753,0.459491 -1.7654949,-0.0362 -3.7077278,-0.350971 -4.9755658,-0.214771 -1.267187,0.140494 -2.183854,0.273828 -2.75,0.4 -0.483854,0.128515 -1.617187,0.195182 -3.4,0.2 -1.045963,-0.147526 -1.895963,-0.18086 -2.55,-0.1 9.33e-4,0.0079 -0.01573,0.0079 -0.05,0 -0.509115,0.100911 -1.359115,0.134244 -2.55,0.1 -0.253255,-0.007 -0.486589,0.0763 -0.7,0.25 -0.188281,0.207552 -0.288281,0.440885 -0.3,0.7 -0.0073,0.286979 0.07604,0.520312 0.25,0.7 0.207031,0.221354 0.440365,0.33802 0.7,0.35 1.375521,0.03242 2.358854,-0.01758 2.95,-0.15 l -0.05,0.05 c 0.275261,-0.02735 0.575261,-0.02735 0.9,0 -0.287761,1.596354 -0.337761,2.779687 -0.15,3.55 v 0.05 c 0.216537,0.771484 0.15,2.8 0.15,2.8 v 0 c 0,0 -0.05273,2.654687 0.15,3.85 v 0.05 c 0.111784,0.537434 0.176009,3.110318 0.192676,5.718652 0.01667,2.608333 -0.01423,5.252116 -0.09268,5.931348 v 0.1 c -0.0035,0.03424 -0.0035,0.06758 0,0.1 -0.0023,0.02617 -0.0023,0.04284 0,0.05 -0.06732,1.699479 -0.100651,2.632812 -0.1,2.8 -2.61e-4,0.203385 0.01668,1.220047 0.05,3.05 0.0043,0.23281 0.0079,1.243375 0.01088,2.835707 0.003,1.5923332 -0.286281,4.4042712 0.12919,6.5694985 0.06019,0.313661 -0.140915,2.180909 -0.11889,3.86148343 -0.527491,1.34886227 -0.394716,2.38572117 -0.427987,3.59060147 -0.04967,1.7987909 0.264388,3.5897804 0.342157,5.3875756 0.05202,1.202474 0.08428,2.354634 0.08318,3.609837 -0.0021,2.510404 0.06887,3.834972 0.06478,5.35307 -0.0085,3.142955 -0.251053,1.688807 -0.204837,2.628673 -0.371102,3.560051 0.12159,2.219907 0.12159,4.484968 v 0 c 0,0 0.03281,2.783984 0,4.25 -0.03346,1.526172 -0.05013,2.842839 -0.05,3.95 -5.21e-4,1.114974 0.1,3.7 0.1,3.7 v 0 c 0,0 0.08984,1.974349 0.05,2.95 -0.80625,-1.3e-4 -1.489583,-1.3e-4 -2.05,0 -0.751953,-5.21e-4 -1.359293,0.198535 -1.974006,0.232385 -0.278125,0.01315 -0.511459,0.113153 -0.7,0.3 -0.183333,0.223958 -0.266667,0.473958 -0.25,0.75 0.01302,0.278385 0.11302,0.511719 0.3,0.7 0.223698,0.183073 0.473698,0.266406 0.75,0.25 0.585156,-0.03281 1.159162,-0.231865 1.874006,-0.232385 0.746485,1.3e-4 1.713151,0.0168 2.9,0.05 h 0.15 c 1.414063,-0.03333 2.730729,-0.05 3.95,-0.05 1.209766,-0.0031 2.443099,0.09687 3.7,0.3 1.448698,0.272917 2.8986978,0.322917 4.3499999,0.15 0.6745442,-0.08249 3.0795171,0.116577 5.7258293,0.06658 2.6463121,-0.05 5.5339635,-0.349068 6.1594193,-0.366577 1.2916667,0.0049 2.575,0.104933 3.85,0.3 l -0.05,-0.05 c 1.5712235,0.286198 4.5500005,-0.5 4.5500005,-0.5 v 0 c 0,0 1.561068,-0.371745 2,-0.15 0.795443,0.677083 2.345443,0.777083 4.65,0.3 0.857552,0.16888 1.757552,0.102213 2.7,-0.2 0.645703,-0.192057 1.295703,-0.158724 1.95,0.1 0.266797,0.122656 0.516797,0.122656 0.75,0 0.27513,-0.0931 0.458463,-0.276432 0.55,-0.55 0.122787,-0.233333 0.122787,-0.483333 0,-0.75 -0.09323,-0.241537 -0.276563,-0.42487 -0.55,-0.55 -1.11237,-0.441276 -2.21237,-0.491276 -3.3,-0.15 -0.348177,0.110937 -0.681511,0.177604 -1,0.2 -0.03099,-0.654297 -0.147653,-1.33763 -0.35,-2.05 v 0.05 c -0.179167,-0.780209 -0.195833,-1.646875 -0.05,-2.6 0.173568,-1.120313 0.223568,-2.520313 0.15,-4.2 -0.06589,-1.540235 -0.08255,-2.990235 -0.05,-4.35 0.03463,-1.276302 0.263599,-2.163082 0.428966,-3.520113 0.214323,-1.496094 -0.04828,-2.928705 -0.257932,-4.3 -0.02303,-0.150605 0.0855,-1.514734 0.06588,-3.036375 -0.01962,-1.52164 0.133545,-3.802633 0.113825,-6.302832 -0.0099,-1.2501 -0.143617,-2.5644393 -0.201351,-3.847344 -0.05633,-1.2517139 -0.210329,-2.5051873 -0.14152,-3.7562774 0.07231,-1.3147719 0.589741,-2.48800687 0.580731,-3.9073571 -0.009,-1.419349 -0.443521,-2.886635 -0.452421,-4.1341793 -0.01778,-2.495088 0.01707,-3.563552 -0.0044,-5.0771922 -0.0215,-1.513639 -0.281735,-3.898021 -0.281735,-4.039744 v -0.025 -0.025 c -0.08451,-1.007162 0.03216,-2.290495 0.35,-3.85 0.03268,-0.08359 0.04935,-0.183594 0.05,-0.3 0.193164,-0.997136 0.522131,-3.877332 0.622131,-6.518998 0.1,-2.641667 -0.02897,-5.044804 -0.02213,-5.331002 0.0017,-0.0065 0.0017,-0.0232 0,-0.05 0.03411,-0.515495 0.05078,-1.632162 0.05,-3.35 3.91e-4,-1.828906 -0.132943,-3.278906 -0.4,-4.35 -0.163672,-0.768099 -0.247005,-1.684766 -0.25,-2.75 0.326563,-0.147006 0.559896,-0.213672 0.7,-0.2 0.531771,0.49414 1.648437,0.677474 3.35,0.55 0.288021,-0.02227 0.521354,-0.138934 0.7,-0.35 0.183854,-0.209115 0.267187,-0.459115 0.25,-0.75 -0.02201,-0.255078 -0.138673,-0.471745 -0.35,-0.65 -0.208854,-0.183724 -0.458854,-0.267058 -0.75,-0.25 -1.001172,0.07266 -1.667839,0.02266 -2,-0.15 m -6.9,1.75 c 0.915755,0.282161 1.915755,0.415494 3,0.4 0.02448,1.104166 0.12448,2.054166 0.3,2.85 0.232943,0.962109 0.349609,2.262109 0.35,3.9 -9.33e-4,1.727734 -0.0176,2.811068 -0.05,3.25 -9.33e-4,0.04193 -9.33e-4,0.07526 0,0.1 -0.0024,0.214862 0.03375,3.681741 0.03627,5.414841 0.0037,2.509452 -0.338409,4.830471 -0.486275,5.635159 -1.083463,0.23177 -1.833463,0.298437 -2.25,0.2 h 0.05 c -0.417969,-0.153776 -1.017969,-0.253776 -1.8,-0.3 0.04229,-0.430726 -0.267911,-2.618125 0.08721,-5.386711 0.338209,-2.26895 -0.06833,-4.458731 -0.137217,-4.713289 l -0.12159,-1.348288 c -0.07161,-0.549349 -2.5e-5,-0.101061 -0.02841,-1.451712 v -0.05 c 0,-1.395443 0.01693,-2.76211 0.05,-4.1 0.0138,-0.186068 -0.0362,-0.369402 -0.15,-0.55 -0.03802,-0.05521 -0.08802,-0.105207 -0.15,-0.15 l -0.05,-0.05 c -0.147656,-0.147006 -0.33099,-0.230339 -0.55,-0.25 -2.145443,-0.457813 -3.695443,-0.57448 -4.6500005,-0.35 h -0.05 c -0.7598958,0.234114 -1.7765625,0.384114 -3.05,0.45 h -0.05 c -0.6274089,0.04753 -4.4209354,-0.203975 -6.93391414,-0.195635 -2.51297886,0.0083 -3.74540996,0.276527 -4.15133446,0.245635 -0.7985677,-0.06784 -2.0485677,-0.101172 -3.75,-0.1 -1.6332029,-1.3e-4 -3.0998699,-0.0168 -4.3999999,-0.05 h -0.05 c -0.02435,-0.0018 -0.05768,-0.0018 -0.1,0 -0.04101,0.0067 -0.09102,0.0067 -0.15,0 -0.159375,0.05221 -0.309375,0.135546 -0.45,0.25 -0.172917,0.184635 -0.272917,0.384635 -0.3,0.6 1.3e-4,0.05039 1.3e-4,0.08373 0,0.1 -0.0014,0.04974 -0.0014,0.08307 0,0.1 0.0047,0.06615 0.0047,0.116146 0,0.15 0.02161,0.03724 0.03828,0.05391 0.05,0.05 v 0.05 c 0.286328,1.229296 0.486328,2.11263 0.6,2.65 v 0.05 c 0.16276,0.555208 0.25,2.45 0.25,2.45 l -0.425566,2.553396 c -0.860427,2.199563 -0.182127,1.845729 -0.301819,4.045292 0,0 0.401473,3.951117 0.227385,4.551312 -0.55,-0.183724 -1.1,-0.233724 -1.65,-0.15 -0.01485,0.0079 -0.03151,0.0079 -0.05,0 -0.502474,0.11302 -1.369141,0.246354 -2.6,0.4 0.02005,-0.55638 0.0092,-3.088737 -0.03242,-5.597071 -0.04167,-2.508333 -0.114195,-4.992643 -0.21758,-5.452929 -0.161849,-1.039714 -0.195182,-2.139714 -0.1,-3.3 v -0.05 c 0.148568,-1.344141 0.0819,-2.494141 -0.2,-3.45 -0.107552,-0.656641 -0.02422,-1.656641 0.25,-3 1.673437,-0.01862 2.756771,-0.101954 3.25,-0.25 0.500521,-0.107162 1.317187,-0.223828 2.45,-0.35 1.198828,-0.130599 2.9361366,0.184172 4.6039755,0.214776 0.867513,0.01732 2.4257116,-0.62884 5.1886905,-0.578841 2.76297879,0.05 6.4267622,0.431382 7.0925825,0.514065 1.3667969,0.198958 4.05,0.55 4.05,0.55 v 0 c 0,0 3.0265625,0.08307 4.5000005,-0.4 h -0.05 c 1.139974,-0.336458 2.173307,-0.369792 3.1,-0.1 m -6.1000005,5 c 0.6738285,-0.114193 1.6904945,-0.04753 3.0500005,0.2 -1.31e-4,1.088542 0,3.35 0,3.35 v 0 c 0,0 -0.01625,1.552551 0.07841,2.166483 l 0.303975,3.272142 c 0.03939,0.170995 0.06288,0.06926 -0.101905,2.211871 -0.170618,2.218449 -0.04115,4.670468 -0.08048,4.949504 -1.429428,-0.3375 -2.662761,-0.3875 -3.7000005,-0.15 -1.0032552,0.249739 -2.1199219,0.283073 -3.35,0.1 h -0.05 c -0.6981771,-0.08828 -4.4332437,0.06425 -6.13089561,-0.325871 -2.73797889,0 -5.51919679,0.237589 -6.30435299,0.325871 -1.5626302,0.18125 -2.85,0.45 -2.85,0.45 v 0 c 0,0 -0.9859379,0.01302 -2.3999999,-0.1 0.20013,-0.685091 -0.14876,-4.054051 -0.14876,-4.054051 0,0 -0.224594,-0.13079 0.03002,-4.445397 l 0.607951,-3.819298 c 0.0026,-1.292709 -0.0366,-1.607296 -0.239205,-2.281254 v 0.05 c -0.06784,-0.342188 -0.184505,-0.842188 -0.35,-1.5 0.98763,0.03346 2.0542968,0.05013 3.1999999,0.05 1.6319011,0.0012 2.8319011,0.03453 3.6,0.1 0.4440104,0.0358 1.2476093,-0.315864 3.8105882,-0.324194 2.9671101,0.143249 6.8950114,0.330292 7.5746604,0.274194 1.4648437,-0.06888 2.6315104,-0.235547 3.5,-0.5 h -0.05 m 3.8000005,18.35 c 0.09297,0.03242 0.192968,0.04909 0.3,0.05 h 0.05 c 1.010287,-0.0016 1.74362,0.06511 2.2,0.2 v 0.05 c 0.495833,0.20625 1.329167,0.20625 2.5,0 -0.180078,1.224739 -0.15,3.15 -0.15,3.15 v 0 0 c 0,0 0.186785,1.793113 0.194875,3.231174 0.0081,1.4380612 -0.04101,2.4602762 -0.02643,4.9309562 0.0073,1.235341 0.501651,3.1823693 0.510281,4.5998443 0.0086,1.41747403 -0.530867,2.59674787 -0.580321,3.9151187 -0.05983,1.5950207 0.22636,3.1842564 0.345264,4.7759638 0.08156,1.0918434 0.240041,2.001565 0.252541,3.274934 0.02501,2.546738 -0.265931,3.870881 -0.237011,5.422673 0.02892,1.551793 -0.138166,3.847099 -0.138166,4.000637 v 0.025 0.025 c 0.184375,1.171614 0.128966,4.129887 0.128966,4.129887 v 0 c 0,0 -0.268229,1.991007 -0.3,3.340226 -0.03425,1.406771 -0.01758,2.906771 0.05,4.5 0.05963,1.520052 0.0096,2.786719 -0.15,3.8 -0.1875,1.246745 -0.154167,2.380078 0.1,3.4 h 0.05 c 0.148698,0.550391 0.215365,1.067057 0.2,1.55 -1.216276,0.215495 -2.049609,0.198828 -2.5,-0.05 l -0.05,-0.05 c -0.858203,-0.679557 -2.141537,-0.696224 -3.85,-0.05 h -0.05 c -1.104688,0.480469 -3.4500005,0.4 -3.4500005,0.4 v 0 c 0,0 -2.7666667,-0.303776 -4.15,-0.3 h -0.05 c -0.6580078,0.01582 -3.1278538,0.342907 -5.8074993,0.392907 -2.6796455,0.05 -5.5690905,-0.17709 -6.2777493,-0.09291 -1.2488281,0.160287 -2.4988281,0.126953 -3.7499999,-0.1 -1.376563,-0.230339 -2.726563,-0.347005 -4.05,-0.35 -0.925,-1.3e-4 -1.908333,-1.3e-4 -2.95,0 0.04349,-1.025261 0.02682,-2.058594 -0.05,-3.1 -0.06615,-1.288672 -0.09948,-2.472005 -0.1,-3.55 0,-1.092839 0.01667,-2.392839 0.05,-3.9 0.03373,-1.500781 0.03373,-2.950781 0,-4.35 v -6.745183 0 0 c 0,0 0.0865,-0.222872 0.08738,-1.669814 8.5e-4,-1.446942 -0.08398,-1.022771 -0.08268,-3.511682 6.5e-4,-1.244455 -0.03422,-2.396022 -0.08398,-3.592973 -0.07792,-1.8744907 -0.389446,-3.7429483 -0.335932,-5.6182946 0.03509,-1.2297492 0.430099,-2.1922955 0.430015,-3.66561287 -8.4e-5,-1.473317 -3.03e-4,-2.87439403 -6.78e-4,-4.17791903 -8e-4,-2.6070503 -0.0022,-4.8238953 -0.0044,-6.4480475 -0.0023,-1.624152 -0.0054,-2.655611 -0.0097,-2.891888 -0.03294,-1.803521 -0.04987,-2.803516 -0.05,-3 5.21e-4,-0.132162 0.01719,-0.798828 0.05,-2 1.521485,-0.196354 2.571485,-0.363021 3.15,-0.5 l -0.05,0.05 c 0.434765,-0.05404 0.868099,0.04596 1.3,0.3 0.03906,0.04583 0.07239,0.07917 0.1,0.1 l 0.05,0.05 h 0.1 c 0.02487,0.02409 0.04154,0.04075 0.05,0.05 0.101042,0.02943 0.184375,0.04609 0.25,0.05 h 0.1 c 2.672656,0.177474 4.1559895,0.177474 4.4499999,0 l -0.05,0.05 c 0.2958333,-0.08125 1.1125,-0.197917 2.45,-0.35 0.6933037,-0.07814 3.2951292,-0.617435 6.50928465,-0.251899 2.81042345,0.01948 5.42596395,0.251899 5.42596395,0.251899 v 0 c 0,0 2.8768229,0.165234 4.1,-0.15 1.0052085,-0.198438 2.2718755,-0.06511 3.8000005,0.4 z"
       id="path3"
       inkscape:label="Foreground (Inner)"
       sodipodi:nodetypes="cccsscccccccccccccccccccccssccsccccccsscaaccccsccsscccccccccccccccccsscccccccccccccccccccaaccccccccsccccccccccccccccccsccccccccscccccccccccccccccccccccccsccccccsccccccccccsscccccsscccccccccsscccccccccccccccccccscccccaacccccssccccccccccssccccccccccccccccaaccscccccccccccccccccsccc" />
  </g>
</svg>
