<?xml version="1.0" encoding="UTF-8" standalone="no"?>
<!-- Created with Inkscape (http://www.inkscape.org/) -->

<svg
   width="128"
   height="128"
   viewBox="0 0 33.866666 33.866666"
   version="1.1"
   id="svg1"
   sodipodi:docname="carpet_2x2.svg"
   inkscape:version="1.4 (86a8ad7, 2024-10-11)"
   xmlns:inkscape="http://www.inkscape.org/namespaces/inkscape"
   xmlns:sodipodi="http://sodipodi.sourceforge.net/DTD/sodipodi-0.dtd"
   xmlns="http://www.w3.org/2000/svg"
   xmlns:svg="http://www.w3.org/2000/svg">
  <sodipodi:namedview
     id="namedview1"
     pagecolor="#ffffff"
     bordercolor="#000000"
     borderopacity="0.25"
     inkscape:showpageshadow="2"
     inkscape:pageopacity="0.0"
     inkscape:pagecheckerboard="true"
     inkscape:deskcolor="#d1d1d1"
     inkscape:document-units="px"
     showgrid="true"
     inkscape:zoom="4.4335938"
     inkscape:cx="76.574448"
     inkscape:cy="87.40088"
     inkscape:window-width="2560"
     inkscape:window-height="1494"
     inkscape:window-x="-11"
     inkscape:window-y="-11"
     inkscape:window-maximized="1"
     inkscape:current-layer="svg1">
    <inkscape:grid
       id="grid1"
       units="px"
       originx="0"
       originy="0"
       spacingx="16.933332"
       spacingy="16.933332"
       empcolor="#0099e5"
       empopacity="0.30196078"
       color="#0099e5"
       opacity="0.14901961"
       empspacing="5"
       enabled="true"
       visible="true" />
  </sodipodi:namedview>
  <defs
     id="defs1" />
  <g
     id="g413"
     style="display:inline"
     transform="matrix(0.26458333,0,0,0.26458333,-163.51255,-163.51262)"
     inkscape:label="Carpet">
    <path
       id="path819"
       style="display:inline;fill:#ffffff;fill-opacity:1;stroke-width:0.264583"
       inkscape:label="Background"
       d="m 1.8542004,0.5151432 -5e-5,32.8084098 30.1626326,1.2e-5 V 0.51522598 Z"
       sodipodi:nodetypes="ccccc"
       transform="matrix(3.7795276,0,0,3.7795276,617.99188,618.05315)" />
    <path
       id="path820"
       style="display:inline;fill:#b2b7bb;fill-opacity:1;stroke-width:0.999999"
       inkscape:label="Foreground"
       d="m 733.00026,620.44953 c 0.0174,0.025 0.0348,0.0425 0.0508,0.0508 0.30092,0.47461 1.98307,0.65677 5.04883,0.54883 0.0988,1.18164 0.0988,2.26497 0,3.25 -0.14038,1.42422 -0.15781,2.45911 -0.0508,3.10156 v 0.0488 c 0.11263,0.52513 0.0972,1.29258 -0.0488,2.30078 0.003,0.044 0.003,0.0769 0,0.0996 -0.0185,0.15807 -0.0185,0.2918 0,0.40039 0.0314,0.0688 0.0467,0.11914 0.0488,0.15039 0.34859,1.11667 0.3156,2.2 -0.0996,3.25 -0.61185,1.77031 -0.67771,2.93698 -0.19921,3.5 0.008,0.0324 0.008,0.0479 0,0.0488 0.19256,0.37448 0.27589,1.29115 0.25,2.75 v 0.0508 c -0.006,1.46445 -0.15716,2.68151 -0.45118,3.65039 v 0.0488 c -0.29389,1.31041 -0.29389,2.42669 0,3.34961 0.20482,0.74713 0.356,1.71419 0.45118,2.90039 v 0.0996 c -0.0329,1.26015 0.0178,2.59349 0.15039,4 0.15246,1.26784 0.16798,2.18451 0.0488,2.75 -0.12892,0.69883 -0.19475,1.73372 -0.19921,3.10156 -0.002,0.0414 -0.002,0.0743 0,0.0996 -0.0678,0.96784 -0.11823,2.16745 -0.15039,3.59961 v 0.0508 c -0.003,1.53333 0.0471,2.66511 0.15039,3.39844 0.0872,0.66419 0.0872,1.58086 0,2.75 v 0.0508 c -0.17163,1.40664 -0.23942,2.63919 -0.20118,3.69922 0.0325,1.06563 0.0325,2.06563 0,3 -0.0257,0.7069 -0.008,1.4569 0.0508,2.25 l 0.25,6.25 c 0.0988,1.18164 0.0988,2.26497 0,3.25 -0.14037,1.42422 -0.1559,2.45911 -0.0488,3.10156 v 0.0488 c 0.11263,0.52513 0.0952,1.29258 -0.0508,2.30078 0.003,0.044 0.003,0.0769 0,0.0996 -0.0185,0.15807 -0.0185,0.2918 0,0.40039 0.0314,0.0688 0.0487,0.11914 0.0508,0.15039 0.34858,1.11667 0.31365,2.2 -0.10157,3.25 -0.61185,1.77031 -0.67771,2.93698 -0.19921,3.5 0.008,0.0324 0.008,0.0479 0,0.0488 0.19256,0.37448 0.27589,1.29115 0.25,2.75 v 0.0508 c -0.006,1.46445 -0.1552,2.68151 -0.44922,3.65039 v 0.0488 c -0.29389,1.31041 -0.29389,2.42669 0,3.34961 0.20482,0.74713 0.35405,1.71419 0.44922,2.90039 v 0.0996 c -0.0329,1.26014 0.0178,2.59349 0.15039,4 0.15247,1.26783 0.16799,2.18451 0.0488,2.75 -0.12892,0.69883 -0.19475,1.73372 -0.19921,3.10156 -0.002,0.0414 -0.002,0.0743 0,0.0996 -0.0678,0.96784 -0.11822,2.16745 -0.15039,3.59961 v 0.0508 c -0.003,1.53333 0.0471,2.66511 0.15039,3.39844 0.0872,0.66419 0.0872,1.58086 0,2.75 v 0.0508 c -0.17163,1.40664 -0.23943,2.63919 -0.20118,3.69922 0.0325,1.06563 0.0325,2.06563 0,3 -0.0257,0.7069 -0.008,1.4569 0.0508,2.25 -1.24375,-0.11497 -2.07709,-0.0801 -2.5,0.10156 -0.007,0.008 -0.0246,0.008 -0.0508,0 -0.3617,0.13685 -1.478,0.16981 -3.34961,0.0996 -0.028,-2.34518 -0.028,-3.7289 0,-4.15039 0.0443,-0.49141 -0.0895,-1.50885 -0.40039,-3.05078 -0.22356,-1.25365 -0.22356,-2.46875 0,-3.64844 0.29103,-1.31706 0.52553,-2.61745 0.70118,-3.90039 v -0.0508 c 0.20912,-1.33047 0.15874,-2.86341 -0.15039,-4.59961 h 0.0508 c -0.20742,-1.37969 -0.17447,-2.48047 0.0996,-3.30078 v 0.0508 c 0.54194,-1.07944 0.49154,-2.54648 -0.15039,-4.40039 -0.4655,-1.27956 -0.61471,-2.44623 -0.44922,-3.5 0.28192,-1.19206 0.5474,-2.54089 0.79882,-4.04883 0.3422,-1.58034 0.45847,-2.96406 0.34961,-4.15039 -0.10651,-1.08711 -0.30613,-2.42044 -0.59961,-4 -0.23399,-1.44375 -0.3328,-2.77708 -0.29882,-4 0.0336,-1.27891 -0.1,-2.66263 -0.40039,-4.15039 -0.1875,-1.22149 -0.12163,-2.57227 0.19921,-4.05078 0.33869,-1.31406 0.4724,-2.43034 0.4004,-3.34961 l -0.1504,-5.69922 c -0.028,-2.34518 -0.028,-3.7289 0,-4.15039 0.0443,-0.49141 -0.0895,-1.50885 -0.40039,-3.05078 -0.22355,-1.25365 -0.22355,-2.46875 0,-3.64844 0.29103,-1.31706 0.52553,-2.61745 0.70118,-3.90039 v -0.0508 c 0.20912,-1.33047 0.15873,-2.86341 -0.15039,-4.59961 h 0.0508 c -0.20742,-1.37969 -0.17447,-2.48047 0.0996,-3.30078 v 0.0508 c 0.54194,-1.07944 0.49154,-2.54648 -0.15039,-4.40039 -0.46549,-1.27956 -0.61471,-2.44623 -0.44922,-3.5 0.28191,-1.19206 0.54739,-2.54089 0.79882,-4.04883 0.34219,-1.58034 0.45848,-2.96406 0.34961,-4.15039 -0.1065,-1.08711 -0.30613,-2.42044 -0.59961,-4 -0.234,-1.44375 -0.3328,-2.77708 -0.29882,-4 0.0336,-1.27891 -0.1,-2.66263 -0.40039,-4.15039 -0.18751,-1.22149 -0.12164,-2.57227 0.19921,-4.05078 0.33868,-1.31406 0.4724,-2.43034 0.4004,-3.34961 0.51405,-0.1168 0.81444,-0.20013 0.90039,-0.25 z M 684.50018,744.85 c 0.16008,-0.076 0.37852,-0.29104 0.34961,-0.40039 0.034,0.008 0.0515,0.008 0.0508,0 0.39857,0.44141 1.7474,0.62552 4.04883,0.55078 h 0.10156 c 2.38685,0 3.73568,0.0504 4.04883,0.15039 l 0.0508,0.0488 c 0.46784,0.32017 1.75078,0.25428 3.84961,-0.19922 0.12474,10e-4 0.24102,-0.0159 0.34961,-0.0508 1.02591,-0.16226 1.85925,-0.1293 2.5,0.0996 1.07865,0.44597 2.16198,0.48085 3.25,0.10156 0.86888,-0.28022 2.10338,-0.53021 3.70117,-0.75 1.51081,-0.20209 2.7259,-0.0858 3.64843,0.34961 1.30873,0.64661 2.82618,0.74545 4.55079,0.29883 1.24518,-0.29556 2.31106,-0.29556 3.19921,0 1.23893,0.45637 2.6556,0.57462 4.25,0.35156 1.46575,-0.16641 2.81654,-0.30014 4.05079,-0.40039 1.2737,-0.096 2.74076,-0.096 4.40039,0 h 0.0996 c 2.83619,0.10715 4.5203,0.0393 5.05078,-0.20117 0.4306,-0.0875 1.34727,-0.0196 2.75,0.20117 h 0.0488 c 0.0573,0.008 0.10764,0.008 0.15039,0 h 0.0508 c 1.31575,0.23006 2.14909,0.21263 2.5,-0.0508 0.28335,-0.0427 1.08176,-0.0253 2.39843,0.0508 0.27553,0.0166 0.51003,-0.0668 0.70118,-0.25 0.2202,-0.18788 0.33645,-0.42241 0.34961,-0.70117 0.0166,-0.27553 -0.0665,-0.52552 -0.25,-0.75 -0.18788,-0.1866 -0.42241,-0.28542 -0.70118,-0.29883 -1.99141,-0.11864 -3.14062,-0.0682 -3.44921,0.15039 -0.0433,0.0223 -0.0937,0.0377 -0.1504,0.0488 -0.0659,0.009 -0.248,-0.006 -0.54882,-0.0488 -0.0889,-0.92397 -0.12383,-1.77474 -0.10157,-2.55078 0.034,-0.96563 0.034,-1.99856 0,-3.09961 -0.0219,-0.7487 0.0129,-1.59948 0.10157,-2.55078 0.92344,-0.0481 1.68893,-0.21472 2.29882,-0.5 h -0.0488 c 0.39284,-0.094 0.80952,0.0223 1.25,0.34961 0.22606,0.16955 0.47604,0.23734 0.75,0.20117 0.27057,-0.0427 0.48566,-0.17648 0.64843,-0.40039 0.16951,-0.22526 0.23735,-0.47527 0.20118,-0.75 -0.0435,-0.27043 -0.1772,-0.4875 -0.40039,-0.65039 -1.09362,-0.80664 -2.14402,-1.00625 -3.1504,-0.59961 h -0.0488 c -0.36926,0.16914 -0.81888,0.2854 -1.34961,0.34961 0.0447,-0.89167 0.0272,-1.62422 -0.0508,-2.19922 -0.0962,-0.66276 -0.14661,-1.6957 -0.15039,-3.09961 0.0261,-1.09687 0.0589,-2.06393 0.0996,-2.90039 0.72695,-0.14974 1.29479,-0.20013 1.70118,-0.15039 0.6901,0.15886 1.42266,0.29259 2.19922,0.40039 0.28543,0.0355 0.53543,-0.0326 0.75,-0.20117 0.225,-0.17307 0.35872,-0.4056 0.40039,-0.69922 0.0355,-0.25194 -0.0322,-0.48451 -0.20118,-0.69922 -0.17329,-0.22488 -0.40586,-0.35857 -0.69921,-0.40039 -0.72344,-0.0922 -1.40756,-0.20848 -2.05079,-0.34961 -0.50376,-0.10639 -1.18593,-0.0909 -2.04882,0.0488 0.0426,-0.61185 0.093,-1.11185 0.15039,-1.5 0.17995,-0.69727 0.17995,-1.81354 0,-3.34961 -0.0978,-1.01459 -0.14816,-1.98164 -0.15039,-2.90039 0.81901,-0.0455 1.50117,-0.0455 2.04882,0 0.91888,0.0726 1.58554,0.0901 2,0.0508 0.29831,-0.0231 0.53283,-0.13934 0.70118,-0.34961 0.19257,-0.21029 0.27589,-0.46029 0.25,-0.75 -0.0227,-0.26459 -0.13909,-0.49909 -0.34961,-0.70117 -0.21083,-0.15899 -0.46081,-0.22487 -0.75,-0.19922 -0.35247,0.0273 -0.92032,0.01 -1.70118,-0.0508 -0.60951,-0.0539 -1.37499,-0.0694 -2.29882,-0.0488 -0.10651,-0.94167 -0.25769,-1.74206 -0.45118,-2.40039 -0.17291,-0.64362 -0.15547,-1.42656 0.0508,-2.34961 v 0.0488 c 0.26264,-0.8582 0.41184,-1.89114 0.44921,-3.09961 1.01523,0.10235 1.7168,10e-4 2.10157,-0.30078 0.28463,-0.0685 0.86797,-0.0181 1.75,0.15039 0.26861,0.0792 0.51862,0.0462 0.75,-0.0996 0.22866,-0.15729 0.36039,-0.37436 0.39843,-0.65039 0.0793,-0.26837 0.0464,-0.51836 -0.0996,-0.75 -0.15756,-0.22851 -0.37461,-0.37773 -0.6504,-0.44922 -1.58827,-0.33242 -2.63672,-0.31689 -3.14843,0.0488 -0.0333,0.0407 -0.0683,0.0757 -0.10157,0.10156 -0.16588,0.0533 -0.48176,0.0533 -0.94921,0 -0.0208,-1.58685 -0.20473,-2.60429 -0.55079,-3.05078 -0.0483,-0.28919 0.0854,-0.88997 0.4004,-1.80078 l -0.0488,0.0508 c 0.43997,-1.09063 0.58919,-2.2069 0.44922,-3.34961 0.81485,0.0189 1.36524,0.0189 1.65039,0 h 2.09961 c 0.27383,-0.003 0.50637,-0.10345 0.69921,-0.30078 0.19767,-0.19284 0.29841,-0.42539 0.30079,-0.69922 -0.003,-0.27383 -0.10346,-0.50833 -0.30079,-0.70117 -0.19283,-0.19765 -0.42538,-0.29648 -0.69921,-0.29883 h -2.09961 c -0.066,0.002 -0.13383,0.002 -0.20118,0 -0.11301,0.0288 -0.64595,0.0288 -1.5996,0 0.0699,-0.83373 0.0371,-1.50039 -0.0996,-2 -0.0541,-0.52687 0.0952,-6.82671 0.21875,-7.97461 l 1.38867,0.13281 c 0.6901,0.15886 1.42266,-0.10617 2.19922,0.002 0.28543,0.0355 0.53543,-0.0326 0.75,-0.20117 0.225,-0.17307 0.35872,-0.4056 0.40039,-0.69922 0.0355,-0.25194 -0.0322,-0.48451 -0.20117,-0.69922 -0.17329,-0.22488 -0.40587,-0.35857 -0.69922,-0.40039 -0.72344,-0.0922 -1.40755,0.18997 -2.05078,0.0488 l -1.86719,-0.36915 -0.23828,-1.68945 c -0.0889,-0.92396 -0.12383,-1.77474 -0.10157,-2.55078 0.034,-0.96563 0.034,-1.99857 0,-3.09961 -0.0219,-0.7487 0.0129,-1.59948 0.10157,-2.55078 0.92344,-0.0481 1.68893,-0.21472 2.29882,-0.5 h -0.0488 c 0.39284,-0.094 0.80951,0.0223 1.25,0.34961 0.22605,0.16955 0.47604,0.23734 0.75,0.20117 0.27057,-0.0427 0.48567,-0.17648 0.64843,-0.40039 0.16952,-0.22526 0.23735,-0.47526 0.20118,-0.75 -0.0435,-0.27042 -0.1772,-0.4875 -0.40039,-0.65039 -1.09362,-0.80664 -2.14403,-1.00625 -3.1504,-0.59961 h -0.0488 c -0.36926,0.16913 -0.82083,0.2854 -1.35157,0.34961 0.0447,-0.89167 0.0291,-1.62422 -0.0488,-2.19922 -0.0962,-0.66276 -0.14661,-1.6957 -0.15039,-3.09961 0.0261,-1.09687 0.0589,-2.06393 0.0996,-2.90039 0.72695,-0.14974 1.29479,-0.20013 1.70118,-0.15039 0.6901,0.15885 1.42266,0.29259 2.19922,0.40039 0.28543,0.0355 0.53542,-0.0325 0.75,-0.20117 0.22499,-0.17307 0.35872,-0.4056 0.40039,-0.69922 0.0355,-0.25194 -0.0322,-0.48451 -0.20118,-0.69922 -0.17329,-0.22488 -0.40585,-0.35857 -0.69921,-0.40039 -0.72344,-0.0922 -1.40756,-0.20848 -2.05079,-0.34961 -0.50376,-0.10639 -1.18593,-0.0909 -2.04882,0.0488 0.0426,-0.61185 0.093,-1.11185 0.15039,-1.5 0.17994,-0.69727 0.17994,-1.81354 0,-3.34961 -0.0978,-1.01459 -0.14816,-1.98164 -0.15039,-2.90039 0.819,-0.0455 1.50117,-0.0455 2.04882,0 0.91888,0.0726 1.58555,0.0901 2,0.0508 0.29832,-0.0231 0.53282,-0.13934 0.70118,-0.34961 0.19256,-0.21029 0.27589,-0.46029 0.25,-0.75 -0.0227,-0.26459 -0.13909,-0.49909 -0.34961,-0.70117 -0.21083,-0.15899 -0.46081,-0.22487 -0.75,-0.19922 -0.35248,0.0273 -0.92032,0.01 -1.70118,-0.0508 -0.60951,-0.0539 -1.37499,-0.0694 -2.29882,-0.0488 -0.10651,-0.94167 -0.2577,-1.74206 -0.45118,-2.40039 -0.17292,-0.64362 -0.15548,-1.42656 0.0508,-2.34961 v 0.0488 c 0.26264,-0.8582 0.41183,-1.89114 0.44921,-3.09961 1.01523,0.10235 1.7168,0.001 2.10157,-0.30078 0.28463,-0.0685 0.86797,-0.0181 1.75,0.15039 0.26861,0.0792 0.51667,0.0462 0.74804,-0.0996 0.22867,-0.15729 0.36235,-0.37435 0.40039,-0.65039 0.0793,-0.26836 0.0464,-0.51836 -0.0996,-0.75 -0.15757,-0.22851 -0.37462,-0.37773 -0.6504,-0.44922 -1.58828,-0.33242 -2.63867,-0.31689 -3.15039,0.0488 -0.0333,0.0407 -0.0663,0.0757 -0.0996,0.10156 -0.16589,0.0533 -0.48176,0.0533 -0.94921,0 -0.0208,-1.58685 -0.20474,-2.60429 -0.55079,-3.05078 -0.0483,-0.28919 0.0854,-0.88997 0.4004,-1.80078 l -0.0508,0.0508 c 0.43998,-1.09063 0.59115,-2.2069 0.45118,-3.34961 0.81485,0.0189 1.36524,0.0189 1.65039,0 h 2.09961 c 0.27382,-0.003 0.50636,-0.10345 0.69921,-0.30078 0.19766,-0.19284 0.29841,-0.42539 0.30079,-0.69922 -0.003,-0.27383 -0.10347,-0.50833 -0.30079,-0.70117 -0.19284,-0.19765 -0.42538,-0.29648 -0.69921,-0.29883 h -2.09961 c -0.066,0.002 -0.13383,0.002 -0.20118,0 -0.11301,0.0288 -0.64595,0.0288 -1.5996,0 0.0699,-0.83373 0.037,-1.50039 -0.0996,-2 -0.0541,-0.52687 -0.0239,-1.3521 0.0996,-2.5 0.10442,-1.00052 0.10442,-2.1013 0,-3.30078 0.96094,0.16406 1.64505,0.2319 2.05078,0.20117 0.6043,-0.0357 1.31941,-0.18684 2.14843,-0.45117 0.25902,-0.0862 0.44311,-0.25287 0.55079,-0.5 0.14728,-0.24167 0.18018,-0.49167 0.0996,-0.75 -0.0859,-0.25911 -0.25263,-0.45872 -0.5,-0.59961 -0.24167,-0.1138 -0.49167,-0.13123 -0.75,-0.0508 -0.63789,0.20221 -1.18827,0.32044 -1.65039,0.35156 -0.47018,0.0219 -1.3694,-0.0964 -2.69921,-0.35156 -0.007,0.005 -0.0246,0.005 -0.0508,0 -0.0785,-0.0317 -0.16182,-0.0471 -0.25,-0.0488 -0.034,-0.003 -0.0668,-0.003 -0.0996,0 -0.0253,-0.003 -0.0582,-0.003 -0.0996,0 -2.55755,0.13828 -4.00717,0.17123 -4.34961,0.0996 -0.38203,-0.62265 -1.5991,-0.65561 -3.65039,-0.0996 h -0.0508 -0.0996 c -0.059,0.0415 -0.12487,0.0745 -0.19921,0.0996 -0.0181,0.0229 -0.0355,0.0404 -0.0508,0.0508 -0.53541,0.25847 -1.25246,0.30691 -2.15039,0.14844 -1.29544,-0.17839 -2.54544,-0.19391 -3.75,-0.0488 -0.95833,0.12018 -1.92343,0.10275 -2.89843,-0.0508 h -0.0508 c -1.09282,-0.14167 -2.40873,-0.0913 -3.94922,0.15039 h -0.0508 c -1.32239,0.25847 -2.73906,0.29142 -4.25,0.0996 -1.64779,-0.20599 -3.14779,-0.27187 -4.5,-0.19922 h -0.0508 c -1.2457,0.0974 -2.64491,0.11292 -4.19921,0.0488 h -0.0508 c -1.43619,-0.0291 -2.60287,-0.17835 -3.5,-0.44922 -1.06888,-0.37526 -2.50103,-0.32487 -4.29882,0.15039 h -0.0508 c -2.58411,0.23373 -4.1345,0.36745 -4.65039,0.40039 -0.47278,0.022 -1.372,-0.0963 -2.69921,-0.35156 -0.14935,-0.0556 -0.31601,-0.0711 -0.5,-0.0488 -0.69115,0.10261 -1.14076,0.13556 -1.34961,0.0996 -0.19662,-0.3181 -0.61276,-0.48529 -1.2461,-0.50195 -0.63333,-0.0167 -1.69568,0.32982 -2.55468,0.40234 -1.32873,0.11218 -2.67483,-0.0988 -4.00007,0.049 -0.55901,0.0623 -1.18828,0.32044 -1.6504,0.35156 -0.47018,0.0219 -1.3694,-0.0964 -2.69921,-0.35156 -0.007,0.005 -0.0246,0.005 -0.0508,0 -0.0785,-0.0317 -0.16182,-0.0471 -0.25,-0.0488 -0.034,-0.003 -0.0668,-0.003 -0.0996,0 -0.0253,-0.003 -0.0582,-0.003 -0.0996,0 -2.55755,0.13828 -4.00717,0.17123 -4.34961,0.0996 -0.38203,-0.62265 -1.5991,-0.65561 -3.65039,-0.0996 h -0.0508 -0.0996 c -0.059,0.0415 -0.12488,0.0745 -0.19922,0.0996 -0.0181,0.0229 -0.0355,0.0404 -0.0508,0.0508 -0.53541,0.25847 -1.25247,0.30691 -2.1504,0.14844 -1.29544,-0.17839 -2.54544,-0.19391 -3.75,-0.0488 -0.95833,0.12018 -1.92343,0.10275 -2.89843,-0.0508 h -0.0508 c -1.09282,-0.14167 -2.40873,-0.0913 -3.94922,0.15039 h -0.0508 c -1.32239,0.25847 -2.73906,0.29142 -4.25,0.0996 -1.64779,-0.20599 -3.14779,-0.27187 -4.5,-0.19922 h -0.0508 c -1.2457,0.0974 -2.64491,0.11292 -4.19921,0.0488 h -0.0508 c -1.43619,-0.0291 -2.60287,-0.17835 -3.5,-0.44922 -1.06888,-0.37526 -2.50103,-0.32487 -4.29882,0.15039 h -0.0508 c -2.58411,0.23373 -4.13451,0.36745 -4.6504,0.40039 -0.47278,0.022 -1.372,-0.0963 -2.69921,-0.35156 -0.14935,-0.0556 -0.31601,-0.0711 -0.5,-0.0488 -0.69115,0.10261 -1.14076,0.13556 -1.34961,0.0996 -0.19662,-0.3181 -0.61276,-0.48529 -1.2461,-0.50195 -0.63333,-0.0167 -1.48463,0.11758 -2.55468,0.40234 -0.24727,0.0917 -0.44688,0.25833 -0.59961,0.5 -0.12187,0.24597 -0.15483,0.49597 -0.0996,0.75 0.0915,0.28086 0.2582,0.48047 0.5,0.59961 0.24557,0.15508 0.49557,0.18803 0.75,0.0996 1.03945,-0.26745 1.62279,-0.43411 1.75,-0.5 0.0173,0.025 0.0328,0.0425 0.0488,0.0508 0.29844,0.41589 0.94962,0.6155 1.95118,0.59961 v 2.15039 c -1.3e-4,0.53802 0.0153,1.45469 0.0488,2.75 0.0242,1.00065 0.0242,1.98321 0,2.94922 -0.21262,0.0107 -0.44518,0.0107 -0.69921,0 h -0.0508 c -0.80612,-2.6e-4 -1.92239,0.0172 -3.3496,0.0508 -0.25885,0.003 -0.49141,0.10216 -0.69922,0.29883 -0.1737,0.2043 -0.25703,0.4388 -0.25,0.70117 0.003,0.29206 0.10215,0.52461 0.29882,0.69922 0.2043,0.20677 0.43881,0.30755 0.70118,0.30078 1.38437,-0.0327 2.46771,-0.0501 3.25,-0.0508 h 0.0488 c 0.21512,0.009 0.41668,0.009 0.60157,0 -0.0872,0.64935 -0.20548,1.13385 -0.35157,1.45117 -0.30456,0.63177 -0.30456,1.86433 0,3.69922 0.20156,1.01406 0.33528,1.91328 0.4004,2.69922 -0.90403,-0.0876 -1.53776,-0.004 -1.9004,0.25 -0.0333,0.0407 -0.0663,0.0757 -0.0996,0.10156 -0.25039,0.0803 -0.84922,0.0299 -1.79883,-0.15039 -0.25599,-0.0366 -0.50599,0.0138 -0.75,0.15039 -0.20599,0.17747 -0.33971,0.39258 -0.40039,0.64844 -0.0367,0.28906 0.0137,0.53906 0.15039,0.75 0.17761,0.23906 0.3927,0.37278 0.64843,0.40039 1.66211,0.30417 2.74544,0.25378 3.25,-0.15039 0.24375,-0.0485 0.66041,-0.031 1.25,0.0508 0.36146,0.78932 0.51264,1.4056 0.45118,1.84961 -0.13086,0.76289 -0.1987,1.69701 -0.20118,2.80078 0.022,0.82213 -0.0943,1.88802 -0.3496,3.19922 -0.0676,-0.0232 -0.15091,-0.0561 -0.25,-0.0996 v -0.0508 c -0.77161,-0.38451 -2.20378,-0.21784 -4.29883,0.5 -0.24466,0.0964 -0.42877,0.26302 -0.55078,0.5 -0.12253,0.26107 -0.13996,0.51107 -0.0508,0.75 0.0961,0.27773 0.26276,0.47929 0.5,0.60156 0.26121,0.12227 0.5112,0.13779 0.75,0.0488 1.40716,-0.48307 2.35873,-0.66524 2.85157,-0.54883 0.32005,0.14635 0.603,0.26263 0.84961,0.34961 -0.007,0.91406 -0.09,1.67956 -0.25,2.29883 v 0.0508 c -0.16849,0.98138 -0.21889,2.09766 -0.15039,3.34961 0.078,0.97825 0.17877,1.94531 0.30078,2.90039 -0.28242,0.0665 -0.56732,0.0665 -0.85157,0 -10e-4,-0.009 -0.0168,-0.0261 -0.0488,-0.0508 -0.73281,-0.16486 -1.73281,-0.26368 -3,-0.29883 -0.25365,-0.007 -0.48816,0.0763 -0.70118,0.25 -0.18827,0.20753 -0.2871,0.44011 -0.29882,0.69922 -0.007,0.28698 0.0761,0.52148 0.25,0.70117 0.20755,0.22133 0.44011,0.33763 0.69922,0.34961 1.09961,0.0314 1.96587,0.11473 2.5996,0.25 h -0.0488 c 0.37239,0.1073 0.73867,0.15769 1.09961,0.15039 -0.14532,0.96094 -0.062,1.69349 0.25,2.19922 0.27097,0.52891 0.3543,1.17814 0.25,1.94922 v 0.0508 c -0.0859,0.92279 -0.1189,2.1069 -0.0996,3.55078 -0.25443,0.0495 -0.55482,0.0979 -0.90039,0.14844 -0.0155,0.008 -0.0309,0.008 -0.0488,0 -0.73828,0.14649 -1.67239,0.0632 -2.80078,-0.25 -0.2444,-0.0799 -0.4944,-0.0625 -0.75,0.0508 -0.22448,0.15182 -0.3737,0.35145 -0.44922,0.59961 -0.0803,0.27825 -0.0649,0.52825 0.0488,0.75 0.1513,0.26574 0.35091,0.43242 0.59961,0.5 1.50482,0.42851 2.75482,0.52931 3.75,0.30078 l -0.0488,0.0488 c 0.2181,-0.0329 0.41771,-0.0656 0.59961,-0.0996 0.005,1.08034 0.0228,1.71406 0.0508,1.90039 -6.5e-4,0.19347 -0.16732,0.97643 -0.5,2.34961 v 0.0508 c -0.24974,1.26771 -0.2927,4.35234 -0.043,5.41797 -0.48659,-0.22619 -0.9724,-0.0462 -1.45899,0.13086 -0.0333,0.0407 -0.0663,0.0757 -0.0996,0.10156 -0.25039,0.0803 -0.84922,0.0299 -1.79883,-0.15039 -0.25599,-0.0366 -0.50599,0.0138 -0.75,0.15039 -0.20599,0.17747 -0.33971,0.39258 -0.40039,0.64844 -0.0367,0.28906 0.0137,0.53906 0.15039,0.75 0.17761,0.23906 0.3927,0.37278 0.64843,0.40039 1.66211,0.30417 2.74544,0.25378 3.25,-0.15039 0.34752,-0.0759 0.52042,-0.011 0.6836,0.0605 l 0.26758,4.39062 c -1.3e-4,0.53802 0.0173,1.45469 0.0508,2.75 0.0242,1.00065 0.0242,1.98321 0,2.94922 -0.21263,0.0107 -0.44714,0.0107 -0.70117,0 h -0.0488 c -0.80612,-2.6e-4 -1.92435,0.0172 -3.35156,0.0508 -0.25885,0.003 -0.49141,0.10216 -0.69922,0.29883 -0.1737,0.2043 -0.25703,0.4388 -0.25,0.70117 0.003,0.29206 0.10411,0.52461 0.30078,0.69922 0.2043,0.20677 0.43685,0.30755 0.69922,0.30078 1.38437,-0.0327 2.46771,-0.0501 3.25,-0.0508 h 0.0508 c 0.21512,0.009 0.41472,0.009 0.59961,0 -0.0872,0.64935 -0.20352,1.13385 -0.34961,1.45117 -0.30456,0.63177 -0.30456,1.86433 0,3.69922 0.20156,1.01406 0.33333,1.91328 0.39844,2.69922 -0.90403,-0.0876 -1.53581,-0.004 -1.89844,0.25 -0.0333,0.0407 -0.0683,0.0757 -0.10156,0.10156 -0.25039,0.0803 -0.84922,0.0299 -1.79883,-0.15039 -0.25599,-0.0366 -0.50599,0.0138 -0.75,0.15039 -0.20599,0.17747 -0.33971,0.39258 -0.40039,0.64844 -0.0367,0.28906 0.0137,0.53906 0.15039,0.75 0.17761,0.23906 0.39466,0.37278 0.65039,0.40039 1.66211,0.30417 2.74544,0.25378 3.25,-0.15039 0.24374,-0.0485 0.66041,-0.031 1.25,0.0508 0.36145,0.78932 0.51068,1.4056 0.44922,1.84961 -0.13086,0.76289 -0.1987,1.69701 -0.20118,2.80078 0.022,0.82213 -0.0943,1.88802 -0.3496,3.19922 -0.0676,-0.0232 -0.1509,-0.0561 -0.25,-0.0996 v -0.0508 c -0.77161,-0.38451 -2.20378,-0.21784 -4.29883,0.5 -0.24466,0.0964 -0.42877,0.26302 -0.55078,0.5 -0.12253,0.26107 -0.13997,0.51107 -0.0508,0.75 0.0961,0.27773 0.26276,0.47929 0.5,0.60156 0.2612,0.12227 0.5112,0.13779 0.75,0.0488 1.40716,-0.48307 2.35873,-0.66524 2.85157,-0.54883 0.32005,0.14635 0.603,0.26263 0.84961,0.34961 -0.007,0.91406 -0.09,1.67956 -0.25,2.29883 v 0.0508 c -0.16849,0.98138 -0.21889,2.09766 -0.15039,3.34961 0.078,0.97825 0.17876,1.94531 0.30078,2.90039 -0.28243,0.0665 -0.56536,0.0665 -0.84961,0 -10e-4,-0.009 -0.0188,-0.0261 -0.0508,-0.0508 -0.73281,-0.16486 -1.73281,-0.26368 -3,-0.29883 -0.25365,-0.007 -0.4862,0.0763 -0.69922,0.25 -0.18828,0.20754 -0.28906,0.4401 -0.30078,0.69922 -0.007,0.28698 0.0761,0.52148 0.25,0.70117 0.20755,0.22133 0.44011,0.33763 0.69922,0.34961 1.09961,0.0314 1.96783,0.11473 2.60156,0.25 h -0.0508 c 0.37239,0.1073 0.73867,0.15768 1.09961,0.15039 -0.14531,0.96093 -0.062,1.69349 0.25,2.19922 0.27097,0.52891 0.3543,1.17814 0.25,1.94922 v 0.0508 c -0.0859,0.92279 -0.11889,2.1069 -0.0996,3.55078 -0.25443,0.0495 -0.55482,0.0979 -0.90039,0.14844 -0.0155,0.008 -0.0309,0.008 -0.0488,0 -0.73828,0.14649 -1.67239,0.0632 -2.80078,-0.25 -0.2444,-0.0799 -0.4944,-0.0625 -0.75,0.0508 -0.22448,0.15183 -0.3737,0.35145 -0.44922,0.59961 -0.0803,0.27825 -0.0649,0.52825 0.0488,0.75 0.1513,0.26574 0.35091,0.43242 0.59961,0.5 1.50482,0.42851 2.75482,0.52931 3.75,0.30078 l -0.0488,0.0488 c 0.2181,-0.0329 0.41771,-0.0656 0.59961,-0.0996 0.005,1.08034 0.0228,1.71406 0.0508,1.90039 -6.5e-4,0.19347 -0.16732,0.97644 -0.5,2.34961 v 0.0508 c -0.24974,1.2677 -0.24974,2.43438 0,3.5 -0.68177,0.0223 -1.13333,0.005 -1.35156,-0.0508 -0.53555,-0.68099 -1.45221,-0.61316 -2.75,0.20117 -0.21901,0.14843 -0.36823,0.34804 -0.44922,0.59961 -0.0461,0.28426 0.004,0.53425 0.15039,0.75 0.14831,0.25312 0.34792,0.40235 0.59961,0.44922 0.28333,0.0793 0.53333,0.0464 0.75,-0.0996 0.26224,-0.15731 0.37852,-0.29104 0.34961,-0.40039 0.034,0.008 0.0515,0.008 0.0508,0 0.39857,0.44141 1.7474,0.62552 4.04883,0.55078 h 0.10156 c 2.38685,0 3.73568,0.0504 4.04883,0.15039 l 0.0508,0.0488 c 0.46784,0.32017 1.75078,0.25428 3.84961,-0.19922 0.12474,10e-4 0.24102,-0.0159 0.34961,-0.0508 1.02591,-0.16226 1.85925,-0.1293 2.5,0.0996 1.07865,0.44597 2.16198,0.48085 3.25,0.10156 0.86888,-0.28022 2.10338,-0.53021 3.70117,-0.75 1.51081,-0.20209 2.72591,-0.0858 3.64844,0.34961 1.30873,0.64661 2.82617,0.74545 4.55078,0.29883 1.24518,-0.29556 2.31107,-0.29556 3.19922,0 1.23893,0.45637 2.6556,0.57462 4.25,0.35156 1.46575,-0.16641 2.81653,-0.30014 4.05078,-0.40039 1.2737,-0.096 2.74076,-0.096 4.40039,0 h 0.0996 c 2.83619,0.10715 4.5203,0.0393 5.05078,-0.20117 0.4306,-0.0875 1.34727,-0.0196 2.75,0.20117 h 0.0488 c 0.0573,0.008 0.10764,0.008 0.15039,0 h 0.0508 c 1.31575,0.23006 2.14909,0.21263 2.5,-0.0508 0.28335,-0.0427 1.59879,0.0555 2.39844,0.0508 1.51346,-0.0121 2.65655,0.11669 4.55078,-0.1504 z m -4.45118,-1.8496 c -1.15083,-3.6e-4 -3.14062,-0.0682 -3.44921,0.15039 -0.0433,0.0223 -0.0937,0.0377 -0.15039,0.0488 -0.0659,0.009 -0.24801,-0.006 -0.54883,-0.0488 l -2.05071,-0.35166 c -1.24375,-0.11497 -2.07709,-0.0801 -2.5,0.10156 -0.007,0.008 -0.0246,0.008 -0.0508,0 -0.3617,0.13685 -1.47799,0.16981 -3.3496,0.0996 l -1.99998,-0.0508 c -1.32305,-0.0488 -2.52266,-0.0313 -3.59961,0.0508 -1.26589,0.0996 -2.64961,0.23332 -4.15039,0.40039 -1.24518,0.1745 -2.34401,0.0911 -3.29883,-0.25 h -0.0508 c -1.21172,-0.43802 -2.66133,-0.45545 -4.34961,-0.0508 -1.20873,0.32005 -2.27657,0.26966 -3.20118,-0.15039 h 0.0508 c -1.21068,-0.63138 -2.81147,-0.81354 -4.80079,-0.54883 -1.76901,0.24676 -3.13528,0.52969 -4.0996,0.84961 -0.61211,0.22068 -1.22838,0.20326 -1.84961,-0.0508 -0.78333,-0.31835 -1.78333,-0.41721 -3,-0.29883 -0.17604,-0.65768 -0.19349,-1.45807 -0.0508,-2.40039 v -0.0508 c 0.33959,-1.64049 0.37449,-3.19088 0.10157,-4.65039 -0.19024,-1.21901 -0.17472,-2.58529 0.0488,-4.09961 h -0.0488 c 0.2832,-1.62435 0.51575,-3.00807 0.69922,-4.15039 0.28958,-1.2431 0.20624,-2.55899 -0.25,-3.94922 -0.37475,-1.08203 -0.62474,-2.28164 -0.75,-3.59961 -0.0954,-1.29479 -0.0625,-2.44596 0.0996,-3.45117 v 0.0508 c 0.2635,-1.05963 0.43008,-2.49375 0.5,-4.30078 0.10143,-1.76263 0.13633,-3.29558 0.10156,-4.59961 -0.0377,-1.29935 -0.1889,-2.63268 -0.45117,-4 -0.1862,-1.125 -0.10287,-2.25872 0.25,-3.40039 0.42383,-1.32761 0.70677,-2.61055 0.84961,-3.84961 0.14557,-1.21367 0.0468,-2.57995 -0.29883,-4.09961 v -0.0508 c -0.25508,-1.21979 -0.37136,-2.1849 -0.34961,-2.89844 0.062,-0.71029 0.0445,-2.24518 -0.0508,-4.60156 l -0.40039,-5.89844 c -0.17604,-0.65768 -0.19349,-1.45807 -0.0508,-2.40039 v -0.0508 c 0.3396,-1.64049 0.37449,-3.19088 0.10157,-4.65039 -0.19023,-1.21901 -0.17471,-2.58529 0.0488,-4.09961 h -0.0488 c 0.2832,-1.62435 0.51575,-3.00807 0.69922,-4.15039 0.28958,-1.2431 0.20625,-2.55899 -0.25,-3.94922 -0.37474,-1.08203 -0.62474,-2.28164 -0.75,-3.59961 -0.0954,-1.29479 -0.0625,-2.44596 0.0996,-3.45117 v 0.0508 c 0.2635,-1.05963 0.43008,-2.49375 0.5,-4.30078 0.10143,-1.76263 0.13437,-3.29558 0.0996,-4.59961 -0.0377,-1.29935 -0.18694,-2.63268 -0.44921,-4 -0.1862,-1.125 -0.10287,-2.25872 0.25,-3.40039 0.42383,-1.32761 0.70677,-2.61055 0.84961,-3.84961 0.14557,-1.21367 0.0468,-2.57995 -0.29883,-4.09961 v -0.0508 c -0.25508,-1.21979 -0.37332,-2.1849 -0.35157,-2.89844 0.062,-0.71029 0.0465,-2.24518 -0.0488,-4.60156 0.49967,-0.1058 0.95299,-0.16159 1.36132,-0.16992 0.40834,-0.008 0.7709,0.032 1.0879,0.12109 1.03607,0.32903 2.38685,0.5112 4.05078,0.54883 1.65247,0.0686 3.13503,0.0532 4.44922,-0.0488 1.25768,-0.0595 2.6414,0.006 4.15039,0.19922 1.72227,0.2082 3.33854,0.15781 4.84961,-0.15039 1.32083,-0.18919 2.45456,-0.22215 3.40039,-0.0996 1.16641,0.17865 2.31562,0.19607 3.44921,0.0508 1.03711,-0.12161 2.10495,-0.10609 3.20118,0.0488 l -0.0508,-0.0488 c 0.82018,0.15339 1.53724,0.18634 2.15039,0.0996 l 2.00005,-0.6504 c 0.51405,-0.1168 0.81444,-0.20013 0.90039,-0.25 0.0174,0.025 0.0348,0.0425 0.0508,0.0508 0.30092,0.47461 1.98307,0.65677 5.04883,0.54883 l 1.99994,0.15054 c 0.96094,0.16406 1.64505,0.2319 2.05078,0.20117 0.6043,-0.0357 1.42058,-0.37555 2.14843,-0.45117 1.31003,-0.1361 2.6469,0.18253 3.95125,-1.8e-4 0.60081,-0.0842 1.62279,-0.43411 1.75,-0.5 0.0173,0.025 0.0328,0.0425 0.0488,0.0508 0.29844,0.41589 0.94962,0.6155 1.95118,0.59961 l 1.99995,0.0998 c 1.00847,0.16563 1.72552,0.23346 2.15039,0.20117 0.46497,-0.0285 1.74792,-0.12931 3.84961,-0.30078 l 1.99999,-0.30093 c 0.49967,-0.1058 0.95299,-0.16159 1.36132,-0.16992 0.40834,-0.008 0.77089,0.032 1.08789,0.12109 1.03607,0.32903 2.38686,0.5112 4.05079,0.54883 1.65247,0.0686 3.13502,0.0532 4.44921,-0.0488 1.25768,-0.0595 2.64141,0.006 4.1504,0.19922 1.72227,0.2082 3.33853,0.15781 4.8496,-0.15039 1.32083,-0.18919 2.45457,-0.22215 3.4004,-0.0996 1.16641,0.17865 2.31562,0.19607 3.44921,0.0508 1.03711,-0.12161 2.10495,-0.10609 3.20118,0.0488 l -0.0508,-0.0488 c 0.82018,0.15339 1.53725,0.18634 2.1504,0.0996 -0.009,0.61719 -0.12503,1.34974 -0.34961,2.19922 -0.37825,1.79466 -0.44608,3.42838 -0.20118,4.90039 0.26627,1.34544 0.38452,2.59544 0.35157,3.75 -0.0329,1.34375 0.0836,2.81081 0.34961,4.40039 0.27318,1.52031 0.45534,2.80326 0.54882,3.84961 0.091,1.01367 -0.008,2.19779 -0.29882,3.55078 -0.25013,1.49844 -0.51759,2.83177 -0.80079,4 v 0.0488 c -0.26419,1.35625 -0.0975,2.8737 0.5,4.55078 0.42474,1.24649 0.49257,2.22904 0.20118,2.94922 -0.42604,1.07943 -0.50936,2.53099 -0.25,4.35156 0.25587,1.52005 0.28882,2.86888 0.0996,4.04883 -0.15924,1.25859 -0.3763,2.52604 -0.65039,3.80078 -0.27644,1.42018 -0.27644,2.88724 0,4.40039 0.25561,1.29127 0.37186,2.1401 0.3496,2.54883 -0.031,0.43477 -0.031,1.85143 0,4.25 l 0.1504,6.40039 c -0.009,0.61719 -0.12503,1.34974 -0.34961,2.19922 -0.37825,1.79466 -0.44609,3.42838 -0.20118,4.90039 0.26627,1.34544 0.38453,2.59544 0.35157,3.75 -0.0329,1.34375 0.0836,2.81081 0.34961,4.40039 0.27318,1.52031 0.45533,2.80326 0.54882,3.84961 0.091,1.01367 -0.008,2.19779 -0.29882,3.55078 -0.25013,1.49844 -0.51759,2.83177 -0.80079,4 v 0.0488 c -0.26419,1.35625 -0.0975,2.8737 0.5,4.55078 0.42474,1.24649 0.49258,2.22904 0.20118,2.94922 -0.42604,1.07942 -0.50935,2.531 -0.25,4.35156 0.25588,1.52005 0.28882,2.86888 0.0996,4.04883 -0.15923,1.25859 -0.3763,2.52604 -0.65039,3.80078 -0.27644,1.42018 -0.27644,2.88725 0,4.40039 0.25561,1.29128 0.37186,2.1401 0.3496,2.54883 -0.031,0.43477 -0.031,1.85142 0,4.25 -1.32305,-0.0488 -2.52265,-0.0313 -3.5996,0.0508 -1.26589,0.0996 -2.64962,0.23332 -4.1504,0.40039 -1.24518,0.1745 -2.344,0.0911 -3.29882,-0.25 h -0.0508 c -1.21172,-0.43802 -2.66133,-0.45545 -4.34961,-0.0508 -1.20873,0.32005 -2.27657,0.26966 -3.20118,-0.15039 h 0.0508 c -1.21068,-0.63138 -2.81147,-0.81354 -4.80079,-0.54883 -1.76901,0.24676 -3.13529,0.52969 -4.09961,0.84961 -0.61211,0.22068 -1.22837,0.20326 -1.8496,-0.0508 -0.78333,-0.31835 -1.78333,-0.41721 -3,-0.29883 l -1.99995,0.34979 c -0.80925,0.15091 -1.3267,0.2013 -1.55079,0.15039 -0.35143,-0.24348 -1.81653,-0.37721 -4.39843,-0.40039 l -2.09963,-5e-5 c -0.68177,0.0223 -1.13333,0.005 -1.35156,-0.0508 -0.53555,-0.68099 -1.83098,0.18792 -2.75,0.20117 -1.13446,0.0163 -2.26583,-0.15002 -3.4004,-0.15037 z M 632.0002,621.10007 c 0.088,2.12956 0.10353,3.51328 0.0488,4.15039 v 0.0488 c -0.0414,0.83008 0.0923,1.98125 0.4004,3.45117 0.28763,1.28034 0.37096,2.42956 0.25,3.44922 -0.12397,1.12735 -0.37397,2.29401 -0.75,3.5 -0.44727,1.4582 -0.5461,2.90781 -0.29883,4.34961 0.23763,1.26601 0.3694,2.50052 0.39843,3.70117 0.0319,1.26263 -6.1e-4,2.74519 -0.0996,4.44922 -0.0634,1.65937 -0.21262,2.97721 -0.44922,3.95117 v 0.0488 c -0.20351,1.15495 -0.2539,2.47278 -0.15039,3.95117 v 0.0488 c 0.14141,1.48203 0.42435,2.83281 0.84961,4.05078 0.34089,1.03425 0.40872,2.0168 0.20117,2.94922 -0.18333,1.15755 -0.41784,2.55872 -0.70117,4.20117 -0.2431,1.75221 -0.2431,3.33555 0,4.75 0.22578,1.23347 0.19282,2.54935 -0.0996,3.94922 -0.19531,1.21589 -0.19531,2.26628 0,3.15039 l 0.40039,5.84961 c 0.088,2.12956 0.10353,3.51328 0.0488,4.15039 v 0.0488 c -0.0414,0.83008 0.0923,1.98125 0.4004,3.45117 0.28763,1.28034 0.37097,2.42956 0.25,3.44922 -0.12396,1.12735 -0.37396,2.29401 -0.75,3.5 -0.44727,1.4582 -0.5461,2.90781 -0.29883,4.34961 0.23764,1.26601 0.3694,2.50052 0.39843,3.70117 0.0319,1.26263 -6e-4,2.74519 -0.0996,4.44922 -0.0634,1.65937 -0.21262,2.97721 -0.44922,3.95117 v 0.0488 c -0.20351,1.15495 -0.25389,2.47278 -0.15039,3.95117 v 0.0488 c 0.14142,1.48204 0.42435,2.83281 0.84961,4.05078 0.34089,1.03425 0.40871,2.01681 0.20117,2.94922 -0.18333,1.15756 -0.41784,2.55873 -0.70117,4.20117 -0.2431,1.75222 -0.2431,3.33555 0,4.75 0.22578,1.23348 0.19283,2.54935 -0.0996,3.94922 -0.19531,1.2159 -0.19531,2.26627 0,3.15039 -0.80925,0.15091 -1.3267,0.2013 -1.55079,0.15039 -0.35143,-0.24348 -1.81653,-0.37721 -4.39843,-0.40039 -0.31367,-0.92761 -0.36405,-1.96055 -0.15039,-3.09961 0.43385,-1.79518 0.61601,-2.83007 0.54882,-3.10156 -0.0299,-0.21812 -0.0454,-1.15026 -0.0488,-2.79883 v -0.0996 c -0.0297,-1.71341 0.004,-3.08164 0.0996,-4.10156 0.15925,-1.26758 -0.007,-2.31602 -0.5,-3.14844 -0.14753,-0.44649 -0.0313,-1.21393 0.34961,-2.30078 v -0.0508 c 0.0547,-0.12359 0.0721,-0.27278 0.0508,-0.44922 l -0.0508,-0.0996 c -0.13541,-1.1293 -0.25169,-2.28047 -0.34961,-3.45117 -0.0635,-1.0543 -0.0306,-2.00391 0.0996,-2.84961 v 0.0508 c 0.22943,-0.88828 0.33021,-2.022 0.30078,-3.40039 0.40182,-1.96758 0.58397,-3.50052 0.54882,-4.59961 v -0.0508 c -10e-4,-0.93529 0.0491,-1.73568 0.1504,-2.40039 0.22149,-0.80221 -0.0111,-1.90104 -0.69922,-3.29883 -0.0229,-1.09948 -0.1896,-2.43281 -0.5,-4 -0.19557,-1.26627 -0.22853,-2.11705 -0.0996,-2.55078 0.28867,-0.58997 0.48828,-1.62292 0.59961,-3.09961 v -0.0996 c 0.0672,-1.34153 0.0826,-2.69231 0.0488,-4.05078 -0.0332,-1.27149 -0.0487,-2.17071 -0.0488,-2.69922 v -2.05078 l -0.34961,-6.19922 c -0.31367,-0.92761 -0.36406,-1.96055 -0.15039,-3.09961 0.43385,-1.79518 0.61602,-2.83007 0.54882,-3.10156 -0.0299,-0.21812 -0.0454,-1.15026 -0.0488,-2.79883 v -0.0996 c -0.0297,-1.71341 0.004,-3.08164 0.0996,-4.10156 0.15925,-1.26758 -0.007,-2.31602 -0.5,-3.14844 -0.14753,-0.44649 -0.0313,-1.21393 0.34961,-2.30078 v -0.0508 c 0.0547,-0.12359 0.0721,-0.27278 0.0508,-0.44922 l -0.0508,-0.0996 c -0.13541,-1.1293 -0.25169,-2.28047 -0.34961,-3.45117 -0.0635,-1.0543 -0.0306,-2.00391 0.0996,-2.84961 v 0.0508 c 0.22943,-0.88828 0.33021,-2.022 0.30078,-3.40039 0.40182,-1.96758 0.58397,-3.50052 0.54882,-4.59961 v -0.0508 c -10e-4,-0.93529 0.0491,-1.73568 0.1504,-2.40039 0.22149,-0.80221 -0.0111,-1.90104 -0.69922,-3.29883 -0.0229,-1.09948 -0.1896,-2.43281 -0.5,-4 -0.19557,-1.26627 -0.22853,-2.11705 -0.0996,-2.55078 0.28867,-0.58997 0.48828,-1.62292 0.59961,-3.09961 v -0.0996 c 0.0672,-1.34153 0.0826,-2.69231 0.0488,-4.05078 -0.0332,-1.27149 -0.0487,-2.17071 -0.0488,-2.69922 v -2.05078 c 1.00847,0.16563 1.72552,0.23346 2.15039,0.20117 0.46497,-0.0285 1.74792,-0.12931 3.84961,-0.30078 z"
       sodipodi:nodetypes="ccccccccccccccccccccccccccccccccccccccccccccccccccccccccccccccccccccccccccccccccccccccccccccccccccccccccccccsccccccccccccccccccccccccccccccccccccccccccccccccccccccccccccccccccccccccccccccccccccccccccccccccccccccccccccccccccccccccccccccccccccccccccccccccccccccccccccccccccccccccccccccccccccccccccccccccccccccccccccccccccccccccccccccccccccccccccccccccccccccccccccccccccccccccccccccccccccccccccccccccccccccccccccccccccccccccccccccccccccccccccccccccccccccccccccccccccccccccccccccccccccccccccccccccccccccccccccccsccccccccccccccccccccccccccccccccccccccccccccccccccccccccccccccccccccccccccccccccccccccccccccccccccccccccccccccccccccccccccccccccccccccccccccccccccccccccccccccccccccccccccccccccccccccccccccccccccccccccccccccccccccccccccccccccccccccccccccccccccccccccccccccccccccccc" />
  </g>
</svg>
