<?xml version="1.0" encoding="UTF-8" standalone="no"?>
<!-- Created with Inkscape (http://www.inkscape.org/) -->

<svg
   width="64"
   height="64"
   viewBox="0 0 16.933333 16.933333"
   version="1.1"
   id="svg1"
   sodipodi:docname="carpet.svg"
   inkscape:version="1.4 (86a8ad7, 2024-10-11)"
   xmlns:inkscape="http://www.inkscape.org/namespaces/inkscape"
   xmlns:sodipodi="http://sodipodi.sourceforge.net/DTD/sodipodi-0.dtd"
   xmlns="http://www.w3.org/2000/svg"
   xmlns:svg="http://www.w3.org/2000/svg">
  <sodipodi:namedview
     id="namedview1"
     pagecolor="#ffffff"
     bordercolor="#000000"
     borderopacity="0.25"
     inkscape:showpageshadow="2"
     inkscape:pageopacity="0.0"
     inkscape:pagecheckerboard="true"
     inkscape:deskcolor="#d1d1d1"
     inkscape:document-units="px"
     showgrid="true"
     inkscape:zoom="4.4335938"
     inkscape:cx="17.14185"
     inkscape:cy="30.787665"
     inkscape:window-width="1920"
     inkscape:window-height="1009"
     inkscape:window-x="1912"
     inkscape:window-y="-8"
     inkscape:window-maximized="1"
     inkscape:current-layer="svg1">
    <inkscape:grid
       id="grid1"
       units="px"
       originx="0"
       originy="0"
       spacingx="8.4666662"
       spacingy="8.4666662"
       empcolor="#0099e5"
       empopacity="0.30196078"
       color="#0099e5"
       opacity="0.14901961"
       empspacing="5"
       enabled="true"
       visible="true" />
  </sodipodi:namedview>
  <defs
     id="defs1" />
  <path
     fill="#ffffff"
     stroke="none"
     d="m 625,630 v 10 10 10 10 10 h 8 v -60 h -8 v 10 m 42,50 v -60 h -34 v 60 h 34 m 8,-40 v -10 -10 h -8 v 60 h 8 v -10 -10 -10 -10"
     id="path819"
     sodipodi:nodetypes="ccccccccccccccccccccccccc"
     style="display:inline"
     transform="matrix(0.26458333,0,0,0.26458333,-163.51035,-163.52656)"
     inkscape:label="Background" />
  <path
     fill="#d1d7db"
     stroke="none"
     d="m 666.7,619 c -0.059,0.0415 -0.12567,0.0749 -0.2,0.1 -0.0181,0.0229 -0.0348,0.0396 -0.05,0.05 -0.53541,0.25847 -1.25208,0.30847 -2.15,0.15 v 0 c -1.29544,-0.17839 -2.54544,-0.19505 -3.75,-0.05 -0.95833,0.12018 -1.925,0.10351 -2.9,-0.05 h -0.05 c -1.09284,-0.14167 -2.40951,-0.0917 -3.95,0.15 h -0.05 c -1.32239,0.25847 -2.73906,0.2918 -4.25,0.1 -1.64779,-0.20599 -3.14779,-0.27265 -4.5,-0.2 h -0.05 c -1.2457,0.0974 -2.6457,0.11406 -4.2,0.05 h -0.05 c -1.4362,-0.0291 -2.60287,-0.17913 -3.5,-0.45 -1.06888,-0.37526 -2.50221,-0.32526 -4.3,0.15 h -0.05 c -2.58411,0.23373 -4.13411,0.36706 -4.65,0.4 -0.47279,0.022 -1.37279,-0.0947 -2.7,-0.35 -0.14935,-0.0556 -0.31601,-0.0723 -0.5,-0.05 -0.69115,0.10261 -1.14115,0.13594 -1.35,0.1 -0.39323,-0.6362 -1.65989,-0.66953 -3.8,-0.1 -0.24727,0.0917 -0.44727,0.25833 -0.6,0.5 -0.12187,0.24597 -0.15521,0.49597 -0.1,0.75 0.0915,0.28086 0.2582,0.48086 0.5,0.6 0.24557,0.15508 0.49557,0.18841 0.75,0.1 1.03945,-0.26745 1.62279,-0.43411 1.75,-0.5 0.0173,0.025 0.034,0.0417 0.05,0.05 0.29844,0.41589 0.94844,0.61589 1.95,0.6 v 2.15 c -1.3e-4,0.53802 0.0165,1.45469 0.05,2.75 0.0242,1.00065 0.0242,1.98399 0,2.95 -0.21263,0.0107 -0.44597,0.0107 -0.7,0 h -0.05 c -0.80612,-2.6e-4 -1.92279,0.0164 -3.35,0.05 -0.25885,0.003 -0.49219,0.10333 -0.7,0.3 -0.1737,0.2043 -0.25703,0.43763 -0.25,0.7 0.003,0.29206 0.10333,0.52539 0.3,0.7 0.2043,0.20677 0.43763,0.30677 0.7,0.3 1.38437,-0.0327 2.46771,-0.0493 3.25,-0.05 h 0.05 c 0.21511,0.009 0.41511,0.009 0.6,0 -0.0872,0.64935 -0.20391,1.13268 -0.35,1.45 -0.30456,0.63177 -0.30456,1.86511 0,3.7 0.20156,1.01406 0.33489,1.91406 0.4,2.7 -0.90403,-0.0876 -1.53737,-0.004 -1.9,0.25 -0.0333,0.0407 -0.0667,0.0741 -0.1,0.1 -0.25039,0.0803 -0.85039,0.0303 -1.8,-0.15 -0.25599,-0.0366 -0.50599,0.0134 -0.75,0.15 -0.20599,0.17747 -0.33932,0.39414 -0.4,0.65 -0.0367,0.28906 0.0133,0.53906 0.15,0.75 0.17761,0.23906 0.39427,0.37239 0.65,0.4 1.66211,0.30417 2.74544,0.25417 3.25,-0.15 0.24375,-0.0485 0.66041,-0.0318 1.25,0.05 0.36146,0.78932 0.51146,1.40599 0.45,1.85 -0.13086,0.76289 -0.19753,1.69623 -0.2,2.8 v 0 c 0.022,0.82213 -0.0947,1.8888 -0.35,3.2 -0.0676,-0.0232 -0.15091,-0.0565 -0.25,-0.1 v -0.05 c -0.77161,-0.38451 -2.20495,-0.21784 -4.3,0.5 -0.24466,0.0964 -0.42799,0.26302 -0.55,0.5 -0.12253,0.26107 -0.13919,0.51107 -0.05,0.75 0.0961,0.27773 0.26276,0.47773 0.5,0.6 0.2612,0.12227 0.5112,0.13893 0.75,0.05 1.40716,-0.48307 2.35716,-0.66641 2.85,-0.55 v 0 c 0.32005,0.14635 0.60339,0.26302 0.85,0.35 -0.007,0.91406 -0.09,1.68073 -0.25,2.3 v 0.05 c -0.16849,0.98138 -0.21849,2.09805 -0.15,3.35 v 0 c 0.078,0.97825 0.17799,1.94492 0.3,2.9 -0.28242,0.0665 -0.56575,0.0665 -0.85,0 -10e-4,-0.009 -0.018,-0.0253 -0.05,-0.05 -0.73281,-0.16485 -1.73281,-0.26485 -3,-0.3 -0.25365,-0.007 -0.48698,0.0763 -0.7,0.25 -0.18828,0.20755 -0.28828,0.44089 -0.3,0.7 -0.007,0.28698 0.0761,0.52031 0.25,0.7 0.20755,0.22135 0.44089,0.33802 0.7,0.35 1.09961,0.0314 1.96627,0.11473 2.6,0.25 h -0.05 c 0.37239,0.10729 0.73906,0.15729 1.1,0.15 -0.14531,0.96094 -0.062,1.69427 0.25,2.2 0.27097,0.52891 0.3543,1.17891 0.25,1.95 v 0.05 c -0.0859,0.92279 -0.11927,2.10612 -0.1,3.55 -0.25443,0.0495 -0.55443,0.0995 -0.9,0.15 -0.0155,0.008 -0.0321,0.008 -0.05,0 -0.73828,0.14649 -1.67161,0.0632 -2.8,-0.25 -0.2444,-0.0799 -0.4944,-0.0633 -0.75,0.05 -0.22448,0.15182 -0.37448,0.35182 -0.45,0.6 -0.0803,0.27825 -0.0637,0.52825 0.05,0.75 0.1513,0.26575 0.3513,0.43242 0.6,0.5 1.50482,0.42851 2.75482,0.52851 3.75,0.3 l -0.05,0.05 c 0.2181,-0.0327 0.4181,-0.066 0.6,-0.1 0.005,1.08034 0.022,1.71367 0.05,1.9 -6.5e-4,0.19349 -0.16732,0.97682 -0.5,2.35 v 0.05 c -0.24974,1.26771 -0.24974,2.43437 0,3.5 -0.68177,0.0223 -1.13177,0.006 -1.35,-0.05 -0.53555,-0.68099 -1.45221,-0.61432 -2.75,0.2 -0.21901,0.14844 -0.36901,0.34844 -0.45,0.6 -0.0461,0.28425 0.004,0.53425 0.15,0.75 0.14831,0.25313 0.34831,0.40313 0.6,0.45 0.28333,0.0793 0.53333,0.046 0.75,-0.1 0.26224,-0.15729 0.37891,-0.29063 0.35,-0.4 0.034,0.008 0.0507,0.008 0.05,0 0.39857,0.44141 1.74857,0.62474 4.05,0.55 h 0.1 c 2.38685,0 3.73685,0.05 4.05,0.15 l 0.05,0.05 c 0.46784,0.32018 1.75117,0.25351 3.85,-0.2 0.12474,10e-4 0.24141,-0.0153 0.35,-0.05 1.02591,-0.16224 1.85925,-0.12891 2.5,0.1 1.07865,0.44597 2.16198,0.4793 3.25,0.1 0.86888,-0.28021 2.10221,-0.53021 3.7,-0.75 1.51081,-0.20209 2.72747,-0.0854 3.65,0.35 v 0 c 1.30873,0.64661 2.82539,0.74661 4.55,0.3 1.24518,-0.29557 2.31185,-0.29557 3.2,0 v 0 c 1.23893,0.45638 2.6556,0.57305 4.25,0.35 1.46575,-0.16641 2.81575,-0.29974 4.05,-0.4 1.2737,-0.096 2.74037,-0.096 4.4,0 h 0.1 c 2.8362,0.10716 4.51953,0.0405 5.05,-0.2 0.4306,-0.0875 1.34727,-0.0208 2.75,0.2 h 0.05 c 0.0573,0.008 0.10727,0.008 0.15,0 h 0.05 c 1.31575,0.23008 2.14909,0.21341 2.5,-0.05 0.28333,-0.0427 1.08333,-0.0261 2.4,0.05 0.27552,0.0165 0.50885,-0.0668 0.7,-0.25 0.22018,-0.18789 0.33685,-0.42123 0.35,-0.7 0.0168,-0.27552 -0.0665,-0.52552 -0.25,-0.75 -0.18789,-0.18659 -0.42123,-0.28659 -0.7,-0.3 -1.99141,-0.11862 -3.14141,-0.0686 -3.45,0.15 -0.0433,0.0223 -0.0933,0.0389 -0.15,0.05 -0.0659,0.009 -0.2492,-0.007 -0.55,-0.05 -0.0889,-0.92396 -0.12227,-1.77396 -0.1,-2.55 0.0341,-0.96563 0.0341,-1.99896 0,-3.1 -0.022,-0.7487 0.0113,-1.5987 0.1,-2.55 0.92344,-0.0481 1.69011,-0.21473 2.3,-0.5 h -0.05 c 0.39284,-0.094 0.80951,0.0226 1.25,0.35 0.22604,0.16953 0.47604,0.2362 0.75,0.2 0.27057,-0.0427 0.48724,-0.17607 0.65,-0.4 0.16953,-0.22526 0.2362,-0.47526 0.2,-0.75 -0.0435,-0.27044 -0.1768,-0.48711 -0.4,-0.65 -1.09362,-0.80664 -2.14362,-1.00664 -3.15,-0.6 h -0.05 c -0.36927,0.16914 -0.81927,0.28581 -1.35,0.35 0.0447,-0.89167 0.028,-1.625 -0.05,-2.2 v 0 c -0.0962,-0.66276 -0.14623,-1.69609 -0.15,-3.1 0.0259,-1.09687 0.0593,-2.06354 0.1,-2.9 0.72695,-0.14974 1.29362,-0.19974 1.7,-0.15 0.69011,0.15885 1.42344,0.29219 2.2,0.4 0.28542,0.0354 0.53542,-0.0313 0.75,-0.2 0.225,-0.17305 0.35833,-0.40638 0.4,-0.7 0.0355,-0.25195 -0.0311,-0.48529 -0.2,-0.7 -0.17331,-0.22487 -0.40664,-0.3582 -0.7,-0.4 -0.72344,-0.0922 -1.40677,-0.20885 -2.05,-0.35 -0.50377,-0.10638 -1.18711,-0.0897 -2.05,0.05 0.0426,-0.61185 0.0926,-1.11185 0.15,-1.5 0.17995,-0.69727 0.17995,-1.81393 0,-3.35 -0.0978,-1.01459 -0.14779,-1.98125 -0.15,-2.9 0.81901,-0.0455 1.50235,-0.0455 2.05,0 0.91888,0.0726 1.58555,0.0893 2,0.05 0.29831,-0.0231 0.53164,-0.13973 0.7,-0.35 0.19258,-0.21029 0.27591,-0.46029 0.25,-0.75 -0.0228,-0.26459 -0.13947,-0.49792 -0.35,-0.7 -0.21081,-0.15899 -0.46081,-0.22565 -0.75,-0.2 -0.35247,0.0273 -0.91914,0.0107 -1.7,-0.05 -0.60951,-0.0539 -1.37617,-0.0706 -2.3,-0.05 -0.10651,-0.94167 -0.25651,-1.74167 -0.45,-2.4 -0.17292,-0.64362 -0.15625,-1.42695 0.05,-2.35 v 0.05 c 0.26263,-0.8582 0.41263,-1.89153 0.45,-3.1 1.01523,0.10235 1.71523,0.002 2.1,-0.3 0.28463,-0.0685 0.86797,-0.0185 1.75,0.15 0.26862,0.0792 0.51862,0.0458 0.75,-0.1 0.22865,-0.15729 0.36198,-0.37396 0.4,-0.65 0.0793,-0.26836 0.046,-0.51836 -0.1,-0.75 -0.15755,-0.22851 -0.37422,-0.37851 -0.65,-0.45 -1.58828,-0.33242 -2.63828,-0.31575 -3.15,0.05 -0.0333,0.0407 -0.0667,0.0741 -0.1,0.1 -0.16589,0.0533 -0.48255,0.0533 -0.95,0 -0.0206,-1.58685 -0.20393,-2.60351 -0.55,-3.05 -0.0483,-0.28919 0.085,-0.88919 0.4,-1.8 l -0.05,0.05 c 0.43997,-1.09063 0.58997,-2.20729 0.45,-3.35 0.81485,0.0189 1.36485,0.0189 1.65,0 h 2.1 c 0.27383,-0.003 0.50716,-0.10267 0.7,-0.3 0.19765,-0.19284 0.29765,-0.42617 0.3,-0.7 -0.003,-0.27383 -0.10267,-0.50716 -0.3,-0.7 -0.19284,-0.19765 -0.42617,-0.29765 -0.7,-0.3 h -2.1 c -0.066,0.002 -0.13267,0.002 -0.2,0 -0.11302,0.0288 -0.64635,0.0288 -1.6,0 0.0699,-0.83373 0.0366,-1.50039 -0.1,-2 v 0.05 c -0.0598,-0.52422 -0.0265,-1.37422 0.1,-2.55 0.10443,-1.00052 0.10443,-2.10052 0,-3.3 0.96094,0.16406 1.64427,0.23073 2.05,0.2 0.6043,-0.0357 1.32097,-0.18567 2.15,-0.45 0.25899,-0.0862 0.44232,-0.25287 0.55,-0.5 0.14727,-0.24167 0.1806,-0.49167 0.1,-0.75 -0.0859,-0.25911 -0.25261,-0.45911 -0.5,-0.6 -0.24167,-0.1138 -0.49167,-0.13047 -0.75,-0.05 -0.63789,0.20221 -1.18789,0.31888 -1.65,0.35 -0.47018,0.0219 -1.37018,-0.0948 -2.7,-0.35 -0.007,0.005 -0.0237,0.005 -0.05,0 -0.0785,-0.0317 -0.16185,-0.0483 -0.25,-0.05 -0.0339,-0.003 -0.0672,-0.003 -0.1,0 -0.0253,-0.003 -0.0586,-0.003 -0.1,0 -2.55755,0.13828 -4.00755,0.17161 -4.35,0.1 -0.38203,-0.62265 -1.5987,-0.65599 -3.65,-0.1 h -0.05 -0.1 m -2.7,2.3 -0.05,-0.05 c 0.82018,0.15339 1.53685,0.18672 2.15,0.1 -0.009,0.61719 -0.1254,1.35052 -0.35,2.2 v 0 c -0.37825,1.79466 -0.44492,3.42799 -0.2,4.9 0.26627,1.34544 0.38294,2.59544 0.35,3.75 -0.0327,1.34375 0.084,2.81042 0.35,4.4 0.27318,1.52031 0.45651,2.80365 0.55,3.85 0.091,1.01367 -0.009,2.19701 -0.3,3.55 v 0 c -0.25013,1.49844 -0.5168,2.83177 -0.8,4 v 0.05 c -0.26419,1.35625 -0.0975,2.87292 0.5,4.55 0.42474,1.24649 0.49141,2.22982 0.2,2.95 v 0 c -0.42604,1.07943 -0.50937,2.52943 -0.25,4.35 v 0 c 0.25586,1.52005 0.28919,2.87005 0.1,4.05 v 0 c -0.15925,1.25859 -0.37591,2.52526 -0.65,3.8 -0.27643,1.42018 -0.27643,2.88685 0,4.4 0.2556,1.29127 0.37227,2.14127 0.35,2.55 -0.031,0.43477 -0.031,1.85143 0,4.25 -1.32305,-0.0488 -2.52305,-0.0321 -3.6,0.05 -1.26589,0.0996 -2.64922,0.23294 -4.15,0.4 v 0 c -1.24518,0.17448 -2.34518,0.0911 -3.3,-0.25 h -0.05 c -1.21172,-0.43802 -2.66172,-0.45469 -4.35,-0.05 -1.20873,0.32005 -2.27539,0.27005 -3.2,-0.15 h 0.05 c -1.21068,-0.63138 -2.81068,-0.81471 -4.8,-0.55 -1.76901,0.24675 -3.13568,0.53008 -4.1,0.85 -0.61211,0.2207 -1.22877,0.20403 -1.85,-0.05 -0.78333,-0.31836 -1.78333,-0.41836 -3,-0.3 -0.17604,-0.65768 -0.19271,-1.45768 -0.05,-2.4 v -0.05 c 0.33959,-1.64049 0.37292,-3.19049 0.1,-4.65 -0.19023,-1.21901 -0.17357,-2.58568 0.05,-4.1 h -0.05 c 0.2832,-1.62435 0.51653,-3.00768 0.7,-4.15 0.28958,-1.2431 0.20625,-2.55977 -0.25,-3.95 -0.37474,-1.08203 -0.62474,-2.28203 -0.75,-3.6 -0.0954,-1.29479 -0.0621,-2.44479 0.1,-3.45 v 0.05 c 0.26341,-1.05963 0.43008,-2.49297 0.5,-4.3 0.10143,-1.76263 0.13477,-3.29597 0.1,-4.6 -0.0377,-1.29935 -0.18773,-2.63268 -0.45,-4 -0.1862,-1.125 -0.10287,-2.25833 0.25,-3.4 0.42383,-1.32761 0.70716,-2.61094 0.85,-3.85 0.14557,-1.21367 0.0456,-2.58034 -0.3,-4.1 v -0.05 c -0.25508,-1.21979 -0.37175,-2.18646 -0.35,-2.9 v 0 c 0.062,-0.71029 0.0453,-2.24362 -0.05,-4.6 0.99935,-0.21159 1.81601,-0.22825 2.45,-0.05 1.03607,0.32903 2.38607,0.51237 4.05,0.55 1.65247,0.0686 3.13581,0.052 4.45,-0.05 1.25768,-0.0595 2.64101,0.007 4.15,0.2 1.72227,0.2082 3.33893,0.1582 4.85,-0.15 1.32083,-0.18919 2.45417,-0.22253 3.4,-0.1 v 0 c 1.16641,0.17865 2.31641,0.19531 3.45,0.05 1.03711,-0.12161 2.10377,-0.10495 3.2,0.05 m 3.7,2.75 c 0.33867,-1.31406 0.47201,-2.43073 0.4,-3.35 0.51406,-0.1168 0.81406,-0.20013 0.9,-0.25 0.0173,0.025 0.034,0.0417 0.05,0.05 0.30091,0.47461 1.98425,0.65794 5.05,0.55 0.0988,1.18164 0.0988,2.26497 0,3.25 -0.14037,1.42422 -0.15703,2.45755 -0.05,3.1 v 0.05 c 0.11263,0.52513 0.096,1.2918 -0.05,2.3 0.003,0.044 0.003,0.0773 0,0.1 v 0 c -0.0187,0.15807 -0.0187,0.29141 0,0.4 0.0313,0.0688 0.0479,0.11875 0.05,0.15 0.34857,1.11667 0.31523,2.2 -0.1,3.25 v 0 c -0.61185,1.77031 -0.67851,2.93698 -0.2,3.5 0.008,0.0324 0.008,0.0491 0,0.05 0.19258,0.37448 0.27591,1.29115 0.25,2.75 V 640 c -0.006,1.46445 -0.156,2.68112 -0.45,3.65 v 0.05 c -0.29388,1.31041 -0.29388,2.42708 0,3.35 0.20482,0.74713 0.35482,1.7138 0.45,2.9 v 0.1 c -0.0327,1.26015 0.0173,2.59349 0.15,4 v 0 c 0.15247,1.26784 0.16914,2.18451 0.05,2.75 -0.12891,0.69883 -0.19557,1.73216 -0.2,3.1 -0.002,0.0414 -0.002,0.0747 0,0.1 -0.0678,0.96784 -0.11784,2.16784 -0.15,3.6 v 0.05 c -0.003,1.53333 0.0467,2.66667 0.15,3.4 0.0872,0.66419 0.0872,1.58086 0,2.75 v 0.05 c -0.17161,1.40664 -0.23828,2.63997 -0.2,3.7 0.0324,1.06563 0.0324,2.06563 0,3 -0.0257,0.7069 -0.009,1.4569 0.05,2.25 -1.24375,-0.11497 -2.07709,-0.0816 -2.5,0.1 -0.007,0.008 -0.0238,0.008 -0.05,0 -0.36172,0.13685 -1.47839,0.17018 -3.35,0.1 -0.0279,-2.34518 -0.0279,-3.72851 0,-4.15 0.0443,-0.49141 -0.0891,-1.50807 -0.4,-3.05 -0.22357,-1.25365 -0.22357,-2.47031 0,-3.65 0.29101,-1.31706 0.52435,-2.61706 0.7,-3.9 v -0.05 c 0.20911,-1.33047 0.15911,-2.8638 -0.15,-4.6 h 0.05 c -0.20742,-1.37969 -0.17409,-2.47969 0.1,-3.3 v 0.05 c 0.54193,-1.07943 0.49193,-2.54609 -0.15,-4.4 -0.46549,-1.27956 -0.61549,-2.44623 -0.45,-3.5 0.2819,-1.19206 0.54857,-2.54206 0.8,-4.05 0.34219,-1.58034 0.45885,-2.96367 0.35,-4.15 -0.10651,-1.08711 -0.30651,-2.42044 -0.6,-4 -0.23399,-1.44375 -0.33399,-2.77708 -0.3,-4 0.0337,-1.27891 -0.0996,-2.66224 -0.4,-4.15 -0.1875,-1.22149 -0.12083,-2.57149 0.2,-4.05 m -41.7,-0.8 v -2.05 c 1.00847,0.16563 1.72513,0.23229 2.15,0.2 0.46497,-0.0285 1.74831,-0.12853 3.85,-0.3 0.088,2.12956 0.10469,3.51289 0.05,4.15 v 0.05 c -0.0414,0.83008 0.0919,1.98008 0.4,3.45 0.28763,1.28034 0.37097,2.43034 0.25,3.45 -0.12396,1.12735 -0.37396,2.29401 -0.75,3.5 -0.44727,1.4582 -0.54727,2.9082 -0.3,4.35 0.23763,1.26601 0.37097,2.49935 0.4,3.7 0.0319,1.26263 -10e-4,2.74597 -0.1,4.45 -0.0634,1.65937 -0.2134,2.97604 -0.45,3.95 v 0.05 c -0.20351,1.15495 -0.25351,2.47161 -0.15,3.95 v 0.05 c 0.14141,1.48203 0.42474,2.83203 0.85,4.05 0.34089,1.03425 0.40755,2.01758 0.2,2.95 v 0 c -0.18333,1.15755 -0.41667,2.55755 -0.7,4.2 v 0 c -0.2431,1.75221 -0.2431,3.33555 0,4.75 0.22578,1.23347 0.19245,2.55013 -0.1,3.95 v 0 c -0.19531,1.21589 -0.19531,2.26589 0,3.15 -0.80925,0.15091 -1.32591,0.20091 -1.55,0.15 v 0 c -0.35143,-0.24349 -1.8181,-0.37682 -4.4,-0.4 -0.31367,-0.92761 -0.36367,-1.96094 -0.15,-3.1 v 0 c 0.43385,-1.79518 0.61719,-2.82851 0.55,-3.1 -0.0299,-0.2181 -0.0466,-1.15143 -0.05,-2.8 v -0.1 c -0.0297,-1.71341 0.004,-3.08008 0.1,-4.1 0.15925,-1.26758 -0.007,-2.31758 -0.5,-3.15 -0.14753,-0.44649 -0.0309,-1.21315 0.35,-2.3 v -0.05 c 0.0547,-0.12357 0.0713,-0.27357 0.05,-0.45 l -0.05,-0.1 c -0.13541,-1.1293 -0.25208,-2.2793 -0.35,-3.45 -0.0635,-1.0543 -0.0302,-2.0043 0.1,-2.85 v 0.05 c 0.22943,-0.88828 0.32943,-2.02161 0.3,-3.4 0.40182,-1.96758 0.58515,-3.50091 0.55,-4.6 v -0.05 c -10e-4,-0.93529 0.0487,-1.73529 0.15,-2.4 0.22149,-0.80221 -0.0119,-1.90221 -0.7,-3.3 -0.0229,-1.09948 -0.1896,-2.43281 -0.5,-4 -0.19557,-1.26627 -0.22891,-2.11627 -0.1,-2.55 0.28867,-0.58997 0.48867,-1.62331 0.6,-3.1 V 630 c 0.0672,-1.34153 0.0838,-2.69153 0.05,-4.05 -0.0332,-1.27149 -0.0499,-2.17149 -0.05,-2.7"
     id="path820"
     sodipodi:nodetypes="cccsscccccccccccccccccccccccccccccscccccscccccccccccccccssccccccccsscccsscccsccccccccccccccccccccccccccccccccccscccccccsscsscccccccccccccccccccccccccccccccssccccccccccccccccccccccccccccccccccccccccccccccccccccccccccccccccccccccssccccsscccsssssscccccssccccccccccccccccccccccccccssccccccsscccccccccccssccsscccccccccssccccscccccccccccccccccccccccccccccccccccccccccccsssscsscsscssccccccccccccccscccccccc"
     style="display:inline"
     transform="matrix(0.26458333,0,0,0.26458333,-163.51035,-163.52656)"
     inkscape:label="Foreground" />
  <g
     id="g413"
     style="display:inline"
     transform="matrix(0.26458333,0,0,0.26458333,-163.51035,-163.52656)"
     inkscape:label="Carpet" />
</svg>
