<?xml version="1.0" encoding="UTF-8" standalone="no"?>
<!-- Created with Inkscape (http://www.inkscape.org/) -->

<svg
   width="64"
   height="64"
   viewBox="0 0 16.933333 16.933333"
   version="1.1"
   id="svg1"
   inkscape:version="1.4 (86a8ad7, 2024-10-11)"
   sodipodi:docname="chair.svg"
   xmlns:inkscape="http://www.inkscape.org/namespaces/inkscape"
   xmlns:sodipodi="http://sodipodi.sourceforge.net/DTD/sodipodi-0.dtd"
   xmlns="http://www.w3.org/2000/svg"
   xmlns:svg="http://www.w3.org/2000/svg">
  <sodipodi:namedview
     id="namedview1"
     pagecolor="#ffffff"
     bordercolor="#000000"
     borderopacity="0.25"
     inkscape:showpageshadow="2"
     inkscape:pageopacity="0.0"
     inkscape:pagecheckerboard="true"
     inkscape:deskcolor="#d1d1d1"
     inkscape:document-units="px"
     showgrid="true"
     inkscape:zoom="8"
     inkscape:cx="20.625"
     inkscape:cy="46.9375"
     inkscape:window-width="2560"
     inkscape:window-height="1494"
     inkscape:window-x="-11"
     inkscape:window-y="-11"
     inkscape:window-maximized="1"
     inkscape:current-layer="g6">
    <inkscape:grid
       id="grid1"
       units="px"
       originx="0"
       originy="0"
       spacingx="8.4666662"
       spacingy="8.4666662"
       empcolor="#0099e5"
       empopacity="0.30196078"
       color="#0099e5"
       opacity="0.14901961"
       empspacing="5"
       enabled="true"
       visible="true" />
  </sodipodi:namedview>
  <defs
     id="defs1" />
  <g
     id="g6"
     transform="translate(-4.5091934,-2.3725653)"
     inkscape:label="Chair">
    <path
       id="path5"
       style="display:inline;fill:#ffffff;fill-opacity:1"
       d="M -12.099175 -14.249619 L -12.099175 3.7503809 C -12.099175 4.4767519 -12.033464 5.1360337 -11.905815 5.7347559 C -12.83774 5.5019785 -13.737787 5.2428378 -14.599175 4.9495997 L -17.899956 10.650772 C -17.233289 10.984105 -16.500737 11.317438 -15.700737 11.650771 C -11.200737 13.384104 -5.7666228 14.250381 0.60004385 14.250381 C 6.9333772 14.250381 12.350044 13.384104 16.850044 11.650771 C 17.216711 11.517438 17.567492 11.366267 17.900825 11.1996 L 14.549263 5.3499903 C 13.676942 5.6044172 12.768566 5.824877 11.834419 6.0238184 C 12.007545 5.3510208 12.100044 4.5963043 12.100044 3.7503809 L 12.100044 -14.249619 L -12.099175 -14.249619 z "
       transform="matrix(0.26458333,0,0,0.26458333,12.977812,10.847916)"
       inkscape:label="Background" />
    <path
       fill="#b2b7bb"
       stroke="none"
       d="m -4.45,-11.6 v 0 q -2.1818359,0.244727 -3.75,0.25 v 0 q -0.4107422,0.0035 -0.7,0.3 -0.2964844,0.289258 -0.3,0.7 v 0 q 0,1.2113281 0,2.25 -0.00527,0.9890625 -0.5,3.35 v 0 q -0.492187,2.9089844 0.4,5 0.7142578,1.5470703 0.15,3.15 -0.048438,0.1777344 -0.05,0.35 0.00156,0.1835938 0.05,0.35 0.029883,0.035156 0.05,0.05 V 4.2 l 0.05,0.05 q 0.041992,0.062305 0.05,0.1 0.050391,0.051367 0.1,0.1 0.05332,0.05332 0.1,0.1 1.3710938,1.3710937 1.9,1.9 0.1097656,0.1134766 0.15,0.15 0.048242,0.066797 0.05,0.1 0.095703,0.083984 0.15,0.15 0.2494141,0.1744141 0.55,0.2 4.0154297,0.3523437 4.9,0.1 Q -0.44375,7.0458984 1.55,7 3.7183594,7.0009766 5.85,7.05 H 5.9 Q 6.0625,7.025 6.2,7 6.4160156,6.9460937 6.6,6.75 6.6642578,6.7125 6.7,6.65 7.85,5.5755859 8.4,5 8.7285156,4.7074219 8.85,4.55 9.0099609,4.3865234 9.05,4.3 9.2291016,4.0074219 9.2,3.85 V 3.75 Q 9.4064453,1.5824219 9.35,0.55 9.3001953,-0.39316406 9.25,-2.55 9.2,-4.6123047 9.2,-6.65 q 0,-1.9726563 0,-3.6 0,-0.03769 0,-0.1 -0.00312,-0.357227 -0.25,-0.65 -0.2236328,-0.300781 -0.65,-0.35 -1.9068359,-0.218945 -2.2,0.2 -0.051562,0.04648 -0.1,0.1 -0.056055,-0.234375 -1.75,-0.45 -2.3933594,-0.304883 -4.4,-0.3 -1.9333984,-0.0023 -4.3,0.2 m 0.2,2 q 2.2435547,-0.1978516 4.1,-0.2 1.8933594,0.00469 4.15,0.3 2.584375,0.3142578 3.2,0 0,1.3320312 0,2.85 -1.953e-4,2.0623047 0.05,4.15 0.049805,2.19316406 0.1,3.15 Q 7.3898437,1.5419922 7.2,3.4 7.1294922,3.4931641 7,3.6 6.5064453,4.1177734 5.5,5.05 3.5173828,4.9998047 1.55,5 H 1.5 q -2.26035156,0.054687 -3,0.2 -0.0375,0.036914 -0.1,0.05 -0.5832031,0.1240234 -3.9,-0.2 -0.4603516,-0.4603516 -1.6,-1.6 0.5585938,-2.0300781 -0.35,-4 -0.6542969,-1.5998047 -0.3,-3.8 V -4.4 q 0.5552734,-2.5945312 0.55,-3.7 0,-0.609375 0,-1.3 1.3056641,-0.019141 2.95,-0.2 z"
       id="path3"
       transform="matrix(0.26458333,0,0,0.26458333,12.977812,10.847916)"
       inkscape:label="Foreground (Inner)" />
    <path
       id="path7"
       style="fill:#2a2a2a"
       d="m 15.716778,12.406061 c -0.0047,9.96e-4 -0.0093,0.0021 -0.01395,0.0031 0.02563,-0.10859 0.01692,-0.25883 -0.02636,-0.450102 -0.04424,-0.250079 -0.185243,-0.514663 -0.42323,-0.79375 -0.04702,-0.05564 -0.108555,-0.0864 -0.185001,-0.0925 -0.06794,-0.0046 -0.129984,0.01743 -0.185519,0.06615 -0.05581,0.04699 -0.08658,0.104421 -0.0925,0.172083 -0.0045,0.07658 0.0175,0.14273 0.06615,0.198437 0.167742,0.197197 0.269269,0.382302 0.304374,0.555522 0.02095,0.08857 0.04711,0.13267 0.07906,0.132291 -0.0556,0.0513 -0.08637,0.112827 -0.0925,0.185002 -0.0021,0.02212 -0.0021,0.04417 0,0.06615 -0.138218,-0.0069 -0.283842,-0.02432 -0.436666,-0.05271 -0.403869,-0.06273 -0.765363,-0.08017 -1.084689,-0.05271 h -0.01292 c -0.276882,0.03462 -0.594795,0.05205 -0.952913,0.05271 -0.343648,1.72e-4 -0.683094,-0.05264 -1.018543,-0.158647 h -0.01292 c -0.370726,-0.109795 -0.666591,-0.145176 -0.886767,-0.105936 0.02398,-0.116307 0.05064,-0.213217 0.07958,-0.290939 0.0026,-0.0043 0.0026,-0.0089 0,-0.01344 0.07404,-0.139216 0.153514,-0.266891 0.238229,-0.383439 0.04468,-0.05967 0.06212,-0.125815 0.05271,-0.198437 -0.01134,-0.07159 -0.04672,-0.129019 -0.105937,-0.172083 -0.05963,-0.04486 -0.12578,-0.06229 -0.198437,-0.05271 -0.07142,0.01134 -0.12833,0.0462 -0.171566,0.10542 -0.106626,0.144315 -0.204053,0.303272 -0.291455,0.476457 -0.0023,0.0047 -0.0064,0.0093 -0.01292,0.01344 -0.05374,0.132912 -0.09374,0.318017 -0.119373,0.555521 -0.08455,-0.01983 -0.112085,-0.02726 -0.182418,-0.04392 -0.0018,-0.07825 0.0066,-0.156125 0.01086,-0.234105 0.183211,-0.430396 0.205255,-0.858035 0.06615,-1.283126 -0.102939,-0.334759 -0.138321,-0.6654886 -0.105936,-0.992187 0.03524,-0.3589445 0.06601,-0.6501929 0.0925,-0.8733317 l -0.01344,0.013436 c 0.04665,-0.2353689 0.05126,-0.4779036 0.01344,-0.7276041 -0.0267,-0.1656403 -0.04413,-0.3948425 -0.05271,-0.6878133 0.221933,-0.00524 0.473184,-0.013953 0.75396,-0.026355 0.39839,-0.00868 0.764501,-0.00868 1.098124,0 0.343958,0.00758 0.683403,0.038344 1.018542,0.092501 0.402456,0.082751 0.785999,0.078135 1.150834,-0.013436 0.308543,-0.05805 0.634656,-0.06215 0.978752,-0.012919 0.389502,0.052848 0.667418,0.092328 0.833541,0.1188558 l -0.01292,-0.013436 c 0.02143,0.00865 0.03886,0.013263 0.05271,0.013436 0.0088,0.180833 0.0134,0.3792705 0.01343,0.5953125 -1.03e-4,0.401078 -0.0093,0.7846205 -0.02687,1.1508342 -0.0089,0.3747919 -0.01756,0.7409023 -0.02636,1.0981236 -0.01,0.443108 0.02542,0.72974 0.105936,0.859896 v 0.01344 c 0.03235,0.08909 0.0103,0.274195 -0.06614,0.555521 v 0.01292 c -0.04205,0.213934 -0.119748,0.416711 -0.197922,0.619077 z m 0.640789,-0.208767 c 0.02602,-0.08861 0.05039,-0.181229 0.07286,-0.278019 0.0019,-0.0028 0.0019,-0.0069 0,-0.01292 v -0.01344 c 0.12616,-0.470049 0.130772,-0.782829 0.01344,-0.938961 -0.03417,-0.09012 -0.04751,-0.288561 -0.03979,-0.595312 0.0088,-0.355052 0.01747,-0.7170618 0.02635,-1.0852047 0.01774,-0.3746196 0.02698,-0.7668782 0.02687,-1.1771891 3.4e-5,-0.4052122 -0.0046,-0.7446574 -0.01344,-1.0185424 v -0.013436 c -0.0031,-0.06556 -0.02973,-0.12299 -0.07958,-0.1720825 l -0.01292,-0.012919 c -0.04606,-0.044476 -0.10349,-0.066525 -0.172082,-0.066146 h -0.01344 c -0.06556,0.003 -0.122473,0.029145 -0.171566,0.079065 l -0.01344,0.013436 c -0.01877,0.02105 -0.03621,0.043098 -0.05271,0.066146 -0.16533,-0.028284 -0.43453,-0.067765 -0.807185,-0.1188558 h -0.01344 c -0.405109,-0.055879 -0.788652,-0.047163 -1.150834,0.026355 h -0.01292 c -0.294635,0.075482 -0.603339,0.079582 -0.926041,0.012919 h -0.01344 c -0.361597,-0.06053 -0.727708,-0.095395 -1.098124,-0.1054199 -0.171807,-0.00448 -0.352468,-0.00672 -0.542086,-0.00672 l 2.7e-5,5e-7 c -0.189618,0 -0.387883,0.00224 -0.595312,0.00672 -0.388504,0.017364 -0.719233,0.02608 -0.992188,0.026355 -0.07245,6.174e-4 -0.1344965,0.026766 -0.1855183,0.079065 -0.052297,0.051022 -0.078445,0.113068 -0.079065,0.1855184 0.00131,0.459989 0.018738,0.8040507 0.05271,1.0319783 0.034933,0.1912373 0.034933,0.3763422 0,0.5555216 0.00214,0.00916 0.00214,0.013264 0,0.012919 -0.026424,0.2266184 -0.057189,0.5224832 -0.092501,0.8867676 -0.038206,0.3964616 0.00589,0.797436 0.1322916,1.203544 0.099977,0.309335 0.077928,0.622632 -0.066146,0.939478 -0.013092,0.03132 -0.021808,0.0667 -0.026355,0.105936 -0.00978,0.103821 -0.012082,0.185438 -0.012408,0.186046 h -3.9e-6 c -0.08772,-0.02183 -0.1760659,-0.04752 -0.2656169,-0.08061 -0.045269,-0.02553 -0.098082,-0.03424 -0.1586466,-0.02636 -0.071279,0.0113 -0.1287089,0.04668 -0.1720825,0.105937 -0.2618273,0.348954 -0.420784,0.604821 -0.4764567,0.767395 -0.050126,0.142282 -0.1865176,0.393533 -0.4097941,0.753959 -0.014332,0.02556 -0.027664,0.05223 -0.039791,0.07958 -0.00599,0.0432 -0.00599,0.08268 0,0.118856 0.015296,0.04988 0.037345,0.08936 0.066146,0.118855 0.1354612,0.208256 0.3251826,0.318499 0.5689575,0.33073 0.1509641,0.0103 0.3801663,0.06773 0.6878133,0.172082 0.3820612,0.131913 0.7835526,0.202675 1.2040606,0.211873 0.365249,0.0091 0.655981,0.05319 0.872815,0.132292 0.267305,0.103697 0.633415,0.125742 1.098124,0.06615 0.382406,-0.04048 0.730567,-0.02715 1.044898,0.03979 0.372656,0.09987 0.743382,0.130639 1.11156,0.0925 0.374826,-0.02698 0.745036,-0.09312 1.111043,-0.198438 0.38809,-0.101975 0.718819,-0.252215 0.992188,-0.450102 0.226032,-0.136322 0.543429,-0.189135 0.952396,-0.158646 0.07676,0.0046 0.142903,-0.01743 0.198438,-0.06615 0.05578,-0.04699 0.08706,-0.108521 0.09302,-0.185002 0.0046,-0.06776 -0.01747,-0.129811 -0.06615,-0.185518 l -0.01344,-0.01292 c -0.25387,-0.298621 -0.452307,-0.519107 -0.595313,-0.661459 -0.09185,-0.11324 -0.162608,-0.360391 -0.211873,-0.74104 -0.01113,-0.06894 -0.04599,-0.126366 -0.10542,-0.172082 -0.05695,-0.04475 -0.123094,-0.06218 -0.198438,-0.05271 -0.04465,0.0074 -0.08465,0.02484 -0.119372,0.05271 -0.183686,0.09282 -0.313485,0.146095 -0.311079,0.145725 z m -7.1499525,0.264578 c 0.095395,0.03452 0.1876888,0.06119 0.2775025,0.07958 0.010644,0.0026 0.046089,0.01108 0.057878,0.01395 0.1634052,0.03977 0.4186454,0.101536 0.802018,0.194303 v 0 c 0.0064,0.0015 0.007,0.0015 0.01344,0.0031 0.01316,0.0029 0.02187,0.0029 0.02636,0 0.01926,0.0081 0.03721,0.01271 0.05323,0.01344 0.02794,0.0017 0.0541,-0.003 0.07906,-0.01344 0.02102,-0.0019 0.03896,-0.006 0.05323,-0.01292 0.0143,-0.0067 0.09326,-0.03335 0.237712,-0.07958 0.156269,-0.03431 0.381372,-0.0076 0.674894,0.07958 0.387711,0.123265 0.779969,0.184795 1.177189,0.185002 0.379959,6.2e-4 0.719921,-0.01681 1.019059,-0.05271 0.283118,-0.02505 0.600515,-0.01223 0.952397,0.03927 0.193562,0.03456 0.376506,0.05528 0.550871,0.06304 0.193916,0.0086 0.377082,0.0013 0.547253,-0.02325 0.107423,-0.01497 0.226219,-0.04383 0.35295,-0.08217 0.166183,-0.05027 0.346836,-0.118316 0.54622,-0.208773 0.07242,0.33569 0.173943,0.560793 0.304374,0.674894 0.05939,0.05967 0.130156,0.134531 0.211873,0.224793 -0.282291,0.03355 -0.516109,0.113033 -0.701249,0.238228 h -0.01344 c -0.229374,0.163711 -0.506773,0.28677 -0.833024,0.370004 -0.330729,0.0975 -0.666074,0.159542 -1.005623,0.185518 -0.31309,0.03183 -0.626387,0.0052 -0.939478,-0.07958 h -0.01292 c -0.36549,-0.0823 -0.771081,-0.09974 -1.21698,-0.05271 h -0.01344 c -0.356774,0.04575 -0.638789,0.03242 -0.846459,-0.03979 -0.259416,-0.09729 -0.608094,-0.150102 -1.045415,-0.158646 -0.364456,-0.0084 -0.7126173,-0.07049 -1.0448967,-0.185519 -0.3714502,-0.124953 -0.649366,-0.191099 -0.8335409,-0.198437 -0.022979,-0.0014 -0.045027,-0.0055 -0.066146,-0.01292 0.1911683,-0.317673 0.3101275,-0.546875 0.3570841,-0.687814 0.040687,-0.103456 0.1334975,-0.262412 0.2780192,-0.476456 z"
       sodipodi:nodetypes="cccccccccccccccccccccccccccccccccccccccccccccccccccccccccccccccccccccccccccccsscccccccccccccccccccccccccccccccccccccccscccccccccccccccccccccccccccccccccccccc"
       inkscape:label="Foreground (Outter)" />
  </g>
</svg>
