<?xml version="1.0" encoding="UTF-8" standalone="no"?>
<!-- Created with Inkscape (http://www.inkscape.org/) -->

<svg
   width="64"
   height="64"
   viewBox="0 0 16.933333 16.933333"
   version="1.1"
   id="svg1"
   sodipodi:docname="chest.svg"
   inkscape:version="1.4 (86a8ad7, 2024-10-11)"
   xmlns:inkscape="http://www.inkscape.org/namespaces/inkscape"
   xmlns:sodipodi="http://sodipodi.sourceforge.net/DTD/sodipodi-0.dtd"
   xmlns="http://www.w3.org/2000/svg"
   xmlns:svg="http://www.w3.org/2000/svg">
  <sodipodi:namedview
     id="namedview1"
     pagecolor="#ffffff"
     bordercolor="#000000"
     borderopacity="0.25"
     inkscape:showpageshadow="2"
     inkscape:pageopacity="0.0"
     inkscape:pagecheckerboard="true"
     inkscape:deskcolor="#d1d1d1"
     inkscape:document-units="px"
     showgrid="true"
     inkscape:zoom="4.4335938"
     inkscape:cx="17.14185"
     inkscape:cy="30.787665"
     inkscape:window-width="1920"
     inkscape:window-height="1009"
     inkscape:window-x="1912"
     inkscape:window-y="-8"
     inkscape:window-maximized="1"
     inkscape:current-layer="svg1">
    <inkscape:grid
       id="grid1"
       units="px"
       originx="0"
       originy="0"
       spacingx="8.4666662"
       spacingy="8.4666662"
       empcolor="#0099e5"
       empopacity="0.30196078"
       color="#0099e5"
       opacity="0.14901961"
       empspacing="5"
       enabled="true"
       visible="true" />
  </sodipodi:namedview>
  <defs
     id="defs1" />
  <g
     id="g4"
     transform="translate(-2.2854208,33.566578)"
     inkscape:label="Chest">
    <path
       id="path6"
       style="baseline-shift:baseline;display:inline;overflow:visible;vector-effect:none;fill:#ffffff;enable-background:accumulate;stop-color:#000000;stop-opacity:1"
       inkscape:label="Background"
       d="M 1.0171875e-6,8.7312523 V 17.991669 H 4.4979176 v 0.89917 h 2.9104166 v -0.89917 H 11.906251 V 8.7312523 Z"
       transform="translate(4.7989614,-38.910957)"
       sodipodi:nodetypes="ccccccccc" />
    <path
       id="path832"
       style="fill:#b2b7bb;stroke-width:0.264583"
       d="m 6.5058349,-30.268476 c -0.068212,7.94e-4 -0.1297408,0.0269 -0.1850016,0.07906 -0.045821,0.05388 -0.067868,0.115927 -0.066146,0.185518 0.00889,0.58112 -2.654e-4,0.775656 -0.026872,0.900092 0.00185,0.0071 0.00185,0.01118 0,0.01292 -0.025215,0.164089 0.014791,0.464055 0.1193726,0.899686 0.092811,0.354984 0.1148607,0.668281 0.066146,0.939478 0.00212,0.009 0.00212,0.01308 0,0.01292 -0.044167,0.323805 -0.084164,0.672484 -0.1193725,1.045414 -0.027493,0.390295 -0.031081,0.716407 -0.012402,0.978752 0.014023,0.236987 -0.025983,0.532336 -0.1193725,0.886251 -0.1020101,0.435596 -0.1020101,0.907335 0,1.415417 0.1026292,0.44862 0.1426267,0.814732 0.1193725,1.098124 v 0.01344 c -0.01778,0.322289 -0.026495,0.495659 -0.026355,0.773093 5.292e-4,0.07245 0.026767,0.133978 0.079065,0.185001 0.051022,0.0523 0.1130676,0.07896 0.1855184,0.07958 0.072451,-5.29e-4 0.1339794,-0.02728 0.1850016,-0.07958 0.052298,-0.05102 0.078963,-0.11255 0.079582,-0.185001 1.72e-4,-0.269373 0.00889,-0.434027 0.026355,-0.746738 0.028871,-0.32849 -0.015214,-0.747414 -0.1322917,-1.256771 -0.082785,-0.417582 -0.082785,-0.805739 0,-1.16427 0.1094158,-0.42223 0.1535139,-0.775009 0.1322917,-1.058333 -0.016642,-0.240397 -0.013051,-0.540364 0.012402,-0.899687 0.035621,-0.358807 0.075621,-0.693636 0.1193726,-1.005106 h -0.013436 c 0.065939,-0.33514 0.043889,-0.723297 -0.066146,-1.16427 -0.080685,-0.340548 -0.1160649,-0.574366 -0.1059367,-0.701249 l -0.012919,0.02636 c 0.035208,-0.140147 0.04854,-0.374164 0.039791,-1.018948 -7.937e-4,-0.06828 -0.027457,-0.129812 -0.079582,-0.185001 -0.053814,-0.04589 -0.1199595,-0.06794 -0.1984375,-0.06615 z m 1.6009359,0 c -0.072451,5.3e-4 -0.1344961,0.02677 -0.1855184,0.07906 -0.052297,0.05102 -0.078444,0.113067 -0.079065,0.185518 7.938e-4,0.734322 0.027009,1.00372 0.079065,1.124884 0.020611,0.08175 0.00317,0.227378 -0.05271,0.436666 -0.070694,0.319429 -0.1060741,0.72912 -0.1059366,1.229899 v 1.137915 c 0.00878,0.2887 0.022119,0.592762 0.039791,0.912606 0.017489,0.313574 0.026223,0.662249 0.026355,1.045414 0.00863,0.413824 0.057327,0.797366 0.1457275,1.150834 0.085164,0.306337 0.1200276,0.588354 0.1054199,0.84646 -0.00902,0.27082 -0.073339,0.418172 -0.2142429,0.905826 -0.02122,0.07345 -0.016621,0.139595 0.013436,0.198438 0.040066,0.06814 0.092879,0.112241 0.1586467,0.132291 0.073517,0.02125 0.139663,0.01253 0.1984375,-0.02635 0.068075,-0.03121 0.1121727,-0.08403 0.1322916,-0.158646 0.1589563,-0.544187 0.2319858,-0.735638 0.240598,-1.038118 0.019949,-0.300101 -0.019526,-0.630831 -0.1188558,-0.992188 -0.079169,-0.316812 -0.1232668,-0.660874 -0.1322917,-1.031978 3.44e-5,-0.385919 -0.00868,-0.738697 -0.026355,-1.058333 -0.017595,-0.315158 -0.030938,-0.615122 -0.039791,-0.899687 v -1.124479 c 1.376e-4,-0.45179 0.030903,-0.821999 0.092501,-1.111043 0.094155,-0.36449 0.102873,-0.615741 0.026355,-0.753959 0.00212,3.4e-5 0.00212,-0.0046 0,-0.01344 -0.02739,-0.0832 -0.040202,-0.281834 -0.039274,-0.913011 -5.291e-4,-0.07245 -0.027285,-0.134496 -0.079582,-0.185518 -0.051022,-0.0523 -0.1125508,-0.07846 -0.1850016,-0.07906 z m 6.8920852,-0.158242 c -0.07317,-0.0043 -0.139318,0.0177 -0.198437,0.06615 -0.04947,0.04992 -0.07563,0.11145 -0.07906,0.185001 l -0.05323,1.058334 c -0.01804,0.361391 -0.01804,0.731599 0,1.111043 0.01738,0.363802 0.02201,0.725813 0.01344,1.085205 -0.009,0.37965 -0.009,0.723193 0,1.031462 v 0.01344 c 0.01532,0.293521 -0.0067,0.632967 -0.06615,1.018542 -0.05633,0.447484 -0.02556,0.866407 0.0925,1.256771 0.09653,0.345853 0.145246,0.632484 0.145728,0.859896 0.0091,0.234301 -0.0088,0.472737 -0.05323,0.714685 v 0.01292 c -0.04268,0.281498 -0.06883,0.531566 -0.07906,0.98208 -0.0019,0.07838 0.02078,0.144521 0.06666,0.198437 0.05512,0.05213 0.116651,0.07879 0.185001,0.07958 0.07834,0.0019 0.144487,-0.02484 0.198438,-0.07958 0.05205,-0.04634 0.07821,-0.107864 0.07907,-0.185001 0.0073,-0.419198 0.02939,-0.647216 0.06614,-0.915935 0.05216,-0.276055 0.07421,-0.545256 0.06615,-0.807185 v -0.01292 c -5.29e-4,-0.260966 -0.05791,-0.591695 -0.172082,-0.992187 -0.09309,-0.322082 -0.115132,-0.666144 -0.06615,-1.031978 0.0636,-0.422886 0.08565,-0.79771 0.06615,-1.124479 -0.0087,-0.300275 -0.0087,-0.63562 0,-1.005624 0.009,-0.372621 0.0044,-0.747448 -0.01344,-1.124479 -0.01722,-0.361392 -0.01722,-0.714169 0,-1.058333 l 0.05323,-1.058334 c 0.0043,-0.07314 -0.01778,-0.139284 -0.06615,-0.198437 -0.04995,-0.04954 -0.112002,-0.07569 -0.185519,-0.07906 z m -1.695969,0.243155 c -0.03307,0.0023 -0.0657,0.01074 -0.09767,0.02584 -0.06539,0.03717 -0.109485,0.08998 -0.132292,0.158647 -0.123335,0.386021 -0.04488,0.544875 0.08728,0.961422 0.113654,0.337894 0.166468,0.70349 0.158647,1.097608 v 0.01344 c -3.5e-5,0.429466 -0.0047,0.790958 -0.01344,1.084688 -0.008,0.295865 -0.03879,0.560448 -0.0925,0.79375 -0.05354,0.272092 -0.07097,0.642822 -0.05271,1.11156 0.02455,0.42268 0.01585,0.784171 -0.02636,1.084688 v 0.01292 c -0.03638,0.338826 -0.04509,0.696221 -0.02635,1.07177 0.01746,0.364524 0.02618,0.633724 0.02635,0.807185 v 0.94229 c 5.29e-4,0.07245 0.02728,0.133979 0.07958,0.185001 0.05102,0.0523 0.113067,0.07896 0.185518,0.07958 0.07245,-5.29e-4 0.133979,-0.02728 0.185002,-0.07958 0.0523,-0.05102 0.07896,-0.11255 0.07958,-0.185001 v -0.94229 c 1.72e-4,-0.179316 -0.009,-0.457231 -0.02687,-0.83354 -0.0163,-0.342821 -0.0071,-0.669452 0.02687,-0.979269 0.04599,-0.332314 0.0542,-0.729189 0.02584,-1.190625 -0.01701,-0.413205 -0.0037,-0.739316 0.03979,-0.978751 0.06094,-0.260588 0.09581,-0.555934 0.105419,-0.886251 0.0088,-0.295658 0.01395,-0.661768 0.01395,-1.098124 0.0092,-0.463227 -0.05233,-0.890868 -0.185002,-1.283126 v 0.01292 c -0.09719,-0.306684 -0.17616,-0.359392 -0.0878,-0.643613 0.02125,-0.06825 0.01305,-0.134392 -0.02584,-0.198437 -0.02849,-0.06546 -0.0772,-0.109554 -0.145728,-0.132292 h -5.17e-4 c -0.03417,-0.01067 -0.0677,-0.01466 -0.100769,-0.0124 z m -1.965822,7.823019 c -0.128423,0.0011 -0.226318,0.01079 -0.293523,0.02997 -0.150998,0.04864 -0.3761,0.106075 -0.674894,0.172083 -0.256762,0.05933 -0.5874913,0.01934 -0.9921873,-0.119373 -0.047577,-0.01812 -0.095774,-0.02223 -0.1452108,-0.01292 -0.1956805,0.03362 -0.2797762,0.1613 -0.2516642,0.383439 0.00389,0.08513 0.04389,0.199988 0.1193726,0.344165 h 0.012919 c 0.067765,0.141938 0.050332,0.322426 -0.05271,0.542086 -0.030247,0.07207 -0.034859,0.142834 -0.013436,0.211874 0.028043,0.06735 0.072141,0.115548 0.1322917,0.14521 0.071863,0.03025 0.1426266,0.03025 0.2118734,0 0.067318,-0.01942 0.1155139,-0.06353 0.1452107,-0.132291 0.1545114,-0.332073 0.1945116,-0.618704 0.1193726,-0.859896 0.3228737,0.07366 0.6007901,0.07827 0.8335411,0.01344 0.309713,-0.06632 0.543014,-0.123748 0.700732,-0.172083 0.133842,-0.02524 0.416376,-0.01193 0.846977,0.03979 0.06229,0.129741 0.08844,0.23127 0.07907,0.304374 -0.04437,0.150276 -0.09719,0.308715 -0.158647,0.47594 -0.02352,0.07179 -0.01892,0.137941 0.01344,0.198438 0.03225,0.07152 0.08044,0.120235 0.145211,0.145727 0.07193,0.0236 0.138077,0.01897 0.198437,-0.01344 0.07142,-0.03214 0.120132,-0.08496 0.145728,-0.158646 0.06194,-0.176734 0.114754,-0.344406 0.158646,-0.502812 0.0731,-0.186243 0.02029,-0.446209 -0.158646,-0.780314 -0.0062,-0.03056 -0.0195,-0.06132 -0.03979,-0.0925 -0.04589,-0.05295 -0.107418,-0.08372 -0.185002,-0.0925 -0.384085,-0.04851 -0.683065,-0.07153 -0.897102,-0.06976 z"
       inkscape:label="Foreground (Inner)"
       sodipodi:nodetypes="cccccccccccccccccccccccccccccccccccccccccccsccccccccccccccccccccccccccccccccccccccccccccccsccccscccccccccccccccccccccccccssccccccccccccccccccccccccccs" />
    <path
       fill="#2a2a2a"
       stroke="none"
       d="m -23.5,-19.25 v 0.1 q 0,3.154102 0,3.65 -0.0025,0.04863 0,0.1 0.0293,0.458984 -0.25,2.75 v 0.05 q -0.265234,2.6369141 -0.05,4.3 0.177148,1.5117188 -0.15,3.65 v 0 q -0.317969,2.5638672 0.05,4.4 0.361133,1.7166016 0.6,3.8 0.237305,2.1148437 0,4.3 -0.237891,2.27207 -0.55,4.1 v 0 q -0.338672,2.156641 0.4,4.2 v 0 q 0.04844,0.08887 0.05,0.15 0.119531,0.15625 0.25,0.25 0.09707,0.08242 0.15,0.1 l 0.05,0.05 q 0.160547,0.06875 0.3,0.1 0.137109,0.01328 0.25,0 h 0.05 q 1.507227,-0.187305 2.35,-0.7 0.530664,-0.143945 1.6,0.15 v 0 q 1.835938,0.575391 4.7,0.05 2.367969,-0.371289 3.9,0 1.3763672,0.39043 3.15,0.45 -0.2824219,2.45293 0.35,3.05 v 0.05 q 0.2904297,0.315234 0.7,0.35 3.8431641,0.350977 4.8,-0.5 0.69335938,-0.332227 2.55,-0.1 2.3681641,0.331055 3.5,0.55 H 5.3 q 0.2169922,0.07871 0.45,0 0.165625,-0.01602 0.3,-0.1 0.05,-0.0375 0.1,-0.1 0.2537109,-0.177734 0.3,-0.55 0.055078,-0.09687 0.05,-0.25 0.00137,-0.08496 -0.05,-0.2 V 18.9 q -0.3234375,-1.360742 -0.3,-2.05 0.9537109,0.06562 1.6,-0.2 0.6746094,-0.186523 2.6,-0.1 2.315234,0.151172 4.25,0.15 1.985937,-0.0021 4.05,-0.45 h 0.05 q 1.699219,-0.257617 3.4,0.45 0.300195,0.148047 0.6,0.05 0.08809,0.01055 0.15,-0.05 0.0875,-0.0125 0.15,-0.05 0.289844,-0.142969 0.4,-0.45 0.148437,-0.3 0.05,-0.6 0.0209,-0.0248 0,-0.05 -0.407422,-2.120703 -0.35,-2.75 0.367773,-0.651953 0.75,-3.2 H 23.8 Q 24.258398,7.171875 24,4.8 23.738086,2.5951172 23.4,0.9 q -0.252734,-1.53847656 -0.25,-3.55 0.05352,-2.0125 0.35,-4.05 0.310938,-2.1378906 0.15,-4.85 -0.140039,-2.432227 0.2,-4.05 v 0.05 q 0.562891,-1.906836 -0.4,-3.95 -0.06602,-0.256445 -0.3,-0.45 -0.135352,-0.141602 -0.35,-0.2 l -0.05,-0.05 q -0.185352,-0.03301 -0.4,0 -0.848828,0.04238 -1.4,0 -0.01426,-0.0018 -0.05,0 -0.575977,-0.0045 -2.65,-0.2 H 18.2 q -2.218164,-0.163086 -4.7,0.4 v 0 q -2.103516,0.572656 -3.75,0.4 H 9.7 Q 7.9634766,-19.750781 6.3,-20 H 6.25 q -1.7292969,-0.203516 -4.05,-0.2 -2.22480469,-5.86e-4 -4.4,-0.1 -2.2511719,-0.108984 -4.45,0.2 -1.9958984,0.2875 -4.3,0.15 -2.35293,-0.150586 -4.1,-0.2 -1.701953,-0.05117 -3.25,0 h -0.05 q -1.375586,0.09473 -4.1,-0.05 h -0.05 q -0.382617,-0.008 -0.7,0.25 -0.211133,0.218164 -0.3,0.5 0.0125,0.1125 0,0.2 m 2,3.65 q 0,-0.525 0,-2.55 2.073828,0.08223 3.25,0 h 0.05 q 1.480273,-0.04824 3.1,0 1.702539,0.05039 4,0.2 h 0.05 q 2.5068359,0.160742 4.7,-0.15 2.0011719,-0.291211 4.05,-0.2 2.22480469,0.100391 4.5,0.1 2.1792969,0.0033 3.8,0.2 1.7496094,0.251758 3.55,0.4 1.968945,0.223047 4.45,-0.45 2.11543,-0.483008 4.05,-0.35 v 0 q 2.105859,0.192969 2.75,0.2 0.06523,1.95e-4 0.1,0 0.395703,0.03262 0.95,0 0.345703,1.099805 0.05,2.1 v 0.05 q -0.409961,1.832422 -0.25,4.6 0.139062,2.4878906 -0.15,4.45 -0.303516,2.1625 -0.35,4.3 v 0.05 q 0.0043,2.19824219 0.3,3.9 0.311914,1.6546875 0.55,3.8 0.241406,2.078125 -0.15,4.2 V 9.3 q -0.311133,2.106445 -0.55,2.65 -0.01387,0.04961 -0.05,0.1 -0.250391,0.539844 0,2.3 -1.466211,-0.288086 -2.95,-0.05 v 0 q -1.897461,0.401953 -3.7,0.4 -1.86543,-0.0014 -4.1,-0.15 v 0 q -2.5291016,-0.112305 -3.4,0.2 0.00117,0.0123 -0.05,0 Q 6.5732422,14.95332 5.8,14.85 5.6173828,14.788086 5.4,14.8 5.0177734,14.833789 4.75,15.15 3.9652344,15.8625 4.2,17.95 3.3111328,17.783008 2.05,17.6 H 2 q -2.90058594,-0.366016 -3.95,0.45 -0.6119141,0.358203 -2.9,0.2 0.035937,-0.573828 0.3,-2.15 0.048633,-0.142773 0.05,-0.3 0.00449,-0.307812 -0.2,-0.6 -0.1373047,-0.199805 -0.4,-0.3 -0.1685547,-0.09805 -0.4,-0.1 -2.2041016,-0.0041 -3.8,-0.45 -1.867773,-0.479102 -4.75,0 -2.285937,0.424414 -3.75,0 l -0.05,-0.05 q -2.083789,-0.557031 -3.1,0.05 -0.329883,0.200195 -0.85,0.3 -0.245898,-1.168945 -0.05,-2.4 h -0.05 q 0.337891,-1.872266 0.6,-4.2 0.2625,-2.4150391 0,-4.75 -0.261328,-2.1667969 -0.65,-3.95 -0.280078,-1.5548828 0,-3.7 V -4.4 q 0.37168,-2.4207031 0.15,-4.15 -0.184961,-1.486914 0.05,-3.85 0.320117,-2.661914 0.25,-3.2 z"
       id="path4"
       transform="matrix(0.26458333,0,0,0.26458333,10.752649,-25.082165)"
       inkscape:label="Foreground (Outter)" />
  </g>
</svg>
