<?xml version="1.0" encoding="UTF-8" standalone="no"?>
<!-- Created with Inkscape (http://www.inkscape.org/) -->

<svg
   width="64"
   height="64"
   viewBox="0 0 16.933333 16.933333"
   version="1.1"
   id="svg1"
   inkscape:version="1.4 (86a8ad7, 2024-10-11)"
   sodipodi:docname="crib.svg"
   xmlns:inkscape="http://www.inkscape.org/namespaces/inkscape"
   xmlns:sodipodi="http://sodipodi.sourceforge.net/DTD/sodipodi-0.dtd"
   xmlns="http://www.w3.org/2000/svg"
   xmlns:svg="http://www.w3.org/2000/svg">
  <sodipodi:namedview
     id="namedview1"
     pagecolor="#ffffff"
     bordercolor="#000000"
     borderopacity="0.25"
     inkscape:showpageshadow="2"
     inkscape:pageopacity="0.0"
     inkscape:pagecheckerboard="true"
     inkscape:deskcolor="#d1d1d1"
     inkscape:document-units="px"
     showgrid="true"
     inkscape:zoom="12.460938"
     inkscape:cx="32.742318"
     inkscape:cy="21.707836"
     inkscape:window-width="2560"
     inkscape:window-height="1494"
     inkscape:window-x="-11"
     inkscape:window-y="-11"
     inkscape:window-maximized="1"
     inkscape:current-layer="svg1">
    <inkscape:grid
       id="grid1"
       units="px"
       originx="0"
       originy="0"
       spacingx="8.4666662"
       spacingy="8.4666662"
       empcolor="#0099e5"
       empopacity="0.30196078"
       color="#0099e5"
       opacity="0.14901961"
       empspacing="5"
       enabled="true"
       visible="true" />
  </sodipodi:namedview>
  <defs
     id="defs1" />
  <g
     transform="matrix(0.26458333,0,0,0.26458333,8.4042127,8.5081127)"
     id="g680"
     inkscape:label="Crib">
    <path
       id="path5"
       inkscape:label="Background"
       d="m -22.99923,-30.000001 v 7.5 h 2.5 v 45 h -2.5 v 7.499999 h 45.999999 v -7.499999 h -2.5 v -45 h 2.5 v -7.5 z"
       style="fill:#ffffff;fill-opacity:1" />
    <path
       fill="#2a2a2a"
       stroke="none"
       d="m 23.15,-31 h -0.1 q -1.894336,-0.200977 -3.2,-0.35 -1.344141,-0.157617 -3.5,-0.05 H 16.3 q -1.988672,0.15 -3.6,0.3 -1.538281,0.149805 -3.4,0.3 -1.6787109,0.12832 -3.75,-0.45 -2.4400391,-0.574805 -5.15,-0.2 v 0 q -2.484375,0.411719 -4,0.6 -1.3921875,0.19043 -2.95,0.1 H -6.6 q -1.64375,-0.05078 -4.5,0 -2.521094,0.09629 -4.05,-0.35 l -0.05,-0.05 q -1.842969,-0.494141 -4.3,0.05 -1.776562,0.451367 -3.2,0.15 -0.04336,-0.01914 -0.1,-0.05 -0.105469,-0.0088 -0.25,0 -0.06563,0.0031 -0.15,0 -0.03555,0.03262 -0.1,0.05 -0.0625,0.025 -0.15,0.05 -0.03086,0.02246 -0.1,0.05 -0.09961,0.06621 -0.2,0.15 -0.178711,0.228125 -0.25,0.45 0.0082,0.09062 0,0.15 -0.0043,0.07813 0,0.15 v 0 q 0.193555,3.414844 0.1,4.7 v 0.05 q -0.05,1.406445 -0.1,2.65 -0.0018,0.06387 0,0.1 -0.103711,1.329102 1.65,1.3 0.367187,0.03105 0.9,-0.1 -0.02305,0.211523 -0.1,0.4 v 0.05 q -0.25332,1.400781 -0.15,3.5 0.09609,1.825 -0.3,3.65 v 0 q -0.35332,2.098438 -0.2,4.2 0.156445,2.0876953 0.6,4.2 0.439648,1.9552734 0.25,4.05 -0.204492,2.3226562 -0.15,3.95 V 2.8 q 0.09023,1.5408203 -0.35,3.5 -0.481836,2.3892578 0.05,4.5 0.486328,1.745898 0.4,3.4 v 0 q -0.05234,1.854297 0.1,4.55 v 0 q 0.15293,2.127734 -0.1,3.15 -0.485742,-0.09863 -1.3,-0.35 -0.237305,-0.07734 -0.5,-0.05 -0.149609,0.05527 -0.3,0.1 l -0.05,0.05 q -0.0334,0.05469 -0.1,0.1 -0.09375,0.07598 -0.2,0.2 -0.05625,0.121484 -0.1,0.25 -0.0457,0.140625 -0.05,0.3 0.0037,0.09277 0,0.2 0.0375,0.0375 0.05,0.05 0.60625,3.164453 0.6,3.4 0,0.03848 -0.05,0.05 -0.850977,0.542383 -0.6,3.8 v 0.1 q 0.04356,0.391211 0.35,0.65 v 0 q 0.331836,0.274805 0.7,0.25 h 0.05 q 2.130078,-0.212305 2.85,-0.4 0.632031,-0.0916 2.35,0 2.036914,0.15 4.45,0.3 2.437109,0.15 4.55,0.3 2.3955078,0.166016 4.3,-0.5 v 0 q 1.4541016,-0.454102 2.7,-0.2 1.56464844,0.44375 4.15,0.65 2.5761719,0.20293 4.95,0.1 2.3035156,-0.04824 3.45,0 h 0.05 q 1.342773,0.113086 3.85,-0.45 2.098047,-0.368555 3.75,0.05 2.02168,0.55625 4.5,0.15 0.27793,0.0047 0.5,-0.15 0.207617,-0.114258 0.3,-0.3 0.12832,-0.129883 0.15,-0.35 0.981445,-4.075 0.3,-5.45 V 24.8 Q 23.912695,23.802539 24,22.6 v -0.05 q 0.0096,-0.130664 -0.05,-0.3 0.03867,-1.023047 -1.65,-1.05 -0.304297,0.02109 -0.8,0.05 0.02246,-0.497656 0,-1.1 V 20.1 Q 21.4988,18.699219 21.05,16.75 V 16.7 q -0.303125,-1.478711 0.3,-3.05 V 13.7 Q 22.288477,11.626563 21.8,9.3 21.489062,7.3603516 21.3,5.2 21.101172,3.0123047 20.9,0.8 v 0 q -0.137695,-1.9875 0.4,-3.75 v 0 q 0.699805,-2.0826172 0.75,-4 0.0498,-1.6751953 0.05,-3.45 0.05019,-1.684375 0.05,-4.35 5.86e-4,-2.743359 -0.4,-4.35 -0.208789,-0.992383 -0.25,-2.35 0.559961,0.0043 1.4,-0.05 0.08672,0.0037 0.15,0 0.249219,-0.01191 0.45,-0.15 0.136133,-0.05176 0.25,-0.2 0.170313,-0.167773 0.2,-0.4 0.915625,-3.30625 0.3,-5.1 -0.418164,-1.314062 -0.25,-2.5 v -0.05 q 0.03828,-0.383594 -0.2,-0.7 l -0.05,-0.05 q -0.2125,-0.289258 -0.6,-0.35 m -1.25,1.9 q 0.0543,1.135547 0.45,2.35 0.329883,1.207227 -0.15,3.3 -0.69043,0.02402 -1.1,0 -0.121094,0.02793 -0.2,0 -0.03906,0.01191 -0.1,0 l -0.05,-0.05 q -0.09062,0.0016 -0.25,0 -0.08418,-0.0027 -0.2,0 -0.0959,0.03242 -0.2,0.05 l -0.05,0.05 q -0.143359,0.07168 -0.25,0.15 -0.05391,0.07598 -0.1,0.1 -0.09551,0.161719 -0.15,0.3 -0.300391,0.494336 -0.05,0.85 -0.01035,1.957227 0.3,3.35 0.349414,1.443164 0.35,3.9 -1.95e-4,2.63418 -0.05,4.3 v 0.05 Q 20.099805,-8.6628906 20.05,-7 20,-5.3675781 19.4,-3.6 v 0.05 q -0.658984,2.1265625 -0.5,4.5 V 1 q 0.2,2.2 0.4,4.4 0.210937,2.2394531 0.55,4.25 V 9.7 q 0.356641,1.68418 -0.35,3.2 v 0 q -0.842188,2.166211 -0.4,4.25 v 0 q 0.397461,1.742383 0.4,3 v 0 q 0.04727,1.309766 0,2.25 v 0.05 q -0.0082,0.134375 0,0.25 0.07148,0.272852 0.25,0.45 0.101367,0.13457 0.2,0.2 0.189258,0.103125 0.35,0.1 0.08164,0.04785 0.15,0.05 0.134375,0.008 0.25,-0.05 0.06055,0.0168 0.1,0 0.715625,-0.153516 1.15,-0.2 0.07422,1.205078 0.45,2.25 v 0 q 0.331836,0.961328 -0.25,3.6 -1.708203,0.205078 -3.15,-0.2 -2.048242,-0.531445 -4.65,-0.05 -2.169336,0.482031 -3.35,0.4 v 0 q -1.2273437,-0.05137 -3.65,0 v 0 Q 5.0605469,29.3459 2.6,29.15 0.23496094,28.956055 -1.2,28.55 H -1.25 Q -2.9675781,28.158398 -5,28.8 h -0.05 q -1.5457031,0.533789 -3.5,0.4 -2.137305,-0.15 -4.6,-0.3 -2.386914,-0.15 -4.4,-0.3 v 0 q -2.136914,-0.107813 -2.9,0.05 -0.481055,0.12207 -1.65,0.25 -0.0068,-0.969336 0.05,-1.2 0.810938,-0.485547 0.3,-3.85 0.505469,0.107031 0.8,0.1 0.908008,3.91e-4 1.15,-0.45 0.510352,-0.336914 0.35,-1 0.344727,-1.257227 0.15,-3.85 V 18.6 q -0.146484,-2.544727 -0.1,-4.3 v -0.05 q 0.109961,-1.90918 -0.45,-3.95 -0.418164,-1.6892578 -0.05,-3.6 0.506055,-2.2251953 0.4,-4 v 0 q -0.04395,-1.5400391 0.15,-3.7 0.210352,-2.4052734 -0.3,-4.65 V -5.7 q -0.407422,-1.9492187 -0.55,-3.9 -0.146875,-1.848438 0.15,-3.7 0.453125,-2.037305 0.35,-4.1 -0.09688,-1.800977 0.1,-3 0.397852,-1.561328 0.05,-2.4 -0.08262,-0.277539 -0.3,-0.45 -0.10293,-0.105273 -0.25,-0.2 -0.346484,-0.123047 -0.7,0 -0.708008,0.215234 -1.2,0.3 0.06387,-0.952344 0.1,-2 0.08359,-1.116406 -0.05,-3.7 1.357031,0.1 2.9,-0.3 1.892773,-0.406055 3.3,-0.05 v 0 q 1.770898,0.553516 4.7,0.45 2.79375,-0.04941 4.4,0 1.7533203,0.108008 3.3,-0.1 1.5341797,-0.199414 4.05,-0.6 2.3025391,-0.325391 4.35,0.15 2.4380859,0.670898 4.4,0.5 1.888086,-0.15 3.45,-0.3 1.588477,-0.15 3.55,-0.3 1.952148,-0.09141 3.15,0.05 0.999609,0.111328 2.3,0.25 z"
       id="path6"
       inkscape:label="Foreground (Outter)" />
    <path
       fill="#b2b7bb"
       stroke="none"
       d="m 18.4,-23.65 q -0.928906,-0.94668 -3.2,0.15 -1.700195,0.11582 -3.1,-0.3 -1.909961,-0.595312 -4.25,0.1 v 0 q -1.7777344,0.571289 -3.6,0.3 H 4.2 q -1.9626953,-0.250195 -4,-0.55 H 0.15 q -2.0685547,-0.252539 -4.8,-0.3 -2.6482422,-0.0543 -4.55,0.15 -1.900781,0.210742 -2.75,0.4 -0.725781,0.192773 -3.4,0.2 -1.568945,-0.221289 -2.55,-0.1 0.0014,0.01191 -0.05,0 -0.763672,0.151367 -2.55,0.1 -0.379883,-0.01055 -0.7,0.25 -0.282422,0.311328 -0.3,0.7 -0.01094,0.430469 0.25,0.7 0.310547,0.332031 0.7,0.35 2.063281,0.04863 2.95,-0.15 l -0.05,0.05 q 0.412891,-0.04102 0.9,0 -0.431641,2.394531 -0.15,3.55 V -18 q 0.324805,1.157227 0.15,2.8 v 0 q -0.154102,2.057031 0.15,3.85 v 0.05 q 0.335352,1.6123047 0.1,3.65 v 0.1 q -0.0053,0.051367 0,0.1 -0.0035,0.039258 0,0.05 -0.100977,2.5492188 -0.1,2.8 -3.91e-4,0.3050781 0.05,3.05 0.04922,2.79375 0,4.4 V 2.9 q 0,1.7 0,3.7 v 0 q 0.04922,2.0509766 0,4.25 -0.05019,2.289258 -0.05,3.95 -7.81e-4,1.672461 0.1,3.7 v 0 q 0.109766,1.486523 0.05,2.95 -1.209375,-1.95e-4 -2.05,0 -1.12793,-7.81e-4 -2.05,0.05 -0.417188,0.01973 -0.7,0.3 -0.275,0.335937 -0.25,0.75 0.01953,0.417578 0.3,0.7 0.335547,0.274609 0.75,0.25 0.877734,-0.04922 1.95,-0.05 1.119727,1.95e-4 2.9,0.05 h 0.15 q 2.121094,-0.05 3.95,-0.05 1.8146484,-0.0047 3.7,0.3 2.1730469,0.409375 4.35,0.15 2.0236328,-0.247461 3.9,-0.3 1.9375,0.0074 3.85,0.3 L 4.25,23.85 q 2.3568359,0.429297 4.55,-0.5 v 0 q 1.341602,-0.482617 2,-0.15 1.193164,1.015625 4.65,0.3 1.286328,0.25332 2.7,-0.2 0.968555,-0.288086 1.95,0.1 0.400195,0.183984 0.75,0 0.412695,-0.139648 0.55,-0.55 0.18418,-0.35 0,-0.75 -0.139844,-0.362305 -0.55,-0.55 -1.668555,-0.661914 -3.3,-0.15 -0.522266,0.166406 -1,0.2 -0.04648,-0.981445 -0.35,-2.05 v 0.05 q -0.26875,-1.170313 -0.05,-2.6 0.260352,-1.680469 0.15,-4.2 -0.09883,-2.310352 -0.05,-4.35 0.05195,-1.9144531 0.3,-3.95 0.321484,-2.2441406 0,-4.3 -0.248242,-1.8113281 -0.45,-3.5 v -0.05 q -0.126758,-1.5107422 0.35,-3.85 0.04902,-0.1253906 0.05,-0.3 0.579492,-2.991406 0.6,-3.85 0.0025,-0.0098 0,-0.05 0.05117,-0.773242 0.05,-3.35 5.86e-4,-2.743359 -0.4,-4.35 -0.245508,-1.152148 -0.25,-2.75 0.489844,-0.220508 0.7,-0.2 0.797656,0.741211 3.35,0.55 0.432031,-0.0334 0.7,-0.35 0.275781,-0.313672 0.25,-0.75 -0.03301,-0.382617 -0.35,-0.65 -0.313281,-0.275586 -0.75,-0.25 -1.501758,0.108984 -2,-0.15 m -6.9,1.75 q 1.373633,0.423242 3,0.4 0.03672,1.65625 0.3,2.85 0.349414,1.443164 0.35,3.9 -0.0014,2.591602 -0.05,3.25 -0.0014,0.06289 0,0.1 -0.0064,0.635937 -0.45,3.05 -1.625195,0.3476562 -2.25,0.2 h 0.05 q -0.626953,-0.2306641 -1.8,-0.3 0.156445,-1.3365234 -0.05,-2.1 v 0.05 q -0.107422,-0.824023 -0.15,-2.85 v -0.05 q 3.91e-4,-2.093164 0.05,-4.1 0.0207,-0.279102 -0.15,-0.55 -0.05703,-0.08281 -0.15,-0.15 l -0.05,-0.05 Q 9.9285156,-18.470508 9.6,-18.5 6.3818359,-19.186719 4.95,-18.85 H 4.9 q -1.1398437,0.351172 -3.05,0.45 H 1.8 q -1.88222656,0.142578 -3.1,0.05 -1.1978516,-0.101758 -3.75,-0.1 -2.4498047,-1.95e-4 -4.4,-0.05 H -9.5 q -0.036523,-0.0027 -0.1,0 -0.061523,0.01 -0.15,0 -0.2390625,0.07832 -0.45,0.25 -0.259375,0.276953 -0.3,0.6 1.95e-4,0.07559 0,0.1 -0.0021,0.07461 0,0.1 0.007,0.09922 0,0.15 0.03242,0.05586 0.05,0.05 v 0.05 q 0.429492,1.843945 0.6,2.65 v 0.05 q 0.2441406,0.832812 0.25,2.45 v 0 q 0.022266,1.349414 -0.5,3.15 -0.825,-0.2755859 -1.65,-0.15 -0.02227,0.011914 -0.05,0 -0.753711,0.1695312 -2.6,0.4 0.06016,-1.669141 -0.25,-3.05 -0.242773,-1.55957 -0.1,-3.3 v -0.05 q 0.222852,-2.016211 -0.2,-3.45 -0.161328,-0.984961 0.25,-3 2.510156,-0.02793 3.25,-0.25 0.750781,-0.160742 2.45,-0.35 1.7982422,-0.195898 4.3,-0.15 2.6025391,0.05195 4.6,0.3 2.0501953,0.298438 4.05,0.55 v 0 q 2.2898438,0.324609 4.5,-0.4 H 8.4 q 1.709961,-0.504687 3.1,-0.1 m -6.1,5 q 1.0107422,-0.171289 3.05,0.2 -1.953e-4,1.632813 0,3.35 v 0 q 0.058008,2.279102 0.2,3.2 v 0.05 q 0.1179688,0.5128906 0,1.35 Q 6.5058594,-9.25625 4.95,-8.9 3.4451172,-8.5253906 1.6,-8.8 H 1.55 q -2.09453125,-0.2648438 -4.45,0 -2.3439453,0.271875 -2.85,0.45 v 0 q -0.2789063,0.069531 -2.4,-0.1 0.6003906,-2.055273 0.55,-3.6 v -0.05 q 0.00391,-1.939063 -0.3,-2.95 V -15 q -0.1017578,-0.513281 -0.35,-1.5 1.4814453,0.05019 3.2,0.05 2.4478516,0.0018 3.6,0.1 1.33203125,0.107422 3.4,-0.05 2.1972656,-0.10332 3.5,-0.5 H 5.4 m 3.8,10.35 q 0.1394531,0.048633 0.3,0.05 h 0.05 q 1.51543,-0.00234 2.2,0.2 v 0.05 q 0.74375,0.309375 2.5,0 -0.270117,1.8371094 -0.15,3.15 v 0 q 0.199805,1.7246094 0.45,3.55 V 0.5 q 0.276563,1.7574219 0,3.7 v 0 q -0.252344,2.1761719 -0.3,4.2 -0.05137,2.110156 0.05,4.5 0.08945,2.280078 -0.15,3.8 -0.28125,1.870117 0.1,3.4 h 0.05 q 0.223047,0.825586 0.2,1.55 Q 12.675586,21.973242 12,21.6 L 11.95,21.55 Q 10.662695,20.530664 8.1,21.5 H 8.05 Q 6.3929687,22.220703 4.6,21.9 v 0 Q 2.525,21.594336 0.45,21.6 H 0.4 q -1.9740234,0.04746 -4.1,0.3 -1.8732422,0.24043 -3.75,-0.1 -2.0648438,-0.345508 -4.05,-0.35 -1.3875,-1.95e-4 -2.95,0 0.06523,-1.537891 -0.05,-3.1 -0.09922,-1.933008 -0.1,-3.55 0,-1.639258 0.05,-3.9 0.05059,-2.2511719 0,-4.35 0,-1.9460938 0,-3.65 v 0 q 0.0502,-1.6646484 0,-4.5 -0.0498,-2.7052734 -0.05,-3 7.81e-4,-0.1982422 0.05,-2 2.282227,-0.2945312 3.15,-0.5 l -0.05,0.05 q 0.652148,-0.081055 1.3,0.3 0.05859,0.06875 0.1,0.1 L -10,-6.6 h 0.1 q 0.037305,0.036133 0.05,0.05 0.1515625,0.044141 0.25,0.05 h 0.1 q 4.0089844,0.2662109 4.45,0 l -0.05,0.05 q 0.44375,-0.121875 2.45,-0.35 2.08066406,-0.2337891 3.95,0 v 0 q 2.2652344,0.3228516 4.1,-0.15 1.5078125,-0.2976563 3.8,0.4 z"
       id="path4"
       inkscape:label="Foreground (Inner)" />
  </g>
</svg>
