<?xml version="1.0" encoding="UTF-8" standalone="no"?>
<!-- Created with Inkscape (http://www.inkscape.org/) -->

<svg
   width="128"
   height="64"
   viewBox="0 0 33.866666 16.933333"
   version="1.1"
   id="svg1"
   inkscape:version="1.4 (86a8ad7, 2024-10-11)"
   sodipodi:docname="privy.svg"
   xmlns:inkscape="http://www.inkscape.org/namespaces/inkscape"
   xmlns:sodipodi="http://sodipodi.sourceforge.net/DTD/sodipodi-0.dtd"
   xmlns="http://www.w3.org/2000/svg"
   xmlns:svg="http://www.w3.org/2000/svg">
  <sodipodi:namedview
     id="namedview1"
     pagecolor="#ffffff"
     bordercolor="#000000"
     borderopacity="0.25"
     inkscape:showpageshadow="2"
     inkscape:pageopacity="0.0"
     inkscape:pagecheckerboard="true"
     inkscape:deskcolor="#d1d1d1"
     inkscape:document-units="px"
     showgrid="true"
     inkscape:zoom="24.921874"
     inkscape:cx="51.360504"
     inkscape:cy="33.725393"
     inkscape:window-width="2560"
     inkscape:window-height="1494"
     inkscape:window-x="-11"
     inkscape:window-y="-11"
     inkscape:window-maximized="1"
     inkscape:current-layer="g649">
    <inkscape:grid
       id="grid1"
       units="px"
       originx="0"
       originy="0"
       spacingx="8.4666662"
       spacingy="8.4666662"
       empcolor="#0099e5"
       empopacity="0.30196078"
       color="#0099e5"
       opacity="0.14901961"
       empspacing="5"
       enabled="true"
       visible="true" />
  </sodipodi:namedview>
  <defs
     id="defs1" />
  <g
     transform="matrix(0.26458333,0,0,0.26458333,15.610468,8.4665135)"
     id="g649"
     inkscape:label="Privy">
    <path
       style="display:inline;fill:#ffffff"
       d="m -35.000195,-17.499422 v 35 h 80 v -35 z"
       id="path6"
       sodipodi:nodetypes="ccccc"
       inkscape:label="Background" />
    <path
       style="display:inline;fill:#b2b7bb;fill-opacity:1"
       d="m 4.9998048,-14.999421 c 4.1333332,0 7.6507802,1.465103 10.5507812,4.398437 2.966666,2.933333 4.449219,6.4682285 4.449219,10.60156173772 C 19.999805,4.1339111 18.517252,7.6668546 15.550586,10.600188 c -2.900001,2.933333 -6.417448,4.40039 -10.5507812,4.40039 -4.13333327,0 -7.6837239,-1.467057 -10.6503906,-4.40039 C -8.5505857,7.6668546 -10.000195,4.1339111 -10.000195,5.7773772e-4 -10.000195,-4.1327555 -8.5505857,-7.667651 -5.6505858,-10.600984 c 2.9666667,-2.933334 6.51705733,-4.398437 10.6503906,-4.398437 z"
       id="path10"
       sodipodi:nodetypes="scscscscs"
       inkscape:label="Background (Hole)" />
    <path
       fill="#d1d7db"
       stroke="none"
       d="m 44.173952,10.8 c 0.239323,-0.144141 0.372656,-0.360807 0.4,-0.65 0.07005,-0.2557292 0.02005,-0.5057292 -0.15,-0.75 -0.144271,-0.2058594 -0.360937,-0.3391927 -0.65,-0.4 -1.479037,-0.2523437 -1.767233,-0.3356771 -2.254863,-0.25 -0.03242,0.0069 -0.06575,0.0069 -0.1,0 -0.374089,0.1029948 -1.307422,0.1863281 -2.8,0.25 -0.26875,0.0125 -0.502083,0.1125 -0.7,0.3 -0.174479,0.2226563 -0.257813,0.4726563 -0.25,0.75 0.01237,0.26875 0.112367,0.485417 0.3,0.65 0.222656,0.207552 0.472656,0.307552 0.75,0.3 1.586589,-0.06497 2.619922,-0.148307 3.1,-0.25 0.378776,-0.04779 0.450306,0.01888 1.604863,0.2 0.289193,0.06992 0.539193,0.01992 0.75,-0.15 M -7.7422808,9.0769835 C -8.7808218,9.1092755 -10.92209,8.9656253 -12.350215,9.1 c -1.306641,0.125 -8.706641,0.025 -10.2,-0.3 -1.779557,-0.3535156 -3.362891,-0.3201823 -4.75,0.1 -1.107682,0.3279948 -2.307682,0.4446615 -3.6,0.35 -1.358463,-0.1 -2.708463,-0.1833333 -4.05,-0.25 -0.276432,-0.016146 -0.526432,0.067187 -0.75,0.25 -0.187239,0.1886719 -0.287239,0.4220052 -0.3,0.7 -0.01641,0.276432 0.06693,0.509765 0.25,0.7 0.188672,0.220313 0.422005,0.336979 0.7,0.35 1.32513,0.06667 2.658463,0.15 4,0.25 1.541015,0.105209 2.974349,-0.04479 4.3,-0.45 1.112761,-0.313151 2.379427,-0.329818 3.8,-0.05 1.706511,0.37487 9.306511,0.491537 10.8,0.35 1.371875,-0.132291 5.4492478,0.01136 6.4440398,-0.02302 z M -35.246248,-0.75 c -0.197135,0.20872396 -0.297135,0.44205729 -0.3,0.7 -0.0068,0.29661459 0.07656,0.54661459 0.25,0.75 0.209115,0.19700521 0.442448,0.29700521 0.7,0.3 2.16875,0.033203 3.18145,-0.11679667 3.946033,-0.45 l -0.05,0.05 c 0.596224,-0.14934896 1.612891,-0.0160156 3.05,0.4 1.932161,0.5460937 3.415495,0.7794271 4.45,0.7 1.066927,-0.063151 4.2,-0.85 4.2,-0.85 v 0 c 0,0 0.776302,-0.43502604 1.9,-0.2 1.485026,0.4050781 1.548828,-1.6550781 0.5,-1.95 h -0.05 c -1.386589,-0.3290365 -1.003255,-0.2623698 -2.85,0.2 h -0.05 c -1.566927,0.46302083 -2.833594,0.7296875 -3.8,0.8 -0.865235,0.0539063 -2.115235,-0.14609373 -3.75,-0.6 -1.997005,-0.5842448 -4.25,-0.4 -4.25,-0.4 v 0 c 0,0 -1.398116,0.33346354 -3.196033,0.3 -0.263672,-0.00651 -0.497005,0.07682 -0.7,0.25 m 0.323149,-9.6 c 0.03281,-0.284505 0.14948,-0.501172 0.35,-0.65 0.238411,-0.19349 0.488411,-0.276823 0.75,-0.25 1.595573,0.195833 3.045573,0.279167 4.35,0.25 1.321354,-0.0319 2.221354,-0.06523 2.7,-0.1 0.492578,-0.06823 5.325911,-0.118229 6.5,-0.15 0.287239,-0.007 0.520573,0.09297 0.7,0.3 0.221615,0.174219 0.338281,0.407552 0.35,0.7 0.0073,0.253515 -0.09271,0.486849 -0.3,0.7 -0.174479,0.188021 -0.407813,0.288021 -0.7,0.3 -1.059375,0.03503 -5.809375,0.08503 -6.25,0.15 -0.02591,8e-4 -0.05925,8e-4 -0.1,0 -0.458724,0.03359 -1.408724,0.06693 -2.85,0.1 -1.395703,0.0375 -2.945703,-0.04583 -4.65,-0.25 -0.250781,-0.03294 -0.467448,-0.149607 -0.65,-0.35 -0.160287,-0.238932 -0.226953,-0.488932 -0.2,-0.75 M 21.149259,1.3009404 C 23.08142,1.8470341 27.734584,1.7794271 28.769089,1.7 c 1.066927,-0.063151 4.2,-0.85 4.2,-0.85 v 0 c 0,0 2.776302,-0.43502604 3.9,-0.2 1.485026,0.4050781 2.501693,0.5217448 3.05,0.35 0.446354,-0.0643229 1.598438,-0.0643229 4.052084,0 0.296094,0.0069 0.546094,-0.0930987 0.75,-0.3 0.196745,-0.17460937 0.296745,-0.40794271 0.3,-0.7 0.007,-0.26236979 -0.09297,-0.49570313 -0.3,-0.7 -0.175,-0.19661458 -0.408333,-0.29661458 -0.7,-0.3 -2.713021,-0.06901 -4.015105,-0.052344 -4.502084,0.05 -0.384505,0.0615885 -1.101172,-0.0550781 -2.15,-0.35 h -0.05 c -1.386589,-0.3290365 -3.003255,-0.2623698 -4.85,0.2 h -0.05 c -1.566927,0.46302083 -2.833594,0.7296875 -3.8,0.8 -0.865235,0.0539063 -6.328325,-0.14609373 -7.96309,-0.6 z M 17.886366,-8.5391849 C 19.198606,-8.6709558 25.297995,-8.9984375 26.819089,-9 c 1.477995,-6.511e-4 2.711328,0.099349 3.7,0.3 h 0.05 c 1.229427,0.2785156 2.496094,0.2785156 3.8,0 1.079427,-0.1911459 2.312761,-0.2078125 3.7,-0.05 1.440235,0.1587239 2.423568,0.2920573 2.95,0.4 0.742578,0.2305989 1.278294,0.1792095 2.96905,-0.5513894 0.273828,-0.092969 0.457161,-0.2763021 0.55,-0.55 0.122786,-0.2329428 0.122786,-0.4829428 0,-0.7499996 -0.09284,-0.241406 -0.276172,-0.42474 -0.55,-0.55 -0.232162,-0.08945 -0.482162,-0.08945 -0.75,0 -1.14362,0.503124 -1.279337,0.52118 -1.76905,0.451389 -0.573568,-0.125521 -1.640235,-0.275521 -3.2,-0.45 -1.612891,-0.175521 -3.046224,-0.142187 -4.3,0.1 -1.020963,0.219791 -2.020963,0.219791 -3,0 -1.111328,-0.232682 -2.494661,-0.349349 -4.15,-0.35 -1.602735,-0.0017 -6.745593,0.065 -8.109525,0.2 l -2.818652,0.180564 z M 16.283514,9.9053566 c 0.03281,-0.284505 0.14948,-0.501172 0.35,-0.65 0.238411,-0.19349 0.488411,-0.276823 0.75,-0.25 1.595573,0.195833 3.045573,0.279167 4.35,0.25 1.321354,-0.0319 2.221354,-0.06523 2.7,-0.1 0.492578,-0.06823 5.325911,-0.118229 6.5,-0.15 0.287239,-0.007 0.520573,0.09297 0.7,0.3 0.221615,0.174219 0.338281,0.407552 0.35,0.7000004 0.0073,0.253515 -0.09271,0.486849 -0.3,0.7 -0.174479,0.188021 -0.407813,0.288021 -0.7,0.3 -1.059375,0.03503 -5.809375,0.08503 -6.25,0.15 -0.02591,8e-4 -0.05925,8e-4 -0.1,0 -0.458724,0.03359 -1.408724,0.06693 -2.85,0.1 -1.395703,0.0375 -2.945703,-0.04583 -4.65,-0.25 -0.250781,-0.03294 -0.467448,-0.149607 -0.65,-0.35 -0.160287,-0.238932 -0.226953,-0.488932 -0.2,-0.7500004"
       id="path4"
       inkscape:label="Foreground (Inner)"
       sodipodi:nodetypes="ccccccccccccccccccccccccccccccccccccccsscccccccssccccccccccccccccccccssccccccccccccccccccccccccccccccccccccccccccccccccccc"
       style="display:inline;fill:#b2b7bb;fill-opacity:1" />
    <path
       id="path9"
       style="display:inline;fill:#2a2a2a;fill-opacity:1"
       d="m 40.769109,-19.273578 c -0.470375,-0.0098 -1.176577,0.140686 -1.398224,0.192646 l -1.394981,0.06019 c -0.727995,0.18737 -1.900804,0.0417 -3.372809,-0.079 -1.718359,-0.110156 -7.887143,0.0061 -8.902117,0.349609 -0.756901,0.251041 -3.840235,0.316927 -5.25,0.199219 -1.561068,-0.136719 -3.045573,-0.169659 -4.451172,-0.09961 -1.383073,0.06627 -4.79974,0.167054 -6.2500002,0.300781 -1.3325521,0.127083 -2.6484376,0.127083 -3.9492188,0 H 5.749806 c -1.3165365,-0.10013 -3.8496094,-0.300781 -3.8496094,-0.300781 l -3.9003906,-0.150391 c 0,0 -2.7660156,0.219524 -3.9003906,0.650391 h -0.048828 c -0.8408854,0.346745 -3,0.300781 -3,0.300781 0,0 -4.8074224,-0.267188 -6.5000004,-0.400391 -1.76263,-0.141667 -8.148471,-0.05833 -9.552508,0.25 -1.111068,0.279167 -4.328125,0.261717 -5.65039,-0.05078 -1.4875,-0.333333 -2.871224,-0.482552 -4.150391,-0.449219 h -0.05078 -0.199219 c -0.170573,0.05651 -0.337239,0.155342 -0.5,0.298829 -0.110287,0.135417 -0.19362,0.286588 -0.25,0.451171 v 0.150391 c -8e-4,0.04948 0,0.09961 0,0.09961 l 0.09961,10.9496973 c 0,0 -0.06628,2.6329427 -0.09961,3.8496094 v 0.050781 c -0.0045,1.2213543 -0.120809,2.57213547 -0.349609,4.0507813 -0.205339,1.6423177 -0.288672,3.0240885 -0.25,4.1484374 0.03333,1.1242187 0.08372,2.4091146 0.15039,3.8515626 0.06601,1.448828 0.18229,2.997265 0.34961,4.648437 0.154167,1.528515 0.187107,2.629297 0.09961,3.300782 -0.03568,0.283854 0.03021,0.533853 0.199219,0.749999 l 0.05078,0.09961 c 0.177865,0.163802 0.377474,0.264583 0.599609,0.300781 0.188542,0.02305 0.355209,0.0056 0.5,-0.05078 2.665495,-0.557031 4.233333,-0.789584 4.701172,-0.699219 0.634505,0.247656 4.798828,0.150391 4.798828,0.150391 0,0 7.176987,-0.0082 8.802508,0.25 1.939323,0.342448 5.489714,0.441276 6.6503912,0.298828 1.0954426,-0.128385 2.2621093,-0.161329 3.5,-0.09961 1.2828124,0.06706 2.5328123,0.167839 3.7499999,0.300782 1.32434902,0.139713 2.65768227,0.139713 4,0 1.3423177,-0.09948 2.7260416,-0.200261 4.1503906,-0.300782 1.4157552,-0.06615 2.7820312,-0.116537 4.0996094,-0.15039 1.2822919,0.0092 6.1992179,0.550781 6.1992179,0.550781 0,0 3.420964,0.58138 4.851563,0.400391 1.376823,-0.133333 4.558984,-0.267058 5.548828,-0.400391 0.917448,-0.117318 6.787795,-0.05143 8.00368,0.199219 h 0.04883 c 1.561328,0.35612 5.01289,0.340629 6.351562,-0.04883 1.146485,-0.29362 2.396485,-0.427344 3.75,-0.400391 h 0.04883 c 0.272005,0.0065 0.50651,-0.09425 0.701171,-0.300781 0.191146,-0.178515 0.289975,-0.411068 0.298829,-0.699219 v -0.05078 c 0.03854,-3.021224 -0.110679,-4.738282 -0.449219,-5.150391 -0.0081,0.0014 -0.02552,-0.0141 -0.05078,-0.04883 -0.09141,-0.252474 -0.124349,-1.035416 -0.09961,-2.349609 0.02877,-1.528646 0.14505,-2.9453128 0.34961,-4.2500001 0.264844,-1.3834635 0.38112,-2.7846353 0.349609,-4.2011718 -0.03321,-1.30898443 -0.06615,-2.6752603 -0.09961,-4.0996094 v -0.050781 c -0.0023,-1.4341146 -0.136059,-2.75 -0.400392,-3.9492187 -0.757976,-4.641274 0.617475,-6.332591 0.400391,-10.750478 0.0025,-0.05078 0.0025,-0.101171 0,-0.150391 -0.0077,-0.165755 -0.05807,-0.314974 -0.150391,-0.449219 -0.03451,-0.0905 -0.100392,-0.173828 -0.199219,-0.25 -0.105078,-0.107682 -0.253604,-0.193336 -0.40039,-0.25 -1.35348,-0.522484 -2.832697,-0.743169 -4.283208,-0.77344 z m 0.154297,2.011719 c 0.667774,0.03891 1.626953,0.225879 2.878907,0.560547 0.190414,3.563219 -1.19377,5.56498 -0.34961,10.4008683 v 0.050781 c 0.234765,1.0738281 0.34961,3.5996093 0.34961,3.5996093 0,0 0.06614,2.83372387 0.09961,4.1503906 0.03503,1.2833333 -0.0638,2.5488281 -0.298828,3.7988281 -0.228776,1.3953125 -0.3625,2.912761 -0.400391,4.550782 -0.04167,1.9645827 0.107552,3.1486977 0.449219,3.5507807 0.107161,0.335156 0.157552,1.368098 0.150391,3.099609 -1.173698,0.03958 -2.272527,0.188799 -3.298829,0.449219 h -0.05078 c -1.030469,0.306511 -5.40039,0.05078 -5.40039,0.05078 0,0 -7.593134,-0.398698 -8.702899,-0.25 -0.976823,0.133203 -4.143489,0.266928 -5.5,0.400391 h -0.04883 c -1.213021,0.149739 -2.596745,0.03151 -4.150391,-0.351563 -1.697526,-0.403515 -5.247916,-0.603124 -6.6503902,-0.599609 h -0.050781 c -1.3247396,0.0332 -2.7065105,0.08359 -4.1484375,0.150391 h -0.050781 c -1.4167969,0.1 -4.1503906,0.300781 -4.1503906,0.300781 0,0 -2.44947919,0.126041 -3.6503906,0 -1.2496094,-0.133854 -2.5325522,-0.234635 -3.8496094,-0.300781 -1.3622394,-0.07162 -2.645182,-0.03867 -3.8496093,0.09961 -1.0059914,0.124089 -4.3567704,0.04076 -6.0507814,-0.25 -1.861459,-0.30638 -8.17946,-0.405208 -9.351335,-0.298828 h -0.05078 c -0.838411,0.113281 -3.472135,0.09583 -3.90039,-0.05078 -0.01823,0.0079 -0.03372,0.0079 -0.04883,0 -0.509505,-0.208854 -2.042449,-0.07513 -4.59961,0.40039 -0.0021,-0.649479 -0.05246,-1.449869 -0.15039,-2.40039 -0.166015,-1.615495 -0.282292,-3.132943 -0.34961,-4.5507817 -0.06667,-1.424219 -0.117057,-2.6897135 -0.15039,-3.7988281 -0.02813,-1.0424479 0.05521,-2.3253906 0.25,-3.8496093 0.236328,-1.55143233 0.272709,-2.8645159 0.349609,-4.3007813 0.06863,-1.2817967 0.0894,-2.5660173 0.09961,-3.8496093 0.02652,-3.3335527 -0.152538,-4.9736303 -0.09961,-10.0004783 0.854297,0.05951 1.753516,0.193231 2.699219,0.400391 1.644271,0.38737 5.161718,0.402861 6.550781,0.04883 1.229297,-0.258463 7.415528,-0.324349 8.952898,-0.199219 1.674089,0.133333 5.156638,0.267058 6.4492188,0.400391 1.513672,0.183985 3.9511718,-0.451172 3.9511718,-0.451172 0,0 1.9742187,-0.5 3.1484375,-0.5 h 0.050781 c 1.31562509,0.03373 2.58307282,0.08412 3.8007813,0.150391 1.2255208,0.100651 2.4910156,0.201432 3.7988281,0.300781 1.4410156,0.138672 2.8906249,0.138672 4.3496093,0 1.4162762,-0.132943 4.7999992,-0.233724 6.1503902,-0.300781 1.327474,-0.06341 2.728646,-0.03047 4.201172,0.09961 1.756771,0.148958 5.105599,0.05013 6.048828,-0.298828 0.818099,-0.256641 6.721388,-0.339974 8.103289,-0.25 1.761328,0.145833 3.966078,-0.10304 5.949219,-0.150391 0.173822,-0.0042 0.361604,0.05662 0.521482,-0.01172 z m -34.6736012,1.786158 c -0.1912979,0.0047 -0.3829135,0.01414 -0.5761719,0.02734 -1.4034,0.09987 -2.5526187,0.200648 -3.4492187,0.300781 -0.86,0.10638 -2.1274478,0.305989 -3.8007812,0.599609 -1.8416667,0.39596 -3.2583333,1.14596 -4.25,2.250001 -0.9263333,1.05716 -1.7092761,2.239321 -2.3496094,3.5488282 -0.638,1.3332 -1.0876093,2.6510385 -1.3496093,3.9511718 -0.203,1.1654933 -0.5712283,2.2992173 -1.1015623,3.4003906 l -0.04883,0.048828 c -0.604066,1.40051994 -0.704849,3.0671867 -0.300782,5 0.417733,1.9072933 1.0340098,3.3917981 1.8496098,4.451172 0.8166667,1.116013 1.6848957,1.9493464 2.6015624,2.4999994 0.8079333,0.481513 1.7730375,1.231513 2.8984375,2.25 h 0.050781 c 1.3652667,1.186327 2.61526661,1.918879 3.74999995,2.199219 1.13293315,0.328386 2.49920935,0.560938 4.09960935,0.699218 1.7258,0.177867 3.3420759,-0.08763 4.8496093,-0.798828 1.3352677,-0.595833 2.3856577,-0.997005 3.1503907,-1.201172 0.917867,-0.20508 2.069038,-0.770965 3.451172,-1.699218 v 0.05078 c 1.5556,-0.98802 2.472266,-2.4550764 2.75,-4.4003904 h -0.05078 c 0.253534,-1.4075527 0.803923,-2.558725 1.65039,-3.4511716 1.271067,-1.3003934 1.637344,-2.7829454 1.09961,-4.44921876 -0.1418,-1.95430014 -0.308466,-3.25469074 -0.5,-3.90039054 v 0.050781 c -0.114466,-0.70612 -0.564077,-1.7235679 -1.34961,-3.0507812 -0.632133,-1.1346334 -1.232915,-2.3167948 -1.800781,-3.5488285 -0.636334,-1.542447 -1.770056,-2.577342 -3.40039,-3.101562 h -0.04883 c -3.906907,-0.876054 -3.885615,-1.573117 -7.8242162,-1.726558 z m 1.2732514,1.893096 c 0.618601,0.03729 1.3920578,0.348395 2.0001861,0.534638 1.3499997,0.400002 2.6833327,0.799219 3.9999997,1.199219 1.036333,0.342447 1.753391,1.009114 2.150391,2.0000008 0.598667,1.3011733 1.23239,2.5511733 1.90039,3.75 0.647667,1.0726533 1.031391,1.8904918 1.150391,2.4511718 v 0.048828 c 0.1712,0.6067733 0.320419,1.8238306 0.449219,3.65039054 0.0067,0.1014334 0.02411,0.1847667 0.05078,0.25 0.331933,0.96549346 0.130372,1.81627466 -0.601562,2.55078136 -1.120066,1.17422 -1.835172,2.6897149 -2.148438,4.548828 -0.188934,1.321353 -0.807162,2.321353 -1.851562,2.9999995 -1.1396,0.763933 -2.08921,1.230991 -2.84961,1.400391 -0.8354,0.229166 -1.9846191,0.678776 -3.4492185,1.349609 h -0.050781 c -1.185,0.551953 -2.4504948,0.751563 -3.7988281,0.599609 h -0.050781 c -1.4388,-0.129946 -2.671352,-0.34505 -3.69921871,-0.648437 -0.90779986,-0.227733 -1.90779979,-0.811067 -2.99999999,-1.75 -1.2412666,-1.114973 -2.3091052,-1.9328115 -3.2011718,-2.4511715 -0.7168,-0.449347 -1.3989615,-1.116013 -2.0488281,-1.9999999 -0.6510667,-0.8738267 -1.1510667,-2.090884 -1.5,-3.6503906 -0.2959334,-1.46732 -0.2300479,-2.73281486 0.1992187,-3.79882816 0.6028667,-1.26549344 1.0195334,-2.56588404 1.25,-3.90039054 0.2378667,-1.1248667 0.6370853,-2.2585906 1.1992187,-3.4003906 0.5596666,-1.1488267 1.2437813,-2.1817697 2.0507813,-3.0996097 0.7416667,-0.795967 1.7920571,-1.346357 3.1503906,-1.650391 1.59753327,-0.27344 2.8145906,-0.455601 3.6503906,-0.548828 0.8700667,-0.1 1.9863426,-0.200781 3.3496093,-0.300781 1.3449808,-0.281915 0.4875491,-0.207279 1.6990332,-0.134248 z"
       inkscape:label="Foreground (Outter)"
       sodipodi:nodetypes="cccccccccccccccccccccccccccccccccccccccccccccccccccccccccccscccccccccaaccccccccccccccccccccccccccccccccccccaaccccscccccccccaacccccccccccccccccccccccccccccccccccccccccccccccccccccccccccsccc" />
  </g>
</svg>
