<?xml version="1.0" encoding="UTF-8" standalone="no"?>
<!-- Created with Inkscape (http://www.inkscape.org/) -->

<svg
   width="64"
   height="64"
   viewBox="0 0 16.933333 16.933333"
   version="1.1"
   id="svg1"
   inkscape:version="1.4 (86a8ad7, 2024-10-11)"
   sodipodi:docname="table_small.svg"
   xmlns:inkscape="http://www.inkscape.org/namespaces/inkscape"
   xmlns:sodipodi="http://sodipodi.sourceforge.net/DTD/sodipodi-0.dtd"
   xmlns="http://www.w3.org/2000/svg"
   xmlns:svg="http://www.w3.org/2000/svg">
  <sodipodi:namedview
     id="namedview1"
     pagecolor="#ffffff"
     bordercolor="#000000"
     borderopacity="0.25"
     inkscape:showpageshadow="2"
     inkscape:pageopacity="0.0"
     inkscape:pagecheckerboard="true"
     inkscape:deskcolor="#d1d1d1"
     inkscape:document-units="px"
     showgrid="true"
     inkscape:zoom="12.460937"
     inkscape:cx="30.174295"
     inkscape:cy="40.968025"
     inkscape:window-width="2560"
     inkscape:window-height="1494"
     inkscape:window-x="-11"
     inkscape:window-y="-11"
     inkscape:window-maximized="1"
     inkscape:current-layer="svg1">
    <inkscape:grid
       id="grid1"
       units="px"
       originx="0"
       originy="0"
       spacingx="8.4666662"
       spacingy="8.4666662"
       empcolor="#0099e5"
       empopacity="0.30196078"
       color="#0099e5"
       opacity="0.14901961"
       empspacing="5"
       enabled="true"
       visible="true" />
  </sodipodi:namedview>
  <defs
     id="defs1" />
  <g
     transform="matrix(0.26458333,0,0,0.26458333,8.5333637,8.472654)"
     id="g649"
     inkscape:label="Table (Small)">
    <path
       id="path1"
       inkscape:label="Background"
       d="m -30.000131,-19.999192 v 39.999999 h 60 v -39.999999 z"
       style="fill:#ffffff;fill-opacity:1"
       sodipodi:nodetypes="ccccc" />
    <path
       fill="#d1d7db"
       stroke="none"
       d="m 29.854863,10.8 c 0.239323,-0.144141 0.372656,-0.360807 0.4,-0.65 0.07005,-0.2557292 0.02005,-0.5057292 -0.15,-0.75 C 29.960592,9.1941406 29.743926,9.0608073 29.454863,9 27.975826,8.7476563 27.68763,8.6643229 27.2,8.75 c -0.03242,0.0069 -0.06575,0.0069 -0.1,0 -0.374089,0.1029948 -1.307422,0.1863281 -2.8,0.25 -0.26875,0.0125 -0.502083,0.1125 -0.7,0.3 -0.174479,0.2226563 -0.257813,0.4726563 -0.25,0.75 0.01237,0.26875 0.112367,0.485417 0.3,0.65 0.222656,0.207552 0.472656,0.307552 0.75,0.3 1.586589,-0.06497 2.619922,-0.148307 3.1,-0.25 0.378776,-0.04779 0.450306,0.01888 1.604863,0.2 0.289193,0.06992 0.539193,0.01992 0.75,-0.15 M -9.6,10.85 c 1.1184896,-0.02969 2.4351563,-0.16302 3.95,-0.4 1.4259115,-0.19375 2.7425781,-0.277083 3.95,-0.25 v 0 c 1.26184896,0.06836 2.64518229,0.185026 4.15,0.35 1.4320313,0.179687 2.3486979,0.329687 2.75,0.45 H 5.15 c 0.5614583,0.308463 1.6947917,0.291797 3.4,-0.05 0.2907552,-0.02839 0.5074219,-0.16172 0.65,-0.4 C 9.3703125,10.337761 9.4203125,10.087761 9.35,9.8 9.321875,9.5429687 9.1885417,9.3263021 8.95,9.15 8.7373698,9.0132813 8.4873698,8.9632813 8.2,9 7.0704427,9.2251302 6.3204427,9.2751302 5.95,9.15 H 5.9 C 5.4371094,8.9710937 4.3537761,8.7710937 2.65,8.55 v 0 C 1.0981771,8.3825521 -0.31848958,8.2658854 -1.6,8.2 h -0.05 c -1.2955729,-0.038281 -2.7289063,0.045052 -4.3,0.25 v 0 c -1.4184896,0.2380209 -2.6518229,0.3713542 -3.7,0.4 -1.038541,0.032292 -2.271875,0.1156253 -3.7,0.25 -1.306641,0.125 -2.706641,0.025 -4.2,-0.3 -1.779557,-0.3535156 -3.362891,-0.3201823 -4.75,0.1 -1.107682,0.3279948 -2.307682,0.4446615 -3.6,0.35 -1.358463,-0.1 -2.708463,-0.1833333 -4.05,-0.25 -0.276432,-0.016146 -0.526432,0.067187 -0.75,0.25 -0.187239,0.1886719 -0.287239,0.4220052 -0.3,0.7 -0.01641,0.276432 0.06693,0.509765 0.25,0.7 0.188672,0.220313 0.422005,0.336979 0.7,0.35 1.32513,0.06667 2.658463,0.15 4,0.25 1.541015,0.105209 2.974349,-0.04479 4.3,-0.45 1.112761,-0.313151 2.379427,-0.329818 3.8,-0.05 1.706511,0.37487 3.306511,0.491537 4.8,0.35 1.371875,-0.132291 2.555208,-0.215625 3.55,-0.25 m -20.646033,-11.6 c -0.197135,0.20872396 -0.297135,0.44205729 -0.3,0.7 -0.0068,0.29661459 0.07656,0.54661459 0.25,0.75 0.209115,0.19700521 0.442448,0.29700521 0.7,0.3 2.16875,0.033203 3.18145,-0.11679667 3.946033,-0.45 L -25.7,0.6 c 0.596224,-0.14934896 1.612891,-0.0160156 3.05,0.4 1.932161,0.5460937 3.415495,0.7794271 4.45,0.7 1.066927,-0.063151 2.466927,-0.3464847 4.2,-0.85 v 0 c 1.476302,-0.36835937 2.776302,-0.43502604 3.9,-0.2 1.4850261,0.4050781 2.5016927,0.5217448 3.05,0.35 0.4207031,-0.0608073 1.1373698,-0.0608073 2.15,0 0.2755209,0.016537 0.5088542,-0.0667967 0.7,-0.25 0.2201823,-0.18789063 0.3368489,-0.42122396 0.35,-0.7 0.016797,-0.27552083 -0.066537,-0.52552083 -0.25,-0.75 -0.1878906,-0.18658854 -0.4212239,-0.28658854 -0.7,-0.3 -1.2540365,-0.072656 -2.1373698,-0.05599 -2.65,0.05 -0.3845052,0.0615885 -1.1011719,-0.0550781 -2.15,-0.35 h -0.05 c -1.386589,-0.3290365 -3.003255,-0.2623698 -4.85,0.2 h -0.05 c -1.566927,0.46302083 -2.833594,0.7296875 -3.8,0.8 -0.865235,0.0539063 -2.115235,-0.14609373 -3.75,-0.6 -1.997005,-0.5842448 -3.413672,-0.7175781 -4.25,-0.4 v 0 c -0.635417,0.2334635 -1.398116,0.33346354 -3.196033,0.3 -0.263672,-0.00651 -0.497005,0.07682 -0.7,0.25 M -31,-9.9 c 0.03281,0.2845052 0.14948,0.5011719 0.35,0.65 0.238411,0.1934896 0.488411,0.2768229 0.75,0.25 1.595573,-0.1958333 3.045573,-0.2791667 4.35,-0.25 1.321354,0.031901 2.221354,0.065235 2.7,0.1 0.492578,0.068229 1.325911,0.1182292 2.5,0.15 0.287239,0.00703 0.520573,-0.092969 0.7,-0.3 0.221615,-0.1742187 0.338281,-0.4075521 0.35,-0.7 0.0073,-0.253515 -0.09271,-0.486849 -0.3,-0.7 -0.174479,-0.188021 -0.407813,-0.288021 -0.7,-0.3 -1.059375,-0.03503 -1.809375,-0.08503 -2.25,-0.15 -0.02591,-8e-4 -0.05925,-8e-4 -0.1,0 -0.458724,-0.03359 -1.408724,-0.06693 -2.85,-0.1 -1.395703,-0.0375 -2.945703,0.04583 -4.65,0.25 -0.250781,0.03294 -0.467448,0.149607 -0.65,0.35 -0.160287,0.238932 -0.226953,0.488932 -0.2,0.75 M 1.95,-0.75 C 1.7528646,-0.54127604 1.6528646,-0.30794271 1.65,-0.05 1.6432291,0.24661459 1.7265625,0.49661459 1.9,0.7 2.1091146,0.89700521 2.3424479,0.99700521 2.6,1 4.76875,1.0332031 6.2354167,0.88320313 7,0.55 L 6.95,0.6 C 7.5462239,0.45065104 8.5628906,0.58398437 10,1 c 1.932161,0.5460937 3.415495,0.7794271 4.45,0.7 1.066927,-0.063151 2.466927,-0.3464847 4.2,-0.85 v 0 c 1.476302,-0.36835937 2.776302,-0.43502604 3.9,-0.2 1.485026,0.4050781 2.501693,0.5217448 3.05,0.35 0.446354,-0.0643229 1.598438,-0.0643229 4.052084,0 0.296094,0.0069 0.546094,-0.0930987 0.75,-0.3 0.196745,-0.17460937 0.296745,-0.40794271 0.3,-0.7 0.007,-0.26236979 -0.09297,-0.49570313 -0.3,-0.7 -0.175,-0.19661458 -0.408333,-0.29661458 -0.7,-0.3 -2.713021,-0.06901 -4.015105,-0.052344 -4.502084,0.05 -0.384505,0.0615885 -1.101172,-0.0550781 -2.15,-0.35 H 23 c -1.386589,-0.3290365 -3.003255,-0.2623698 -4.85,0.2 H 18.1 c -1.566927,0.46302083 -2.833594,0.7296875 -3.8,0.8 -0.865235,0.0539063 -2.115235,-0.14609373 -3.75,-0.6 C 8.5529948,-1.4842448 7.1363281,-1.6175781 6.3,-1.3 v 0 c -0.6354167,0.2334635 -1.8520833,0.33346354 -3.65,0.3 -0.2636719,-0.00651 -0.4970052,0.0768229 -0.7,0.25 M 8.05,-10.8 H 8 c -1.2587239,0.165755 -2.5420573,0.282422 -3.85,0.35 -1.2625,0.06315 -2.6625,0.02982 -4.2,-0.1 -1.4699219,-0.126563 -2.7699219,-0.309896 -3.9,-0.55 -1.3009115,-0.248698 -2.6842448,-0.215365 -4.15,0.1 -0.2516927,0.0806 -0.4516927,0.230599 -0.6,0.45 -0.1462239,0.249739 -0.1962239,0.499739 -0.15,0.75 0.080599,0.2854167 0.2305989,0.5020833 0.45,0.65 0.2492187,0.1460937 0.4992187,0.1794271 0.75,0.1 1.1674479,-0.2513021 2.2674479,-0.2846354 3.3,-0.1 1.2033854,0.2598958 2.5867187,0.4598958 4.15,0.6 1.6292969,0.1367187 3.1126302,0.1700521 4.45,0.1 1.3585937,-0.065755 2.6919271,-0.182422 4,-0.35 1.3122393,-0.1317709 2.728906,-0.1984375 4.25,-0.2 1.477995,-6.511e-4 2.711328,0.099349 3.7,0.3 h 0.05 c 1.229427,0.2785156 2.496094,0.2785156 3.8,0 1.079427,-0.1911459 2.312761,-0.2078125 3.7,-0.05 1.440235,0.1587239 2.423568,0.2920573 2.95,0.4 0.742578,0.2305989 1.278294,0.1792095 2.96905,-0.5513894 0.273828,-0.092969 0.457161,-0.2763021 0.55,-0.55 0.122786,-0.2329428 0.122786,-0.4829428 0,-0.7499996 -0.09284,-0.241406 -0.276172,-0.42474 -0.55,-0.55 -0.232162,-0.08945 -0.482162,-0.08945 -0.75,0 -1.14362,0.503124 -1.279337,0.52118 -1.76905,0.451389 -0.573568,-0.125521 -1.640235,-0.275521 -3.2,-0.45 -1.612891,-0.175521 -3.046224,-0.142187 -4.3,0.1 -1.020963,0.219791 -2.020963,0.219791 -3,0 -1.111328,-0.232682 -2.494661,-0.349349 -4.15,-0.35 -1.602735,-0.0017 -3.086068,0.065 -4.45,0.2 z"
       id="path4"
       inkscape:label="Foreground (Inner)"
       sodipodi:nodetypes="ccccccccccccccccssccccccccccssccsscccccccccccccccccccccccssccscccccccccccssccccccccccccccccccccccccccssccccccccccccccssccccccccccccccccccccccccccccccccc" />
    <path
       fill="#2a2a2a"
       stroke="none"
       d="m 17.7,-21.25 q -1.135352,0.376562 -3.25,0.2 -2.341602,-0.205078 -4.45,-0.1 -2.0746094,0.09941 -4.25,0.3 -1.9988281,0.190625 -3.95,0 H 1.75 q -1.97480469,-0.150195 -3.85,-0.3 v 0 Q -3.9619141,-21.250195 -6,-21.3 v 0 q -2.1984375,0.0037 -3.9,0.65 h -0.05 q -1.261328,0.520117 -3,0.3 v 0 q -1.961133,-0.200195 -4.5,-0.4 -2.643945,-0.2125 -4.75,0.25 -1.666602,0.41875 -3.65,-0.05 -2.23125,-0.5 -4.15,-0.45 h -0.05 -0.2 q -0.255859,0.08477 -0.5,0.3 -0.16543,0.203125 -0.25,0.45 v 0.15 q -0.0012,0.07422 0,0.1 0.04609,3.742578 -0.3,5.1 -0.354492,1.647852 -0.3,3.3 0.05606,1.6921875 0.4,3.75 0.352539,1.9248047 0.3,3.8 -0.05,2.025 -0.1,3.85 v 0.05 q -0.0068,1.8320313 -0.35,4.05 v 0 q -0.308008,2.4634766 -0.25,4.15 0.05,1.6863281 0.15,3.85 0.09902,2.173242 0.35,4.65 0.23125,2.292773 0.1,3.3 -0.05352,0.425781 0.2,0.75 l 0.05,0.1 q 0.266797,0.245703 0.6,0.3 0.282813,0.03457 0.5,-0.05 3.998242,-0.835547 4.7,-0.7 0.951758,0.371484 2.8,0.15 v 0 q 1.561719,-0.137305 4,0.25 2.908984,0.513672 4.65,0.3 1.643164,-0.192578 3.5,-0.1 1.9242187,0.100586 3.75,0.3 1.9865234,0.20957 4,0 2.01347656,-0.149219 4.15,-0.3 2.1236328,-0.09922 4.1,-0.15 1.9234375,0.01387 4.2,0.55 v 0 q 2.704102,0.671484 4.85,0.4 2.065234,-0.2 3.55,-0.4 1.376172,-0.175977 3.2,0.2 h 0.05 q 2.341992,0.53418 4.35,-0.05 1.719727,-0.44043 3.75,-0.4 H 30 q 0.408008,0.0098 0.7,-0.3 Q 30.986719,20.432227 31,20 V 19.95 Q 31.05781,15.418164 30.55,14.8 30.53789,14.8021 30.5,14.75 30.362891,14.371289 30.4,12.4 30.44316,10.107031 30.75,8.15 31.147266,6.0748047 31.1,3.95 31.05019,1.9865234 31,-0.15 V -0.2 q -0.0035,-2.1511719 -0.4,-3.95 -0.251953,-1.5427734 -0.2,-3.8 0.0502,-2.310742 0.15,-4.15 0.09004,-1.795508 0.3,-3.3 0.293555,-1.578516 0.15,-4.5 0.0037,-0.07617 0,-0.15 -0.01152,-0.248633 -0.15,-0.45 -0.05176,-0.135742 -0.2,-0.25 -0.157617,-0.161523 -0.4,-0.25 -3.770117,-1.011719 -5.1,-0.7 H 25.1 q -1.091992,0.281055 -3.3,0.1 -2.577539,-0.165234 -4.1,0.35 m -3.4,2.2 q 2.635156,0.223437 4.05,-0.3 1.227148,-0.384961 3.3,-0.25 2.641992,0.21875 3.95,-0.15 h -0.05 q 0.946094,-0.119336 3.45,0.55 0.11875,2.222266 -0.1,3.5 -0.240039,1.595117 -0.35,3.5 -0.100195,1.860547 -0.15,4.2 -0.04805,2.4925781 0.25,4.2 v 0.05 q 0.352148,1.6107422 0.35,3.6 v 0 q 0.0498,2.175 0.1,4.15 0.05254,1.925 -0.3,3.8 -0.343164,2.0929688 -0.4,4.55 -0.0625,2.946875 0.45,3.55 0.160742,0.502734 0.15,3.1 -1.760547,0.05937 -3.3,0.45 h -0.05 q -1.545703,0.459766 -3.4,0.05 v 0 q -2.235352,-0.473047 -3.9,-0.25 -1.465234,0.199805 -3.5,0.4 H 14.8 Q 12.980469,19.874609 10.65,19.3 8.1037109,18.694727 6,18.7 H 5.95 Q 3.9628906,18.7498 1.8,18.85 H 1.75 Q -0.37519531,19 -2.4,19.15 v 0 q -1.8486328,0.189062 -3.65,0 -1.8744141,-0.200781 -3.85,-0.3 -2.043359,-0.107422 -3.85,0.1 -1.508984,0.186133 -4.05,-0.25 -2.792188,-0.45957 -4.55,-0.3 h -0.05 q -1.257617,0.169922 -1.9,-0.05 -0.02734,0.01191 -0.05,0 -0.764258,-0.313281 -4.6,0.4 -0.0031,-0.974219 -0.15,-2.4 -0.249023,-2.423242 -0.35,-4.55 -0.1,-2.1363281 -0.15,-3.8 -0.04219,-1.5636719 0.25,-3.85 0.354492,-2.3271484 0.35,-4.3 v 0 q 0.05039,-1.8384766 0.1,-3.85 0.04727,-2.075 -0.35,-4.2 -0.30625,-1.892383 -0.35,-3.45 -0.0457,-1.397852 0.25,-2.8 0.35332,-1.290625 0.35,-4.55 1.281445,0.08926 2.7,0.4 2.466406,0.581055 4.55,0.05 1.843945,-0.387695 4.15,-0.2 2.511133,0.2 4.45,0.4 2.270508,0.275977 3.95,-0.45 v 0 q 1.3886719,-0.500195 3.15,-0.5 H -6 q 1.9734375,0.05059 3.8,0.15 1.83828125,0.150977 3.8,0.3 2.1615234,0.208008 4.35,0 2.1244141,-0.199414 4.15,-0.3 1.991211,-0.09512 4.2,0.1 z"
       id="path3"
       inkscape:label="Foreground (Outter)" />
  </g>
</svg>
