<?xml version="1.0" encoding="UTF-8" standalone="no"?>
<!-- Created with Inkscape (http://www.inkscape.org/) -->

<svg
   width="128"
   height="64"
   viewBox="0 0 33.866666 16.933333"
   version="1.1"
   id="svg1"
   inkscape:version="1.4 (86a8ad7, 2024-10-11)"
   sodipodi:docname="table_large.svg"
   xmlns:inkscape="http://www.inkscape.org/namespaces/inkscape"
   xmlns:sodipodi="http://sodipodi.sourceforge.net/DTD/sodipodi-0.dtd"
   xmlns="http://www.w3.org/2000/svg"
   xmlns:svg="http://www.w3.org/2000/svg">
  <sodipodi:namedview
     id="namedview1"
     pagecolor="#ffffff"
     bordercolor="#000000"
     borderopacity="0.25"
     inkscape:showpageshadow="2"
     inkscape:pageopacity="0.0"
     inkscape:pagecheckerboard="true"
     inkscape:deskcolor="#d1d1d1"
     inkscape:document-units="px"
     showgrid="true"
     inkscape:zoom="4.4056065"
     inkscape:cx="12.711076"
     inkscape:cy="36.884819"
     inkscape:window-width="2560"
     inkscape:window-height="1494"
     inkscape:window-x="5749"
     inkscape:window-y="-11"
     inkscape:window-maximized="1"
     inkscape:current-layer="svg1">
    <inkscape:grid
       id="grid1"
       units="px"
       originx="0"
       originy="0"
       spacingx="8.4666662"
       spacingy="8.4666662"
       empcolor="#0099e5"
       empopacity="0.30196078"
       color="#0099e5"
       opacity="0.14901961"
       empspacing="5"
       enabled="true"
       visible="true" />
  </sodipodi:namedview>
  <defs
     id="defs1" />
  <g
     transform="matrix(0.26458333,0,0,0.26458333,8.4667177,8.4665135)"
     id="g649"
     inkscape:label="Table (Large)">
    <path
       id="path1"
       inkscape:label="Background"
       d="m -30.000084,-19.999192 -4.7e-5,39.999999 H 93.999806 v -39.999999 z"
       style="fill:#ffffff;fill-opacity:1"
       sodipodi:nodetypes="ccccc" />
    <path
       id="path2"
       style="fill:#b2b7bb;fill-opacity:1"
       inkscape:label="Foreground (Inner)"
       d="m 34.050587,-8.9818435 c 1.3511,-0.054036 2.690366,-0.15 4.048829,-0.25 1.292318,-0.094661 2.491927,0.021615 3.599609,0.3496093 1.387109,0.4201823 2.970443,0.453125 4.75,0.099609 1.493359,-0.325 2.894531,-0.4238281 4.201172,-0.2988281 1.428125,0.1343747 2.660677,0.217708 3.699218,0.25 1.048177,0.028646 2.282682,0.1623697 3.701172,0.4003906 1.571094,0.204948 3.003255,0.288281 4.298828,0.25 h 0.05078 c 1.281511,-0.065885 2.698177,-0.1841146 4.25,-0.3515625 1.703776,-0.2210937 2.787109,-0.4207031 3.25,-0.5996094 h 0.04883 c 0.370443,-0.1251302 1.120443,-0.07474 2.25,0.1503907 0.28737,0.036719 0.53737,-0.013672 0.75,-0.1503907 0.238542,-0.1763021 0.37226,-0.3933593 0.40039,-0.6503906 0.07031,-0.2877608 0.01992,-0.5377608 -0.15039,-0.7499998 -0.142578,-0.23828 -0.357683,-0.370047 -0.648438,-0.398437 -1.705208,-0.341797 -2.838932,-0.359245 -3.40039,-0.05078 h 0.04883 c -0.401302,0.120313 -1.317969,0.269532 -2.75,0.449219 -1.504818,0.164974 -2.886589,0.283203 -4.148438,0.351563 -1.207422,0.02708 -2.52526,-0.05625 -3.951172,-0.25 -1.514844,-0.23698 -2.830728,-0.370701 -3.949218,-0.400391 -0.994792,-0.03438 -2.178906,-0.117709 -3.550781,-0.25 -1.493489,-0.141537 -3.092318,-0.02526 -4.798829,0.349609 -1.420573,0.279818 -2.68802,0.26237 -3.800781,-0.05078 -0.994238,-0.303907 -2.048682,-0.463672 -3.164062,-0.480469 -0.371794,-0.0056 -0.751465,0.0049 -1.136719,0.03125 -1.341537,0.1 -2.66602,0.177753 -4,0.25 -1.675736,0.09076 -3.369382,-0.01653 -5.029297,0.230469 -0.602085,0.08959 -1.279818,0.520963 -1.769531,0.451172 -0.573568,-0.125521 -1.641407,-0.27474 -3.201172,-0.449219 -1.612891,-0.175521 -3.045052,-0.142577 -4.298828,0.09961 -1.020963,0.219791 -2.020963,0.219791 -3,0 -1.111328,-0.232682 -2.495052,-0.348959 -4.150391,-0.34961 -1.602735,-0.0017 -3.0852863,0.06422 -4.4492183,0.199219 h -0.050781 c -1.2587239,0.165755 -2.5416666,0.282031 -3.8496093,0.349609 -1.2625,0.06315 -2.6636719,0.03021 -4.20117186,-0.09961 -1.46992194,-0.126563 -2.76835934,-0.308724 -3.89843744,-0.548828 -0.6504558,-0.124349 -1.3220052,-0.178776 -2.0136719,-0.162109 -0.6916667,0.01667 -1.4038411,0.104036 -2.1367187,0.261718 -0.2516927,0.0806 -0.4513021,0.229818 -0.5996094,0.449219 -0.1462239,0.249739 -0.1966145,0.499739 -0.1503906,0.7499997 0.080599,0.2854167 0.2298176,0.5024739 0.4492187,0.6503906 0.2492187,0.1460937 0.4992187,0.1790365 0.75,0.099609 1.1674479,-0.2513021 2.2682291,-0.2842448 3.3007812,-0.099609 1.2033854,0.2598958 2.5871093,0.4595052 4.15039064,0.5996094 1.62929686,0.1367187 3.11184896,0.1696615 4.44921876,0.099609 1.3585937,-0.065755 2.691927,-0.1820314 3.9999999,-0.3496094 1.3122393,-0.1317709 2.7289053,-0.1976563 4.2499993,-0.1992188 1.477995,-6.511e-4 2.710547,0.098177 3.699219,0.2988282 h 0.05078 c 1.229427,0.2785156 2.496876,0.2785156 3.800782,0 1.079427,-0.1911459 2.311979,-0.2066407 3.699218,-0.048828 1.440235,0.1587239 2.422787,0.292448 2.949219,0.4003907 0.742578,0.2305989 1.968619,-0.4510591 2.970703,-0.5527344 1.45307,-0.147434 2.921495,-0.021714 4.380858,-0.08008 z M -26.576364,-11.25528 c -1.104639,0.01719 -2.295996,0.102732 -3.574219,0.255859 -0.250781,0.03294 -0.467839,0.149217 -0.650391,0.34961 -0.160287,0.238932 -0.226171,0.488932 -0.199218,0.7500001 0.03281,0.2845052 0.149089,0.5015625 0.349609,0.6503906 0.238411,0.1934896 0.488411,0.2768229 0.75,0.25 1.595573,-0.1958333 3.045182,-0.2791667 4.349609,-0.25 1.321354,0.031901 2.222526,0.064844 2.701172,0.099609 0.492578,0.068229 1.325911,0.1186198 2.5,0.1503906 0.287239,0.00703 0.519792,-0.09375 0.699219,-0.3007812 0.221615,-0.1742187 0.33789,-0.4067709 0.349609,-0.6992188 0.0073,-0.2535153 -0.09154,-0.4880213 -0.298828,-0.7011723 -0.174479,-0.188021 -0.408985,-0.286849 -0.701172,-0.298828 -1.059375,-0.03503 -1.809375,-0.08542 -2.25,-0.15039 -0.02591,-8e-4 -0.05886,-8e-4 -0.09961,0 -0.458724,-0.03359 -1.408333,-0.06654 -2.849609,-0.09961 -0.348926,-0.0094 -0.707959,-0.01159 -1.076172,-0.0059 z m 114.976561,0.273437 c -0.277344,-0.0076 -0.527344,0.09323 -0.75,0.300782 -0.187633,0.164583 -0.288411,0.379687 -0.300781,0.648437 -0.0078,0.2773441 0.07552,0.5273443 0.25,0.7500006 0.197917,0.1875 0.432422,0.2882813 0.701172,0.3007813 1.492578,0.063672 2.424739,0.1470052 2.798828,0.25 0.03425,-0.0069 0.06719,-0.0069 0.09961,0 0.48763,0.085677 0.776822,0.00234 2.255859,-0.25 0.289063,-0.060807 0.50612,-0.1945313 0.650391,-0.4003907 0.17005,-0.2442708 0.218487,-0.494271 0.148437,-0.7500002 -0.02734,-0.289193 -0.159114,-0.50625 -0.398437,-0.650391 -0.210807,-0.16992 -0.460807,-0.218357 -0.75,-0.148437 -1.154557,0.18112 -1.226693,0.247008 -1.605469,0.199218 -0.480078,-0.101693 -1.513021,-0.18503 -3.09961,-0.25 z M 44.93926,-1.6830141 c -0.944189,0.057715 -2.140723,0.2916017 -3.589843,0.7011719 -1.437109,0.4160156 -2.452605,0.54973958 -3.048829,0.40039062 l 0.04883,0.0488281 c -0.764583,-0.33320333 -1.776563,-0.48242172 -3.945313,-0.44921875 -1.271166,0.014782 -1.270193,2.03256633 0.04883,2.00000003 1.797917,-0.0334636 2.561849,0.067318 3.197266,0.3007812 0.836328,0.3175781 2.252995,0.1838542 4.25,-0.40039062 1.634765,-0.45390627 2.884765,-0.65351567 3.75,-0.59960937 0.966406,0.0703125 2.231901,0.33580729 3.798828,0.79882819 h 0.05078 c 1.846745,0.4623698 3.46302,0.5302083 4.849609,0.2011718 h 0.05078 c 1.048828,-0.2949219 1.765885,-0.41315099 2.15039,-0.35156249 0.51263,0.10598999 1.394402,0.12343729 2.648438,0.0507813 0.278776,-0.013412 0.513281,-0.11419263 0.701172,-0.30078117 0.18346,-0.22447917 0.2668,-0.47447917 0.25,-0.75 -0.01315,-0.27877604 -0.129428,-0.51132811 -0.34961,-0.69921874 -0.191146,-0.1832033 -0.425651,-0.266537 -0.701172,-0.25 -1.01263,0.0608073 -1.729687,0.0608073 -2.15039,0 C 56.400719,-1.153587 55.385224,-1.0373109 53.900198,-0.6322328 52.7765,-0.39720676 51.476109,-0.46309218 49.999807,-0.83145155 48.266734,-1.3349668 46.867515,-1.6179099 45.800588,-1.6810609 c -0.258626,-0.019857 -0.546598,-0.021192 -0.861328,-0.00195 z m 32.650391,0 c -0.94419,0.057715 -2.140723,0.2916016 -3.589844,0.7011719 -1.437109,0.4160156 -2.454557,0.54973958 -3.050781,0.40039062 l 0.05078,0.0488281 c -0.764583,-0.33320313 -2.231641,-0.48242172 -4.400391,-0.44921875 -0.257552,0.002995 -0.490103,0.10377604 -0.699218,0.30078125 -0.17344,0.20338541 -0.2568,0.4533854 -0.25,0.74999999 0.0029,0.25794271 0.101693,0.49049479 0.298828,0.69921875 0.202995,0.17317716 0.4375,0.25651004 0.701172,0.25000004 1.797917,-0.0334636 3.014973,0.067318 3.65039,0.3007812 0.836328,0.3175781 2.252995,0.1838543 4.25,-0.40039062 1.634765,-0.45390627 2.884765,-0.65351567 3.75,-0.59960937 0.966406,0.0703125 2.231901,0.33580723 3.798828,0.79882819 h 0.05078 c 1.846745,0.4623698 3.46302,0.5302083 4.849609,0.2011718 h 0.05078 c 1.048828,-0.2949219 1.763933,-0.41315099 2.148438,-0.35156249 0.486979,0.10234399 1.788932,0.11979129 4.501953,0.0507813 0.291667,-0.00339 0.526172,-0.10416659 0.701172,-0.30078117 0.20703,-0.20429687 0.305828,-0.43684896 0.298828,-0.69921875 -0.0033,-0.29205729 -0.102083,-0.52460937 -0.298828,-0.69921874 -0.203906,-0.2069013 -0.453906,-0.30768125 -0.75,-0.30078125 -2.453646,0.0643229 -3.606381,0.0643229 -4.052735,0 -0.548307,-0.17174489 -1.563802,-0.0554687 -3.048828,0.34960937 -1.123698,0.23502604 -2.424088,0.16914062 -3.90039,-0.19921875 -1.733073,-0.50351541 -3.134245,-0.78645841 -4.201172,-0.84960941 -0.258627,-0.019857 -0.544645,-0.021192 -0.859375,-0.00195 z m -88.896484,0.1796875 c -0.974467,-0.020162 -2.039144,0.1153158 -3.193359,0.4042969 h -0.05078 c -1.566927,0.46302083 -2.832422,0.72851562 -3.798828,0.79882812 -0.865235,0.0539063 -2.115235,-0.1457031 -3.75,-0.59960937 -1.997005,-0.58424485 -3.413672,-0.71796875 -4.25,-0.40039065 -0.635417,0.2334635 -1.397395,0.33424481 -3.195312,0.30078127 -0.263672,-0.00651 -0.498177,0.07682 -0.701172,0.25 -0.197135,0.20872396 -0.295963,0.44127604 -0.298828,0.69921875 -0.0068,0.29661459 0.07656,0.54661458 0.25,0.74999999 0.209115,0.19700521 0.441667,0.29778646 0.699219,0.30078129 2.16875,0.033203 3.180729,-0.11796858 3.945312,-0.45117191 l -0.04883,0.0507813 c 0.596224,-0.14934896 1.611719,-0.015625 3.048828,0.40039061 1.932161,0.5460937 3.416667,0.7786459 4.451172,0.6992187 1.066927,-0.063151 2.466146,-0.3460941 4.199219,-0.84960931 1.476302,-0.36835937 2.776692,-0.43424479 3.90039,-0.19921875 1.4850266,0.40507806 2.5005213,0.52135426 3.0488286,0.34960936 0.4207031,-0.0608073 1.1377604,-0.0608073 2.1503906,0 0.2755209,0.016537 0.5100261,-0.0667967 0.7011719,-0.24999999 0.2201823,-0.18789063 0.3364582,-0.42239583 0.3496093,-0.70117187 0.016797,-0.27552083 -0.066537,-0.52552082 -0.25,-0.74999999 -0.1878906,-0.18658854 -0.4223957,-0.28541667 -0.7011718,-0.29882813 -1.2540365,-0.072656 -2.1358073,-0.0571619 -2.6484375,0.0488281 -0.3845052,0.0615885 -1.1015625,-0.0546875 -2.1503906,-0.34960942 h -0.050781 c -0.5199705,-0.1233887 -1.0715695,-0.1910278 -1.6562505,-0.203125 z m 32.65039,0 c -0.974467,-0.020162 -2.039143,0.1153158 -3.193359,0.4042969 h -0.05078 c -1.566927,0.46302083 -2.832422,0.72851562 -3.798828,0.79882812 -0.865235,0.0539063 -2.115235,-0.1457031 -3.75,-0.59960937 C 8.5535825,-1.4840572 7.1369158,-1.6177811 6.3005877,-1.300203 5.665171,-1.0667395 4.4481138,-0.96595819 2.6501971,-0.99942173 c -0.2636719,-0.00651 -0.4981771,0.0768229 -0.7011719,0.25 -0.1971354,0.20872396 -0.2959635,0.44127604 -0.2988281,0.69921875 -0.00677,0.29661459 0.076563,0.54661458 0.25,0.74999999 0.2091146,0.19700521 0.4416666,0.29778646 0.6992187,0.30078129 2.16875,0.033203 3.6358073,-0.11796878 4.4003906,-0.45117191 l -0.050781,0.0507813 C 7.5452491,0.45083868 8.562697,0.58456263 9.9998064,1.0005783 11.931967,1.546672 13.41452,1.7792241 14.449025,1.699797 c 1.066927,-0.063151 2.468099,-0.3460941 4.201172,-0.84960936 1.476302,-0.36835937 3.900391,-0.19921875 3.900391,-0.19921875 1.087523,0.0994596 1.28531,-1.77335829 0.449219,-1.95117189 0,0 -1.07157,-0.1910278 -1.65625,-0.203125 z M -2.6466779,8.1939376 c -1.0233398,0.016894 -2.124414,0.1021484 -3.3027343,0.2558594 -1.4184896,0.2380209 -2.6529948,0.3717448 -3.7011719,0.4003906 -1.0385409,0.032292 -2.2710939,0.1156253 -3.6992189,0.25 -1.306641,0.125 -2.707813,0.024219 -4.201172,-0.3007813 -1.779557,-0.3535156 -3.362891,-0.3186198 -4.75,0.1015625 -1.107682,0.3279948 -2.307291,0.4442709 -3.599609,0.3496094 -1.358463,-0.1 -2.707291,-0.1833333 -4.048828,-0.25 -0.276432,-0.016146 -0.526432,0.067187 -0.75,0.25 -0.187239,0.1886719 -0.28802,0.4212239 -0.300781,0.6992187 -0.01641,0.2764321 0.06693,0.5109371 0.25,0.7011721 0.188672,0.220313 0.421223,0.336588 0.699218,0.349609 1.32513,0.06667 2.658463,0.15 4,0.25 1.541015,0.105209 2.975131,-0.04596 4.300782,-0.451172 1.112761,-0.313151 2.380208,-0.328646 3.800781,-0.04883 1.706511,0.37487 3.305339,0.491147 4.798828,0.34961 1.371875,-0.132291 2.555989,-0.215625 3.5507812,-0.25 1.1184896,-0.02969 2.434375,-0.163411 3.9492187,-0.400391 1.4259115,-0.19375 2.74375,-0.277083 3.9511719,-0.25 1.26184891,0.06836 2.64361971,0.184635 4.1484374,0.349609 1.4320313,0.179687 2.3486979,0.330859 2.75,0.451172 h -0.048828 c 0.5614583,0.308463 1.6951823,0.291016 3.4003906,-0.05078 C 8.841343,10.921406 9.0564472,10.787685 9.1990253,10.549405 9.3693377,10.337167 9.4197283,10.087167 9.3494158,9.7994063 9.3212908,9.542375 9.1875669,9.3272709 8.9490252,9.1509688 8.736395,9.0142501 8.486395,8.9638595 8.1990252,9.0005782 7.0694679,9.2257084 6.3194679,9.276099 5.9490252,9.1509688 H 5.9001971 C 5.4373065,8.9720625 4.3539732,8.7705 2.6501971,8.5494063 1.0983742,8.3819584 -0.31829246,8.2656824 -1.5998029,8.199797 h -0.050781 c -0.3238933,-0.00957 -0.6549805,-0.011491 -0.996094,-0.00586 z m 94.1660149,0.054687 c -0.292106,-0.013782 -0.541846,0.032666 -0.820312,0.1191406 -0.526432,0.1079427 -1.508984,0.2416667 -2.949219,0.4003906 -1.387239,0.1578125 -2.619792,0.1403647 -3.699219,-0.050781 -1.303906,-0.2785156 -2.571354,-0.2785156 -3.800781,0 h -0.05078 c -0.988672,0.200651 -2.221224,0.3014323 -3.699219,0.3007812 -1.521094,-0.00156 -2.937761,-0.067448 -4.25,-0.1992187 -1.308073,-0.167578 -2.641406,-0.2858075 -4,-0.3515625 -1.33737,-0.070052 -2.819922,-0.035156 -4.449219,0.1015625 -1.563281,0.1401042 -2.947005,0.3397136 -4.15039,0.5996094 -1.032552,0.1846354 -2.133334,0.1516927 -3.300782,-0.099609 -0.250781,-0.079427 -0.500781,-0.046484 -0.75,0.099609 -0.219401,0.1479167 -0.368618,0.3649739 -0.449218,0.6503906 -0.04622,0.2502617 0.0042,0.5002617 0.15039,0.7500007 0.148307,0.219401 0.347917,0.368618 0.59961,0.449218 1.465755,0.315365 2.849479,0.348308 4.15039,0.09961 1.130078,-0.240104 2.428516,-0.422265 3.898438,-0.548828 1.5375,-0.12982 2.938672,-0.164713 4.201172,-0.101563 1.307943,0.06758 2.590885,0.185808 3.849609,0.351563 h 0.05078 c 1.363932,0.135 2.846484,0.200918 4.449219,0.199218 1.655339,-6.51e-4 3.039063,-0.116927 4.150391,-0.349609 0.979037,-0.219791 1.979037,-0.219791 3,0 1.253776,0.242187 2.685937,0.27513 4.298828,0.09961 1.559765,-0.174479 2.627603,-0.323697 3.201171,-0.449218 0.489713,-0.06979 0.623959,-0.05195 1.767579,0.451171 0.267838,0.08945 0.517838,0.08945 0.75,0 0.273828,-0.12526 0.457941,-0.309375 0.550781,-0.550781 0.122786,-0.267057 0.122786,-0.5170573 0,-0.7500001 C 94.125717,9.1956303 93.941603,9.011516 93.667775,8.918547 92.611052,8.4619226 92.00618,8.2715948 91.519337,8.2486246 Z M 29.454884,9.0005782 C 28.815,8.9517225 27.906691,8.7164962 27.550588,8.7173746 c -0.118702,2.929e-4 -0.229655,0.011784 -0.351563,0.033203 -0.03242,0.0069 -0.06536,0.0069 -0.09961,0 -0.374089,0.1029948 -1.30625,0.1863281 -2.798828,0.25 -0.26875,0.0125 -0.503255,0.1113281 -0.701172,0.2988281 -0.174479,0.2226563 -0.257813,0.4726563 -0.25,0.7499993 0.01237,0.26875 0.113148,0.485808 0.300781,0.650391 0.222656,0.207552 0.472656,0.308333 0.75,0.300781 1.586589,-0.06497 2.619531,-0.148307 3.099609,-0.25 0.378776,-0.04779 1.067489,0.162076 1.605469,0.199219 1.577789,0.108934 3.163514,0.01451 4.744142,0.06836 1.551468,0.05286 3.254687,0.287499 4.65039,0.25 1.441276,-0.03307 2.390886,-0.06602 2.84961,-0.09961 0.04075,8e-4 0.0737,8e-4 0.09961,0 0.440625,-0.06497 1.190625,-0.115361 2.25,-0.150391 0.292187,-0.01198 0.526693,-0.112759 0.701172,-0.30078 0.20729,-0.213152 0.306128,-0.445704 0.298828,-0.69922 -0.01172,-0.2924473 -0.127994,-0.5249992 -0.349609,-0.6992179 -0.179427,-0.207031 -0.41198,-0.3078113 -0.699219,-0.3007813 -1.174089,0.031771 -2.007422,0.082162 -2.5,0.1503907 -0.478646,0.034765 -1.379818,0.067708 -2.701172,0.099609 -1.304427,0.029167 -2.754036,-0.054167 -4.349609,-0.25 -0.0654,-0.00671 -0.129022,0 -0.19336,0 0,0 -0.510714,6.093e-4 -0.76607,3e-7 -1.228378,-0.00293 -2.460286,0.075938 -3.685103,-0.017578 z"
       sodipodi:nodetypes="ccccccccccccccccccccccccccscccccccccccccscccccccccccccccccccccccccccccccccscsccccccccccccsccccccccccccccccccccccsscccccccccccccccccccccccccsscccccccccccccccccscccccccssccccccccccccccccccccccccccccccccccccccccccccccccccssccccccccccccccccccccccccccccccssccccccccccccccccccccccscccscc" />
    <path
       id="path3"
       inkscape:label="Foreground (Outter)"
       d="m 28.903202,-21.219587 c -0.158713,-0.267075 -3.475766,-0.406455 -3.753005,-0.280379 h -0.05078 c -0.727995,0.18737 -1.826823,0.02164 -3.298828,-0.09906 -1.71836,-0.110156 -3.086589,0.0061 -4.101563,0.349609 -0.756901,0.251042 -1.840235,0.316927 -3.25,0.199219 -1.561068,-0.136718 -3.04362,-0.169661 -4.4492186,-0.09961 -1.3830729,0.06627 -2.7997396,0.167054 -4.25,0.300781 -1.332552,0.127083 -2.6484374,0.127083 -3.9492187,0 h -0.050781 c -1.31653648,-0.10013 -2.59947917,-0.200911 -3.8496094,-0.300781 -1.241276,-0.0668 -2.5416666,-0.117187 -3.9003906,-0.150391 -1.465625,0.0025 -2.7660156,0.219524 -3.9003906,0.650391 h -0.048828 c -0.8408858,0.346744 -1.8408858,0.447526 -2.9999998,0.300781 -1.307422,-0.133463 -2.807422,-0.267187 -4.5,-0.400391 -1.76263,-0.141666 -3.345963,-0.05833 -4.75,0.25 -1.111068,0.279167 -2.328125,0.261719 -3.650391,-0.05078 -1.4875,-0.333333 -2.871224,-0.482552 -4.15039,-0.449219 h -0.05078 -0.199218 c -0.170573,0.05651 -0.33724,0.155342 -0.5,0.298829 -0.110287,0.135416 -0.19362,0.286588 -0.25,0.451171 v 0.150391 c -8e-4,0.04948 -8e-4,0.08242 0,0.09961 0.03073,2.495052 -0.07005,4.194662 -0.300782,5.09961 -0.236328,1.098568 -0.335156,2.199349 -0.298828,3.300781 0.03737,1.128125 0.171098,2.3781249 0.400391,3.7499999 0.235026,1.2832032 0.333854,2.5486979 0.298828,3.7988281 -0.03333,1.35 -0.06628,2.6329427 -0.09961,3.84960939 v 0.0507813 c -0.0045,1.22135416 -0.12081,2.57213546 -0.34961,4.05078126 -0.205338,1.6423177 -0.288672,3.0240885 -0.25,4.1484374 0.03333,1.1242188 0.08372,2.4091147 0.150391,3.8515627 0.06601,1.448828 0.182289,2.997265 0.349609,4.648437 0.154167,1.528516 0.18711,2.629297 0.09961,3.300782 -0.03568,0.283854 0.0302,0.533853 0.199218,0.749999 l 0.05078,0.09961 c 0.177864,0.163802 0.377474,0.264583 0.599609,0.300781 0.188542,0.02305 0.355209,0.0056 0.5,-0.05078 2.665495,-0.557031 4.233333,-0.789584 4.701172,-0.699219 0.634505,0.247656 1.566667,0.298047 2.798828,0.150391 1.041146,-0.09154 2.374479,-0.0082 4,0.25 1.939323,0.342448 3.489713,0.441276 4.650391,0.298828 1.095442,-0.128385 2.262109,-0.161328 3.5,-0.09961 1.282812,0.06706 2.532812,0.167839 3.7499995,0.300782 1.324349,0.139713 2.6576823,0.139713 4,0 1.34231771,-0.09948 2.72604164,-0.200261 4.1503906,-0.300782 1.4157552,-0.06615 2.7820312,-0.116537 4.0996093,-0.15039 1.2822917,0.0092 2.6815104,0.193361 4.1992186,0.550781 1.802735,0.447656 3.420964,0.58138 4.851563,0.400391 1.376822,-0.133334 2.558984,-0.267058 3.548828,-0.400391 0.917448,-0.117318 1.985286,-0.05143 3.201172,0.199219 h 0.04883 c 1.561328,0.35612 3.010937,0.340625 4.349609,-0.04883 1.146485,-0.29362 2.396485,-0.427344 3.75,-0.400391 h 0.05078 c 0.272006,0.0065 4.041674,-0.178825 4.186466,-0.235205 2.665494,-0.557031 4.396477,-0.60516 4.864315,-0.514795 0.634506,0.247656 1.566667,0.298047 2.798829,0.150391 1.041146,-0.09154 2.374479,-0.0082 4,0.25 1.939322,0.342448 3.489713,0.441276 4.65039,0.298828 1.095443,-0.128385 2.262109,-0.161328 3.5,-0.09961 1.282812,0.06706 2.532812,0.167839 3.75,0.300782 1.324349,0.139713 2.657682,0.139713 4,0 1.342317,-0.09948 2.726041,-0.200261 4.150391,-0.300782 1.415754,-0.06615 2.78203,-0.116537 4.099609,-0.15039 1.282291,0.0092 2.68151,0.193361 4.199219,0.550781 1.802734,0.447656 3.420964,0.58138 4.851562,0.400391 1.376823,-0.133334 2.558984,-0.267058 3.548828,-0.400391 0.917448,-0.117318 1.985287,-0.05143 3.201172,0.199219 h 0.04883 c 1.561328,0.35612 3.010938,0.340625 4.34961,-0.04883 1.146484,-0.29362 2.396484,-0.427344 3.75,-0.400391 h 0.05078 c 0.272005,0.0065 0.504557,-0.09425 0.699219,-0.300781 0.191146,-0.178515 0.291927,-0.411068 0.300781,-0.699219 v -0.05078 c 0.03854,-3.021224 -0.110679,-4.738281 -0.449219,-5.150391 -0.0081,0.0014 -0.02552,-0.01409 -0.05078,-0.04883 -0.09141,-0.252474 -0.124349,-1.035417 -0.09961,-2.349609 0.02877,-1.528646 0.14505,-2.9453128 0.34961,-4.2500002 0.264844,-1.3834635 0.38112,-2.7846353 0.349609,-4.2011718 -0.03321,-1.3089844 -0.06615,-2.6752604 -0.09961,-4.09960936 v -0.0507813 c -0.0023,-1.43411459 -0.136057,-2.74999999 -0.400391,-3.94921869 -0.167968,-1.0285156 -0.233854,-2.2959635 -0.199219,-3.8007813 0.03347,-1.5404946 0.08386,-2.9222654 0.150391,-4.1484374 0.06003,-1.197005 0.158855,-2.297787 0.298828,-3.300781 0.195704,-1.052344 0.246094,-2.552344 0.150391,-4.5 0.0025,-0.05078 0.0025,-0.101171 0,-0.150391 -0.0077,-0.165755 -0.05807,-0.314974 -0.150391,-0.449219 -0.03451,-0.09049 -0.100392,-0.173828 -0.199219,-0.25 -0.105078,-0.107682 -0.238802,-0.191015 -0.40039,-0.25 -1.885059,-0.505859 -3.313233,-0.763867 -4.283203,-0.773437 -0.323324,-0.0032 -0.594759,0.02031 -0.816407,0.07227 h -0.05078 c -0.727994,0.18737 -1.826823,0.222265 -3.298828,0.101562 -1.718359,-0.110156 -3.086588,0.0061 -4.101562,0.349609 -0.756902,0.251042 -1.840235,0.316927 -3.25,0.199219 -1.561068,-0.136718 -3.04362,-0.169661 -4.449219,-0.09961 -1.383073,0.06627 -2.79974,0.167054 -4.25,0.300781 -1.332552,0.127083 -2.648437,0.127083 -3.949219,0 h -0.05078 c -1.316537,-0.10013 -2.599479,-0.200911 -3.849609,-0.300781 -1.241276,-0.0668 -2.541667,-0.117187 -3.900391,-0.150391 -1.465625,0.0025 -2.766016,0.219524 -3.900391,0.650391 h -0.04883 c -0.840885,0.346744 -1.840885,0.447526 -3,0.300781 -1.307422,-0.133463 -2.807422,-0.267187 -4.5,-0.400391 -1.76263,-0.141666 -3.345963,-0.05833 -4.75,0.25 -1.111068,0.279167 -2.328125,0.261719 -3.65039,-0.05078 -1.451075,-0.187634 -0.570808,-0.471361 -9.246995,-0.669384 z m 0.0966,40.220165 c -1.173698,0.03958 -2.274479,0.188799 -3.300781,0.449219 h -0.04883 c -1.030469,0.306511 -2.164193,0.323958 -3.400391,0.05078 -1.490234,-0.315365 -2.790625,-0.398698 -3.90039,-0.25 -0.976823,0.133203 -2.14349,0.266927 -3.5,0.400391 h -0.04883 c -1.213021,0.149739 -2.596745,0.03151 -4.150391,-0.351563 C 8.952671,18.895891 7.4022804,18.696282 5.9998064,18.699797 h -0.050781 c -1.3247396,0.0332 -2.7065104,0.08359 -4.1484375,0.150391 h -0.050781 c -1.4167969,0.1 -2.8005208,0.200781 -4.1503906,0.300781 -1.2324219,0.126041 -2.4494792,0.126041 -3.6503906,0 -1.2496094,-0.133854 -2.5325521,-0.234635 -3.8496094,-0.300781 -1.3622389,-0.07161 -2.6451819,-0.03867 -3.8496089,0.09961 -1.00599,0.124089 -2.356771,0.04076 -4.050782,-0.25 -1.861458,-0.30638 -3.376953,-0.405208 -4.548828,-0.298828 h -0.05078 c -0.838411,0.113281 -1.472135,0.09583 -1.900391,-0.05078 -0.01823,0.0079 -0.03372,0.0079 -0.04883,0 -0.509505,-0.208854 -2.042448,-0.07513 -4.599609,0.40039 -0.0021,-0.649479 -0.05246,-1.44987 -0.150391,-2.40039 -0.166015,-1.615495 -0.282291,-3.132943 -0.349609,-4.550782 -0.06667,-1.424218 -0.117057,-2.6897132 -0.150391,-3.7988278 -0.02813,-1.0424479 0.05521,-2.3253906 0.25,-3.8496093 0.236328,-1.5514323 0.352604,-2.9855469 0.34961,-4.30078126 0.03359,-1.22565104 0.06654,-2.50859374 0.09961,-3.84960934 0.03151,-1.3833333 -0.08476,-2.7845052 -0.349609,-4.2011718 -0.204167,-1.2615887 -0.320443,-2.4108075 -0.34961,-3.4492185 -0.03047,-0.931902 0.05287,-1.866016 0.25,-2.800782 0.235547,-0.860416 0.351823,-2.375911 0.34961,-4.548828 0.854296,0.05951 1.753515,0.193231 2.699218,0.400391 1.644271,0.38737 3.161719,0.402865 4.550782,0.04883 1.229296,-0.258463 2.61302,-0.324349 4.15039,-0.199219 1.674089,0.133334 3.156641,0.267058 4.449219,0.400391 1.513672,0.183985 2.83151,0.03281 3.9511718,-0.451172 0.9257813,-0.333463 1.9742187,-0.50013 3.1484375,-0.5 h 0.050781 c 1.315625,0.03373 2.5830729,0.08412 3.8007813,0.150391 1.22552079,0.100651 2.49101555,0.201432 3.7988281,0.300781 1.4410156,0.138672 2.8906249,0.138672 4.3496093,0 1.4162761,-0.132943 2.8,-0.233724 4.1503908,-0.300781 1.327474,-0.06341 2.728646,-0.03047 4.201172,0.09961 1.75677,0.148958 3.105598,0.05013 4.048828,-0.298828 0.818098,-0.256641 1.91888,-0.339974 3.300781,-0.25 1.761328,0.145833 3.077213,0.29607 3.949219,0.05024 h -0.04883 c 0.157682,-0.01989 0.347721,-0.02469 0.570312,-0.01172 0.667774,0.03892 1.626953,0.02525 2.878906,0.35992 l 6,0.201171 c 0.854297,0.05951 1.753516,0.193231 2.699219,0.400391 1.644271,0.38737 3.161719,0.402865 4.550781,0.04883 1.229297,-0.258463 2.613021,-0.324349 4.150391,-0.199219 1.674088,0.133334 3.156641,0.267058 4.449219,0.400391 1.513672,0.183985 2.83151,0.03281 3.951171,-0.451172 0.925782,-0.333463 1.974219,-0.50013 3.148438,-0.5 h 0.05078 c 1.315625,0.03373 2.583073,0.08412 3.800781,0.150391 1.225521,0.100651 2.491016,0.201432 3.798828,0.300781 1.441016,0.138672 2.890625,0.138672 4.34961,0 1.416276,-0.132943 2.8,-0.233724 4.15039,-0.300781 1.327474,-0.06341 2.728646,-0.03047 4.201172,0.09961 1.756771,0.148958 3.105599,0.05013 4.048828,-0.298828 0.818099,-0.256641 1.91888,-0.339974 3.300782,-0.25 1.761328,0.145833 3.077213,0.09544 3.949218,-0.150391 h -0.04883 c 0.157682,-0.01989 0.347721,-0.02469 0.570313,-0.01172 0.667773,0.03892 1.626953,0.225879 2.878906,0.560547 0.07917,1.48151 0.04622,2.648177 -0.09961,3.5 -0.160026,1.063411 -0.276302,2.230077 -0.349609,3.499999 -0.0668,1.240365 -0.117187,2.641537 -0.150391,4.2011723 -0.03203,1.6617188 0.0513,3.0609375 0.25,4.1992187 v 0.050781 c 0.234766,1.0738281 0.351042,2.2734375 0.34961,3.59960934 0.0332,1.44999996 0.06614,2.83372396 0.09961,4.15039056 0.03503,1.2833334 -0.0638,2.5488281 -0.298828,3.7988281 -0.228776,1.3953126 -0.3625,2.9127607 -0.400391,4.5507817 -0.04167,1.964583 0.107553,3.148697 0.449219,3.550781 0.107162,0.335156 0.157552,1.368098 0.150391,3.099609 -1.173698,0.03958 -2.274479,0.188799 -3.300781,0.449219 h -0.04883 c -1.030468,0.306511 -2.164192,0.323958 -3.40039,0.05078 -1.490235,-0.315365 -2.790625,-0.398698 -3.900391,-0.25 -0.976822,0.133203 -2.143489,0.266927 -3.5,0.400391 h -0.04883 c -1.21302,0.149739 -2.596744,0.03151 -4.15039,-0.351563 -1.697526,-0.403515 -3.247917,-0.603124 -4.650391,-0.599609 h -0.05078 c -1.32474,0.0332 -2.706511,0.08359 -4.148438,0.150391 h -0.05078 c -1.416797,0.1 -2.800521,0.200781 -4.150391,0.300781 -1.232422,0.126041 -2.449479,0.126041 -3.65039,0 -1.24961,-0.133854 -2.532552,-0.234635 -3.84961,-0.300781 -1.362239,-0.07161 -2.645182,-0.03867 -3.849609,0.09961 -1.005989,0.124089 -2.35677,0.04076 -4.050781,-0.25 -1.861459,-0.30638 -3.376954,-0.405208 -4.548828,-0.298828 h -0.05078 c -0.838412,0.113281 -1.472136,0.09583 -1.900391,-0.05078 -0.01823,0.0079 -0.03372,0.0079 -0.04883,0 -0.509506,-0.208854 -2.042448,-0.07513 -4.59961,0.40039 z"
       sodipodi:nodetypes="ccccccccccccccccccccccccccccccccccccccccccccccccccccccccccccccccccccccccccccccccscccccccccccccscccccccccccccccccccccccccccccccccccccccccccccccccccccccsccccccccccscccccccsccccccccccscccccccccccccccccccccccccccccccccc" />
  </g>
</svg>
