<?xml version="1.0" encoding="UTF-8" standalone="no"?>
<!-- Created with Inkscape (http://www.inkscape.org/) -->

<svg
   width="64"
   height="64"
   viewBox="0 0 16.933333 16.933333"
   version="1.1"
   id="svg1"
   inkscape:version="1.4 (86a8ad7, 2024-10-11)"
   sodipodi:docname="body_4.svg"
   xmlns:inkscape="http://www.inkscape.org/namespaces/inkscape"
   xmlns:sodipodi="http://sodipodi.sourceforge.net/DTD/sodipodi-0.dtd"
   xmlns="http://www.w3.org/2000/svg"
   xmlns:svg="http://www.w3.org/2000/svg">
  <sodipodi:namedview
     id="namedview1"
     pagecolor="#ffffff"
     bordercolor="#000000"
     borderopacity="0.25"
     inkscape:showpageshadow="2"
     inkscape:pageopacity="0.0"
     inkscape:pagecheckerboard="true"
     inkscape:deskcolor="#d1d1d1"
     inkscape:document-units="px"
     inkscape:zoom="16.267266"
     inkscape:cx="43.707406"
     inkscape:cy="23.820844"
     inkscape:window-width="1920"
     inkscape:window-height="1009"
     inkscape:window-x="1912"
     inkscape:window-y="-8"
     inkscape:window-maximized="1"
     inkscape:current-layer="svg1" />
  <defs
     id="defs1" />
  <g
     id="g3"
     transform="matrix(0.26458333,0,0,0.26458333,8.4306186,8.4764077)"
     inkscape:label="Body">
    <path
       fill="#ffffff"
       stroke="none"
       d="m 0.08624403,-20.036817 c -10.96280003,0 -19.95000003,8.701548 -19.95000003,19.94999987 0,11.35338013 9.06698,20.05000013 19.95000003,20.05000013 11.19537997,0 20.04999997,-8.94445 20.04999997,-20.05000013 0,-10.95756087 -8.73668,-19.94999987 -20.04999997,-19.94999987 z"
       id="path13"
       sodipodi:nodetypes="sssss"
       inkscape:label="Background" />
    <path
       fill="#2a2a2a"
       stroke="none"
       d="m 19.66031,7.022986 0.0121,-0.048515 c 0.907614,-1.0476146 1.436288,-2.4101911 1.586023,-4.0877294 v 0 c 0.09256,-1.5585396 0.06329,-3.09458035 -0.0878,-4.6081222 l 0.0121,-0.048515 c -0.193887,-1.6233821 -0.578842,-3.1106907 -1.154867,-4.4619259 -0.503062,-1.182075 -0.818995,-2.1883982 -0.947799,-3.0189696 l -0.04851,-0.012096 c -0.182048,-1.0293039 -0.777119,-2.2650689 -1.631531,-3.8302409 -0.908256,-1.66408 -3.56364,-3.453861 -3.56364,-3.453861 v 0 c 0,0 -2.468745,-1.617321 -3.832883,-1.768895 v 0 c -1.1528155,-0.170814 -2.3212893,-0.582385 -3.5054213,-1.234714 v 0 c -1.5102533,-0.890648 -2.9333971,-1.314185 -4.2694316,-1.270612 -1.1758884,-0.0013 -2.52194549,0.02377 -4.0381713,0.07532 v 0 c -1.6683593,-0.01701 -3.2809652,0.388239 -4.8378177,1.215738 -1.4253181,0.732677 -2.4880897,1.275012 -3.1883149,1.627006 l 0.060611,-0.03642 c -0.7484122,0.310054 -1.7748082,0.844282 -3.0791892,1.602684 l 0.0121,-0.04852 c -1.560177,0.814997 -2.750208,2.117251 -3.354939,4.060445 -0.431867,1.383896 -1.136996,2.3738372 -2.053914,3.092771 l -0.0121,0.048515 c -1.442659,0.9776871 -1.930005,2.5231043 -1.738667,4.3596226 0.02303,0.2052881 0.09591,0.3952283 0.218642,0.5698205 -0.04233,0.036281 -0.106969,0.088871 -0.193928,0.1577709 -1.05232,0.7894435 -1.322336,2.0790957 -0.810047,3.86895642 0.339675,1.24641218 0.615375,2.55188818 0.827098,3.91642788 l 0.0121,-0.048515 c 0.158529,1.4427977 0.458552,2.8573993 0.900067,4.243805 0.4488,1.3711798 1.205528,2.6763507 2.270185,3.9155147 l -0.0121,0.04852 c 0.95911,1.081203 1.873305,2.099275 2.742585,3.054215 l 0.04852,0.0121 c 0.90964,0.956682 2.029903,1.837187 3.36079,2.641513 1.3067541,0.795625 2.6047311,1.445608 3.8939314,1.949949 v 0 c 1.2588231,0.458789 2.5687223,0.785384 3.9296977,0.979784 1.308894,0.185305 2.69544524,0.273358 4.1596539,0.264158 l 0.060611,-0.03642 c 1.4387527,-0.06265 2.6271259,-0.144244 3.5651196,-0.244791 l 0.048515,0.0121 c 0.9733133,-0.17977 2.3028945,-0.689936 3.9887437,-1.530498 l 0.048515,0.0121 C 10.622534,18.11446 11.980209,17.284937 13.129972,16.473895 l 0.04852,0.0121 c 1.133796,-0.841728 2.232638,-1.8732 3.296528,-3.094415 1.118576,-1.336138 1.768559,-2.634115 1.949949,-3.893931 0.144997,-0.9281696 0.556786,-1.7530514 1.235367,-2.4746453 M 1.3320228,18.736926 v 0 c -1.35718365,0.0089 -2.6426733,-0.07112 -3.8564691,-0.240096 -1.2263375,-0.175726 -2.4068639,-0.470064 -3.5415794,-0.883015 -1.1607628,-0.452725 -2.3374311,-1.038109 -3.530005,-1.756151 -1.1763073,-0.713851 -2.1671543,-1.493381 -2.9725413,-2.338589 l -0.0121,0.04852 c -0.853804,-0.951886 -1.751828,-1.965926 -2.694071,-3.042119 v 0 c -0.877062,-1.0313611 -1.500254,-2.1142944 -1.869575,-3.2487997 -0.409069,-1.2646532 -0.6888,-2.5539576 -0.839195,-3.8679132 v 0 c -0.218572,-1.4565601 -0.506455,-2.85095805 -0.863648,-4.18319399 -0.250247,-0.80797811 -0.206156,-1.39817621 0.132275,-1.77059411 0.564287,-0.4790175 0.887371,-0.9481241 0.969252,-1.40732 0.115019,-0.4748202 0.03793,-0.9234624 -0.23126,-1.3459267 -0.05421,-0.9257699 0.142528,-1.7878612 0.866834,-2.3096447 l 0.04851,0.012096 c 1.253098,-0.9536926 2.20054,-2.2954642 2.780854,-4.1482616 0.427991,-1.372112 1.294895,-2.273978 2.385556,-2.85928 v 0 c 1.225243,-0.706339 2.1910285,-1.204148 2.8973569,-1.493427 0.017998,-0.0044 0.03417,-3.67e-4 0.048515,0.0121 0.7141156,-0.360339 1.7970909,-0.914814 3.2489258,-1.663425 1.2556456,-0.670041 2.5570461,-0.998287 3.9042015,-0.984739 l 0.048515,0.0121 c 1.49935969,-0.05545 2.8292452,-0.08459 3.9896566,-0.08741 1.0167724,-0.02253 2.1043448,0.300166 3.2627172,0.968079 l -0.012096,0.04851 c 1.4357857,0.788343 2.8428014,1.276566 4.2210472,1.46467 l 0.048515,0.0121 c 1.0858008,0.118813 1.9428928,0.802221 3.0323238,1.466231 l 0.04851,0.0121 c 1.061212,0.637248 2.104811,1.384388 2.823431,2.702468 0.724031,1.336204 1.246221,2.3820291 1.412889,3.2604211 l 0.0121,-0.048515 c 0.147326,0.955965 0.51186,2.1118211 1.093604,3.4675684 0.508906,1.1866185 0.853324,2.492051 1.033254,3.9162975 l -0.04851,-0.012096 c 0.150015,1.41289651 0.187303,2.8478756 0.111864,4.3049374 -0.119668,1.1818055 -0.499027,2.1521881 -1.138076,2.911148 l 0.04852,0.012096 c -0.961468,1.0337849 -1.546852,2.2104532 -1.756151,3.5300049 -0.156654,0.9232507 -0.653246,1.8815807 -1.489776,2.8749907 -0.955778,1.092235 -1.941506,2.014494 -2.957185,2.766777 v 0 c -1.096457,0.758712 -2.3894886,1.535644 -3.879096,2.330796 v 0 C 6.6599182,17.89419 5.5202752,18.331472 4.6909871,18.492265 l 0.048515,0.0121 C 3.842401,18.599135 2.7065746,18.676658 1.332023,18.736929 Z"
       id="path3"
       sodipodi:nodetypes="ccssccccccsssssscssccccccccccccccccccccsscccccccccccccscccccsscsscccccccsscccccccccccccccccccccccssssccsc"
       inkscape:label="Foreground" />
  </g>
</svg>
