<?xml version="1.0" encoding="UTF-8" standalone="no"?>
<!-- Created with Inkscape (http://www.inkscape.org/) -->

<svg
   width="64"
   height="64"
   viewBox="0 0 16.933333 16.933333"
   version="1.1"
   id="svg1"
   inkscape:version="1.4 (86a8ad7, 2024-10-11)"
   sodipodi:docname="body_3.svg"
   xmlns:inkscape="http://www.inkscape.org/namespaces/inkscape"
   xmlns:sodipodi="http://sodipodi.sourceforge.net/DTD/sodipodi-0.dtd"
   xmlns="http://www.w3.org/2000/svg"
   xmlns:svg="http://www.w3.org/2000/svg">
  <sodipodi:namedview
     id="namedview1"
     pagecolor="#ffffff"
     bordercolor="#000000"
     borderopacity="0.25"
     inkscape:showpageshadow="2"
     inkscape:pageopacity="0.0"
     inkscape:pagecheckerboard="true"
     inkscape:deskcolor="#d1d1d1"
     inkscape:document-units="px"
     inkscape:zoom="8"
     inkscape:cx="35.8125"
     inkscape:cy="37.0625"
     inkscape:window-width="1920"
     inkscape:window-height="1009"
     inkscape:window-x="1912"
     inkscape:window-y="-8"
     inkscape:window-maximized="1"
     inkscape:current-layer="g1" />
  <defs
     id="defs1" />
  <g
     id="g1"
     transform="matrix(0.26458333,0,0,0.26458333,-53.431891,-15.316118)"
     inkscape:label="Body">
    <path
       fill="#ffffff"
       stroke="none"
       d="m 233.89731,69.887691 c -10.9628,0 -19.95,8.701548 -19.95,19.95 0,11.353379 9.06698,20.049999 19.95,20.049999 11.19538,0 20.05,-8.94445 20.05,-20.049999 0,-10.957561 -8.73668,-19.95 -20.05,-19.95 z"
       id="path13"
       sodipodi:nodetypes="sssss"
       inkscape:label="Background" />
    <path
       fill="#2a2a2a"
       stroke="none"
       d="m 252.22348,80.016542 -0.041,-0.02868 c -0.48783,-0.728481 -1.21133,-1.845466 -2.17049,-3.350961 -0.98699,-1.544528 -1.90438,-2.675196 -2.75215,-3.392003 -0.80901,-0.696343 -2.01727,-1.440646 -3.62479,-2.232912 -1.67958,-0.806483 -4.35404,-1.278608 -4.35404,-1.278608 v 0 c 0,0 -2.16857,-0.105182 -3.35062,-0.270813 -0.0186,-0.002 -0.0323,-0.01161 -0.041,-0.02868 -1.28041,-0.107341 -2.56524,-0.1321 -3.85448,-0.07427 -1.3432,0.128768 -2.63489,0.404397 -3.87508,0.826885 l -0.0287,0.04096 c -1.22256,0.481556 -3.48199,1.834595 -3.48199,1.834595 v 0 c 0,0 -2.18773,1.290382 -3.63354,1.789516 -1.93232,0.674767 -3.08758,1.656315 -3.46576,2.944656 l -0.0287,0.04096 c -0.31161,0.986211 -0.8948,2.225904 -1.74958,3.71907 -0.97,1.699718 -1.59964,3.151038 -1.88893,4.353954 -0.28502,1.211795 -0.50503,2.543015 -0.66004,3.993664 -0.11796,1.597718 -0.0335,2.959022 0.25339,4.083906 0.27247,1.129573 0.6396,2.261532 1.10139,3.39587 l 0.0287,-0.04096 c 0.42717,1.133616 0.93355,2.444465 1.51913,3.932529 0.60962,1.63762 2.22777,3.87937 2.22777,3.87937 v 0 c 0,0 2.11222,1.87939 3.57971,2.38446 1.17727,0.43919 2.98587,1.66346 2.98587,1.66346 v 0 l 3.92386,1.89297 v 0 c 0,0 3.0494,0.5169 4.432,0.29554 l 0.0696,-0.0123 c 1.24112,-0.13825 2.57512,-0.24183 4.00199,-0.31075 1.65661,-0.0513 3.05071,-0.35692 4.18231,-0.91695 1.03633,-0.4635 2.1492,-1.00676 3.33859,-1.62981 1.22477,-0.58413 2.45235,-1.29123 3.68275,-2.1213 1.38846,-0.87739 2.38809,-2.13067 2.99891,-3.75986 0.0267,-0.0433 0.0414,-0.094 0.0451,-0.15155 0.1278,-0.58591 0.43783,-1.20302 0.93008,-1.851331 0.62436,-0.817929 1.18572,-1.910138 1.68398,-3.276694 0.5227,-1.369633 0.42254,-4.526197 0.42254,-4.526197 v 0 l 0.0907,-3.96507 v 0 c 0,0 0.0859,-3.246303 -0.72436,-4.718877 -0.68466,-1.265756 -1.27572,-2.310357 -1.7732,-3.133809 m -1.71644,1.05657 v 0 c 0,0 1.05597,1.810593 1.71997,3.035494 0.593,1.056131 0.7799,2.183966 0.5607,3.383506 l -0.041,-0.02868 c -0.30306,1.595116 -0.33878,3.157109 -0.10715,4.685992 l 0.0287,-0.04096 c 0.18192,1.293161 0.0671,2.474208 -0.34457,3.54313 -0.41972,1.164682 -0.88954,2.097175 -1.40947,2.797481 -0.69032,0.924338 -1.10823,1.811805 -1.2538,2.662335 l 0.004,-0.18023 c -0.44377,1.21332 -1.17711,2.14441 -2.20002,2.79327 -1.16454,0.78892 -2.32658,1.46052 -3.48611,2.01483 -1.17847,0.60813 -2.28177,1.13774 -3.30992,1.58885 -0.91673,0.44726 -2.04594,0.69424 -3.38763,0.74093 -1.50358,0.0665 -4.25186,0.31891 -4.25186,0.31891 v 0 c 0,0 -2.39768,0.12828 -3.6988,-0.20942 l -0.041,-0.0287 c -1.24377,-0.28451 -2.26365,-0.77483 -3.05963,-1.47095 l -0.041,-0.0287 c -0.96531,-0.81658 -2.1613,-1.49126 -3.58796,-2.024 -1.12085,-0.37425 -2.02739,-0.96832 -2.7196,-1.78221 l -0.041,-0.0287 c -0.72554,-0.79033 -1.34801,-1.87728 -1.86739,-3.260803 -0.58568,-1.488613 -1.09206,-2.799453 -1.51913,-3.932525 l -0.041,-0.02868 c -0.42271,-1.031466 -0.75982,-2.061017 -1.01132,-3.088645 -0.22085,-0.939726 -0.27804,-2.078467 -0.17156,-3.416221 0.14019,-1.35389 0.33971,-2.59773 0.59856,-3.731518 0.2708,-1.050074 0.83625,-2.322531 1.69634,-3.817385 0.93687,-1.64694 1.56923,-3.014971 1.89709,-4.104088 0.30785,-0.725456 1.05616,-1.300181 2.24494,-1.72417 1.6483,-0.549049 3.02744,-1.211069 4.1374,-1.986061 0.95634,-0.667968 3.04777,-1.650328 3.04777,-1.650328 v 0 c 0,0 2.18855,-0.594856 3.35895,-0.699976 l -0.041,-0.02868 c 1.16342,-0.04182 2.31853,-0.0062 3.46534,0.106983 0.0184,0.0035 0.0416,-6.17e-4 0.0696,-0.01228 1.23986,0.176384 2.41681,0.268031 3.53086,0.274935 l -0.0287,0.04096 c 0.98955,0.04849 2.1651,0.403657 3.52664,1.065493 1.4242,0.689495 2.49593,1.338203 3.21522,1.946124 0.73042,0.632417 1.5263,1.616966 2.38765,2.953663 0.95993,1.506667 1.68343,2.623652 2.17049,3.350961"
       id="path9"
       sodipodi:nodetypes="cccccsscccccssccccccccccsscssssccccccccccsssscccscccccccccccccsscccccccccccccccccsscccccccccc"
       inkscape:label="Foreground" />
  </g>
</svg>
