<?xml version="1.0" encoding="UTF-8" standalone="no"?>
<!-- Created with Inkscape (http://www.inkscape.org/) -->

<svg
   width="64"
   height="64"
   viewBox="0 0 16.933333 16.933333"
   version="1.1"
   id="svg1"
   inkscape:version="1.4 (86a8ad7, 2024-10-11)"
   sodipodi:docname="body_4.svg"
   xmlns:inkscape="http://www.inkscape.org/namespaces/inkscape"
   xmlns:sodipodi="http://sodipodi.sourceforge.net/DTD/sodipodi-0.dtd"
   xmlns="http://www.w3.org/2000/svg"
   xmlns:svg="http://www.w3.org/2000/svg">
  <sodipodi:namedview
     id="namedview1"
     pagecolor="#ffffff"
     bordercolor="#000000"
     borderopacity="0.25"
     inkscape:showpageshadow="2"
     inkscape:pageopacity="0.0"
     inkscape:pagecheckerboard="true"
     inkscape:deskcolor="#d1d1d1"
     inkscape:document-units="px"
     inkscape:zoom="11.502694"
     inkscape:cx="30.340718"
     inkscape:cy="29.775633"
     inkscape:window-width="1920"
     inkscape:window-height="1009"
     inkscape:window-x="1912"
     inkscape:window-y="-8"
     inkscape:window-maximized="1"
     inkscape:current-layer="layer1" />
  <defs
     id="defs1" />
  <g
     inkscape:label="Layer 1"
     inkscape:groupmode="layer"
     id="layer1">
    <g
       id="g63"
       transform="matrix(0.26458333,0,0,0.26458333,-33.833325,-25.558003)">
      <g
         id="use60" />
      <g
         id="use61">
        <g
           id="g1"
           transform="translate(-26.187318,38.876295)" />
      </g>
      <g
         id="use62" />
      <g
         id="use63" />
    </g>
    <g
       id="use599"
       transform="matrix(0.26458333,0,0,0.26458333,8.4306186,8.4764077)">
      <g
         id="g3">
        <path
           fill="#ffffff"
           stroke="none"
           d="M 200.1,75.85 C 196.23333,71.95 191.51667,70 185.95,70 c -5.5,0 -10.2,1.95 -14.1,5.85 -3.9,3.866667 -5.85,8.566667 -5.85,14.1 0,5.566667 1.95,10.28333 5.85,14.15 3.9,3.93333 8.6,5.9 14.1,5.9 5.56667,0 10.28333,-1.96667 14.15,-5.9 1.06667,-1 1.96667,-2.08333 2.7,-3.25 2.13333,-3.166667 3.2,-6.8 3.2,-10.9 0,-4.066667 -1.06667,-7.683333 -3.2,-10.85 -0.73333,-1.166667 -1.63333,-2.25 -2.7,-3.25"
           id="path13"
           sodipodi:nodetypes="cscscsccscc"
           transform="translate(-185.92506,-89.757699)" />
        <path
           fill="#2a2a2a"
           stroke="none"
           d="m 19.527057,7.0787918 0.0121,-0.048515 C 20.446771,5.9826622 20.975445,4.6200857 21.12518,2.9425474 v 0 c 0.09256,-1.5585396 0.06329,-3.09458037 -0.0878,-4.6081222 l 0.0121,-0.048515 c -0.193887,-1.6233821 -0.578842,-3.1106907 -1.154867,-4.4619259 -0.503062,-1.182075 -0.818995,-2.1883982 -0.947799,-3.0189696 l -0.04851,-0.012096 c -0.182048,-1.0293037 -0.777119,-2.2650687 -1.631531,-3.8302407 -0.908256,-1.66408 -3.56364,-3.453861 -3.56364,-3.453861 v 0 c 0,0 -2.468745,-1.617321 -3.8328831,-1.768895 v 0 c -1.1528157,-0.170814 -2.3212895,-0.582385 -3.5054215,-1.234714 v 0 c -1.5102533,-0.890648 -2.9333971,-1.314185 -4.2694316,-1.270612 -1.17588837,-0.0013 -2.52194547,0.02377 -4.0381713,0.07532 v 0 c -1.6683593,-0.01701 -3.2809652,0.388239 -4.8378177,1.215738 -1.4253181,0.732677 -2.4880897,1.275012 -3.1883149,1.627006 l 0.060611,-0.03642 c -0.7484119,0.310054 -1.7748079,0.844282 -3.0791889,1.602684 l 0.0121,-0.04852 c -1.560177,0.814997 -2.750208,2.117251 -3.354939,4.060445 -0.431867,1.383896 -1.136996,2.373837 -2.053914,3.0927708 l -0.0121,0.048515 c -1.442659,0.9776871 -1.930005,2.5231043 -1.738667,4.3596226 0.02303,0.2052881 0.09591,0.3952283 0.218642,0.5698205 -0.04233,0.036281 -0.106969,0.088871 -0.193928,0.1577709 -1.05232,0.7894435 -1.322336,2.0790957 -0.810047,3.8689564 0.339675,1.2464122 0.615375,2.5518882 0.827098,3.9164279 l 0.0121,-0.048515 c 0.158529,1.4427977 0.458552,2.8573993 0.900067,4.243805 0.4488,1.3711798 1.205528,2.6763509 2.270185,3.9155149 l -0.0121,0.04852 c 0.95911,1.081203 1.873305,2.099275 2.742585,3.054215 l 0.04852,0.0121 c 0.90964,0.956682 2.029903,1.837187 3.36079,2.641513 1.3067538,0.795625 2.6047308,1.445608 3.8939311,1.949949 v 0 c 1.2588231,0.458789 2.5687223,0.785384 3.9296977,0.979784 1.308894,0.185305 2.69544526,0.273358 4.1596539,0.264158 l 0.060611,-0.03642 c 1.4387527,-0.06265 2.6271259,-0.144244 3.5651196,-0.244791 l 0.048515,0.0121 C 5.8597486,20.356896 7.1893298,19.84673 8.875179,19.006168 l 0.048515,0.0121 c 1.565587,-0.848002 2.923262,-1.677525 4.073025,-2.488567 l 0.04852,0.0121 c 1.133796,-0.841728 2.232638,-1.8732 3.296528,-3.094415 1.118576,-1.336138 1.768559,-2.634115 1.949949,-3.8939312 0.144997,-0.9281696 0.556786,-1.7530514 1.235367,-2.4746453 M 1.1987695,18.792732 v 0 c -1.35718363,0.0089 -2.6426733,-0.07112 -3.8564691,-0.240096 -1.2263375,-0.175726 -2.4068639,-0.470064 -3.5415794,-0.883015 -1.1607628,-0.452725 -2.3374311,-1.038109 -3.530005,-1.756151 -1.176307,-0.713851 -2.167154,-1.493381 -2.972541,-2.338589 l -0.0121,0.04852 c -0.853804,-0.951886 -1.751828,-1.965926 -2.694071,-3.042119 v 0 c -0.877062,-1.0313613 -1.500254,-2.1142946 -1.869575,-3.2487999 -0.409069,-1.2646532 -0.6888,-2.5539576 -0.839195,-3.8679132 v 0 c -0.218572,-1.4565601 -0.506455,-2.85095807 -0.863648,-4.18319401 -0.250247,-0.80797809 -0.206156,-1.39817619 0.132275,-1.77059409 0.564287,-0.4790175 0.887371,-0.9481241 0.969252,-1.40732 0.115019,-0.4748202 0.03793,-0.9234624 -0.23126,-1.3459267 -0.05421,-0.9257699 0.142528,-1.7878612 0.866834,-2.3096447 l 0.04851,0.012096 c 1.253098,-0.9536926 2.20054,-2.2954642 2.780854,-4.1482614 0.427991,-1.372112 1.294895,-2.273978 2.385556,-2.85928 v 0 c 1.225243,-0.706339 2.1910282,-1.204148 2.8973566,-1.493427 0.017998,-0.0044 0.03417,-3.67e-4 0.048515,0.0121 0.7141156,-0.360339 1.7970909,-0.914814 3.2489258,-1.663425 1.2556456,-0.670041 2.5570461,-0.998287 3.9042015,-0.984739 l 0.048515,0.0121 c 1.49935971,-0.05545 2.82924524,-0.08459 3.9896566,-0.08741 1.0167724,-0.02253 2.1043448,0.300166 3.2627172,0.968079 l -0.012096,0.04851 c 1.4357857,0.788343 2.8428014,1.276566 4.2210472,1.46467 l 0.048515,0.0121 c 1.0858011,0.118813 1.9428931,0.802221 3.0323241,1.466231 l 0.04851,0.0121 c 1.061212,0.637248 2.104811,1.384388 2.823431,2.702468 0.724031,1.336204 1.246221,2.3820289 1.412889,3.2604209 l 0.0121,-0.048515 c 0.147326,0.955965 0.51186,2.1118211 1.093604,3.4675684 0.508906,1.1866185 0.853324,2.492051 1.033254,3.9162975 l -0.04851,-0.012096 c 0.150015,1.41289649 0.187303,2.8478756 0.111864,4.3049374 -0.119668,1.1818055 -0.499027,2.1521881 -1.138076,2.911148 l 0.04852,0.012096 c -0.961468,1.0337849 -1.546852,2.2104532 -1.756151,3.5300049 -0.156654,0.9232509 -0.653246,1.8815809 -1.489776,2.8749909 -0.955778,1.092235 -1.941506,2.014494 -2.957185,2.766777 v 0 c -1.096457,0.758712 -2.3894889,1.535644 -3.8790963,2.330796 v 0 c -1.4499978,0.713769 -2.5896408,1.151051 -3.4189289,1.311844 l 0.048515,0.0121 c -0.8971011,0.09477 -2.0329275,0.172293 -3.4074791,0.232564 z"
           id="path3"
           sodipodi:nodetypes="ccssccccccsssssscssccccccccccccccccccccsscccccccccccccscccccsscsscccccccsscccccccccccccccccccccccssssccsc" />
      </g>
    </g>
  </g>
</svg>
