<?xml version="1.0" encoding="UTF-8" standalone="no"?>
<!-- Created with Inkscape (http://www.inkscape.org/) -->

<svg
   width="32"
   height="32"
   viewBox="0 0 8.4666665 8.4666666"
   version="1.1"
   id="svg1"
   sodipodi:docname="hand_2.svg"
   inkscape:version="1.4 (86a8ad7, 2024-10-11)"
   xmlns:inkscape="http://www.inkscape.org/namespaces/inkscape"
   xmlns:sodipodi="http://sodipodi.sourceforge.net/DTD/sodipodi-0.dtd"
   xmlns="http://www.w3.org/2000/svg"
   xmlns:svg="http://www.w3.org/2000/svg">
  <sodipodi:namedview
     id="namedview1"
     pagecolor="#ffffff"
     bordercolor="#000000"
     borderopacity="0.25"
     inkscape:showpageshadow="2"
     inkscape:pageopacity="0.0"
     inkscape:pagecheckerboard="true"
     inkscape:deskcolor="#d1d1d1"
     inkscape:document-units="px"
     inkscape:zoom="16"
     inkscape:cx="22.65625"
     inkscape:cy="9.96875"
     inkscape:window-width="1920"
     inkscape:window-height="1009"
     inkscape:window-x="1912"
     inkscape:window-y="-8"
     inkscape:window-maximized="1"
     inkscape:current-layer="svg1" />
  <defs
     id="defs1" />
  <g
     id="use61"
     transform="matrix(0.26458333,0,0,0.26458333,-40.788156,-19.698835)"
     inkscape:label="Hand">
    <path
       fill="#fc5c65"
       stroke="none"
       d="m 170.30996,82.45229 c -4.43469,0 -8.15,3.521133 -8.15,8.1 0,4.058521 3.28808,7.900001 8.15,7.900001 4.38036,0 7.85,-3.456415 7.85,-7.900001 0,-4.97131 -3.90646,-8.1 -7.85,-8.1"
       id="path119"
       sodipodi:nodetypes="csssc"
       style="fill:#ffffff;fill-opacity:1"
       inkscape:label="Background" />
    <path
       fill="#2a2a2a"
       stroke="none"
       d="m 177,84.750001 v 0 c -1.21432,-1.448307 -2.78099,-2.331641 -4.7,-2.65 v 0 c -1.80899,-0.246745 -3.27565,-0.263411 -4.4,-0.05 h -0.05 c -1.21172,0.291146 -2.26172,0.891146 -3.15,1.8 v 0 c -0.74922,0.842839 -1.54922,1.859505 -2.4,3.05 v 0.05 c -0.90951,1.42487 -1.19284,3.008203 -0.85,4.75 v 0 c 0.39818,1.707422 1.06485,2.990755 2,3.85 v 0 c 0.87813,0.816276 1.89479,1.632943 3.05,2.45 1.52877,1.092578 3.81471,1.292578 5.18594,0.6 1.09883,-0.507292 1.51958,-0.248591 2.78742,-0.941299 v 0.05 c 1.46263,-0.733594 2.42261,-2.475628 3.02664,-3.508701 l -0.05,0.05 c 0.65039,-0.911328 1.15039,-2.227995 1.5,-3.95 0.0385,-0.09219 0.0552,-0.192187 0.05,-0.3 0.10686,-2.271971 -0.58887,-3.480832 -2,-5.25 m -1.55,1.3 v -0.05 c 0.83919,1.021354 1.30586,1.588021 1.4,1.7 -0.002,0.234115 0.048,1.017448 0.15,2.35 -0.30209,1.339063 -0.70209,2.372396 -1.2,3.1 v 0 c -0.46263,0.733594 -1.15594,2.225628 -2.22664,2.758701 h -0.05 c -1.23216,0.673958 -1.61958,0.39859 -2.68742,0.891299 -0.72851,0.307682 -2.34779,0.157682 -3.18594,-0.45 -1.07799,-0.749739 -2.02799,-1.499739 -2.85,-2.25 h 0.05 c -0.66485,-0.640755 -1.14818,-1.590755 -1.45,-2.85 -0.21979,-1.164713 -0.0198,-2.23138 0.6,-3.2 h -0.05 c 0.78242,-1.109505 1.51575,-2.059505 2.2,-2.85 v 0.05 c 0.61172,-0.624609 1.32839,-1.041276 2.15,-1.25 0.95521,-0.151432 2.18854,-0.118099 3.7,0.1 1.41419,0.223437 2.56419,0.873437 3.45,1.95"
       id="path120"
       sodipodi:nodetypes="csssccssccsssscccccccccccccsscccccccccccccc"
       inkscape:label="Foreground" />
  </g>
</svg>
